<svg width="36" height="36" viewBox="0 0 36 36" fill="none" xmlns="http://www.w3.org/2000/svg">
<g id="gift__M 1">
<path id="Vector" d="M34.52 6.87012H23.85C24.434 6.2107 24.7576 5.36097 24.76 4.48012C24.75 3.69221 24.4881 2.92819 24.0125 2.29991C23.537 1.67163 22.8728 1.21208 22.1172 0.988527C21.3616 0.764979 20.5543 0.789175 19.8134 1.05757C19.0726 1.32597 18.4371 1.82448 18 2.48012C17.563 1.82448 16.9275 1.32597 16.1866 1.05757C15.4458 0.789175 14.6385 0.764979 13.8829 0.988527C13.1273 1.21208 12.4631 1.67163 11.9875 2.29991C11.512 2.92819 11.25 3.69221 11.24 4.48012C11.2425 5.36097 11.566 6.2107 12.15 6.87012H1.48004C1.29704 6.87012 1.12154 6.94281 0.992135 7.07221C0.862735 7.20161 0.790039 7.37712 0.790039 7.56012V18.3401C0.790039 18.5231 0.862735 18.6986 0.992135 18.828C1.12154 18.9574 1.29704 19.0301 1.48004 19.0301H2.82004V34.5201C2.81871 34.6103 2.83532 34.6998 2.8689 34.7834C2.90248 34.8671 2.95236 34.9432 3.01564 35.0074C3.07891 35.0716 3.15432 35.1226 3.23748 35.1574C3.32064 35.1922 3.40989 35.2101 3.50004 35.2101H32.5C32.5902 35.2101 32.6794 35.1922 32.7626 35.1574C32.8458 35.1226 32.9212 35.0716 32.9844 35.0074C33.0477 34.9432 33.0976 34.8671 33.1312 34.7834C33.1648 34.6998 33.1814 34.6103 33.18 34.5201V19.0001H34.52C34.6107 19.0001 34.7004 18.9823 34.7841 18.9476C34.8678 18.9129 34.9439 18.8621 35.0079 18.798C35.072 18.7339 35.1228 18.6579 35.1575 18.5742C35.1922 18.4905 35.21 18.4007 35.21 18.3101V7.56012C35.21 7.37712 35.1373 7.20161 35.0079 7.07221C34.8785 6.94281 34.703 6.87012 34.52 6.87012V6.87012ZM18.76 4.48012C18.76 4.02324 18.8955 3.57663 19.1493 3.19675C19.4032 2.81687 19.7639 2.52079 20.186 2.34596C20.6081 2.17112 21.0726 2.12537 21.5207 2.2145C21.9688 2.30364 22.3804 2.52364 22.7035 2.8467C23.0265 3.16976 23.2465 3.58136 23.3357 4.02946C23.4248 4.47755 23.379 4.94202 23.2042 5.36412C23.0294 5.78621 22.7333 6.14699 22.3534 6.40081C21.9735 6.65464 21.5269 6.79012 21.07 6.79012H18.69V6.65012L18.76 4.50012V4.48012ZM14.93 2.16012C15.2342 2.16011 15.5354 2.22019 15.8164 2.33691C16.0973 2.45362 16.3524 2.62467 16.567 2.84023C16.7816 3.0558 16.9516 3.31163 17.0671 3.59305C17.1826 3.87446 17.2414 4.17592 17.24 4.48012L17.31 6.63012V6.77012H14.93C14.3424 6.73147 13.7914 6.47077 13.3888 6.04087C12.9863 5.61097 12.7623 5.04407 12.7623 4.45512C12.7623 3.86617 12.9863 3.29926 13.3888 2.86937C13.7914 2.43947 14.3424 2.17876 14.93 2.14012V2.16012ZM2.17004 8.25012H17.3V17.6501H2.17004V8.25012ZM4.17004 19.0601H17.3V33.8401H4.19004L4.17004 19.0601ZM31.81 33.8401H18.67V19.0601H31.81V33.8401ZM33.81 17.6501H18.67V8.25012H33.83L33.81 17.6501Z" fill="#222222"/>
</g>
</svg>
