<svg width="36" height="36" viewBox="0 0 36 36" fill="none" xmlns="http://www.w3.org/2000/svg">
<g id="like_M 1">
<path id="Vector" d="M34.34 13.13C33.9636 12.6691 33.4891 12.2979 32.9511 12.0436C32.4131 11.7893 31.8251 11.6583 31.23 11.66H22.23V6.48002C22.2261 5.72848 22.0739 4.9851 21.782 4.29252C21.4902 3.59994 21.0645 2.97179 20.5294 2.44409C19.9942 1.91639 19.3602 1.49952 18.6636 1.21739C17.967 0.935268 17.2216 0.793433 16.47 0.800024C16.3377 0.799277 16.208 0.836587 16.0963 0.907506C15.9846 0.978426 15.8956 1.07997 15.84 1.20002L9.06004 15.83H1.48004C1.29704 15.83 1.12154 15.9027 0.992135 16.0321C0.862735 16.1615 0.790039 16.337 0.790039 16.52V34.52C0.790039 34.703 0.862735 34.8785 0.992135 35.0079C1.12154 35.1373 1.29704 35.21 1.48004 35.21H9.62004H9.74004H28.22C29.0866 35.2118 29.9272 34.9142 30.5996 34.3675C31.272 33.8208 31.7349 33.0587 31.91 32.21L35.13 16.34C35.2457 15.7799 35.2348 15.201 35.0981 14.6457C34.9615 14.0903 34.7025 13.5725 34.34 13.13V13.13ZM8.94004 33.82H2.16004V17.21H8.94004V33.82ZM33.79 16.07L30.56 31.94C30.4429 32.4716 30.1464 32.9467 29.7203 33.2854C29.2941 33.6242 28.7644 33.8059 28.22 33.8H10.37V16.28L16.9 2.20002C17.9664 2.30168 18.957 2.79592 19.6795 3.5868C20.4021 4.37769 20.805 5.40881 20.81 6.48002V12.35C20.81 12.533 20.8827 12.7085 21.0121 12.8379C21.1415 12.9673 21.317 13.04 21.5 13.04H31.23C31.6165 13.0488 31.9963 13.1431 32.3421 13.3159C32.6879 13.4888 32.9911 13.7361 33.23 14.04C33.4654 14.3173 33.6375 14.6426 33.7342 14.9932C33.8309 15.3438 33.85 15.7113 33.79 16.07V16.07Z" fill="#222222"/>
</g>
</svg>
