<svg width="36" height="36" viewBox="0 0 36 36" fill="none" xmlns="http://www.w3.org/2000/svg">
<g id="kiosk_M 1">
<path id="Vector" d="M34.7 13.07L25.04 11.1L23.72 7.68004C23.62 7.43004 23.39 7.27004 23.12 7.27004H22.66C22.49 5.88004 21.46 4.71004 20.06 4.21004V2.18004C20.06 1.83004 19.77 1.54004 19.42 1.54004H17.61C17.26 1.54004 16.97 1.83004 16.97 2.18004V4.21004C15.57 4.71004 14.54 5.88004 14.37 7.27004H13.61C13.38 7.27004 13.17 7.39004 13.05 7.59004L11.03 11.08L1.30004 13.07C1.00004 13.13 0.790039 13.39 0.790039 13.7V15.69C0.790039 16 1.01004 16.27 1.32004 16.32L8.72004 17.65H8.39004V25.02L7.72004 24.79C7.39004 24.67 7.02004 24.85 6.90004 25.19C6.78004 25.52 6.96004 25.89 7.30004 26.01L8.39004 26.39V32.45L13.12 34.48H23.15L27.63 32.44V26.58L28.41 26.36C28.75 26.26 28.95 25.91 28.86 25.57C28.76 25.23 28.41 25.03 28.07 25.12L27.64 25.24V17.65H27.54L34.71 16.32C35.01 16.26 35.23 16 35.23 15.69V13.7C35.23 13.39 35.02 13.13 34.72 13.07H34.7ZM18.25 2.82004H18.77V3.96004C18.68 3.96004 18.6 3.95004 18.51 3.95004C18.42 3.95004 18.34 3.95004 18.25 3.96004V2.82004V2.82004ZM18.51 5.23004C19.94 5.23004 21.12 6.12004 21.35 7.27004H15.67C15.9 6.11004 17.08 5.23004 18.51 5.23004ZM9.66004 17.72H12.85V26.58L9.66004 25.47V17.72ZM14.13 27.96H21.91V33.18H14.13V27.96ZM21.91 26.68H14.13V17.72H21.91V26.68ZM9.65004 26.83L12.82 27.93C12.82 27.93 12.83 27.93 12.84 27.93V32.96L9.65004 31.59V26.82V26.83ZM26.32 31.61L23.19 33.03V27.81L26.32 26.94V31.61ZM23.19 26.48V17.72H26.32V25.6L23.19 26.47V26.48ZM33.91 15.16L27.02 16.44H9.20004L2.07004 15.16V14.23L11.56 12.29C11.74 12.25 11.89 12.14 11.99 11.98L13.97 8.56004H22.68L23.97 11.89C24.05 12.09 24.23 12.24 24.44 12.29L33.93 14.23V15.16H33.91Z" fill="#222222"/>
</g>
</svg>
