<svg width="36" height="36" viewBox="0 0 36 36" fill="none" xmlns="http://www.w3.org/2000/svg">
<g id="house_M 1">
<path id="Vector" d="M34.9 12.2L17.44 0.899992C17.25 0.779992 17.02 0.759992 16.81 0.839992L1.22003 6.98999C0.960029 7.08999 0.780029 7.34999 0.780029 7.62999V34.53C0.780029 34.91 1.09003 35.22 1.47003 35.22H34.52C34.9 35.22 35.21 34.91 35.21 34.53V12.78C35.21 12.55 35.09 12.33 34.9 12.2ZM17.65 12.25V15.61H13.48V12.25H17.65ZM12.1 15.61H7.72003V12.25H12.09V15.61H12.1ZM6.35003 15.61H2.17003V12.25H6.34003V15.61H6.35003ZM18.42 33.84V22.48H23.42V33.84H18.42ZM24.8 33.84V22.48H29.8V33.84H24.8ZM33.85 33.84H31.18V21.79C31.18 21.41 30.87 21.1 30.49 21.1H17.74C17.36 21.1 17.05 21.41 17.05 21.79V33.84H2.17003V16.98H18.33C18.71 16.98 19.02 16.67 19.02 16.29V11.55C19.02 11.17 18.71 10.86 18.33 10.86H2.17003V8.08999L16.99 2.24999L33.83 13.15V33.83L33.85 33.84Z" fill="#222222"/>
</g>
</svg>
