<svg width="36" height="36" viewBox="0 0 36 36" fill="none" xmlns="http://www.w3.org/2000/svg">
<g id="roast_M 1">
<g id="Group">
<path id="Vector" d="M35.1801 23.55V23.44C35.1801 19.73 32.1601 16.71 28.4501 16.71H10.8001C5.30007 16.72 0.820068 21.2 0.820068 26.7C0.820068 27.61 1.15007 28.45 1.70007 29.1H1.52007C1.14007 29.1 0.830068 29.41 0.830068 29.79C0.830068 32.78 3.27007 35.22 6.26007 35.22H29.7401C32.7301 35.22 35.1701 32.78 35.1701 29.79C35.1701 29.41 34.8601 29.1 34.4801 29.1H33.8101C33.8101 29.1 33.7601 29.08 33.7301 29.08H32.9201C32.9201 29.08 32.9001 29.08 32.8901 29.08H32.3901C34.0801 27.83 35.1801 25.82 35.1801 23.56V23.55ZM5.82007 26.69C5.82007 21.96 9.65007 18.12 14.3701 18.09C11.4201 19.82 9.43007 23.02 9.43007 26.69C9.43007 27.58 9.75007 28.4 10.2701 29.05H8.17007C6.87007 29.05 5.81007 27.99 5.81007 26.69H5.82007ZM15.8401 26.69C15.8401 21.95 19.7001 18.09 24.4401 18.09H24.8001C21.6101 19.75 19.4401 23.02 19.4401 26.78C19.4401 27.64 19.7401 28.42 20.2501 29.05H18.2001C16.9001 29.05 15.8401 27.99 15.8401 26.69V26.69ZM31.5201 19.06C27.3501 19.6 24.1301 23.07 24.1301 27.26C24.1301 27.92 24.3401 28.53 24.6901 29.04H22.7601C21.6501 28.83 20.8101 27.9 20.8101 26.77C20.8101 22.1 24.7401 18.29 29.5701 18.29H29.9201C30.5001 18.46 31.0401 18.72 31.5201 19.05V19.06ZM33.7101 22.45H33.5701C30.3601 22.45 27.7501 24.99 27.7501 28.12C27.7501 28.45 27.8201 28.76 27.9501 29.04H27.2001C26.2601 28.95 25.5201 28.19 25.5201 27.26C25.5201 23.45 28.7201 20.35 32.6601 20.35H32.8401C33.2801 20.97 33.5901 21.68 33.7301 22.45H33.7101ZM29.1201 28.12C29.1201 25.75 31.1201 23.82 33.5701 23.82H33.8001C33.6701 26.3 31.9001 28.35 29.5501 28.89C29.2901 28.72 29.1201 28.44 29.1201 28.12V28.12ZM19.4101 18.08C16.4601 19.81 14.4601 23.02 14.4601 26.68C14.4601 27.57 14.7801 28.39 15.3001 29.04H13.1601C11.8601 29.04 10.8001 27.98 10.8001 26.68C10.8001 21.94 14.6601 18.08 19.4001 18.08H19.4101ZM9.12007 18.25C6.32007 20.02 4.45007 23.13 4.45007 26.68C4.45007 27.57 4.77007 28.39 5.29007 29.04H4.56007C3.26007 29.04 2.20007 27.98 2.20007 26.68C2.20007 22.51 5.18007 19.03 9.12007 18.25ZM29.7401 33.82H6.25007C4.25007 33.82 2.58007 32.36 2.25007 30.45H23.1601C23.1601 30.45 23.2001 30.45 23.2201 30.45H33.7301C33.4001 32.36 31.7301 33.81 29.7301 33.81L29.7401 33.82Z" fill="#222222"/>
<path id="Vector_2" d="M9.67009 12.78L8.70009 13.75C8.43009 14.02 8.43009 14.45 8.70009 14.72C8.83009 14.85 9.01009 14.92 9.19009 14.92C9.37009 14.92 9.54009 14.85 9.68009 14.72L10.6501 13.75C11.8801 12.52 11.8801 10.52 10.6501 9.29003C9.88009 8.52003 9.46009 7.50003 9.46009 6.42003C9.46009 5.34003 9.88009 4.32003 10.6501 3.55003L12.2501 1.95003C12.5201 1.68003 12.5201 1.25003 12.2501 0.980027C11.9801 0.710027 11.5501 0.710027 11.2801 0.980027L9.68009 2.58003C8.65009 3.61003 8.09009 4.97003 8.09009 6.42003C8.09009 7.87003 8.66009 9.24003 9.68009 10.26C10.3701 10.95 10.3701 12.08 9.68009 12.77L9.67009 12.78Z" fill="#222222"/>
<path id="Vector_3" d="M17.7402 12.78L16.7702 13.75C16.5002 14.02 16.5002 14.45 16.7702 14.72C16.9002 14.85 17.0802 14.92 17.2602 14.92C17.4402 14.92 17.6102 14.85 17.7502 14.72L18.7202 13.75C19.9502 12.52 19.9502 10.52 18.7202 9.29003C17.9502 8.52003 17.5302 7.50003 17.5302 6.42003C17.5302 5.34003 17.9502 4.32003 18.7202 3.55003L20.3202 1.95003C20.5902 1.68003 20.5902 1.25003 20.3202 0.980027C20.0502 0.710027 19.6202 0.710027 19.3502 0.980027L17.7502 2.58003C16.7202 3.61003 16.1602 4.97003 16.1602 6.42003C16.1602 7.87003 16.7302 9.24003 17.7502 10.26C18.4402 10.95 18.4402 12.08 17.7502 12.77L17.7402 12.78Z" fill="#222222"/>
<path id="Vector_4" d="M26.32 11.52C26.32 11.99 26.13 12.44 25.8 12.78L24.83 13.75C24.56 14.02 24.56 14.45 24.83 14.72C24.96 14.85 25.14 14.92 25.32 14.92C25.5 14.92 25.67 14.85 25.81 14.72L26.78 13.75C27.38 13.15 27.7 12.36 27.7 11.52C27.7 10.68 27.37 9.89003 26.78 9.29003C25.2 7.71003 25.2 5.13003 26.78 3.55003L28.38 1.95003C28.65 1.68003 28.65 1.25003 28.38 0.980027C28.11 0.710027 27.68 0.710027 27.41 0.980027L25.81 2.58003C23.69 4.70003 23.69 8.15003 25.81 10.26C26.15 10.6 26.33 11.04 26.33 11.52H26.32Z" fill="#222222"/>
</g>
</g>
</svg>
