<svg width="36" height="36" viewBox="0 0 36 36" fill="none" xmlns="http://www.w3.org/2000/svg">
<g id="apple_M 1">
<g id="Group">
<path id="Vector" d="M31.3199 14.28C30.3499 12.15 28.6099 10.82 26.1599 10.33C24.3099 9.96001 22.3799 10.28 20.8499 11.2C20.1799 11.61 19.3899 11.82 18.5799 11.84C18.5999 10.45 18.8599 8.53001 20.7499 7.57001C21.0899 7.40001 21.2199 6.98001 21.0499 6.65001C20.8799 6.31001 20.4599 6.18001 20.1299 6.35001C17.3099 7.79001 17.2199 10.76 17.2099 11.83C16.4799 11.78 15.7699 11.58 15.1599 11.21C13.6299 10.29 11.6999 9.97001 9.84991 10.34C7.39991 10.83 5.65991 12.16 4.68991 14.29C2.85991 18.31 4.27991 24.69 6.53991 28.65C7.31991 30.01 8.27991 31.31 9.38991 32.52C10.4299 33.65 12.5099 35.23 14.5999 35.23C15.0799 35.23 15.5599 35.15 16.0299 34.96C16.7099 34.68 17.3799 34.22 18.0099 33.57C18.6399 34.22 19.3099 34.69 19.9899 34.96C22.5099 35.98 25.3499 33.91 26.6299 32.52C27.7499 31.31 28.7099 30.01 29.4799 28.65C31.7399 24.69 33.1599 18.31 31.3299 14.29L31.3199 14.28ZM28.2799 27.96C27.5599 29.23 26.6599 30.45 25.6099 31.58C24.2599 33.04 22.0899 34.32 20.4899 33.67C19.9899 33.47 19.4799 33.11 18.9799 32.59C18.7199 32.32 18.3699 32.17 17.9899 32.17C17.6199 32.17 17.2699 32.32 16.9999 32.59C16.5099 33.1 15.9999 33.46 15.4899 33.67C13.8899 34.31 11.7199 33.03 10.3699 31.58C9.31991 30.45 8.42991 29.23 7.69991 27.96C5.90991 24.82 4.16991 18.68 5.90991 14.85C6.68991 13.14 8.08991 12.07 10.0899 11.67C10.5099 11.59 10.9299 11.55 11.3499 11.55C12.4499 11.55 13.5199 11.83 14.4199 12.37C16.0299 13.38 17.7799 14.1 19.6299 14.52C20.2199 14.66 20.8299 14.72 21.4399 14.72C22.1699 14.72 22.9099 14.62 23.6299 14.43C23.9999 14.33 24.2099 13.95 24.1099 13.59C24.0099 13.22 23.6299 13.01 23.2699 13.11C22.1799 13.41 21.0299 13.44 19.9399 13.19C19.8299 13.16 19.7199 13.13 19.5999 13.1C20.2799 12.97 20.9299 12.74 21.5199 12.38C22.7599 11.63 24.3399 11.38 25.8499 11.68C27.8499 12.08 29.2499 13.15 30.0299 14.86C31.7699 18.68 30.0299 24.83 28.2399 27.97L28.2799 27.96Z" fill="#222222"/>
<path id="Vector_2" d="M10.23 8.05C11.23 8.66 12.36 8.97 13.53 8.97C14.7 8.97 15.83 8.68 16.92 8.09C17.12 7.98 17.26 7.78 17.28 7.55C17.5 5.15 16.42 2.91 14.45 1.71C12.48 0.499997 9.97 0.479997 7.76 1.67C7.56 1.78 7.42 1.98 7.4 2.21C7.18 4.61 8.26 6.85 10.23 8.05ZM13.74 2.88C15.17 3.76 15.98 5.3 15.94 7.05C14.25 7.83 12.41 7.77 10.95 6.88C9.52 6 8.71 4.46 8.75 2.71C10.44 1.93 12.28 1.99 13.74 2.88Z" fill="#222222"/>
</g>
</g>
</svg>
