<svg width="36" height="36" viewBox="0 0 36 36" fill="none" xmlns="http://www.w3.org/2000/svg">
<g id="restaurant_M 1">
<g id="Group">
<path id="Vector" d="M14.26 33.74H8.56003V27.06C12.14 26.71 14.95 23.69 14.95 20.02V5.51996C14.95 5.13996 14.64 4.82996 14.26 4.82996H1.49003C1.11003 4.82996 0.800029 5.13996 0.800029 5.51996V20.02C0.800029 23.69 3.61003 26.71 7.19003 27.06V33.74H1.47003C1.09003 33.74 0.780029 34.05 0.780029 34.43C0.780029 34.81 1.09003 35.12 1.47003 35.12H14.26C14.64 35.12 14.95 34.81 14.95 34.43C14.95 34.05 14.64 33.74 14.26 33.74V33.74ZM13.57 6.20996V13.96H2.17003V6.19996H13.57V6.20996ZM2.17003 20.02V15.33H13.57V20.02C13.57 23.16 11.01 25.72 7.87003 25.72C4.73003 25.72 2.17003 23.16 2.17003 20.02Z" fill="#222222"/>
<path id="Vector_2" d="M26.39 0.829956C26.01 0.829956 25.7 1.13996 25.7 1.51996V6.45996H22.75V1.51996C22.75 1.13996 22.44 0.829956 22.06 0.829956C21.68 0.829956 21.37 1.13996 21.37 1.51996V6.45996H18.42V1.51996C18.42 1.13996 18.11 0.829956 17.73 0.829956C17.35 0.829956 17.04 1.13996 17.04 1.51996V7.13996V7.91996C17.04 10.45 18.93 12.54 21.37 12.88V34.45C21.37 34.83 21.68 35.14 22.06 35.14C22.44 35.14 22.75 34.83 22.75 34.45V12.87C25.19 12.53 27.07 10.44 27.07 7.90996V1.51996C27.07 1.13996 26.76 0.829956 26.38 0.829956H26.39ZM22.07 11.55C20.06 11.55 18.43 9.91996 18.43 7.90996V7.83996H25.71V7.90996C25.71 9.91996 24.08 11.55 22.07 11.55Z" fill="#222222"/>
<path id="Vector_3" d="M34.5301 0.789978C31.5401 0.789978 29.1101 3.21998 29.1101 6.20998V22.31C29.1101 22.69 29.4201 23 29.8001 23H33.8401V34.52C33.8401 34.9 34.1501 35.21 34.5301 35.21C34.9101 35.21 35.2201 34.9 35.2201 34.52V1.47998C35.2201 1.09998 34.9101 0.789978 34.5301 0.789978ZM30.4901 6.20998C30.4901 4.20998 31.9401 2.54998 33.8501 2.22998V21.63H30.4901V6.20998Z" fill="#222222"/>
</g>
</g>
</svg>
