<svg width="36" height="36" viewBox="0 0 36 36" fill="none" xmlns="http://www.w3.org/2000/svg">
<g id="flower_M 1">
<g id="Group">
<path id="Vector" d="M18.85 8.32993C20.89 8.32993 22.55 6.66993 22.55 4.62993C22.55 2.58993 20.89 0.929932 18.85 0.929932C16.81 0.929932 15.15 2.58993 15.15 4.62993C15.15 6.66993 16.81 8.32993 18.85 8.32993ZM18.85 2.30993C20.13 2.30993 21.17 3.34993 21.17 4.62993C21.17 5.90993 20.13 6.94993 18.85 6.94993C17.57 6.94993 16.53 5.90993 16.53 4.62993C16.53 3.34993 17.57 2.30993 18.85 2.30993V2.30993Z" fill="#222222"/>
<path id="Vector_2" d="M19.54 23.4899C19.58 22.5499 20.12 21.4899 21 20.6599C22.19 19.5299 23.75 19.0099 24.89 19.3599C25.25 19.4699 25.64 19.2699 25.76 18.9099C25.88 18.5499 25.67 18.1599 25.31 18.0399C23.68 17.5299 21.62 18.1599 20.05 19.6499C19.86 19.8299 19.69 20.0299 19.52 20.2199C19.53 20.1699 19.55 20.1299 19.55 20.0799V16.0299C19.59 15.0899 20.13 14.0299 21.01 13.1999C22.2 12.0699 23.76 11.5499 24.9 11.8999C25.26 12.0099 25.65 11.8099 25.77 11.4499C25.88 11.0899 25.68 10.6999 25.32 10.5799C23.69 10.0699 21.63 10.6999 20.06 12.1899C19.57 12.6499 19.18 13.1699 18.87 13.7099C18.56 13.1699 18.16 12.6499 17.68 12.1899C16.12 10.6999 14.05 10.0599 12.42 10.5799C12.06 10.6899 11.85 11.0799 11.97 11.4499C12.08 11.8099 12.48 12.0199 12.84 11.8999C13.98 11.5399 15.54 12.0599 16.73 13.1999C17.6 14.0299 18.15 15.0899 18.19 16.0299V20.0799C18.19 20.1299 18.21 20.1799 18.22 20.2199C18.06 20.0199 17.88 19.8299 17.69 19.6499C16.13 18.1599 14.06 17.5199 12.43 18.0299C12.07 18.1399 11.86 18.5299 11.98 18.8999C12.09 19.2599 12.48 19.4699 12.85 19.3499C13.99 18.9899 15.55 19.5099 16.74 20.6499C17.61 21.4799 18.16 22.5399 18.2 23.4799V27.2999C18.04 27.1199 17.88 26.9299 17.7 26.7599C16.14 25.2699 14.07 24.6299 12.44 25.1399C12.08 25.2499 11.87 25.6399 11.99 26.0099C12.11 26.3799 12.49 26.5799 12.86 26.4599C14 26.0999 15.56 26.6199 16.75 27.7599C17.62 28.5899 18.17 29.6499 18.21 30.5899V34.6399C18.21 35.0199 18.52 35.3299 18.9 35.3299C19.28 35.3299 19.59 35.0199 19.59 34.6399V30.5899C19.63 29.6499 20.17 28.5899 21.05 27.7599C22.24 26.6299 23.8 26.1099 24.94 26.4599C25.3 26.5699 25.69 26.3699 25.81 26.0099C25.93 25.6499 25.72 25.2599 25.36 25.1399C23.73 24.6299 21.67 25.2599 20.1 26.7499C19.92 26.9199 19.76 27.0999 19.6 27.2899V23.4699L19.54 23.4899Z" fill="#222222"/>
</g>
</g>
</svg>
