<svg width="36" height="36" viewBox="0 0 36 36" fill="none" xmlns="http://www.w3.org/2000/svg">
<g id="plant_M 1">
<path id="Vector" d="M31.8 2.13994C29.98 0.689944 27.6 0.379944 25.6 1.32994C23.72 2.20994 22.41 4.15994 22.08 6.44994C17.99 8.65994 16.25 12.1999 15.51 15.2999C15.07 13.9399 14.39 12.6499 13.3 11.4799C13.23 9.52994 12.14 7.72994 10.38 6.72994C8.52001 5.66994 6.26001 5.62994 4.33001 6.60994C4.10001 6.72994 3.96001 6.95994 3.95001 7.20994C3.91001 9.27994 5.03001 11.2199 6.88001 12.2699C7.85001 12.8199 8.92001 13.0999 10 13.0999C10.83 13.0999 11.66 12.9299 12.45 12.5999C14.3 14.6799 14.71 17.2099 14.9 20.0399H6.83001C6.45001 20.0399 6.14001 20.3499 6.14001 20.7299V25.8699C6.14001 28.6399 8.39001 30.8899 11.16 30.8899H11.55V34.5299C11.55 34.9099 11.86 35.2199 12.24 35.2199H18.74C19.12 35.2199 19.43 34.9099 19.43 34.5299V30.8899H19.82C22.59 30.8899 24.84 28.6399 24.84 25.8699V20.7299C24.84 20.3499 24.53 20.0399 24.15 20.0399H16.32C16.42 15.9899 17.32 10.6399 22.65 7.71994C23.69 8.42994 24.87 8.78994 26.05 8.78994C26.88 8.78994 27.7 8.60994 28.47 8.24994C30.45 7.31994 31.82 5.20994 32.04 2.74994C32.06 2.51994 31.96 2.28994 31.78 2.14994L31.8 2.13994ZM7.56001 11.0699C6.26001 10.3299 5.45001 9.06994 5.34001 7.64994C6.75001 7.06994 8.39001 7.16994 9.70001 7.90994C11 8.64994 11.81 9.90994 11.92 11.3299C10.51 11.8999 8.87001 11.8099 7.56001 11.0699ZM18.06 33.8399H12.94V30.8899H18.06V33.8399ZM23.47 25.8699C23.47 27.8799 21.84 29.5099 19.83 29.5099H11.16C9.15001 29.5099 7.52001 27.8799 7.52001 25.8699V21.4099H23.47V25.8699ZM27.89 6.98994C26.45 7.66994 24.8 7.50994 23.43 6.56994C23.7 4.77994 24.75 3.23994 26.17 2.56994C27.61 1.88994 29.26 2.04994 30.63 2.98994C30.36 4.77994 29.31 6.31994 27.89 6.98994Z" fill="#222222"/>
</g>
</svg>
