<svg width="36" height="36" viewBox="0 0 36 36" fill="none" xmlns="http://www.w3.org/2000/svg">
<g id="tea_M 1">
<g id="Group">
<path id="Vector" d="M29.17 18.9C29.2 18.45 29.22 17.99 29.22 17.53C29.22 17.15 28.91 16.84 28.53 16.84H1.48004C1.10004 16.84 0.790039 17.15 0.790039 17.53C0.790039 27.22 7.17004 35.11 15 35.11C18.46 35.11 21.63 33.57 24.1 31.02C24.13 31.02 24.15 31.03 24.17 31.03H29.13C32.48 31.03 35.2 28.31 35.2 24.96C35.2 21.61 32.49 18.9 29.16 18.89L29.17 18.9ZM15 33.74C8.22004 33.74 2.47004 26.7 2.18004 18.23H27.83C27.53 26.71 21.78 33.74 15.01 33.74H15ZM29.14 29.67H25.28C27.24 27.14 28.59 23.89 29.05 20.28H29.15C31.74 20.28 33.85 22.39 33.85 24.98C33.85 27.57 31.74 29.68 29.15 29.68L29.14 29.67Z" fill="#222222"/>
<path id="Vector_2" d="M7.23004 12.71L6.27004 13.67C6.00004 13.94 6.00004 14.38 6.27004 14.64C6.40004 14.77 6.58004 14.84 6.76004 14.84C6.94004 14.84 7.11004 14.77 7.25004 14.64L8.21004 13.68C9.43004 12.46 9.43004 10.49 8.21004 9.27001C7.46004 8.52001 7.04004 7.51001 7.04004 6.45001C7.04004 5.39001 7.46004 4.38001 8.21004 3.63001L9.78004 2.06001C10.05 1.79001 10.05 1.35001 9.78004 1.09001C9.51004 0.820012 9.07004 0.820012 8.81004 1.09001L7.24004 2.66001C6.23004 3.67001 5.67004 5.02001 5.67004 6.46001C5.67004 7.90001 6.23004 9.24001 7.24004 10.26C7.92004 10.94 7.92004 12.04 7.24004 12.72L7.23004 12.71Z" fill="#222222"/>
<path id="Vector_3" d="M15.18 12.71L14.22 13.67C13.95 13.94 13.95 14.38 14.22 14.64C14.35 14.77 14.53 14.84 14.71 14.84C14.89 14.84 15.06 14.77 15.2 14.64L16.16 13.68C16.75 13.09 17.07 12.31 17.07 11.47C17.07 10.63 16.75 9.85 16.16 9.27C15.41 8.52 14.99 7.51 14.99 6.45C14.99 5.39 15.41 4.38 16.16 3.63L17.73 2.06C18 1.79 18 1.35 17.73 1.09C17.46 0.830003 17.02 0.820003 16.76 1.09L15.19 2.66C14.18 3.67 13.62 5.02 13.62 6.46C13.62 7.9 14.18 9.24 15.19 10.26C15.87 10.94 15.87 12.04 15.19 12.72L15.18 12.71Z" fill="#222222"/>
<path id="Vector_4" d="M23.13 12.71L22.17 13.67C21.9 13.94 21.9 14.38 22.17 14.64C22.3 14.77 22.48 14.84 22.66 14.84C22.84 14.84 23.01 14.77 23.15 14.64L24.11 13.68C24.7 13.09 25.02 12.31 25.02 11.47C25.02 10.63 24.69 9.85001 24.11 9.27001C22.55 7.71001 22.55 5.18001 24.11 3.63001L25.68 2.06001C25.95 1.79001 25.95 1.35001 25.68 1.09001C25.41 0.820012 24.97 0.820012 24.71 1.09001L23.14 2.66001C21.05 4.75001 21.05 8.16001 23.14 10.25C23.82 10.93 23.82 12.03 23.14 12.71H23.13Z" fill="#222222"/>
</g>
</g>
</svg>
