<svg width="36" height="36" viewBox="0 0 36 36" fill="none" xmlns="http://www.w3.org/2000/svg">
<g id="wine_M 1">
<g id="Group">
<path id="Vector" d="M15.3 33.84H9.58004V27.14C13.17 26.79 15.98 23.76 15.98 20.08V5.53998C15.98 5.15998 15.67 4.84998 15.29 4.84998H2.49004C2.11004 4.84998 1.80004 5.15998 1.80004 5.53998V20.08C1.80004 23.76 4.61004 26.79 8.20004 27.14V33.84H2.48004C2.10004 33.84 1.79004 34.15 1.79004 34.53C1.79004 34.91 2.10004 35.22 2.48004 35.22H15.3C15.68 35.22 15.99 34.91 15.99 34.53C15.99 34.15 15.68 33.84 15.3 33.84V33.84ZM14.6 6.22998V14H3.18004V6.22998H14.61H14.6ZM3.18004 20.08V15.38H14.61V20.08C14.61 23.23 12.05 25.79 8.90004 25.79C5.75004 25.79 3.19004 23.23 3.19004 20.08H3.18004Z" fill="#222222"/>
<path id="Vector_2" d="M29.53 9.64998V1.47998C29.53 1.09998 29.22 0.789978 28.84 0.789978H23.39C23.01 0.789978 22.7 1.09998 22.7 1.47998V9.64998C19.84 10.98 18.02 13.8 18.02 16.98V34.51C18.02 34.89 18.33 35.2 18.71 35.2H33.51C33.89 35.2 34.2 34.89 34.2 34.51V16.99C34.2 13.81 32.38 10.98 29.52 9.65998L29.53 9.64998ZM19.4 18.37H32.83V29.82H19.4V18.37ZM23.64 10.75C23.9 10.65 24.08 10.39 24.08 10.11V2.15998H28.15V10.1C28.15 10.38 28.32 10.64 28.59 10.74C31.17 11.76 32.83 14.21 32.83 16.98H19.4C19.4 14.21 21.07 11.76 23.64 10.74V10.75ZM19.4 33.83V31.19H32.83V33.83H19.4Z" fill="#222222"/>
</g>
</g>
</svg>
