<svg width="36" height="36" viewBox="0 0 36 36" fill="none" xmlns="http://www.w3.org/2000/svg">
<g id="bucket_M 1">
<path id="Vector" d="M18.0001 0.789978C10.8901 0.789978 5.1001 6.20998 5.1001 12.87C5.1001 13.25 5.4101 13.56 5.7901 13.56C6.1401 13.56 6.4201 13.29 6.4601 12.95H7.3001L10.1101 34.62C10.1601 34.96 10.4501 35.22 10.7901 35.22H25.1801C25.5301 35.22 25.8201 34.96 25.8601 34.62L28.6701 12.95H29.5101C29.5501 13.29 29.8301 13.56 30.1801 13.56C30.5601 13.56 30.8701 13.25 30.8701 12.87C30.9001 6.20998 25.1101 0.789978 18.0001 0.789978ZM18.0001 2.16998C23.8701 2.16998 28.7301 6.27998 29.4201 11.57H28.8401C28.8401 11.4 28.7901 11.24 28.6801 11.12C28.5501 10.97 28.3601 10.89 28.1601 10.89H7.8301C7.6301 10.89 7.4401 10.98 7.3101 11.12C7.2001 11.25 7.1501 11.41 7.1501 11.57H6.5701C7.2601 6.27998 12.1201 2.16998 17.9901 2.16998H18.0001ZM24.5901 33.84H11.4101L8.6201 12.29C8.6201 12.29 8.6201 12.27 8.6201 12.26H27.3901L24.5901 33.84Z" fill="#222222"/>
</g>
</svg>
