<svg width="36" height="36" viewBox="0 0 36 36" fill="none" xmlns="http://www.w3.org/2000/svg">
<g id="dam_M 1">
<g id="Group">
<path id="Vector" d="M9.91995 1.44008C9.87995 1.09008 9.58995 0.830078 9.23995 0.830078H1.50995C1.12995 0.830078 0.819946 1.14008 0.819946 1.52008V34.4901C0.819946 34.8701 1.12995 35.1801 1.50995 35.1801H12.9299C13.1199 35.1801 13.3099 35.1001 13.4399 34.9501C13.5699 34.8101 13.6299 34.6101 13.6099 34.4201L9.91995 1.44008ZM2.19995 33.8001V2.20008H8.61995L12.1699 33.8001H2.19995V33.8001Z" fill="#222222"/>
<path id="Vector_2" d="M19.5399 10.08C20.2599 10.61 21.1199 10.9 22.0299 10.9C22.9399 10.9 23.8099 10.61 24.5299 10.07C25.2699 10.61 26.1399 10.89 27.0099 10.89C27.8799 10.89 28.7499 10.6 29.4899 10.06C30.2099 10.59 31.0799 10.89 31.9899 10.89C33.1199 10.89 34.1699 10.45 34.9699 9.66004C35.2399 9.39004 35.2399 8.96004 34.9699 8.69004C34.6999 8.42004 34.2699 8.42004 33.9999 8.69004C33.4599 9.22004 32.7499 9.52004 31.9899 9.52004C31.2299 9.52004 30.5199 9.23004 29.9799 8.69004C29.7099 8.42004 29.2799 8.42004 29.0099 8.69004C27.9099 9.79004 26.1099 9.79004 24.9999 8.69004C24.8699 8.55004 24.6899 8.48004 24.5099 8.48004C24.3299 8.48004 24.1599 8.55004 24.0199 8.68004C23.4899 9.22004 22.7799 9.51004 22.0199 9.51004C21.2599 9.51004 20.5499 9.22004 20.0099 8.68004C19.7399 8.41004 19.3099 8.41004 19.0399 8.68004C18.4999 9.21004 17.7899 9.51004 17.0299 9.51004C16.2699 9.51004 15.5599 9.22004 15.0199 8.68004C14.7499 8.41004 14.3199 8.41004 14.0499 8.68004C13.7799 8.95004 13.7799 9.38004 14.0499 9.65004C14.8399 10.44 15.8999 10.88 17.0299 10.88C17.9399 10.88 18.7999 10.59 19.5199 10.06L19.5399 10.08Z" fill="#222222"/>
<path id="Vector_3" d="M20.09 15.1C19.55 15.64 18.84 15.93 18.08 15.93C17.32 15.93 16.61 15.64 16.07 15.1C15.8 14.83 15.37 14.83 15.1 15.1C14.83 15.37 14.83 15.8 15.1 16.07C15.89 16.87 16.95 17.3 18.08 17.3C19.21 17.3 20.26 16.86 21.06 16.07C21.33 15.8 21.33 15.37 21.06 15.1C20.79 14.83 20.36 14.83 20.09 15.1Z" fill="#222222"/>
<path id="Vector_4" d="M33.98 15.1C33.44 15.64 32.73 15.93 31.97 15.93C31.21 15.93 30.5 15.64 29.96 15.1C29.69 14.83 29.26 14.83 28.99 15.1C28.72 15.37 28.72 15.8 28.99 16.07C29.78 16.87 30.84 17.3 31.97 17.3C33.1 17.3 34.15 16.86 34.95 16.07C35.22 15.8 35.22 15.37 34.95 15.1C34.68 14.83 34.25 14.83 33.98 15.1V15.1Z" fill="#222222"/>
<path id="Vector_5" d="M27.0399 20.0802C26.4999 20.6102 25.7899 20.9102 25.0299 20.9102C24.2699 20.9102 23.5599 20.6202 23.0199 20.0802C22.7499 19.8102 22.3199 19.8102 22.0499 20.0802C21.7799 20.3502 21.7799 20.7802 22.0499 21.0502C22.8399 21.8402 23.8999 22.2802 25.0299 22.2802C26.1599 22.2802 27.2099 21.8402 28.0099 21.0502C28.2799 20.7802 28.2799 20.3502 28.0099 20.0802C27.7399 19.8102 27.3099 19.8102 27.0399 20.0802V20.0802Z" fill="#222222"/>
<path id="Vector_6" d="M20.09 25.15C19.55 25.68 18.84 25.98 18.08 25.98C17.32 25.98 16.61 25.69 16.07 25.15C15.8 24.88 15.37 24.88 15.1 25.15C14.83 25.42 14.83 25.85 15.1 26.12C15.89 26.91 16.95 27.35 18.08 27.35C19.21 27.35 20.26 26.91 21.06 26.12C21.33 25.85 21.33 25.42 21.06 25.15C20.79 24.88 20.36 24.88 20.09 25.15Z" fill="#222222"/>
<path id="Vector_7" d="M33.98 25.15C33.44 25.68 32.73 25.98 31.97 25.98C31.21 25.98 30.5 25.69 29.96 25.15C29.69 24.88 29.26 24.88 28.99 25.15C28.72 25.42 28.72 25.85 28.99 26.12C29.78 26.91 30.84 27.35 31.97 27.35C33.1 27.35 34.15 26.91 34.95 26.12C35.22 25.85 35.22 25.42 34.95 25.15C34.68 24.88 34.25 24.88 33.98 25.15V25.15Z" fill="#222222"/>
<path id="Vector_8" d="M27.0399 30.13C26.4999 30.67 25.7899 30.96 25.0299 30.96C24.2699 30.96 23.5599 30.67 23.0199 30.13C22.7499 29.86 22.3199 29.86 22.0499 30.13C21.7799 30.4 21.7799 30.83 22.0499 31.1C22.8399 31.9 23.8999 32.33 25.0299 32.33C26.1599 32.33 27.2099 31.89 28.0099 31.1C28.2799 30.83 28.2799 30.4 28.0099 30.13C27.7399 29.86 27.3099 29.86 27.0399 30.13V30.13Z" fill="#222222"/>
</g>
</g>
</svg>
