<svg width="36" height="36" viewBox="0 0 36 36" fill="none" xmlns="http://www.w3.org/2000/svg">
<g id="fan_M 1">
<path id="Vector" d="M26.66 2.03007C26.33 1.84007 25.91 1.95007 25.72 2.28007L20.09 11.9301C19.45 11.6601 18.74 11.5101 18 11.5101C17.26 11.5101 16.56 11.6601 15.92 11.9301L10.39 2.23007C10.3 2.07007 10.15 1.96007 9.97001 1.91007C9.79001 1.86007 9.61001 1.89007 9.45001 1.98007C6.82001 3.48007 4.63001 5.65007 3.12001 8.25007C1.60001 10.8501 0.800009 13.8201 0.790009 16.8501C0.790009 17.2301 1.10001 17.5401 1.48001 17.5401L12.64 17.5801C12.82 19.0301 13.58 20.3101 14.67 21.1701L9.09001 30.8601C8.90001 31.1901 9.01001 31.6101 9.34001 31.8001C12 33.3501 14.99 34.1201 17.99 34.1201C20.99 34.1201 23.91 33.3601 26.56 31.8501C26.72 31.7601 26.84 31.6101 26.88 31.4301C26.92 31.2501 26.9 31.0601 26.81 30.9001L21.12 21.3301C22.32 20.4801 23.16 19.1501 23.37 17.6201L34.53 17.6601C34.71 17.6601 34.89 17.5901 35.01 17.4601C35.14 17.3301 35.21 17.1601 35.21 16.9701C35.23 10.8301 31.95 5.10007 26.66 2.02007V2.03007ZM2.18001 16.1601C2.30001 13.6101 3.03001 11.1301 4.31001 8.93007C5.59001 6.73007 7.39001 4.87007 9.55001 3.51007L14.74 12.6001C13.62 13.4501 12.84 14.7301 12.65 16.1901L2.19001 16.1501L2.18001 16.1601ZM25.25 30.9801C20.66 33.3401 15.18 33.3201 10.62 30.9301L15.84 21.8601C16.5 22.1501 17.23 22.3101 17.99 22.3101C18.66 22.3101 19.3 22.1901 19.89 21.9601L25.25 30.9701V30.9801ZM18 20.9401C15.77 20.9401 13.96 19.1301 13.96 16.9001C13.96 14.6701 15.77 12.8601 18 12.8601C20.23 12.8601 22.04 14.6701 22.04 16.9001C22.04 19.1301 20.23 20.9401 18 20.9401ZM23.37 16.2401C23.19 14.7601 22.41 13.4701 21.28 12.6101L26.56 3.57007C30.89 6.35007 33.62 11.1201 33.83 16.2801L23.37 16.2401V16.2401Z" fill="#222222"/>
</g>
</svg>
