<svg width="36" height="36" viewBox="0 0 36 36" fill="none" xmlns="http://www.w3.org/2000/svg">
<g id="offshore_M 1">
<g id="Group">
<path id="Vector" d="M9.85997 14.5401C9.95997 14.5401 10.06 14.5201 10.16 14.4701L16.58 11.3401H16.59C16.83 11.5501 17.13 11.7201 17.45 11.8201V22.2401H15.37C14.99 22.2401 14.68 22.5501 14.68 22.9301C14.68 23.3101 14.99 23.6201 15.37 23.6201H20.89C21.27 23.6201 21.58 23.3101 21.58 22.9301C21.58 22.5501 21.27 22.2401 20.89 22.2401H18.81V11.8301C19.21 11.7001 19.57 11.4701 19.85 11.1601L25.74 14.4601C25.85 14.5201 25.96 14.5501 26.08 14.5501C26.32 14.5501 26.55 14.4201 26.68 14.2001C26.87 13.8701 26.75 13.4501 26.42 13.2701L20.41 9.91007C20.42 9.82007 20.44 9.74007 20.44 9.65007C20.44 8.62007 19.75 7.75007 18.82 7.46007V1.51007C18.82 1.13007 18.51 0.820068 18.13 0.820068C17.75 0.820068 17.44 1.13007 17.44 1.51007V7.44007C16.5 7.73007 15.82 8.60007 15.82 9.63007C15.82 9.81007 15.84 9.98007 15.88 10.1501L9.53997 13.2401C9.19997 13.4101 9.05997 13.8201 9.21997 14.1601C9.33997 14.4001 9.57997 14.5501 9.83997 14.5501L9.85997 14.5401ZM18.14 8.69007C18.66 8.69007 19.08 9.11007 19.08 9.63007C19.08 10.1501 18.66 10.5701 18.14 10.5701C17.62 10.5701 17.2 10.1501 17.2 9.63007C17.2 9.11007 17.62 8.69007 18.14 8.69007Z" fill="#222222"/>
<path id="Vector_2" d="M33.44 27.19H33.42C33.15 26.92 32.72 26.92 32.45 27.19C31.91 27.73 31.2 28.02 30.44 28.02C29.68 28.02 28.97 27.73 28.43 27.19C28.16 26.92 27.73 26.92 27.46 27.19C26.92 27.73 26.21 28.02 25.45 28.02C24.69 28.02 23.98 27.73 23.44 27.19C23.17 26.92 22.74 26.92 22.47 27.19C21.93 27.73 21.22 28.02 20.46 28.02C19.7 28.02 18.99 27.73 18.45 27.19C18.18 26.92 17.75 26.92 17.48 27.19C16.37 28.29 14.58 28.3 13.47 27.19C13.34 27.05 13.16 26.98 12.98 26.98C12.8 26.98 12.63 27.05 12.49 27.18C11.95 27.72 11.24 28.01 10.49 28.01C9.74 28.01 9.02 27.72 8.48 27.18C8.21 26.91 7.78001 26.91 7.51 27.18C6.97 27.72 6.26 28.01 5.50001 28.01C4.74001 28.01 4.03 27.72 3.49 27.18C3.22 26.91 2.79 26.91 2.52 27.18C2.25 27.45 2.25 27.88 2.52 28.15C3.32 28.95 4.37001 29.38 5.50001 29.38C6.41001 29.38 7.27 29.09 7.99 28.56C8.71 29.09 9.57 29.38 10.48 29.38C11.39 29.38 12.26 29.09 12.98 28.55C13.72 29.09 14.59 29.38 15.46 29.38C16.33 29.38 17.21 29.09 17.94 28.55C18.66 29.08 19.53 29.38 20.44 29.38C21.35 29.38 22.21 29.09 22.93 28.56C23.65 29.09 24.51 29.38 25.42 29.38C26.33 29.38 27.19 29.09 27.91 28.56C28.63 29.09 29.49 29.38 30.4 29.38C31.53 29.38 32.58 28.94 33.38 28.15C33.65 27.88 33.65 27.45 33.38 27.18L33.44 27.19Z" fill="#222222"/>
<path id="Vector_3" d="M13.04 32.9701C11.93 34.0801 10.13 34.0801 9.03004 32.9701C8.76004 32.7001 8.33004 32.7001 8.06004 32.9701C7.79004 33.2401 7.79004 33.6701 8.06004 33.9401C8.88004 34.7601 9.96004 35.1701 11.04 35.1701C12.12 35.1701 13.2 34.7601 14.02 33.9401C14.29 33.6701 14.29 33.2401 14.02 32.9701C13.75 32.7001 13.32 32.7001 13.05 32.9701H13.04Z" fill="#222222"/>
<path id="Vector_4" d="M26.9499 32.9701C26.4099 33.5101 25.6999 33.8001 24.9399 33.8001C24.1799 33.8001 23.4699 33.5101 22.9299 32.9701C22.6599 32.7001 22.2299 32.7001 21.9599 32.9701C21.6899 33.2401 21.6899 33.6701 21.9599 33.9401C22.7599 34.7401 23.8099 35.1701 24.9399 35.1701C26.0699 35.1701 27.1199 34.7301 27.9199 33.9401C28.1899 33.6701 28.1899 33.2401 27.9199 32.9701C27.6499 32.7001 27.2199 32.7001 26.9499 32.9701V32.9701Z" fill="#222222"/>
</g>
</g>
</svg>
