<svg width="36" height="36" viewBox="0 0 36 36" fill="none" xmlns="http://www.w3.org/2000/svg">
<g id="electricity alt_M 1">
<g id="Group">
<path id="Vector" d="M9.58003 29.73L6.46003 32.85V1.46002C6.46003 1.08002 6.15003 0.77002 5.77003 0.77002C5.39003 0.77002 5.08003 1.08002 5.08003 1.46002V32.84L1.96003 29.72C1.69003 29.45 1.25003 29.45 0.990027 29.72C0.730027 29.99 0.720027 30.43 0.990027 30.69L5.29003 34.99C5.42003 35.12 5.59003 35.19 5.78003 35.19C5.97003 35.19 6.14003 35.12 6.27003 34.99L10.57 30.69C10.84 30.42 10.84 29.98 10.57 29.72C10.3 29.46 9.86003 29.45 9.60003 29.72L9.58003 29.73Z" fill="#222222"/>
<path id="Vector_2" d="M24.93 14.7599H20.57L22.16 5.5799C22.22 5.2599 22.04 4.9499 21.74 4.8199C21.44 4.6899 21.1 4.7999 20.91 5.0699L10.54 20.0499C10.39 20.2599 10.38 20.5399 10.5 20.7599C10.62 20.9899 10.85 21.1299 11.11 21.1299H15.47L13.88 30.3099C13.82 30.6299 14 30.9399 14.3 31.0699C14.38 31.0999 14.47 31.1199 14.56 31.1199C14.78 31.1199 14.99 31.0099 15.13 30.8199L25.5 15.8399C25.65 15.6299 25.66 15.3599 25.54 15.1299C25.42 14.8999 25.19 14.7599 24.93 14.7599V14.7599ZM15.77 27.4699L16.97 20.5599C17 20.3599 16.95 20.1499 16.82 19.9999C16.69 19.8399 16.5 19.7499 16.29 19.7499H12.42L20.26 8.4199L19.06 15.3299C19.03 15.5299 19.08 15.7399 19.21 15.8899C19.34 16.0399 19.53 16.1399 19.74 16.1399H23.61L15.77 27.4699Z" fill="#222222"/>
<path id="Vector_3" d="M35.01 5.30011L30.71 1.00011C30.44 0.730107 30 0.730107 29.74 1.00011L25.44 5.30011C25.17 5.57011 25.17 6.01011 25.44 6.27011C25.71 6.53011 26.15 6.54011 26.41 6.27011L29.53 3.15011V34.5301C29.53 34.9101 29.84 35.2201 30.22 35.2201C30.6 35.2201 30.91 34.9101 30.91 34.5301V3.15011L34.03 6.27011C34.16 6.40011 34.34 6.47011 34.52 6.47011C34.7 6.47011 34.87 6.40011 35.01 6.27011C35.28 6.00011 35.28 5.56011 35.01 5.30011V5.30011Z" fill="#222222"/>
</g>
</g>
</svg>
