<svg width="36" height="36" viewBox="0 0 36 36" fill="none" xmlns="http://www.w3.org/2000/svg">
<g id="battery double_M 1">
<g id="Group">
<path id="Vector" d="M32.45 19.03H6.48999C6.10999 19.03 5.79999 19.34 5.79999 19.72V23.31H3.54999C3.16999 23.31 2.85999 23.62 2.85999 24V30.25C2.85999 30.63 3.16999 30.94 3.54999 30.94H5.79999V34.53C5.79999 34.91 6.10999 35.22 6.48999 35.22H32.45C32.83 35.22 33.14 34.91 33.14 34.53V19.73C33.14 19.35 32.83 19.04 32.45 19.04V19.03ZM4.23999 29.56V24.69H5.80999V29.56H4.23999ZM7.17999 20.41H19.36L14.99 33.83H7.17999V20.41ZM31.76 33.83H16.44L20.81 20.41H31.76V33.83Z" fill="#222222"/>
<path id="Vector_2" d="M32.45 0.790039H6.48999C6.10999 0.790039 5.79999 1.10004 5.79999 1.48004V5.07004H3.54999C3.16999 5.07004 2.85999 5.38004 2.85999 5.76004V12.01C2.85999 12.39 3.16999 12.7 3.54999 12.7H5.79999V16.29C5.79999 16.67 6.10999 16.98 6.48999 16.98H32.45C32.83 16.98 33.14 16.67 33.14 16.29V1.48004C33.14 1.10004 32.83 0.790039 32.45 0.790039ZM4.23999 11.31V6.44004H5.80999V11.31H4.23999ZM7.17999 2.17004H19.36L14.99 15.59H7.17999V2.17004ZM31.76 15.59H16.44L20.81 2.17004H31.76V15.59V15.59Z" fill="#222222"/>
</g>
</g>
</svg>
