<svg width="36" height="36" viewBox="0 0 36 36" fill="none" xmlns="http://www.w3.org/2000/svg">
<g id="conic lab_M 1">
<g id="Group">
<path id="Vector" d="M32.98 1.07011C32.75 0.770107 32.32 0.710107 32.02 0.940107C30.06 2.43011 28.16 3.02011 26.22 2.72011C25.34 2.59011 24.6 2.22011 23.81 1.82011C23.29 1.56011 22.75 1.29011 22.15 1.08011C20.65 0.550107 18.89 0.750107 17.57 1.62011C16.24 2.50011 15.4 4.01011 15.39 5.56011C15.39 5.94011 15.69 6.25011 16.07 6.25011C16.45 6.25011 16.76 5.95011 16.76 5.57011C16.76 4.47011 17.37 3.40011 18.32 2.77011C19.27 2.14011 20.59 1.99011 21.68 2.37011C22.2 2.56011 22.68 2.79011 23.18 3.05011C24.03 3.47011 24.91 3.91011 26 4.08011C28.3 4.43011 30.6 3.74011 32.84 2.03011C33.14 1.80011 33.2 1.37011 32.97 1.07011H32.98Z" fill="#222222"/>
<path id="Vector_2" d="M21.43 10.5301H21.91C22.29 10.5301 22.6 10.2201 22.6 9.84015C22.6 9.46015 22.29 9.15015 21.91 9.15015H10.69C10.31 9.15015 10 9.46015 10 9.84015C10 10.2201 10.31 10.5301 10.69 10.5301H11.4L10.32 13.6901L2.92001 34.2901C2.84001 34.5001 2.88001 34.7401 3.00001 34.9201C3.13001 35.1001 3.34001 35.2101 3.56001 35.2101H28.01C28.23 35.2101 28.43 35.1101 28.56 34.9301C28.69 34.7501 28.73 34.5301 28.67 34.3201L21.44 10.5301H21.43ZM4.55001 33.8401L11.63 14.1501L12.86 10.5401H20L22.48 18.7001H16.38C16 18.7001 15.69 19.0101 15.69 19.3901C15.69 19.7701 16 20.0801 16.38 20.0801H22.89L24.81 26.3801H18.3C17.92 26.3801 17.61 26.6901 17.61 27.0701C17.61 27.4501 17.92 27.7601 18.3 27.7601H24.99C25.07 27.7601 25.15 27.7401 25.22 27.7101L27.08 33.8401H4.55001V33.8401Z" fill="#222222"/>
</g>
</g>
</svg>
