<svg width="36" height="36" viewBox="0 0 36 36" fill="none" xmlns="http://www.w3.org/2000/svg">
<g id="water conduct_M 1">
<g id="Group">
<path id="Vector" d="M26.25 21.21L27.79 22.89C28.57 23.74 29.64 24.18 30.71 24.18C31.59 24.18 32.47 23.89 33.2 23.29L34.95 21.85C35.24 21.61 35.29 21.18 35.05 20.88C34.81 20.59 34.38 20.54 34.08 20.78L32.33 22.22C31.26 23.1 29.74 22.99 28.8 21.96L26.75 19.72C26.62 19.58 26.44 19.5 26.24 19.5C26.04 19.5 25.86 19.58 25.73 19.72L24.01 21.6C23.51 22.15 22.83 22.45 22.11 22.45C21.39 22.45 20.71 22.15 20.21 21.6L18.49 19.72C18.36 19.58 18.18 19.5 17.98 19.5C17.78 19.5 17.6 19.58 17.47 19.72L15.75 21.6C15.25 22.15 14.57 22.45 13.85 22.45C13.12 22.45 12.45 22.15 11.95 21.6L10.23 19.72C10.1 19.58 9.92001 19.5 9.72001 19.5C9.52001 19.5 9.34001 19.58 9.21001 19.72L7.17001 21.95C6.24001 22.96 4.69001 23.08 3.64001 22.21L1.90001 20.78C1.61001 20.54 1.17001 20.58 0.930006 20.88C0.690006 21.17 0.730006 21.61 1.03001 21.85L2.77001 23.28C4.39001 24.61 6.77001 24.44 8.19001 22.88L9.72001 21.21L10.93 22.53C11.68 23.35 12.75 23.82 13.85 23.82C14.95 23.82 16.02 23.35 16.77 22.52L17.98 21.2L19.19 22.52C19.94 23.34 21.01 23.81 22.11 23.81C23.21 23.81 24.28 23.34 25.03 22.52L26.24 21.2L26.25 21.21Z" fill="#222222"/>
<path id="Vector_2" d="M11.96 27.4601C11.5 28.0101 10.91 28.3101 10.29 28.3101C9.66999 28.3101 9.06999 28.0101 8.61999 27.4601C8.37999 27.1701 7.93999 27.1201 7.64999 27.3701C7.35999 27.6101 7.31999 28.0501 7.55999 28.3401C8.27999 29.2101 9.24999 29.6901 10.29 29.6901C11.33 29.6901 12.3 29.2101 13.02 28.3401C13.26 28.0501 13.22 27.6101 12.93 27.3701C12.64 27.1301 12.2 27.1701 11.96 27.4601Z" fill="#222222"/>
<path id="Vector_3" d="M5.35 32.9701C4.44 34.0701 2.92 34.0701 2 32.9701C1.76 32.6801 1.32 32.6401 1.03 32.8801C0.739997 33.1201 0.699997 33.5601 0.939997 33.8501C1.66 34.7201 2.63 35.2001 3.67 35.2001C4.71 35.2001 5.68 34.7201 6.4 33.8501C6.64 33.5601 6.6 33.1201 6.31 32.8801C6.02 32.6401 5.58 32.6801 5.34 32.9701H5.35Z" fill="#222222"/>
<path id="Vector_4" d="M27.38 27.4601C26.47 28.5601 24.95 28.5601 24.03 27.4601C23.79 27.1701 23.35 27.1301 23.06 27.3701C22.77 27.6101 22.73 28.0501 22.97 28.3401C23.69 29.2101 24.66 29.6901 25.7 29.6901C26.74 29.6901 27.71 29.2101 28.43 28.3401C28.67 28.0501 28.63 27.6101 28.34 27.3701C28.05 27.1301 27.61 27.1701 27.37 27.4601H27.38Z" fill="#222222"/>
<path id="Vector_5" d="M34.96 32.8801C34.67 32.6401 34.23 32.6801 33.99 32.9701C33.08 34.0701 31.55 34.0701 30.64 32.9701C30.4 32.6801 29.96 32.6401 29.67 32.8801C29.38 33.1201 29.34 33.5601 29.58 33.8501C30.3 34.7201 31.27 35.2001 32.31 35.2001C33.35 35.2001 34.32 34.7201 35.04 33.8501C35.28 33.5601 35.24 33.1201 34.95 32.8801H34.96Z" fill="#222222"/>
<path id="Vector_6" d="M19.67 32.9701C18.76 34.0701 17.23 34.0701 16.32 32.9701C16.08 32.6801 15.64 32.6401 15.35 32.8801C15.06 33.1201 15.02 33.5601 15.26 33.8501C15.98 34.7201 16.95 35.2001 17.99 35.2001C19.03 35.2001 20 34.7201 20.72 33.8501C20.96 33.5601 20.92 33.1201 20.63 32.8801C20.34 32.6401 19.9 32.6801 19.66 32.9701H19.67Z" fill="#222222"/>
<path id="Vector_7" d="M1.5 13.86H13.64V16.34C13.64 16.72 13.95 17.0301 14.33 17.0301H21.72C22.1 17.0301 22.41 16.72 22.41 16.34V13.86H34.51C34.89 13.86 35.2 13.55 35.2 13.17V8.44005C35.2 8.06005 34.89 7.75005 34.51 7.75005H22.41V5.27005C22.41 4.89005 22.1 4.58005 21.72 4.58005H18.69V2.18005H23.53C23.91 2.18005 24.22 1.87005 24.22 1.49005C24.22 1.11005 23.91 0.800049 23.53 0.800049H12.47C12.09 0.800049 11.78 1.11005 11.78 1.49005C11.78 1.87005 12.09 2.18005 12.47 2.18005H17.31V4.58005H14.32C13.94 4.58005 13.63 4.89005 13.63 5.27005V7.75005H1.5C1.12 7.75005 0.809998 8.06005 0.809998 8.44005V13.17C0.809998 13.55 1.12 13.86 1.5 13.86ZM22.44 9.13005H33.82V12.48H22.44V9.13005V9.13005ZM15.02 5.97005H21.03V15.65H15.02V5.96005V5.97005ZM2.19 9.13005H13.6V12.48H2.19V9.13005Z" fill="#222222"/>
</g>
</g>
</svg>
