<svg width="36" height="36" viewBox="0 0 36 36" fill="none" xmlns="http://www.w3.org/2000/svg">
<g id="plug switch_M 1">
<g id="Group">
<path id="Vector" d="M26.29 31.01C20.26 34.84 12.22 33.95 7.16004 28.89C1.51004 23.24 1.09004 14.37 6.15004 8.23001V12.56C6.15004 12.94 6.46004 13.25 6.84004 13.25C7.22004 13.25 7.53004 12.94 7.53004 12.56V7.20001C7.53004 6.82001 7.22004 6.51001 6.84004 6.51001H1.48004C1.10004 6.51001 0.790039 6.82001 0.790039 7.20001C0.790039 7.58001 1.10004 7.89001 1.48004 7.89001H4.69004C-0.389961 14.56 0.200039 23.87 6.18004 29.86C9.40004 33.08 13.73 34.75 18.08 34.75C21.18 34.75 24.29 33.9 27.02 32.17C27.34 31.97 27.44 31.54 27.23 31.22C27.03 30.9 26.6 30.8 26.28 31.01H26.29Z" fill="#222222"/>
<path id="Vector_2" d="M34.52 28.0301H31.53C36.54 21.3701 35.94 12.1001 29.97 6.14005C24.46 0.630053 15.7 -0.339947 9.13005 3.83005C8.81005 4.03005 8.71005 4.46005 8.92005 4.78005C9.12005 5.10005 9.55005 5.20005 9.87005 4.99005C15.9 1.16005 23.94 2.05005 29 7.11005C34.66 12.7701 35.08 21.6801 29.97 27.8201C29.92 27.8801 29.88 27.9501 29.86 28.0301V23.3601C29.86 22.9801 29.55 22.6701 29.17 22.6701C28.79 22.6701 28.48 22.9801 28.48 23.3601V28.7201C28.48 29.1001 28.79 29.4101 29.17 29.4101H34.53C34.91 29.4101 35.22 29.1001 35.22 28.7201C35.22 28.3401 34.91 28.0301 34.53 28.0301H34.52Z" fill="#222222"/>
<path id="Vector_3" d="M14.29 8.38013C13.91 8.38013 13.6 8.69013 13.6 9.07013V14.5601H11.61C11.23 14.5601 10.92 14.8701 10.92 15.2501V20.5501C10.92 24.4501 14.09 27.6201 17.99 27.6201C21.89 27.6201 25.06 24.4501 25.06 20.5501V15.2501C25.06 14.8701 24.75 14.5601 24.37 14.5601H22.38V9.07013C22.38 8.69013 22.07 8.38013 21.69 8.38013C21.31 8.38013 21 8.69013 21 9.07013V14.5601H14.96V9.07013C14.96 8.69013 14.65 8.38013 14.27 8.38013H14.29ZM23.69 20.5501C23.69 23.6901 21.14 26.2401 18 26.2401C14.86 26.2401 12.31 23.6901 12.31 20.5501V15.9401H23.69V20.5501Z" fill="#222222"/>
</g>
</g>
</svg>
