<svg width="36" height="36" viewBox="0 0 36 36" fill="none" xmlns="http://www.w3.org/2000/svg">
<g id="light settings_M 1">
<g id="Group">
<path id="Vector" d="M21.67 30.3901H14.79C14.41 30.3901 14.1 30.7001 14.1 31.0801C14.1 31.4601 14.41 31.7701 14.79 31.7701H21.67C22.05 31.7701 22.36 31.4601 22.36 31.0801C22.36 30.7001 22.05 30.3901 21.67 30.3901Z" fill="#222222"/>
<path id="Vector_2" d="M19.38 33.8301H17.09C16.71 33.8301 16.4 34.1401 16.4 34.5201C16.4 34.9001 16.71 35.2101 17.09 35.2101H19.38C19.76 35.2101 20.07 34.9001 20.07 34.5201C20.07 34.1401 19.76 33.8301 19.38 33.8301Z" fill="#222222"/>
<path id="Vector_3" d="M25.66 3.86008C23.45 1.75008 20.54 0.660076 17.48 0.800076C11.67 1.07008 6.93001 6.02008 6.91001 11.8401C6.90001 15.7201 8.86001 19.2601 12.17 21.3101H12.19C13 22.0101 13.56 23.0701 13.6 23.9501V27.6301C13.6 28.0101 13.91 28.3201 14.29 28.3201H22.17C22.55 28.3201 22.86 28.0101 22.86 27.6301V24.3601C22.86 24.1001 22.86 23.8401 22.86 23.5801C22.85 22.5701 22.86 21.9801 23.44 21.5701C23.47 21.5501 23.49 21.5201 23.51 21.4901C26.95 19.5101 29.09 15.8501 29.09 11.8701C29.09 8.81008 27.87 5.96008 25.66 3.85008V3.86008ZM22.69 20.3901C22.59 20.4501 22.51 20.5301 22.45 20.6201C21.47 21.4601 21.47 22.6001 21.48 23.6201C21.48 23.8501 21.48 24.0901 21.48 24.3501V26.9601H14.98V23.9401C14.93 22.5801 14.16 21.1401 12.98 20.1801C12.93 20.1401 12.88 20.1201 12.83 20.1001C9.98001 18.3001 8.28001 15.2301 8.29001 11.8501C8.31001 6.75008 12.46 2.42008 17.54 2.18008C20.22 2.06008 22.77 3.01008 24.7 4.86008C26.64 6.71008 27.7 9.20008 27.7 11.8801C27.7 15.4201 25.78 18.6801 22.68 20.3901H22.69Z" fill="#222222"/>
<path id="Vector_4" d="M18 8.02C17.01 8 16.07 8.4 15.36 9.1C14.65 9.8 14.26 10.74 14.26 11.73C14.26 12.73 14.64 13.66 15.34 14.37C16.04 15.08 16.98 15.47 17.97 15.47H17.98C18.97 15.47 19.9 15.09 20.61 14.39C21.32 13.69 21.71 12.75 21.71 11.76C21.71 10.76 21.33 9.83 20.63 9.12C19.93 8.41 18.99 8.02 18 8.02V8.02ZM19.69 13.47C19.23 13.92 18.63 14.17 17.98 14.17C17.33 14.17 16.73 13.91 16.27 13.45C15.81 12.99 15.56 12.38 15.57 11.74C15.57 11.09 15.83 10.48 16.29 10.03C16.75 9.58 17.35 9.33 18 9.33C18.65 9.33 19.25 9.59 19.71 10.05C20.17 10.51 20.42 11.12 20.41 11.77C20.41 12.42 20.15 13.03 19.69 13.48V13.47Z" fill="#222222"/>
<path id="Vector_5" d="M23.59 12.53C23.59 12.53 23.54 12.42 23.54 12.4C23.54 12.4 23.58 12.14 23.58 11.76C23.58 11.46 23.57 11.35 23.57 11.35C23.57 11.31 23.6 11.23 23.62 11.21L24.82 10.03C25.19 9.67 25.27 9.06 25.02 8.61L24.32 7.38C24.06 6.93 23.5 6.7 23 6.83L21.48 7.23C21.48 7.23 21.35 7.22 21.28 7.17L20.49 6.68C20.49 6.68 20.37 6.56 20.36 6.52L19.98 5.07C19.85 4.57 19.34 4.2 18.88 4.2C18.43 4.17 17.32 4.13 16.86 4.28C16.37 4.45 16.14 4.91 16.1 5.22L15.91 6.35C15.91 6.35 15.86 6.42 15.8 6.45L14.57 7.11C14.57 7.11 14.43 7.15 14.39 7.14L13.04 6.77C12.55 6.63 11.97 6.86 11.71 7.31L11 8.53C10.74 8.97 10.82 9.58 11.18 9.95L12.16 10.94C12.16 10.94 12.21 11.05 12.21 11.07C12.21 11.1 12.17 11.35 12.17 11.71C12.17 12.15 12.23 12.54 12.23 12.54C12.23 12.57 12.21 12.64 12.2 12.65L11.39 13.44C11.02 13.8 10.94 14.41 11.19 14.86L11.89 16.09C12.15 16.54 12.71 16.77 13.21 16.64L14.38 16.33C14.38 16.33 14.53 16.34 14.63 16.4L15.8 17.02C15.8 17.02 15.89 17.1 15.9 17.13L16.24 18.4C16.37 18.9 16.86 19.27 17.37 19.27H18.79C19.3 19.27 19.79 18.9 19.92 18.41L20.3 16.97C20.3 16.97 20.39 16.83 20.47 16.79L21.19 16.35C21.19 16.35 21.32 16.32 21.35 16.32L22.7 16.69C23.2 16.83 23.77 16.6 24.03 16.15L24.74 14.93C25 14.49 24.92 13.88 24.56 13.51L23.58 12.53H23.59ZM22.96 15.41L21.71 15.06C21.3 14.95 20.78 15.04 20.49 15.26L19.85 15.65C19.49 15.84 19.16 16.24 19.06 16.63L18.7 17.98H17.49L17.18 16.8C17.07 16.39 16.72 15.99 16.39 15.85L15.33 15.28C14.99 15.05 14.48 14.96 14.08 15.07L13 15.36L12.4 14.31L13.13 13.59C13.44 13.28 13.61 12.77 13.53 12.34C13.53 12.34 13.48 12.04 13.48 11.72C13.48 11.47 13.5 11.29 13.51 11.27C13.57 10.85 13.41 10.34 13.11 10.03L12.19 9.11L12.8 8.06L14.05 8.41C14.44 8.52 14.93 8.44 15.27 8.22L16.36 7.63C16.77 7.46 17.12 7.04 17.2 6.59L17.39 5.49C17.64 5.46 18.19 5.46 18.75 5.49L19.11 6.84C19.21 7.23 19.54 7.64 19.85 7.8L20.55 8.24C20.89 8.5 21.41 8.6 21.82 8.49L23.25 8.11L23.85 9.16L22.73 10.27C22.43 10.57 22.25 11.07 22.3 11.48C22.3 11.5 22.3 11.58 22.3 11.75C22.3 12.01 22.27 12.19 22.27 12.2C22.21 12.62 22.37 13.13 22.68 13.44L23.6 14.36L22.99 15.41H22.96Z" fill="#222222"/>
</g>
</g>
</svg>
