<svg width="36" height="36" viewBox="0 0 36 36" fill="none" xmlns="http://www.w3.org/2000/svg">
<g id="double tower_M 1">
<g id="Group">
<path id="Vector" d="M19.26 7.80004H11.06V2.17004H12.84C13.22 2.17004 13.53 1.86004 13.53 1.48004C13.53 1.10004 13.22 0.790039 12.84 0.790039H7.90004C7.52004 0.790039 7.21004 1.10004 7.21004 1.48004C7.21004 1.86004 7.52004 2.17004 7.90004 2.17004H9.68004V7.80004H1.48004C1.10004 7.80004 0.790039 8.11004 0.790039 8.49004C0.790039 8.87004 1.10004 9.18004 1.48004 9.18004H3.34004C3.34004 9.18004 3.39004 9.27004 3.44004 9.31004L8.77004 14.22H3.95004C3.57004 14.22 3.26004 14.53 3.26004 14.91C3.26004 15.29 3.57004 15.6 3.95004 15.6H9.68004V23H7.90004C7.52004 23 7.21004 23.31 7.21004 23.69C7.21004 24.07 7.52004 24.38 7.90004 24.38H9.68004V34.52C9.68004 34.9 9.99004 35.21 10.37 35.21C10.75 35.21 11.06 34.9 11.06 34.52V24.38H12.84C13.22 24.38 13.53 24.07 13.53 23.69C13.53 23.31 13.22 23 12.84 23H11.06V15.6H16.79C17.17 15.6 17.48 15.29 17.48 14.91C17.48 14.53 17.17 14.22 16.79 14.22H12.03L16.96 9.29004C16.96 9.29004 17.01 9.22004 17.03 9.18004H19.25C19.63 9.18004 19.94 8.87004 19.94 8.49004C19.94 8.11004 19.63 7.80004 19.25 7.80004H19.26ZM9.68004 9.18004V13.2L5.32004 9.18004H9.68004ZM11.06 13.25V9.18004H15.13L11.06 13.25Z" fill="#222222"/>
<path id="Vector_2" d="M34.52 14.2901H28.56V9.20007H29.72C30.1 9.20007 30.41 8.89007 30.41 8.51007C30.41 8.13007 30.1 7.82007 29.72 7.82007H26.03C25.65 7.82007 25.34 8.13007 25.34 8.51007C25.34 8.89007 25.65 9.20007 26.03 9.20007H27.19V14.2901H21.23C20.85 14.2901 20.54 14.6001 20.54 14.9801C20.54 15.3601 20.85 15.6701 21.23 15.6701H22.54C22.54 15.6701 22.56 15.7101 22.58 15.7201L27.19 19.9701V23.0401H25.54C25.16 23.0401 24.85 23.3501 24.85 23.7301C24.85 24.1101 25.16 24.4201 25.54 24.4201H27.19V30.4801C27.19 30.8601 27.5 31.1701 27.88 31.1701C28.26 31.1701 28.57 30.8601 28.57 30.4801V24.4201H30.22C30.6 24.4201 30.91 24.1101 30.91 23.7301C30.91 23.3501 30.6 23.0401 30.22 23.0401H28.57V20.0501C28.57 20.0501 28.59 20.0401 28.6 20.0301L32.93 15.7001C32.93 15.7001 32.94 15.6801 32.95 15.6701H34.52C34.9 15.6701 35.21 15.3601 35.21 14.9801C35.21 14.6001 34.9 14.2901 34.52 14.2901ZM24.54 15.6701H27.18V18.1001L24.54 15.6701ZM28.56 18.1201V15.6701H31.01L28.56 18.1201Z" fill="#222222"/>
</g>
</g>
</svg>
