<svg width="36" height="36" viewBox="0 0 36 36" fill="none" xmlns="http://www.w3.org/2000/svg">
<g id="gas_M 1">
<path id="Vector" d="M13.38 0.839921C13.13 0.739921 12.84 0.799921 12.65 0.979921C12.46 1.16992 12.39 1.44992 12.48 1.69992C12.49 1.73992 13.89 5.89992 11.08 10.4299C10.52 11.3299 9.94998 12.1199 9.39998 12.8799C7.50998 15.4899 5.72998 17.9499 5.72998 23.4399C5.72998 29.9299 11.14 35.2099 17.78 35.2099C23.99 35.2099 30.27 30.9099 30.27 22.6899C30.27 7.70992 13.55 0.899921 13.38 0.839921ZM11.67 31.9499C11.62 31.5399 11.39 29.4899 11.86 27.1599C12.49 24.0399 14.03 21.8199 16.44 20.5399C16.9 21.5699 17.84 23.7299 18.47 25.1699C18.55 25.3399 18.69 25.4799 18.86 25.5399C19.04 25.6099 19.23 25.5999 19.4 25.5099L23.51 23.4899L23.59 32.2999C21.83 33.3099 19.8 33.8299 17.78 33.8299C15.51 33.8299 13.4 33.1299 11.67 31.9399V31.9499ZM24.96 31.3699L24.88 22.3899C24.88 22.1499 24.75 21.9299 24.55 21.8099C24.35 21.6899 24.1 21.6699 23.88 21.7799L19.44 23.9699C17.3 19.0199 17.28 19.0199 16.88 18.9499C16.75 18.9299 16.61 18.9499 16.48 18.9999C10.66 21.5599 10.12 27.8799 10.2 30.7699C8.27998 28.8899 7.09998 26.3099 7.09998 23.4499C7.09998 18.4099 8.59998 16.3299 10.51 13.6999C11.08 12.9199 11.67 12.0999 12.25 11.1599C14.39 7.69992 14.36 4.46992 14.1 2.67992C17.85 4.52992 28.89 10.9599 28.89 22.6899C28.89 26.5999 27.29 29.5099 24.96 31.3699V31.3699Z" fill="#222222"/>
</g>
</svg>
