<svg width="36" height="36" viewBox="0 0 36 36" fill="none" xmlns="http://www.w3.org/2000/svg">
<g id="award_M 1">
<g id="Group">
<path id="Vector" d="M16.1899 22.76V23.76L18.0799 22.16V29.21H19.0699V21.1H18.0799L16.1899 22.76Z" fill="#222222"/>
<path id="Vector_2" d="M35.0101 9.11998C35.2801 8.84998 35.2801 8.41998 35.0101 8.14998L29.6101 2.74998C29.4801 2.61998 29.3101 2.54998 29.1201 2.54998C28.9301 2.54998 28.7601 2.61998 28.6301 2.74998L17.9901 13.39L7.3601 2.73998C7.1001 2.47998 6.6401 2.47998 6.3901 2.73998L0.990098 8.14998C0.720098 8.41998 0.720098 8.84998 0.990098 9.11998L11.6601 19.79C10.4301 21.24 9.6801 23.11 9.6801 25.16C9.6801 29.74 13.4001 33.46 17.9801 33.46C22.5601 33.46 26.2801 29.74 26.2801 25.16C26.2801 23.14 25.5501 21.29 24.3501 19.84C24.3501 19.83 24.3501 19.81 24.3501 19.79L35.0201 9.11998H35.0101ZM29.1201 4.20998L33.5501 8.63998L23.4001 18.79L18.9701 14.36L29.1201 4.19998V4.20998ZM6.8701 4.20998L19.7001 17.05C19.1401 16.93 18.5601 16.86 17.9601 16.86C15.9201 16.86 14.0601 17.6 12.6101 18.82L2.4501 8.62998L6.8801 4.19998L6.8701 4.20998ZM17.9701 32.09C14.1501 32.09 11.0401 28.98 11.0401 25.16C11.0401 21.34 14.1501 18.24 17.9701 18.24C21.7901 18.24 24.8901 21.35 24.8901 25.16C24.8901 28.97 21.7801 32.09 17.9701 32.09Z" fill="#222222"/>
</g>
</g>
</svg>
