<svg width="36" height="36" viewBox="0 0 36 36" fill="none" xmlns="http://www.w3.org/2000/svg">
<g id="discount_M 1">
<g id="Group">
<path id="Vector" d="M34.2502 15.76C33.7402 15.25 33.5902 14.49 33.8602 13.82C34.1802 13.04 34.1802 12.18 33.8602 11.4C33.5402 10.62 32.9302 10.01 32.1502 9.69002C31.4802 9.41002 31.0502 8.77002 31.0502 8.05002C31.0502 6.31002 29.6302 4.89002 27.8902 4.89002C27.1702 4.89002 26.5202 4.46002 26.2502 3.79002C25.5802 2.18002 23.7402 1.42002 22.1302 2.08002C21.4602 2.36002 20.7002 2.21002 20.1902 1.69002C18.9602 0.460017 16.9602 0.460017 15.7302 1.69002C15.2202 2.20002 14.4602 2.35002 13.7902 2.08002C13.0102 1.76002 12.1502 1.76002 11.3702 2.08002C10.5902 2.40002 9.98023 3.01002 9.66023 3.79002C9.38023 4.46002 8.74024 4.89002 8.02024 4.89002C6.28024 4.89002 4.86023 6.31002 4.86023 8.05002C4.86023 8.77002 4.43023 9.42002 3.76023 9.69002C2.15023 10.36 1.39023 12.21 2.05023 13.81C2.33023 14.48 2.18023 15.24 1.66023 15.75C1.06023 16.35 0.740234 17.14 0.740234 17.98C0.740234 18.82 1.07023 19.62 1.66023 20.21C2.17023 20.72 2.32023 21.48 2.05023 22.15C1.38023 23.76 2.15023 25.61 3.76023 26.27C4.43023 26.55 4.86023 27.19 4.86023 27.91C4.86023 29.65 6.28024 31.07 8.02024 31.07C8.74024 31.07 9.39023 31.5 9.66023 32.17C10.3302 33.78 12.1702 34.55 13.7802 33.88C14.4502 33.6 15.2102 33.76 15.7202 34.27C16.3402 34.89 17.1402 35.19 17.9502 35.19C18.7602 35.19 19.5702 34.88 20.1802 34.27C20.6902 33.76 21.4502 33.61 22.1202 33.88C23.7302 34.55 25.5802 33.78 26.2402 32.17C26.5202 31.5 27.1602 31.07 27.8802 31.07C29.6202 31.07 31.0402 29.65 31.0402 27.91C31.0402 27.19 31.4702 26.54 32.1402 26.27C33.7502 25.6 34.5102 23.75 33.8502 22.15C33.5702 21.48 33.7202 20.72 34.2402 20.21C34.8402 19.61 35.1602 18.82 35.1602 17.98C35.1602 17.14 34.8302 16.34 34.2402 15.75L34.2502 15.76ZM33.2802 19.25C32.3702 20.16 32.1102 21.51 32.6002 22.69C32.9802 23.6 32.5402 24.64 31.6402 25.01C30.4602 25.5 29.6902 26.65 29.6902 27.93C29.6902 28.91 28.8902 29.71 27.9102 29.71C26.6302 29.71 25.4802 30.47 24.9902 31.66C24.8102 32.1 24.4702 32.44 24.0302 32.62C23.5902 32.8 23.1102 32.8 22.6702 32.62C21.4902 32.13 20.1402 32.4 19.2302 33.3C18.5602 33.97 17.3902 33.97 16.7102 33.3C16.1102 32.7 15.3002 32.37 14.4802 32.37C14.0702 32.37 13.6602 32.45 13.2702 32.61C12.8302 32.79 12.3502 32.79 11.9102 32.61C11.4702 32.43 11.1302 32.09 10.9502 31.65C10.4602 30.47 9.32023 29.7 8.03023 29.7C7.05023 29.7 6.25023 28.9 6.25023 27.92C6.25023 26.64 5.49023 25.49 4.30023 25C3.39023 24.62 2.96023 23.58 3.34023 22.68C3.83023 21.5 3.56023 20.15 2.66023 19.24C2.32023 18.9 2.14023 18.46 2.14023 17.98C2.14023 17.5 2.33023 17.06 2.66023 16.72C3.57023 15.81 3.83023 14.46 3.34023 13.28C2.96023 12.37 3.40023 11.33 4.30023 10.96C5.48023 10.47 6.25023 9.32002 6.25023 8.04002C6.25023 7.06002 7.05023 6.26002 8.03023 6.26002C9.31023 6.26002 10.4602 5.50002 10.9502 4.31002C11.1302 3.87002 11.4702 3.53002 11.9102 3.35002C12.3502 3.17002 12.8302 3.17002 13.2702 3.35002C14.4502 3.84002 15.8002 3.57002 16.7102 2.67002C17.3802 2.00002 18.5602 2.00002 19.2302 2.67002C20.1402 3.58002 21.4902 3.84002 22.6702 3.35002C23.1102 3.17002 23.5902 3.17002 24.0302 3.35002C24.4702 3.53002 24.8102 3.87002 24.9902 4.31002C25.4802 5.49002 26.6202 6.26002 27.9102 6.26002C28.8902 6.26002 29.6902 7.06002 29.6902 8.04002C29.6902 9.32002 30.4502 10.47 31.6402 10.96C32.0802 11.14 32.4202 11.48 32.6002 11.92C32.7802 12.36 32.7802 12.84 32.6002 13.28C32.1102 14.46 32.3802 15.81 33.2802 16.72C33.6202 17.06 33.8002 17.5 33.8002 17.98C33.8002 18.46 33.6202 18.9 33.2802 19.24V19.25Z" fill="#222222"/>
<path id="Vector_2" d="M23.8904 11.17L11.1204 23.94C10.9904 24.07 10.9204 24.25 10.9204 24.43C10.9204 24.61 10.9904 24.78 11.1204 24.92C11.2504 25.06 11.4304 25.12 11.6104 25.12C11.7904 25.12 11.9604 25.05 12.1004 24.92L24.8704 12.15C25.0004 12.02 25.0704 11.84 25.0704 11.66C25.0704 11.48 25.0004 11.31 24.8704 11.17C24.6004 10.9 24.1704 10.9 23.9004 11.17H23.8904Z" fill="#222222"/>
<path id="Vector_3" d="M22.68 20.33C21.36 20.33 20.29 21.4 20.29 22.72C20.29 24.04 21.36 25.11 22.68 25.11C24 25.11 25.07 24.04 25.07 22.72C25.07 21.4 24 20.33 22.68 20.33ZM22.68 23.73C22.12 23.73 21.67 23.27 21.67 22.72C21.67 22.17 22.13 21.71 22.68 21.71C23.23 21.71 23.69 22.17 23.69 22.72C23.69 23.27 23.23 23.73 22.68 23.73Z" fill="#222222"/>
<path id="Vector_4" d="M13.3104 15.69C14.6304 15.69 15.7004 14.62 15.7004 13.3C15.7004 11.98 14.6304 10.91 13.3104 10.91C11.9904 10.91 10.9204 11.98 10.9204 13.3C10.9204 14.62 11.9904 15.69 13.3104 15.69ZM13.3104 12.29C13.8704 12.29 14.3204 12.74 14.3204 13.3C14.3204 13.86 13.8704 14.31 13.3104 14.31C12.7504 14.31 12.3004 13.85 12.3004 13.3C12.3004 12.75 12.7604 12.29 13.3104 12.29Z" fill="#222222"/>
</g>
</g>
</svg>
