<svg width="36" height="36" viewBox="0 0 36 36" fill="none" xmlns="http://www.w3.org/2000/svg">
<g id="use voucher_M 1">
<path id="Vector" d="M34.9799 20.49L21.9799 9.19002C20.8999 8.36002 19.5499 7.90002 18.1899 7.90002H11.9799C8.64991 7.90002 3.70991 9.34002 1.80991 10.12C1.08991 10.41 0.689913 11.15 0.839913 11.91C0.989913 12.67 1.62991 13.21 2.40991 13.22H6.55991L1.32991 18.45C0.999913 18.78 0.809913 19.21 0.789913 19.66C0.769913 20.13 0.939913 20.57 1.26991 20.9L7.98991 27.62C8.30991 27.94 8.72991 28.1 9.15991 28.1C9.61991 28.1 10.0799 27.92 10.4399 27.56L15.4899 22.51L19.6399 24.18C20.4499 24.54 21.2999 24.72 22.1799 24.72H30.3599C30.7399 24.72 31.0499 24.41 31.0499 24.03C31.0499 23.65 30.7399 23.34 30.3599 23.34H22.1799C21.4899 23.34 20.8299 23.2 20.1799 22.91L10.3199 18.94C9.51991 18.62 9.22991 18.12 9.29991 17.77C9.36991 17.38 9.83991 17.13 10.4699 17.13L17.6099 17.16C17.6099 17.16 17.6899 17.15 17.7399 17.14C17.7699 17.14 17.8099 17.14 17.8399 17.12C17.8999 17.1 17.9499 17.07 17.9999 17.03C18.0199 17.01 18.0499 17 18.0699 16.98C18.1099 16.94 18.1399 16.9 18.1699 16.86C18.1899 16.83 18.2199 16.8 18.2299 16.77C18.2499 16.73 18.2599 16.68 18.2699 16.63C18.2699 16.6 18.2999 16.57 18.2999 16.53L18.8399 10.78C18.8599 10.58 18.7899 10.37 18.6399 10.23C18.4899 10.09 18.2899 10.01 18.0899 10.03L9.09991 10.88C8.93991 10.89 8.78991 10.96 8.67991 11.08L7.92991 11.83C7.92991 11.83 7.91991 11.83 7.90991 11.83H2.40991C2.27991 11.81 2.20991 11.75 2.17991 11.63C2.15991 11.51 2.19991 11.42 2.31991 11.37C4.07991 10.66 8.86991 9.25002 11.9799 9.25002H18.1899C19.2499 9.25002 20.2999 9.61002 21.1099 10.23L34.0799 21.51C34.2099 21.62 34.3699 21.68 34.5299 21.68C34.7199 21.68 34.9099 21.6 35.0499 21.44C35.2999 21.15 35.2699 20.72 34.9799 20.47V20.49ZM9.47991 12.25L17.3899 11.5L16.9899 15.79L10.4699 15.76C8.95991 15.76 8.10991 16.64 7.93991 17.52C7.77991 18.36 8.16991 19.58 9.79991 20.23L14.0899 21.96L9.45991 26.59C9.30991 26.74 9.07991 26.77 8.95991 26.65L2.23991 19.93C2.11991 19.81 2.14991 19.58 2.29991 19.43L9.47991 12.25V12.25Z" fill="#222222"/>
</g>
</svg>
