<svg width="36" height="36" viewBox="0 0 36 36" fill="none" xmlns="http://www.w3.org/2000/svg">
<g id="youtube_M 1">
<g id="Group">
<path id="Vector" d="M10.2598 34.0201C8.7798 34.0201 5.7798 33.7401 3.5298 31.7301C1.7198 30.1001 0.799805 27.7201 0.799805 24.6401L0.839805 11.3801C0.789805 10.9101 0.509805 7.6301 2.7698 5.0501C4.5198 3.0201 7.3398 2.0001 11.1198 2.0001L24.8698 2.0201C25.3598 1.9701 29.5498 1.6601 32.4698 4.2801C34.2798 5.9101 35.1998 8.2901 35.1998 11.3701L35.1598 24.6301C35.2098 25.1001 35.4898 28.3801 33.2298 30.9601C31.4598 32.9901 28.6398 34.0201 24.8598 34.0201L11.1098 34.0001C10.9998 34.0101 10.6898 34.0401 10.2398 34.0401L10.2598 34.0201ZM11.1298 3.3801C7.7698 3.3801 5.3098 4.2401 3.8198 5.9501C1.8498 8.2001 2.2198 11.2101 2.2198 11.2401C2.2198 11.2701 2.2198 11.3001 2.2198 11.3301L2.1798 24.6301C2.1798 27.2901 2.9398 29.3201 4.4498 30.6701C7.0198 32.9801 10.9798 32.5901 11.0198 32.5801C11.0398 32.5801 11.0898 32.5801 11.0998 32.5801L24.8898 32.6001C28.2498 32.6001 30.7098 31.7401 32.1998 30.0301C34.1698 27.7801 33.7998 24.7701 33.7998 24.7401C33.7998 24.7101 33.7998 24.6801 33.7998 24.6501L33.8398 11.3501C33.8398 8.69011 33.0798 6.6501 31.5698 5.3001C28.9898 2.9801 25.0498 3.3901 25.0098 3.3901C24.9798 3.3901 24.9398 3.4001 24.9298 3.3901L11.1398 3.3701L11.1298 3.3801Z" fill="#222222"/>
<path id="Vector_2" d="M13.43 24.3902C13.3 24.3902 13.18 24.3602 13.06 24.2902C12.86 24.1602 12.73 23.9402 12.73 23.7002V12.6002C12.73 12.3602 12.85 12.1402 13.06 12.0102C13.26 11.8802 13.52 11.8702 13.74 11.9802L24.84 17.5302C25.08 17.6502 25.22 17.8902 25.22 18.1502C25.22 18.4102 25.07 18.6502 24.84 18.7702L13.74 24.3202C13.64 24.3702 13.54 24.3902 13.43 24.3902V24.3902ZM14.12 13.7202V22.5702L22.97 18.1402L14.12 13.7102V13.7202Z" fill="#222222"/>
</g>
</g>
</svg>
