<svg width="36" height="36" viewBox="0 0 36 36" fill="none" xmlns="http://www.w3.org/2000/svg">
<g id="spotify_M 1">
<g id="Group">
<path id="Vector" d="M27.5499 18.96C24.0799 16.88 19.6599 15.74 15.0899 15.74C12.1799 15.74 10.1699 16.15 8.20988 16.7C7.47988 16.9 7.12988 17.42 7.12988 18.16C7.12988 18.9 7.73988 19.53 8.48988 19.53C8.80988 19.53 8.99988 19.43 9.33988 19.33C10.9199 18.91 12.8299 18.6 15.0399 18.6C19.3499 18.6 23.2799 19.72 26.1199 21.4C26.3799 21.55 26.6099 21.7 26.9899 21.7C27.7499 21.7 28.3499 21.09 28.3499 20.33C28.3499 19.71 28.1299 19.28 27.5499 18.95V18.96Z" fill="#222222"/>
<path id="Vector_2" d="M25.4801 24.0699C22.5501 22.3199 19.1501 21.4399 15.3301 21.4399C13.1001 21.4399 10.9501 21.7199 8.8001 22.2099C8.2801 22.3099 7.8501 22.6799 7.8501 23.4099C7.8501 23.9799 8.2901 24.5099 8.9601 24.5099C9.1701 24.5099 9.5401 24.3999 9.8201 24.3399C11.5801 23.9699 13.4601 23.7299 15.3201 23.7299C18.6701 23.7299 21.8201 24.5299 24.3501 26.0599C24.6101 26.2199 24.8101 26.3199 25.0901 26.3199C25.6701 26.3199 26.1701 25.8599 26.1701 25.2299C26.1701 24.5899 25.9201 24.3299 25.4801 24.0699V24.0699Z" fill="#222222"/>
<path id="Vector_3" d="M29.8902 13.12C25.9502 10.81 20.5602 9.75 15.4302 9.75C12.4102 9.75 9.64018 10.09 7.15018 10.83C6.51018 11.02 5.93018 11.55 5.93018 12.5C5.93018 13.45 6.64018 14.17 7.58018 14.17C7.90018 14.17 8.22018 14.04 8.48018 13.98C10.6802 13.38 13.0802 13.14 15.4502 13.14C20.1902 13.14 25.0902 14.18 28.2502 16.08C28.5802 16.26 28.7902 16.35 29.1502 16.35C30.0302 16.35 30.8002 15.67 30.8002 14.72C30.8002 13.88 30.4302 13.43 29.9002 13.13L29.8902 13.12Z" fill="#222222"/>
<path id="Vector_4" d="M18 0.790039C8.49004 0.790039 0.790039 8.49004 0.790039 18C0.790039 27.51 8.50004 35.21 18 35.21C27.5 35.21 35.21 27.5 35.21 18C35.21 8.50004 27.51 0.790039 18 0.790039ZM18 33.79C9.29004 33.79 2.21004 26.71 2.21004 18C2.21004 9.29004 9.29004 2.21004 18 2.21004C26.71 2.21004 33.79 9.29004 33.79 18C33.79 26.71 26.71 33.79 18 33.79Z" fill="#222222"/>
</g>
</g>
</svg>
