<svg width="36" height="36" viewBox="0 0 36 36" fill="none" xmlns="http://www.w3.org/2000/svg">
<g id="skype_M 1">
<path id="Vector" d="M25.26 35.21C23.5 35.21 21.77 34.74 20.25 33.86C19.51 33.96 18.75 34.02 18 34.02C9.17004 34.02 1.98004 26.83 1.98004 18C1.98004 17.26 2.03004 16.5 2.14004 15.75C1.26004 14.23 0.790039 12.51 0.790039 10.74C0.790039 5.25004 5.25004 0.790039 10.74 0.790039C12.5 0.790039 14.23 1.26004 15.75 2.14004C21.44 1.33004 26.72 3.00004 30.27 6.74004C33.57 10.22 34.87 15.14 33.87 20.27C34.75 21.78 35.21 23.5 35.21 25.26C35.21 30.75 30.74 35.22 25.25 35.22L25.26 35.21ZM20.4 32.45C20.53 32.45 20.65 32.49 20.76 32.55C22.11 33.38 23.67 33.83 25.26 33.83C29.99 33.83 33.83 29.98 33.83 25.25C33.83 23.66 33.39 22.1 32.55 20.75C32.46 20.6 32.43 20.42 32.46 20.24C33.48 15.39 32.35 10.93 29.26 7.68004C25.98 4.21004 21.04 2.70004 15.7 3.53004C15.54 3.55004 15.37 3.53004 15.23 3.43004C13.88 2.60004 12.32 2.15004 10.73 2.15004C6.02004 2.17004 2.17004 6.02004 2.17004 10.74C2.17004 12.33 2.61004 13.89 3.45004 15.24C3.54004 15.38 3.57004 15.55 3.54004 15.71C3.42004 16.47 3.36004 17.24 3.36004 17.99C3.36004 26.06 9.93004 32.63 18 32.63C18.76 32.63 19.53 32.57 20.29 32.45C20.33 32.45 20.36 32.45 20.4 32.45V32.45ZM18.01 28.64C15.86 28.64 14.04 28.25 12.62 27.48C11.58 26.91 10.72 26.14 10.07 25.19C9.40004 24.21 9.06004 23.23 9.06004 22.27C9.06004 21.6 9.32004 20.99 9.82004 20.51C10.31 20.04 10.95 19.8 11.69 19.8C12.31 19.8 12.86 19.99 13.3 20.37C13.7 20.71 14.02 21.18 14.29 21.81C14.52 22.35 14.78 22.81 15.05 23.17C15.28 23.48 15.62 23.74 16.06 23.95C16.51 24.16 17.13 24.27 17.91 24.27C18.98 24.27 19.85 24.05 20.49 23.6C21.23 23.08 21.32 22.57 21.32 22.22C21.32 21.79 21.2 21.48 20.93 21.23C20.59 20.91 20.16 20.67 19.61 20.5C18.97 20.3 18.11 20.08 17.03 19.85C15.5 19.52 14.21 19.12 13.17 18.68C12.06 18.2 11.16 17.53 10.5 16.69C9.81004 15.81 9.46004 14.72 9.46004 13.45C9.46004 12.18 9.82004 11.14 10.54 10.19C11.24 9.26004 12.26 8.54004 13.56 8.05004C14.81 7.58004 16.29 7.34004 17.96 7.34004C19.3 7.34004 20.48 7.50004 21.47 7.81004C22.48 8.13004 23.33 8.56004 24.01 9.10004C24.7 9.64004 25.21 10.23 25.54 10.86C25.88 11.5 26.05 12.14 26.05 12.77C26.05 13.4 25.79 14.04 25.31 14.54C24.82 15.06 24.18 15.33 23.45 15.33C22.78 15.33 22.25 15.15 21.86 14.8C21.55 14.52 21.23 14.11 20.9 13.52C20.57 12.88 20.18 12.39 19.75 12.06C19.49 11.85 18.91 11.61 17.69 11.61C16.77 11.61 16.04 11.79 15.5 12.14C14.92 12.52 14.85 12.85 14.85 13.09C14.85 13.3 14.9 13.46 15.02 13.6C15.17 13.79 15.4 13.96 15.7 14.11C16.05 14.29 16.4 14.43 16.75 14.53C17.15 14.64 17.8 14.8 18.71 15.02C19.88 15.27 20.96 15.56 21.93 15.87C22.93 16.19 23.8 16.6 24.52 17.07C25.28 17.57 25.88 18.21 26.31 18.98C26.74 19.76 26.96 20.7 26.96 21.79C26.96 23.1 26.59 24.29 25.86 25.34C25.14 26.38 24.08 27.19 22.71 27.77C21.39 28.33 19.81 28.61 18.02 28.61L18.01 28.64ZM11.69 21.18C11.31 21.18 11.01 21.29 10.78 21.51C10.55 21.73 10.45 21.97 10.45 22.27C10.45 22.95 10.71 23.67 11.22 24.41C11.75 25.18 12.44 25.81 13.29 26.27C14.51 26.93 16.1 27.26 18.02 27.26C19.62 27.26 21.02 27.01 22.17 26.53C23.29 26.06 24.15 25.4 24.72 24.58C25.28 23.77 25.57 22.84 25.57 21.82C25.57 20.97 25.41 20.25 25.09 19.68C24.77 19.11 24.32 18.63 23.75 18.25C23.14 17.85 22.38 17.5 21.5 17.21C20.58 16.91 19.54 16.64 18.41 16.39C17.46 16.17 16.78 16 16.38 15.89C15.94 15.77 15.5 15.6 15.07 15.38C14.6 15.14 14.22 14.84 13.94 14.5C13.63 14.11 13.47 13.64 13.46 13.12C13.46 12.28 13.89 11.58 14.73 11.02C15.49 10.51 16.49 10.26 17.68 10.26C18.99 10.26 19.94 10.5 20.58 11C21.17 11.46 21.69 12.1 22.1 12.89C22.34 13.31 22.57 13.62 22.77 13.8C22.93 13.95 23.23 13.98 23.45 13.98C23.8 13.98 24.08 13.86 24.31 13.62C24.55 13.37 24.67 13.1 24.67 12.8C24.67 12.4 24.55 11.98 24.32 11.54C24.08 11.09 23.69 10.65 23.15 10.22C22.6 9.79004 21.9 9.43004 21.05 9.17004C20.19 8.90004 19.15 8.76004 17.96 8.76004C16.46 8.76004 15.14 8.97004 14.05 9.38004C13 9.77004 12.19 10.34 11.64 11.06C11.1 11.77 10.84 12.56 10.84 13.49C10.84 14.42 11.09 15.25 11.58 15.87C12.1 16.53 12.82 17.06 13.71 17.44C14.66 17.85 15.88 18.22 17.31 18.53C18.42 18.77 19.34 18.99 20.01 19.21C20.76 19.44 21.38 19.8 21.87 20.26C22.41 20.77 22.69 21.44 22.69 22.25C22.69 23.26 22.21 24.11 21.26 24.76C20.38 25.37 19.25 25.67 17.89 25.67C16.9 25.67 16.08 25.52 15.44 25.21C14.8 24.9 14.29 24.5 13.92 24.01C13.59 23.57 13.28 23.01 13 22.36C12.82 21.93 12.62 21.62 12.39 21.43C12.2 21.27 11.97 21.19 11.68 21.19L11.69 21.18Z" fill="#222222"/>
</g>
</svg>
