<svg width="36" height="36" viewBox="0 0 36 36" fill="none" xmlns="http://www.w3.org/2000/svg">
<g id="password hide_M 1">
<g id="b">
<path id="Vector" d="M28 8.97009L35.01 1.96009C35.14 1.83009 35.21 1.65009 35.21 1.47009C35.21 1.29009 35.14 1.12009 35.01 0.980088C34.74 0.710088 34.3 0.710088 34.04 0.980088L26.76 8.26009C24.13 6.92009 21.17 6.19009 18.04 6.18009H17.98C11.02 6.18009 4.84004 9.74009 1.43004 15.7001C0.640039 17.0801 0.640039 18.7901 1.42004 20.1701C3.04004 23.0501 5.32004 25.3701 8.01004 27.0101L0.990039 34.0401C0.860039 34.1701 0.790039 34.3501 0.790039 34.5301C0.790039 34.7101 0.860039 34.8801 0.990039 35.0201C1.12004 35.1501 1.30004 35.2201 1.48004 35.2201C1.66004 35.2201 1.83004 35.1501 1.97004 35.0201L9.25004 27.7401C11.88 29.0801 14.84 29.8101 17.97 29.8201H18.03C24.99 29.8201 31.17 26.2601 34.58 20.3001C35.37 18.9201 35.37 17.2101 34.59 15.8301C32.97 12.9501 30.69 10.6301 28 8.99009V8.97009ZM2.61004 19.5101C2.07004 18.5501 2.07004 17.3601 2.61004 16.4001C5.77004 10.8701 11.51 7.57009 17.96 7.57009H18.02C20.76 7.57009 23.37 8.19009 25.71 9.30009L23.6 11.4101C22.04 10.0801 20.09 9.35009 18.01 9.34009H17.98C15.68 9.34009 13.51 10.2301 11.88 11.8601C10.24 13.4901 9.33004 15.6601 9.33004 17.9701C9.33004 20.0601 10.06 22.0301 11.4 23.6101L8.98004 26.0301C6.36004 24.5001 4.15004 22.2801 2.59004 19.5101H2.61004ZM20.45 18.0001C20.45 19.3501 19.35 20.4501 18 20.4501C17.58 20.4501 17.18 20.3301 16.83 20.1401L20.14 16.8301C20.33 17.1801 20.45 17.5701 20.45 18.0001V18.0001ZM15.55 18.0001C15.55 16.6501 16.65 15.5501 18 15.5501C18.42 15.5501 18.82 15.6701 19.17 15.8601L15.86 19.1701C15.67 18.8201 15.55 18.4301 15.55 18.0001V18.0001ZM20.17 14.8501C19.55 14.4201 18.8 14.1701 18 14.1701C15.89 14.1701 14.17 15.8901 14.17 18.0001C14.17 18.8101 14.42 19.5501 14.85 20.1701L12.39 22.6301C11.3 21.3201 10.72 19.6901 10.72 17.9701C10.72 16.0301 11.49 14.2001 12.87 12.8301C14.24 11.4601 16.07 10.7101 18 10.7101H18.02C19.73 10.7101 21.34 11.3001 22.63 12.3801L20.17 14.8401V14.8501ZM15.83 21.1401C16.45 21.5701 17.2 21.8201 18 21.8201C20.11 21.8201 21.83 20.1001 21.83 17.9901C21.83 17.1801 21.58 16.4401 21.15 15.8201L23.61 13.3601C24.69 14.6701 25.28 16.3001 25.28 18.0201C25.28 19.9601 24.51 21.7901 23.13 23.1601C21.76 24.5301 19.93 25.2801 18 25.2801H17.98C16.27 25.2801 14.66 24.6901 13.37 23.6101L15.83 21.1501V21.1401ZM33.38 19.6001C30.22 25.1301 24.48 28.4301 18.03 28.4301H17.97C15.23 28.4301 12.62 27.8101 10.28 26.7001L12.39 24.5901C13.95 25.9201 15.9 26.6501 17.98 26.6601H18.01C20.31 26.6601 22.48 25.7701 24.11 24.1401C25.75 22.5101 26.66 20.3401 26.66 18.0301C26.66 15.9401 25.93 13.9701 24.59 12.3901L27.01 9.97009C29.63 11.5001 31.84 13.7201 33.4 16.4901C33.94 17.4501 33.94 18.6401 33.4 19.6001H33.38Z" fill="#222222"/>
</g>
</g>
</svg>
