<svg width="36" height="36" viewBox="0 0 36 36" fill="none" xmlns="http://www.w3.org/2000/svg">
<g id="counter support_M 1">
<g id="b">
<g id="Group">
<path id="Vector" d="M26.74 9.81006C29.22 9.81006 31.24 7.79006 31.24 5.31006C31.24 2.83006 29.22 0.810059 26.74 0.810059C24.26 0.810059 22.24 2.83006 22.24 5.31006C22.24 7.79006 24.26 9.81006 26.74 9.81006ZM26.74 2.19006C28.46 2.19006 29.86 3.59006 29.86 5.31006C29.86 7.03006 28.46 8.43006 26.74 8.43006C25.02 8.43006 23.62 7.03006 23.62 5.31006C23.62 3.59006 25.02 2.19006 26.74 2.19006V2.19006Z" fill="#222222"/>
<path id="Vector_2" d="M12.3602 13.2601C14.5402 13.2601 16.3202 11.4801 16.3202 9.3001C16.3202 7.1201 14.5402 5.3501 12.3602 5.3501C10.1802 5.3501 8.41016 7.1201 8.41016 9.3001C8.41016 11.4801 10.1802 13.2601 12.3602 13.2601V13.2601ZM12.3602 6.7301C13.7802 6.7301 14.9402 7.8901 14.9402 9.3101C14.9402 10.7301 13.7802 11.8901 12.3602 11.8901C10.9402 11.8901 9.78016 10.7301 9.78016 9.3101C9.78016 7.8901 10.9402 6.7301 12.3602 6.7301V6.7301Z" fill="#222222"/>
<path id="Vector_3" d="M26.7401 12.9202C23.0801 12.9202 19.9701 15.2502 18.7801 18.4902C17.0401 16.8702 14.7301 15.9502 12.3401 15.9502C7.11006 15.9502 2.86006 20.2002 2.86006 25.4302C2.86006 25.8102 3.17006 26.1202 3.55006 26.1202H18.2501V27.7702H1.50006C1.12006 27.7702 0.810059 28.0802 0.810059 28.4602C0.810059 28.8402 1.12006 29.1502 1.50006 29.1502H18.2601V34.5502C18.2601 34.9302 18.5701 35.2402 18.9501 35.2402H34.5501C34.9301 35.2402 35.2401 34.9302 35.2401 34.5502V21.4102C35.2401 16.7302 31.4301 12.9202 26.7501 12.9202H26.7401ZM4.27006 24.7502C4.62006 20.6102 8.11006 17.3402 12.3401 17.3402C14.6101 17.3402 16.7901 18.3002 18.3201 19.9802C18.3401 20.0002 18.3601 20.0002 18.3701 20.0202C18.2901 20.4702 18.2501 20.9402 18.2501 21.4102V24.7502H4.27006ZM33.8501 33.8602H19.6301V21.4102C19.6301 17.4902 22.8201 14.3002 26.7401 14.3002C30.6601 14.3002 33.8501 17.4902 33.8501 21.4102V33.8602Z" fill="#222222"/>
</g>
</g>
</g>
</svg>
