<svg width="36" height="36" viewBox="0 0 36 36" fill="none" xmlns="http://www.w3.org/2000/svg">
<g id="building_M 1">
<path id="Vector" d="M34.97 0.960076C34.82 0.830076 34.62 0.770076 34.42 0.800076L11.79 4.02008C11.45 4.07008 11.2 4.36008 11.2 4.70008V10.3101L1.66004 7.72008C1.45004 7.66008 1.23004 7.71008 1.06004 7.84008C0.890039 7.97008 0.790039 8.17008 0.790039 8.39008V34.5301C0.790039 34.9101 1.10004 35.2201 1.48004 35.2201H34.52C34.9 35.2201 35.21 34.9101 35.21 34.5301V1.48008C35.21 1.28008 35.12 1.09008 34.97 0.960076ZM33.83 2.28008V8.39008H12.58V5.31008L33.84 2.28008H33.83ZM33.83 13.7901H27.75V9.76008H33.83V13.7901ZM12.57 13.7901V9.76008H18.65V13.7901H12.57V13.7901ZM20.03 9.76008H26.37V13.7901H20.03V9.76008ZM11.18 11.7401V13.9001H2.17004V9.29008L11.19 11.7401H11.18ZM11.15 15.2801V19.3001H2.19004V15.2801H11.16H11.15ZM2.17004 33.8301V20.6801H11.18V33.8301H2.17004ZM20.83 33.8301V26.0901H26.1V33.8301H20.83ZM27.48 33.8301V25.4001C27.48 25.0201 27.17 24.7101 26.79 24.7101H20.14C19.76 24.7101 19.45 25.0201 19.45 25.4001V33.8301H12.58V15.1701H33.84V33.8401H27.48V33.8301Z" fill="#222222"/>
</g>
</svg>
