<svg width="36" height="36" viewBox="0 0 36 36" fill="none" xmlns="http://www.w3.org/2000/svg">
<g id="house country_M 1">
<g id="Group">
<path id="Vector" d="M29.2899 21.31C29.1799 21.07 28.9399 20.91 28.6699 20.9C28.3999 20.9 28.1599 21.05 28.0499 21.29L26.5399 24.45L22.5599 17.69C22.4399 17.49 22.2299 17.36 21.9999 17.35C21.7499 17.35 21.5499 17.45 21.4099 17.63L19.2999 20.55L11.8999 14.86C11.6499 14.67 11.3099 14.67 11.0599 14.86L1.04992 22.56C0.819922 22.74 0.719923 23.05 0.819923 23.33C0.909923 23.61 1.17992 23.8 1.46992 23.8H4.47992V34.57C4.47992 34.95 4.78992 35.26 5.16992 35.26H9.08992C9.46992 35.26 9.77992 34.95 9.77992 34.57V29H13.1499V34.57C13.1499 34.95 13.4599 35.26 13.8399 35.26H17.7599L34.4899 35.21C34.7199 35.21 34.9399 35.09 35.0699 34.89C35.1999 34.69 35.2099 34.45 35.1199 34.23L29.2899 21.3V21.31ZM21.8999 19.31L30.4599 33.85L18.4499 33.88V23.8H21.4599C21.7499 23.8 22.0199 23.61 22.1099 23.33C22.2099 23.05 22.1099 22.74 21.8799 22.56L20.3799 21.4L21.8999 19.3V19.31ZM11.4699 16.29L19.4399 22.42H3.49992L11.4699 16.29ZM13.8499 27.62H9.09992C8.71992 27.62 8.40992 27.93 8.40992 28.31V33.88H5.86992V23.8H17.0799V33.88H14.5399V28.31C14.5399 27.93 14.2299 27.62 13.8499 27.62V27.62ZM32.0599 33.84L27.3799 25.89L28.6499 23.23L33.4299 33.83H32.0599V33.84Z" fill="#222222"/>
<path id="Vector_2" d="M21.71 8.60007H24.59C24.68 9.09007 24.86 9.55007 25.13 9.95007C25.1 9.97007 25.06 9.99007 25.03 10.0201L23.09 11.9601C22.96 12.0901 22.89 12.2701 22.89 12.4501C22.89 12.6301 22.96 12.8001 23.09 12.9401C23.22 13.0801 23.4 13.1401 23.58 13.1401C23.76 13.1401 23.93 13.0701 24.07 12.9401L26.01 11.0001C26.01 11.0001 26.05 10.9301 26.07 10.9001C26.47 11.1701 26.93 11.3601 27.42 11.4601V14.3201C27.42 14.7001 27.73 15.0101 28.11 15.0101C28.49 15.0101 28.8 14.7001 28.8 14.3201V11.4501C29.28 11.3501 29.71 11.1501 30.1 10.8901L32.15 12.9401C32.28 13.0701 32.46 13.1401 32.64 13.1401C32.82 13.1401 32.99 13.0701 33.13 12.9401C33.27 12.8101 33.33 12.6301 33.33 12.4501C33.33 12.2701 33.26 12.1001 33.13 11.9601L31.06 9.89007C31.31 9.51007 31.48 9.07007 31.57 8.61007H34.52C34.9 8.61007 35.21 8.30007 35.21 7.92007C35.21 7.54007 34.9 7.23007 34.52 7.23007H31.55C31.45 6.78007 31.27 6.36007 31.02 5.99007L33.13 3.88007C33.26 3.75007 33.33 3.57007 33.33 3.39007C33.33 3.21007 33.26 3.04007 33.13 2.90007C32.86 2.63007 32.43 2.63007 32.16 2.90007L30.05 5.01007C29.68 4.76007 29.26 4.58007 28.81 4.49007V1.51007C28.81 1.13007 28.5 0.820068 28.12 0.820068C27.74 0.820068 27.43 1.13007 27.43 1.51007V4.48007C26.96 4.57007 26.53 4.74007 26.15 4.99007C26.13 4.96007 26.12 4.93007 26.1 4.91007L24.08 2.89007C23.81 2.62007 23.38 2.62007 23.11 2.89007C22.98 3.02007 22.91 3.20007 22.91 3.38007C22.91 3.56007 22.98 3.73007 23.11 3.87007L25.13 5.89007C25.13 5.89007 25.17 5.91007 25.19 5.93007C24.92 6.31007 24.72 6.75007 24.62 7.22007H21.72C21.34 7.22007 21.03 7.53007 21.03 7.91007C21.03 8.29007 21.34 8.60007 21.72 8.60007H21.71ZM28.07 5.79007C29.27 5.79007 30.24 6.76007 30.24 7.96007C30.24 9.16007 29.27 10.1301 28.07 10.1301C26.87 10.1301 25.9 9.16007 25.9 7.96007C25.9 6.76007 26.87 5.79007 28.07 5.79007Z" fill="#222222"/>
</g>
</g>
</svg>
