<svg width="36" height="36" viewBox="0 0 36 36" fill="none" xmlns="http://www.w3.org/2000/svg">
<g id="power factory_M 1">
<g id="Group">
<path id="Vector" d="M24.1901 21.6301H20.1201V8.13011C20.1201 7.87011 19.9701 7.63011 19.7301 7.51011L13.1301 4.29011C12.9201 4.19011 12.6701 4.20011 12.4601 4.32011C12.2601 4.45011 12.1401 4.67011 12.1401 4.90011V10.2201C11.4401 9.60011 10.5301 9.22011 9.53009 9.22011C7.35009 9.22011 5.58009 10.9901 5.58009 13.1701C5.58009 13.1901 5.58009 13.2401 5.58009 13.2701V21.6201H1.53009C1.15009 21.6201 0.840088 21.9301 0.840088 22.3101V27.3601C0.840088 27.7401 1.15009 28.0501 1.53009 28.0501H6.74009V34.5501C6.74009 34.9301 7.05009 35.2401 7.43009 35.2401C7.81009 35.2401 8.12009 34.9301 8.12009 34.5501V28.0701H17.6001V34.5501C17.6001 34.9301 17.9101 35.2401 18.2901 35.2401C18.6701 35.2401 18.9801 34.9301 18.9801 34.5501V28.0501H24.2001C24.5801 28.0501 24.8901 27.7401 24.8901 27.3601V22.3101C24.8901 21.9301 24.5801 21.6201 24.2001 21.6201L24.1901 21.6301ZM13.5301 6.01011L18.7501 8.56011V21.6301H13.5301V6.01011V6.01011ZM9.54009 10.6101C10.9501 10.6101 12.1001 11.7501 12.1201 13.1501C12.1201 13.1801 12.1201 13.2201 12.1201 13.2501V21.6301H6.97009V13.1801C6.97009 11.7601 8.12009 10.6001 9.54009 10.6001V10.6101ZM23.5001 26.6901H2.21009V23.0101H23.5001V26.6901Z" fill="#222222"/>
<path id="Vector_2" d="M17.2701 4.54008C17.6501 4.54008 17.9501 4.24008 17.9601 3.86008C17.9601 3.31008 18.2701 2.76008 18.7501 2.45008C19.2401 2.13008 19.9201 2.05008 20.4801 2.25008C20.7701 2.35008 21.0401 2.49008 21.3301 2.63008C21.8501 2.89008 22.3901 3.16008 23.0701 3.26008C24.5001 3.48008 25.9301 3.05008 27.3101 2.00008C27.6101 1.77008 27.6701 1.34008 27.4401 1.04008C27.2101 0.740078 26.7801 0.680078 26.4801 0.910078C25.3901 1.74008 24.3501 2.06008 23.2801 1.90008C22.8101 1.83008 22.4101 1.63008 21.9501 1.40008C21.6401 1.24008 21.3101 1.08008 20.9401 0.950078C19.9801 0.610078 18.8501 0.740078 18.0001 1.30008C17.1401 1.87008 16.6001 2.85008 16.5901 3.85008C16.5901 4.23008 16.8901 4.54008 17.2701 4.54008V4.54008Z" fill="#222222"/>
<path id="Vector_3" d="M35.0202 4.63017C34.7902 4.33017 34.3602 4.27017 34.0602 4.50017C32.9702 5.33017 31.9202 5.65017 30.8602 5.49017C30.3902 5.42017 29.9902 5.22017 29.5302 4.99017C29.2202 4.83017 28.8902 4.67017 28.5202 4.54017C27.5502 4.20017 26.4302 4.33017 25.5802 4.89017C24.7202 5.46017 24.1802 6.44017 24.1702 7.44017C24.1702 7.82017 24.4702 8.13017 24.8502 8.13017C25.2302 8.13017 25.5302 7.83017 25.5402 7.45017C25.5402 6.90017 25.8602 6.35017 26.3302 6.04017C26.8202 5.72017 27.5002 5.64017 28.0602 5.84017C28.3502 5.94017 28.6202 6.08017 28.9102 6.22017C29.4302 6.48017 29.9702 6.75017 30.6502 6.85017C32.0802 7.06017 33.5102 6.64017 34.8902 5.59017C35.1902 5.36017 35.2502 4.93017 35.0202 4.63017V4.63017Z" fill="#222222"/>
</g>
</g>
</svg>
