<svg width="36" height="36" viewBox="0 0 36 36" fill="none" xmlns="http://www.w3.org/2000/svg">
<g id="protect email_M 1">
<path id="Vector" d="M34.6199 30.7701L31.85 30.2601C31.75 30.2401 31.64 30.2501 31.54 30.2701L19.82 33.5901C18.51 33.9601 17.13 33.9101 15.85 33.4401L2.58995 28.6101C2.42995 28.5601 2.30995 28.4501 2.23995 28.3001C2.16995 28.1501 2.16995 27.9901 2.23995 27.8401C2.33995 27.6201 2.56995 27.4901 2.79995 27.5001L14.15 28.3501C14.18 28.5501 14.23 28.7601 14.32 28.9501C14.7 29.7801 15.53 30.3001 16.43 30.3001C16.54 30.3001 16.64 30.3001 16.75 30.2801L25.3099 29.0601C25.6899 29.0101 25.9499 28.6601 25.8899 28.2801C25.8299 27.9001 25.49 27.6401 25.11 27.7001L16.55 28.9201C16.15 28.9801 15.74 28.7601 15.57 28.3801C15.36 27.9201 15.57 27.3701 16.02 27.1501L25.69 22.5801C26.57 22.1601 27.58 22.1501 28.53 22.5701L33.1199 24.1401C33.4799 24.2601 33.87 24.0701 34 23.7101C34.12 23.3501 33.93 22.9601 33.57 22.8301L29.1399 21.3101V14.0501H33.63C33.92 14.0501 34.1899 13.8601 34.2799 13.5801C34.3799 13.3001 34.2799 12.9901 34.0499 12.8101L18.58 0.930098C18.33 0.740098 17.99 0.740098 17.74 0.930098L2.27995 12.8201C2.04995 13.0001 1.94995 13.3101 2.04995 13.5901C2.13995 13.8701 2.40995 14.0601 2.69995 14.0601H6.91995C6.91995 14.0601 6.89995 14.1301 6.89995 14.1601V26.4201L2.90995 26.1201C2.08995 26.0601 1.31995 26.5201 0.989951 27.2701C0.769951 27.7701 0.769951 28.3501 0.989951 28.8601C1.21995 29.3601 1.64995 29.7501 2.14995 29.9101L15.38 34.7301C16.25 35.0501 17.1499 35.2101 18.0599 35.2101C18.7799 35.2101 19.49 35.1101 20.2 34.9101L31.77 31.6301L34.38 32.1201C34.75 32.1901 35.11 31.9401 35.18 31.5701C35.25 31.2001 35 30.8401 34.63 30.7701H34.6199ZM15.44 25.9101C15.25 26.0001 15.08 26.1201 14.93 26.2601V21.9701H20.95V23.3101L15.45 25.9101H15.44ZM18.16 2.3501L31.6 12.6901H4.71995L18.16 2.3501ZM8.25995 14.0601H27.76V20.9301C26.86 20.8101 25.94 20.9301 25.11 21.3301L22.32 22.6501V21.2701C22.32 20.8901 22.0099 20.5801 21.6299 20.5801H14.24C13.86 20.5801 13.55 20.8901 13.55 21.2701V26.9101L8.27995 26.5201V14.1601C8.27995 14.1601 8.25995 14.0901 8.25995 14.0601V14.0601Z" fill="#222222"/>
</g>
</svg>
