<svg width="36" height="36" viewBox="0 0 36 36" fill="none" xmlns="http://www.w3.org/2000/svg">
<g id="unlocked_M 1">
<g id="b">
<g id="Group">
<path id="Vector" d="M31.06 15.29C31.06 12.69 28.89 10.57 26.22 10.57H14.2V6.91005C14.2 3.54005 11.46 0.800049 8.08998 0.800049C4.71998 0.800049 1.97998 3.54005 1.97998 6.91005V11.2C1.97998 11.58 2.28998 11.89 2.66998 11.89C3.04998 11.89 3.35998 11.58 3.35998 11.2V6.91005C3.35998 4.30005 5.47998 2.18005 8.08998 2.18005C10.7 2.18005 12.82 4.30005 12.82 6.91005V10.57H11.59C8.91998 10.57 6.74998 12.69 6.74998 15.29V30.48C6.74998 30.48 6.74998 30.5001 6.74998 30.5201C6.74998 30.5301 6.74998 30.54 6.74998 30.56C6.74998 33.14 8.89998 35.23 11.54 35.23H26.26C28.9 35.23 31.05 33.13 31.05 30.56V15.29H31.06ZM26.27 33.85H11.54C9.65998 33.85 8.12998 32.37 8.12998 30.56C8.12998 30.55 8.12998 30.5401 8.12998 30.5201C8.12998 30.5101 8.12998 30.5 8.12998 30.48V15.29C8.12998 13.45 9.67998 11.95 11.59 11.95H26.22C28.13 11.95 29.68 13.45 29.68 15.29V30.5301V30.56C29.68 32.38 28.15 33.85 26.27 33.85V33.85Z" fill="#222222"/>
<path id="Vector_2" d="M18.91 16.8C17.29 16.8 15.88 17.92 15.55 19.47C15.5 19.7 15.48 19.93 15.48 20.16V25.13C15.48 26.98 17.02 28.48 18.91 28.48C20.53 28.48 21.94 27.36 22.27 25.81C22.32 25.58 22.34 25.3501 22.34 25.1201V20.15C22.34 18.3 20.8 16.8 18.91 16.8ZM20.96 25.1201C20.96 25.2501 20.95 25.3901 20.92 25.5301C20.73 26.4401 19.88 27.1101 18.91 27.1101C17.78 27.1101 16.86 26.23 16.86 25.14V20.17C16.86 20.04 16.87 19.9 16.9 19.76C17.09 18.85 17.94 18.18 18.91 18.18C20.04 18.18 20.96 19.06 20.96 20.15V25.1201V25.1201Z" fill="#222222"/>
</g>
</g>
</g>
</svg>
