<svg width="36" height="36" viewBox="0 0 36 36" fill="none" xmlns="http://www.w3.org/2000/svg">
<g id="locked_M 1">
<g id="b">
<g id="Group">
<path id="Vector" d="M30.1498 15.28C30.1498 12.68 27.9798 10.56 25.3098 10.56H24.1398V6.90004C24.1398 3.53004 21.3998 0.790039 18.0298 0.790039C14.6598 0.790039 11.9198 3.53004 11.9198 6.90004V10.56H10.6798C8.00984 10.56 5.83984 12.68 5.83984 15.28V30.47C5.83984 30.47 5.83984 30.49 5.83984 30.51C5.83984 30.52 5.83984 30.53 5.83984 30.55C5.83984 33.13 7.98984 35.22 10.6298 35.22H25.3498C27.9898 35.22 30.1398 33.12 30.1398 30.55V15.28H30.1498ZM13.2998 6.90004C13.2998 4.29004 15.4198 2.17004 18.0298 2.17004C20.6398 2.17004 22.7598 4.29004 22.7598 6.90004V10.5H13.2998V6.90004ZM25.3598 33.83H10.6398C8.75984 33.83 7.22984 32.35 7.22984 30.54C7.22984 30.53 7.22984 30.52 7.22984 30.5C7.22984 30.49 7.22984 30.48 7.22984 30.46V15.28C7.22984 13.44 8.77984 11.94 10.6898 11.94H25.3198C27.2298 11.94 28.7798 13.44 28.7798 15.28V30.52V30.55C28.7798 32.37 27.2498 33.84 25.3698 33.84L25.3598 33.83Z" fill="#222222"/>
<path id="Vector_2" d="M17.9998 16.79C16.3798 16.79 14.9698 17.91 14.6398 19.46C14.5898 19.69 14.5698 19.92 14.5698 20.15V25.12C14.5698 26.97 16.1098 28.47 17.9998 28.47C19.6198 28.47 21.0298 27.35 21.3598 25.8C21.4098 25.57 21.4298 25.34 21.4298 25.11V20.14C21.4298 18.29 19.8898 16.79 17.9998 16.79V16.79ZM20.0498 25.11C20.0498 25.24 20.0398 25.38 20.0098 25.52C19.8198 26.43 18.9698 27.1 17.9998 27.1C16.8698 27.1 15.9498 26.22 15.9498 25.13V20.16C15.9498 20.03 15.9598 19.89 15.9898 19.75C16.1798 18.84 17.0298 18.17 17.9998 18.17C19.1298 18.17 20.0498 19.05 20.0498 20.14V25.11Z" fill="#222222"/>
</g>
</g>
</g>
</svg>
