<svg width="36" height="36" viewBox="0 0 36 36" fill="none" xmlns="http://www.w3.org/2000/svg">
<g id="backoffice_M 1">
<g id="b">
<g id="Group">
<path id="Vector" d="M34.52 4.93994H1.48004C1.10004 4.93994 0.790039 5.24994 0.790039 5.62994V32.6499C0.790039 33.0299 1.10004 33.3399 1.48004 33.3399H34.52C34.9 33.3399 35.21 33.0299 35.21 32.6499V5.62994C35.21 5.24994 34.9 4.93994 34.52 4.93994V4.93994ZM33.83 6.31994V8.91994H2.17004V6.31994H33.84H33.83ZM33.83 31.8799H2.17004V10.2999H33.84V31.8899L33.83 31.8799Z" fill="#222222"/>
<path id="Vector_2" d="M17.9801 24.98H17.9901C19.0901 24.98 20.1201 24.55 20.9001 23.78C21.6801 23 22.1201 21.97 22.1201 20.87C22.1201 19.77 21.7001 18.73 20.9201 17.95C20.1401 17.17 19.1101 16.73 18.0101 16.73H18.0001C16.9001 16.73 15.8701 17.16 15.0901 17.93C14.3101 18.71 13.8701 19.74 13.8701 20.84C13.8701 23.12 15.7101 24.97 17.9801 24.98V24.98ZM16.0101 18.85C16.5401 18.32 17.2501 18.03 18.0001 18.03H18.0101C18.7601 18.03 19.4701 18.33 20.0001 18.86C20.5301 19.39 20.8201 20.1 20.8201 20.86C20.8201 21.61 20.5201 22.32 19.9901 22.85C19.4601 23.38 18.7501 23.67 18.0001 23.67H17.9901C16.4301 23.67 15.1701 22.39 15.1801 20.84C15.1801 20.09 15.4801 19.38 16.0101 18.85V18.85Z" fill="#222222"/>
<path id="Vector_3" d="M11.4899 20.8299C11.4899 21.1699 11.5199 21.5299 11.5799 21.8799L9.90994 23.5199L11.6499 26.5599L14.0199 25.9299C14.5299 26.3099 15.0899 26.6199 15.6899 26.8299L16.3399 29.2799H19.8499L20.5699 26.5999C20.9699 26.4099 21.3599 26.1799 21.7099 25.8999L24.2699 26.6099L26.0399 23.5799L24.1699 21.6999C24.2099 21.4199 24.2299 21.1399 24.2299 20.8599C24.2299 20.6699 24.2299 20.4699 24.1999 20.2599L26.3299 18.1699L24.5899 15.1299L21.8299 15.8599C21.4499 15.5599 21.0399 15.2999 20.6099 15.0899L19.8999 12.3899H16.1499L15.7099 14.8399C15.0999 15.0599 14.5299 15.3699 14.0199 15.7599L11.4599 15.0499L9.68994 18.0799L11.5599 19.9599C11.5199 20.2399 11.4999 20.5199 11.4999 20.7899L11.4899 20.8299ZM11.3099 17.8999L12.0699 16.5999L14.3099 17.2199L14.5699 16.9999C15.1199 16.5299 15.7499 16.1899 16.4499 15.9899L16.8399 15.8799L17.2299 13.7299H18.8899L19.5099 16.0599L19.8099 16.1799C20.3199 16.3899 20.7999 16.6899 21.2299 17.0799L21.4899 17.3099L23.9499 16.6599L24.6999 17.9599L22.8199 19.7999L22.8699 20.1299C22.9099 20.3999 22.9299 20.6399 22.9299 20.8699C22.9299 21.1799 22.8999 21.4899 22.8399 21.8099L22.7799 22.1499L24.4199 23.7999L23.6599 25.0999L21.4199 24.4799L21.1599 24.6999C20.7499 25.0499 20.2899 25.3299 19.7899 25.5399L19.4899 25.6599L18.8699 27.9999H17.3699L16.7899 25.8099L16.4399 25.7099C15.7699 25.5099 15.1499 25.1799 14.6199 24.7299L14.3599 24.5099L12.3099 25.0499L11.5599 23.7499L13.0199 22.3199L12.9399 21.9699C12.8499 21.5799 12.8099 21.1999 12.8099 20.8399C12.8099 20.5399 12.8399 20.2199 12.8999 19.8999L12.9699 19.5599L11.3299 17.9099L11.3099 17.8999Z" fill="#222222"/>
</g>
</g>
</g>
</svg>
