<svg width="36" height="36" viewBox="0 0 36 36" fill="none" xmlns="http://www.w3.org/2000/svg">
<g id="notification_M 1">
<g id="b">
<path id="Vector" d="M27.7498 12.39C27.0898 8.86005 24.3398 6.11005 20.7798 5.13005C21.8598 4.28005 22.5598 2.97005 22.5598 1.49005C22.5598 1.11005 22.2498 0.800049 21.8698 0.800049H13.9898C13.6098 0.800049 13.2998 1.11005 13.2998 1.49005C13.2998 2.97005 13.9998 4.29005 15.0798 5.13005C11.4698 6.14005 8.64983 8.99005 8.06983 12.54L4.80983 28.3C4.76983 28.5 4.81983 28.7101 4.94983 28.8701C5.07983 29.0301 5.27983 29.1201 5.47983 29.1201H11.1598C11.5098 32.5401 14.3998 35.2201 17.9098 35.2201C21.4198 35.2201 24.3098 32.5401 24.6598 29.1201H30.3398C30.5498 29.1201 30.7398 29.0301 30.8698 28.8701C30.9998 28.7101 31.0498 28.5 31.0098 28.3L27.7198 12.38L27.7498 12.39ZM21.0998 2.18005C20.7798 3.64005 19.4798 4.74005 17.9198 4.74005C16.3598 4.74005 15.0598 3.64005 14.7398 2.18005H21.0898H21.0998ZM17.9198 33.85C15.1698 33.85 12.8998 31.79 12.5598 29.13H23.2798C22.9398 31.79 20.6698 33.85 17.9198 33.85ZM6.32983 27.75L9.41983 12.79C10.0398 8.98005 13.6898 6.11005 17.9198 6.11005C22.1498 6.11005 25.6898 8.85005 26.3898 12.64L29.5098 27.75H6.33983H6.32983Z" fill="#222222"/>
</g>
</g>
</svg>
