<svg width="36" height="36" viewBox="0 0 36 36" fill="none" xmlns="http://www.w3.org/2000/svg">
<g id="distance 2m_M 1">
<g id="b">
<g id="Group">
<path id="Vector" d="M6.47998 9.86011C8.95998 9.86011 10.98 7.84011 10.98 5.36011C10.98 2.88011 8.95998 0.860107 6.47998 0.860107C3.99998 0.860107 1.97998 2.88011 1.97998 5.36011C1.97998 7.84011 3.99998 9.86011 6.47998 9.86011ZM6.47998 2.23011C8.19998 2.23011 9.60998 3.63011 9.60998 5.35011C9.60998 7.07011 8.20998 8.48011 6.47998 8.48011C4.74998 8.48011 3.35998 7.08011 3.35998 5.35011C3.35998 3.62011 4.75998 2.23011 6.47998 2.23011V2.23011Z" fill="#222222"/>
<path id="Vector_2" d="M6.48004 11.9502C3.34004 11.9502 0.790039 14.5002 0.790039 17.6402V34.5102C0.790039 34.8902 1.10004 35.2002 1.48004 35.2002H11.48C11.86 35.2002 12.17 34.8902 12.17 34.5102V17.6402C12.17 14.5002 9.62004 11.9502 6.48004 11.9502V11.9502ZM10.79 33.8202H2.16004V17.6402C2.16004 15.2602 4.10004 13.3302 6.47004 13.3302C8.84004 13.3302 10.78 15.2702 10.78 17.6402V33.8202H10.79Z" fill="#222222"/>
<path id="Vector_3" d="M29.52 9.84008C32 9.84008 34.02 7.82008 34.02 5.34008C34.02 2.86008 32 0.830078 29.52 0.830078C27.04 0.830078 25.02 2.85008 25.02 5.33008C25.02 7.81008 27.04 9.83008 29.52 9.83008V9.84008ZM29.52 2.21008C31.24 2.21008 32.65 3.61008 32.65 5.33008C32.65 7.05008 31.25 8.46008 29.52 8.46008C27.79 8.46008 26.4 7.06008 26.4 5.33008C26.4 3.60008 27.8 2.21008 29.52 2.21008V2.21008Z" fill="#222222"/>
<path id="Vector_4" d="M29.5201 11.97C26.3801 11.97 23.8301 14.52 23.8301 17.66V34.53C23.8301 34.91 24.1401 35.22 24.5201 35.22H34.5201C34.9001 35.22 35.2101 34.91 35.2101 34.53V17.67C35.2101 14.53 32.6601 11.98 29.5201 11.98V11.97ZM33.8301 33.84H25.2001V17.67C25.2001 15.29 27.1401 13.36 29.5101 13.36C31.8801 13.36 33.8201 15.3 33.8201 17.67V33.85L33.8301 33.84Z" fill="#222222"/>
<path id="Vector_5" d="M19.1801 1.8402C18.9101 1.5702 18.4801 1.5702 18.2101 1.8402C17.9401 2.1102 17.9401 2.5402 18.2101 2.8102L20.1101 4.7102H14.2501C13.8701 4.7102 13.5601 5.0202 13.5601 5.4002C13.5601 5.7802 13.8701 6.0902 14.2501 6.0902H20.1101L18.2101 7.9902C17.9401 8.2602 17.9401 8.6902 18.2101 8.9602C18.3401 9.0902 18.5201 9.1602 18.7001 9.1602C18.8801 9.1602 19.0501 9.0902 19.1901 8.9602L22.2601 5.8902C22.5301 5.6202 22.5301 5.1902 22.2601 4.9202L19.1901 1.8502L19.1801 1.8402Z" fill="#222222"/>
<path id="Vector_6" d="M21.7601 16.1501H15.9001L17.8001 14.2501C18.0701 13.9801 18.0701 13.5501 17.8001 13.2801C17.5301 13.0101 17.1001 13.0101 16.8301 13.2801L13.7601 16.3501C13.4901 16.6201 13.4901 17.0501 13.7601 17.3201L16.8301 20.3901C16.9601 20.5201 17.1401 20.5901 17.3201 20.5901C17.5001 20.5901 17.6701 20.5201 17.8101 20.3901C18.0801 20.1201 18.0801 19.6901 17.8101 19.4201L15.9101 17.5201H21.7701C22.1501 17.5201 22.4601 17.2101 22.4601 16.8301C22.4601 16.4501 22.1501 16.1401 21.7701 16.1401L21.7601 16.1501Z" fill="#222222"/>
</g>
</g>
</g>
</svg>
