<svg width="36" height="36" viewBox="0 0 36 36" fill="none" xmlns="http://www.w3.org/2000/svg">
<g id="fingerprint_M 1">
<g id="b">
<g id="Group">
<path id="Vector" d="M21.02 35.21C20.91 35.21 20.81 35.21 20.7 35.21C20.32 35.21 20.02 34.89 20.02 34.51C20.02 34.13 20.36 33.85 20.72 33.83C24.29 33.91 27.64 32.59 30.11 30.12C35.25 24.98 35.02 16.4 29.6 10.98L25.01 6.38997C22.38 3.75997 18.94 2.25997 15.32 2.16997C11.71 2.07997 8.35998 3.39997 5.86998 5.87997C0.739978 11.02 0.969978 19.6 6.38998 25.02L10.98 29.61C11.25 29.88 11.25 30.32 10.98 30.59C10.71 30.86 10.27 30.86 9.99998 30.59L5.40998 26C-0.540021 20.04 -0.770021 10.58 4.90998 4.90997C7.65998 2.14997 11.37 0.689973 15.36 0.789973C19.34 0.889973 23.11 2.52997 25.99 5.40997L30.58 9.99997C36.54 15.96 36.76 25.42 31.09 31.09C28.43 33.75 24.86 35.21 21.02 35.21V35.21Z" fill="#222222"/>
<path id="Vector_2" d="M20.03 29.78C19.94 29.78 19.85 29.78 19.76 29.78C17.03 29.71 14.44 28.59 12.47 26.61L9.39005 23.53C5.31005 19.44 5.15005 12.95 9.05005 9.04995C10.94 7.15995 13.47 6.13995 16.23 6.21995C18.96 6.28995 21.55 7.40995 23.52 9.38995L26.6 12.47C26.87 12.74 26.87 13.18 26.6 13.45C26.33 13.72 25.89 13.72 25.62 13.45L22.54 10.37C20.82 8.64995 18.56 7.66995 16.19 7.60995C13.85 7.54995 11.64 8.40995 10.02 10.03C6.66005 13.39 6.81005 19.0099 10.36 22.5499L13.44 25.6299C15.16 27.3499 17.42 28.3299 19.79 28.3899C22.12 28.4499 24.34 27.5899 25.96 25.9699C27.05 24.8799 27.81 23.51 28.16 21.99C28.25 21.62 28.62 21.39 28.99 21.47C29.36 21.56 29.59 21.9299 29.51 22.2999C29.1 24.0599 28.21 25.67 26.94 26.94C25.11 28.77 22.66 29.77 20.02 29.77L20.03 29.78Z" fill="#222222"/>
<path id="Vector_3" d="M19.0198 24.2999C17.5698 24.2999 16.0898 23.7299 14.9598 22.5999C14.6898 22.3299 14.6898 21.8899 14.9598 21.6199C15.2298 21.3499 15.6698 21.3499 15.9398 21.6199C17.5998 23.2799 20.2298 23.3599 21.7998 21.7899C23.3698 20.2199 23.2898 17.5899 21.6298 15.9299L20.0698 14.3699C18.4098 12.7099 15.7798 12.6299 14.2098 14.1999C13.1798 15.2299 12.8198 16.7699 13.2698 18.2299C13.3798 18.5899 13.1798 18.9799 12.8198 19.0899C12.4498 19.1999 12.0698 18.9999 11.9598 18.6399C11.3598 16.6899 11.8498 14.6199 13.2398 13.2199C15.3498 11.1199 18.8498 11.1899 21.0498 13.3899L22.6098 14.9499C24.8098 17.1499 24.8898 20.6499 22.7798 22.7599C21.7598 23.7799 20.4098 24.2899 19.0298 24.2899L19.0198 24.2999Z" fill="#222222"/>
<path id="Vector_4" d="M19.2501 19.9399C19.0701 19.9399 18.9001 19.8699 18.7601 19.7399L16.2601 17.2399C16.1301 17.1099 16.0601 16.9299 16.0601 16.7499C16.0601 16.5699 16.1301 16.3999 16.2601 16.2599C16.5301 15.9899 16.9701 15.9899 17.2401 16.2599L19.7401 18.7599C19.8701 18.8899 19.9401 19.0699 19.9401 19.2499C19.9401 19.4299 19.8701 19.5999 19.7401 19.7399C19.6101 19.8699 19.4301 19.9399 19.2501 19.9399V19.9399Z" fill="#222222"/>
</g>
</g>
</g>
</svg>
