<svg width="36" height="36" viewBox="0 0 36 36" fill="none" xmlns="http://www.w3.org/2000/svg">
<g id="manage fund_M 1">
<g id="Group">
<path id="Vector" d="M18.32 23.04H1.46002C1.08002 23.04 0.77002 23.35 0.77002 23.73C0.77002 24.11 1.08002 24.42 1.46002 24.42H18.32C18.7 24.42 19.01 24.11 19.01 23.73C19.01 23.35 18.7 23.04 18.32 23.04Z" fill="#222222"/>
<path id="Vector_2" d="M18.32 27.1101H1.46002C1.08002 27.1101 0.77002 27.4201 0.77002 27.8001C0.77002 28.1801 1.08002 28.4901 1.46002 28.4901H18.32C18.7 28.4901 19.01 28.1801 19.01 27.8001C19.01 27.4201 18.7 27.1101 18.32 27.1101Z" fill="#222222"/>
<path id="Vector_3" d="M34.51 0.77002H1.48004C1.10004 0.77002 0.790039 1.08002 0.790039 1.46002V19.48C0.790039 19.86 1.10004 20.17 1.48004 20.17H34.51C34.89 20.17 35.2 19.86 35.2 19.48V1.46002C35.2 1.08002 34.89 0.77002 34.51 0.77002ZM33.82 18.79H2.17004V2.15002H33.82V18.79Z" fill="#222222"/>
<path id="Vector_4" d="M25.8301 17.3099H30.4501C30.8301 17.3099 31.1401 16.9999 31.1401 16.6199C31.1401 16.2399 30.8301 15.9299 30.4501 15.9299H25.8301C25.4501 15.9299 25.1401 16.2399 25.1401 16.6199C25.1401 16.9999 25.4501 17.3099 25.8301 17.3099Z" fill="#222222"/>
<path id="Vector_5" d="M5.5401 5.02014H10.1601C10.5401 5.02014 10.8501 4.71014 10.8501 4.33014C10.8501 3.95014 10.5401 3.64014 10.1601 3.64014H5.5401C5.1601 3.64014 4.8501 3.95014 4.8501 4.33014C4.8501 4.71014 5.1601 5.02014 5.5401 5.02014V5.02014Z" fill="#222222"/>
<path id="Vector_6" d="M10.2002 8.99996C10.2002 9.37996 10.5102 9.68996 10.8902 9.68996H11.9802C11.9402 10.12 11.9302 10.56 11.9802 11H10.8902C10.5102 11 10.2002 11.31 10.2002 11.69C10.2002 12.07 10.5102 12.38 10.8902 12.38H12.2702C12.5802 13.36 13.1202 14.28 13.9002 15.06C15.1602 16.32 16.8302 17.01 18.6002 17.01C20.3702 17.01 22.0502 16.32 23.3002 15.06C23.5702 14.79 23.5702 14.35 23.3002 14.09C23.0302 13.83 22.5902 13.82 22.3302 14.09C21.3302 15.09 20.0102 15.63 18.6002 15.63C17.1902 15.63 15.8702 15.08 14.8702 14.09C14.3702 13.59 13.9902 13 13.7302 12.38H18.6802C19.0602 12.38 19.3702 12.07 19.3702 11.69C19.3702 11.31 19.0602 11 18.6802 11H13.3702C13.3202 10.57 13.3202 10.13 13.3702 9.68996H18.6802C19.0602 9.68996 19.3702 9.37996 19.3702 8.99996C19.3702 8.61996 19.0602 8.30996 18.6802 8.30996H13.7402C14.0002 7.69996 14.3702 7.11996 14.8702 6.62996C15.8702 5.62996 17.1902 5.08996 18.6002 5.08996C20.0102 5.08996 21.3302 5.63996 22.3302 6.62996C22.6002 6.89996 23.0402 6.89996 23.3002 6.62996C23.5602 6.35996 23.5702 5.91996 23.3002 5.65996C22.0402 4.39996 20.3702 3.70996 18.6002 3.70996C16.8302 3.70996 15.1502 4.39996 13.9002 5.65996C13.1302 6.42996 12.5902 7.34996 12.2802 8.31996H10.9002C10.5202 8.31996 10.2102 8.62996 10.2102 9.00996L10.2002 8.99996Z" fill="#222222"/>
<path id="Vector_7" d="M28.1401 24.53C26.1901 24.53 24.6001 26.12 24.6001 28.07C24.6001 30.02 26.1901 31.61 28.1401 31.61C30.0901 31.61 31.6801 30.02 31.6801 28.07C31.6801 26.12 30.0901 24.53 28.1401 24.53ZM28.1401 30.32C26.9001 30.32 25.8901 29.31 25.8901 28.07C25.8901 26.83 26.9001 25.82 28.1401 25.82C29.3801 25.82 30.3901 26.83 30.3901 28.07C30.3901 29.31 29.3801 30.32 28.1401 30.32Z" fill="#222222"/>
<path id="Vector_8" d="M34.8699 26.5899C35.1499 26.3099 35.2099 25.8699 35.0199 25.5299L33.8699 23.5299C33.6699 23.1899 33.2499 23.0199 32.8799 23.1199L31.1699 23.5699L30.6799 23.2599L30.2399 21.5799C30.1399 21.1899 29.7899 20.9299 29.3899 20.9299H26.9099C26.4899 20.9399 26.1299 21.2399 26.0499 21.6599L25.7999 23.0099L24.9599 23.5099L23.4099 23.0799C23.0299 22.9699 22.6099 23.1499 22.4199 23.4799L21.2599 25.4699C21.0599 25.8099 21.1199 26.2499 21.3999 26.5299L22.5499 27.6799V28.6099L21.5799 29.5799C21.2999 29.8599 21.2399 30.2899 21.4399 30.6399L22.5899 32.6399C22.7799 32.9799 23.1999 33.1499 23.5799 33.0499L24.9399 32.6899L25.8299 33.1299L26.2099 34.5899C26.3099 34.9699 26.6599 35.2399 27.0599 35.2399H29.3699C29.7699 35.2399 30.1199 34.9799 30.2199 34.5999L30.6699 32.9299L31.0999 32.6699L32.6499 33.0999C33.0299 33.2099 33.4499 33.0299 33.6399 32.6999L34.7999 30.6999C34.9999 30.3599 34.9399 29.9199 34.6599 29.6399L33.5199 28.4999V27.9299L34.8699 26.6099V26.5899ZM33.5599 30.3099L32.6899 31.8099L30.8999 31.3099L29.5799 32.1199L29.0799 33.9999H27.3499L26.8899 32.2599L25.0599 31.3599L23.5299 31.7699L22.6699 30.2699L23.7999 29.1399V27.1799L22.4899 25.8599L23.3599 24.3599L25.1499 24.8599L26.9399 23.7999L27.2299 22.1899H29.1099L29.5999 24.0599L30.9699 24.9199L32.9199 24.3999L33.7799 25.8999L32.2799 27.3699L32.2399 28.9899L33.5499 30.3099H33.5599Z" fill="#222222"/>
</g>
</g>
</svg>
