<svg width="36" height="36" viewBox="0 0 36 36" fill="none" xmlns="http://www.w3.org/2000/svg">
<g id="savings_M 1">
<g id="Group">
<path id="Vector" d="M34.5198 18.6801H31.2498C30.8498 17.5301 30.2198 16.4501 29.3798 15.4501L30.1598 10.4001C30.1998 10.1501 30.0998 9.91015 29.8998 9.75015C29.6998 9.60015 29.4398 9.56015 29.2098 9.66015L24.1398 11.7601C22.8998 11.2601 21.5798 10.9201 20.2098 10.7401C20.1398 8.61015 18.3898 6.90015 16.2498 6.90015C14.1098 6.90015 12.2798 8.68015 12.2798 10.8701C12.2798 11.1001 12.2998 11.3301 12.3398 11.5601C7.6598 13.2401 4.5698 16.8101 4.2198 20.9001C3.0498 20.6101 2.1798 19.5501 2.1798 18.2901C2.1798 17.9101 1.8698 17.6001 1.4898 17.6001C1.1098 17.6001 0.799805 17.9101 0.799805 18.2901C0.799805 20.3101 2.2798 21.9801 4.2098 22.3001C4.4198 25.2901 6.0998 28.0701 8.9198 30.0401V34.5201C8.9198 34.9001 9.2298 35.2101 9.6098 35.2101H15.0398C15.4198 35.2101 15.7298 34.9001 15.7298 34.5201V32.6101C17.2798 32.8201 18.7898 32.8101 20.3498 32.5901V34.5201C20.3498 34.9001 20.6598 35.2101 21.0398 35.2101H26.4698C26.8498 35.2101 27.1598 34.9001 27.1598 34.5201V29.9401C28.8598 28.7201 30.1498 27.1901 30.9298 25.4901H34.5298C34.9098 25.4901 35.2198 25.1801 35.2198 24.8001V19.3601C35.2198 18.9801 34.9098 18.6701 34.5298 18.6701L34.5198 18.6801ZM16.2498 8.27015C17.6798 8.27015 18.8398 9.43015 18.8398 10.8601C18.8398 12.2901 17.6798 13.4501 16.2498 13.4501C14.8198 13.4501 13.6598 12.2901 13.6598 10.8601C13.6598 9.43015 14.8198 8.27015 16.2498 8.27015ZM33.8398 24.1101H30.4798C30.1998 24.1101 29.9398 24.2801 29.8398 24.5401C29.1498 26.2601 27.8598 27.8101 26.0898 29.0001C25.8998 29.1301 25.7898 29.3401 25.7898 29.5701V33.8201H21.7298V31.7701C21.7298 31.5701 21.6398 31.3701 21.4798 31.2401C21.3198 31.1101 21.1098 31.0601 20.9098 31.0901C18.9598 31.4601 17.0998 31.4701 15.1698 31.1201C14.9698 31.0801 14.7598 31.1401 14.6098 31.2701C14.4498 31.4001 14.3598 31.5901 14.3598 31.8001V33.8301H10.2998V29.6801C10.2998 29.4501 10.1798 29.2301 9.9898 29.1101C7.1798 27.2501 5.5598 24.5501 5.5598 21.6801C5.5598 17.8601 8.3898 14.4401 12.8098 12.8501C13.0998 13.3501 13.4898 13.7801 13.9698 14.1101C13.8998 14.1301 13.8298 14.1501 13.7598 14.1701C13.3998 14.2901 13.1998 14.6701 13.3098 15.0301C13.3998 15.3201 13.6698 15.5101 13.9698 15.5101C14.0398 15.5101 14.1098 15.5001 14.1798 15.4801C16.1298 14.8601 18.1898 14.6301 20.1498 14.8201C20.5298 14.8701 20.8598 14.5801 20.8998 14.2001C20.9398 13.8201 20.6598 13.4901 20.2798 13.4501C19.9598 13.4201 19.6298 13.4001 19.2998 13.3901C19.6098 13.0101 19.8498 12.5801 20.0098 12.1101C21.3598 12.2901 22.6498 12.6301 23.8598 13.1401C24.0298 13.2101 24.2198 13.2101 24.3898 13.1401L28.5898 11.4001L27.9498 15.5601C27.9198 15.7601 27.9798 15.9701 28.1198 16.1201C29.0598 17.1701 29.7198 18.3301 30.0698 19.5601C30.1498 19.8601 30.4198 20.0601 30.7298 20.0601H33.8198V24.1201L33.8398 24.1101Z" fill="#222222"/>
<path id="Vector_2" d="M5.86004 10.93C8.66004 10.93 10.93 8.66004 10.93 5.86004C10.93 3.06004 8.65004 0.790039 5.86004 0.790039C3.07004 0.790039 0.790039 3.07004 0.790039 5.86004C0.790039 8.65004 3.06004 10.93 5.86004 10.93ZM5.86004 2.17004C7.90004 2.17004 9.55004 3.83004 9.55004 5.86004C9.55004 7.89004 7.89004 9.55004 5.86004 9.55004C3.83004 9.55004 2.17004 7.89004 2.17004 5.86004C2.17004 3.83004 3.83004 2.17004 5.86004 2.17004V2.17004Z" fill="#222222"/>
</g>
</g>
</svg>
