<svg width="36" height="36" viewBox="0 0 36 36" fill="none" xmlns="http://www.w3.org/2000/svg">
<g id="money_M 1">
<g id="Group">
<path id="Vector" d="M8.91961 10.93C11.7196 10.93 13.9896 8.65004 13.9896 5.86004C13.9896 3.07004 11.7196 0.790039 8.91961 0.790039C6.11961 0.790039 3.84961 3.06004 3.84961 5.86004C3.84961 8.66004 6.12961 10.93 8.91961 10.93ZM8.91961 2.16004C10.9596 2.16004 12.6196 3.82004 12.6196 5.86004C12.6196 7.90004 10.9596 9.56004 8.91961 9.56004C6.87961 9.56004 5.21961 7.90004 5.21961 5.86004C5.21961 3.82004 6.87961 2.16004 8.91961 2.16004V2.16004Z" fill="#222222"/>
<path id="Vector_2" d="M20.1599 14.3101C22.3499 14.3101 24.1299 12.5301 24.1299 10.3401C24.1299 8.15012 22.3499 6.37012 20.1599 6.37012C17.9699 6.37012 16.1899 8.15012 16.1899 10.3401C16.1899 12.5301 17.9699 14.3101 20.1599 14.3101ZM20.1599 7.75012C21.5899 7.75012 22.7499 8.91012 22.7499 10.3401C22.7499 11.7701 21.5899 12.9301 20.1599 12.9301C18.7299 12.9301 17.5699 11.7701 17.5699 10.3401C17.5699 8.91012 18.7299 7.75012 20.1599 7.75012V7.75012Z" fill="#222222"/>
<path id="Vector_3" d="M34.5098 15.8201H1.4898C1.1098 15.8201 0.799805 16.1301 0.799805 16.5101V34.5201C0.799805 34.9001 1.1098 35.2101 1.4898 35.2101H34.5098C34.8898 35.2101 35.1998 34.9001 35.1998 34.5201V16.5101C35.1998 16.1301 34.8898 15.8201 34.5098 15.8201V15.8201ZM33.8198 33.8301H2.1798V17.2001H33.8198V33.8401V33.8301Z" fill="#222222"/>
<path id="Vector_4" d="M25.8296 32.36H30.4496C30.8296 32.36 31.1396 32.05 31.1396 31.67C31.1396 31.29 30.8296 30.98 30.4496 30.98H25.8296C25.4496 30.98 25.1396 31.29 25.1396 31.67C25.1396 32.05 25.4496 32.36 25.8296 32.36Z" fill="#222222"/>
<path id="Vector_5" d="M5.54986 20.0699H10.1699C10.5499 20.0699 10.8599 19.7599 10.8599 19.3799C10.8599 18.9999 10.5499 18.6899 10.1699 18.6899H5.54986C5.16986 18.6899 4.85986 18.9999 4.85986 19.3799C4.85986 19.7599 5.16986 20.0699 5.54986 20.0699V20.0699Z" fill="#222222"/>
<path id="Vector_6" d="M10.21 24.05C10.21 24.43 10.52 24.74 10.9 24.74H11.99C11.97 24.96 11.96 25.18 11.96 25.4C11.96 25.62 11.97 25.83 11.99 26.04H10.9C10.52 26.04 10.21 26.35 10.21 26.73C10.21 27.11 10.52 27.42 10.9 27.42H12.27C12.59 28.42 13.14 29.34 13.9 30.1C15.2 31.4 16.9 32.04 18.6 32.04C20.3 32.04 22 31.39 23.3 30.1C23.57 29.83 23.57 29.4 23.3 29.13C23.03 28.86 22.6 28.86 22.33 29.13C20.28 31.18 16.93 31.18 14.88 29.13C14.38 28.63 14 28.05 13.74 27.42H18.7C19.08 27.42 19.39 27.11 19.39 26.73C19.39 26.35 19.08 26.04 18.7 26.04H13.39C13.36 25.83 13.35 25.61 13.35 25.4C13.35 25.19 13.37 24.95 13.4 24.74H18.71C19.09 24.74 19.4 24.43 19.4 24.05C19.4 23.67 19.09 23.36 18.71 23.36H13.77C14.03 22.74 14.41 22.17 14.9 21.68C15.9 20.69 17.22 20.14 18.62 20.14C20.02 20.14 21.35 20.69 22.35 21.68C22.62 21.95 23.05 21.95 23.32 21.68C23.59 21.41 23.59 20.98 23.32 20.71C22.07 19.45 20.4 18.76 18.62 18.76C16.84 18.76 15.18 19.45 13.92 20.71C13.16 21.47 12.61 22.38 12.3 23.37H10.92C10.54 23.37 10.23 23.68 10.23 24.06L10.21 24.05Z" fill="#222222"/>
</g>
</g>
</svg>
