<svg width="36" height="36" viewBox="0 0 36 36" fill="none" xmlns="http://www.w3.org/2000/svg">
<g id="salary_M 1">
<g id="Group">
<path id="Vector" d="M34.6299 30.71L31.8499 30.19C31.7499 30.17 31.6399 30.18 31.5399 30.2L19.7999 33.53C18.4799 33.9 17.1099 33.85 15.8199 33.38L2.53988 28.55C2.37988 28.5 2.25988 28.39 2.18988 28.24C2.11988 28.09 2.11988 27.92 2.18988 27.77C2.28988 27.55 2.51988 27.41 2.75988 27.43L14.1299 28.28C14.1599 28.48 14.2099 28.69 14.2999 28.88C14.6799 29.71 15.5099 30.23 16.4099 30.23C16.5199 30.23 16.6299 30.23 16.7299 30.21L25.3099 28.98C25.6899 28.93 25.9499 28.58 25.8899 28.2C25.8399 27.82 25.4899 27.56 25.1099 27.62L16.5299 28.85C16.1299 28.91 15.7199 28.69 15.5499 28.31C15.3399 27.85 15.5499 27.3 15.9899 27.08L25.6899 22.72C26.5699 22.3 27.5899 22.29 28.5399 22.71L33.1399 24.29C33.4999 24.41 33.8899 24.22 34.0099 23.86C34.1299 23.5 33.9399 23.11 33.5799 22.99L29.0399 21.44C27.7799 20.88 26.3499 20.9 25.1099 21.48L15.4099 25.84C14.9199 26.07 14.5599 26.46 14.3299 26.92C14.3299 26.92 14.3199 26.92 14.3099 26.92L2.84988 26.06C2.02988 26 1.25988 26.46 0.919883 27.21C0.699883 27.72 0.699883 28.29 0.919883 28.8C1.14988 29.3 1.57988 29.69 2.07988 29.85L15.3299 34.68C16.1999 35 17.1099 35.16 18.0099 35.16C18.7299 35.16 19.4499 35.06 20.1499 34.86L31.7399 31.58L34.3599 32.07C34.7299 32.14 35.0899 31.89 35.1599 31.52C35.2299 31.15 34.9799 30.79 34.6099 30.72L34.6299 30.71Z" fill="#222222"/>
<path id="Vector_2" d="M34.5001 0.780029H1.50006C1.12006 0.780029 0.810059 1.09003 0.810059 1.47003V19.48C0.810059 19.86 1.12006 20.17 1.50006 20.17H34.5001C34.8801 20.17 35.1901 19.86 35.1901 19.48V1.47003C35.1901 1.09003 34.8801 0.780029 34.5001 0.780029ZM33.8101 18.78H2.19006V2.16003H33.8101V18.79V18.78Z" fill="#222222"/>
<path id="Vector_3" d="M25.8199 17.3099H30.4399C30.8199 17.3099 31.1299 16.9999 31.1299 16.6199C31.1299 16.2399 30.8199 15.9299 30.4399 15.9299H25.8199C25.4399 15.9299 25.1299 16.2399 25.1299 16.6199C25.1299 16.9999 25.4399 17.3099 25.8199 17.3099Z" fill="#222222"/>
<path id="Vector_4" d="M5.56012 5.03015H10.1801C10.5601 5.03015 10.8701 4.72015 10.8701 4.34015C10.8701 3.96015 10.5601 3.65015 10.1801 3.65015H5.56012C5.18012 3.65015 4.87012 3.96015 4.87012 4.34015C4.87012 4.72015 5.18012 5.03015 5.56012 5.03015V5.03015Z" fill="#222222"/>
<path id="Vector_5" d="M10.21 9.00997C10.21 9.38997 10.52 9.69997 10.9 9.69997H11.99C11.97 9.91997 11.96 10.14 11.96 10.36C11.96 10.58 11.97 10.79 11.99 11H10.91C10.53 11 10.22 11.31 10.22 11.69C10.22 12.07 10.53 12.38 10.91 12.38H12.28C12.6 13.38 13.15 14.3 13.91 15.06C15.16 16.31 16.83 17.01 18.61 17.01C20.39 17.01 22.05 16.32 23.31 15.06C23.58 14.79 23.58 14.36 23.31 14.09C23.04 13.82 22.61 13.82 22.34 14.09C21.35 15.08 20.02 15.63 18.62 15.63C17.22 15.63 15.89 15.08 14.9 14.09C14.4 13.59 14.02 13.01 13.76 12.38H18.71C19.09 12.38 19.4 12.07 19.4 11.69C19.4 11.31 19.09 11 18.71 11H13.4C13.37 10.79 13.36 10.58 13.36 10.36C13.36 10.14 13.38 9.90997 13.41 9.69997H18.71C19.09 9.69997 19.4 9.38997 19.4 9.00997C19.4 8.62997 19.09 8.31997 18.71 8.31997H13.77C14.03 7.69997 14.41 7.12997 14.9 6.63997C15.89 5.64997 17.22 5.09997 18.62 5.09997C20.02 5.09997 21.35 5.64997 22.34 6.63997C22.61 6.90997 23.04 6.90997 23.31 6.63997C23.58 6.36997 23.58 5.93997 23.31 5.66997C22.06 4.41997 20.39 3.71997 18.61 3.71997C16.83 3.71997 15.17 4.40997 13.91 5.66997C13.15 6.42997 12.61 7.33997 12.29 8.32997H10.91C10.53 8.32997 10.22 8.63997 10.22 9.01997L10.21 9.00997Z" fill="#222222"/>
</g>
</g>
</svg>
