<svg width="36" height="36" viewBox="0 0 36 36" fill="none" xmlns="http://www.w3.org/2000/svg">
<g id="truck front_M 1">
<g id="Group">
<path id="Vector" d="M34.52 9.02002H30.22V4.21002C30.22 3.83002 29.91 3.52002 29.53 3.52002H6.47004C6.09004 3.52002 5.78004 3.83002 5.78004 4.21002V9.02002H1.48004C1.10004 9.02002 0.790039 9.33002 0.790039 9.71002V11.55C0.790039 13.34 2.15004 14.81 3.89004 15.01V25.17C3.89004 25.55 4.20004 25.86 4.58004 25.86H5.57004V29.57C5.57004 31.17 6.87004 32.47 8.47004 32.47C10.07 32.47 11.37 31.17 11.37 29.57V25.86H24.63V29.57C24.63 31.17 25.93 32.47 27.53 32.47C29.13 32.47 30.43 31.17 30.43 29.57V25.86H31.42C31.8 25.86 32.11 25.55 32.11 25.17V15.01C33.85 14.8 35.21 13.34 35.21 11.55V9.71002C35.21 9.33002 34.9 9.02002 34.52 9.02002V9.02002ZM28.84 4.90002V11.31H23.49V10.13C23.49 9.75002 23.18 9.44002 22.8 9.44002H13.2C12.82 9.44002 12.51 9.75002 12.51 10.13V11.31H7.16004V4.90002H28.84V4.90002ZM2.17004 11.54V10.39H5.78004V11.3H4.57004C4.19004 11.3 3.88004 11.61 3.88004 11.99V13.62C2.90004 13.43 2.16004 12.57 2.16004 11.53L2.17004 11.54ZM10 29.57C10 30.41 9.32004 31.1 8.47004 31.1C7.62004 31.1 6.94004 30.41 6.94004 29.57V25.86H9.99004V29.57H10ZM29.07 29.57C29.07 30.41 28.39 31.1 27.54 31.1C26.69 31.1 26.01 30.41 26.01 29.57V25.86H29.06V29.57H29.07ZM30.75 24.48H5.26004V12.69H13.19C13.57 12.69 13.88 12.38 13.88 12V10.82H22.11V12C22.11 12.38 22.42 12.69 22.8 12.69H30.73V24.49L30.75 24.48ZM33.85 11.54C33.85 12.57 33.11 13.44 32.13 13.63V12C32.13 11.62 31.82 11.31 31.44 11.31H30.23V10.4H33.84V11.55L33.85 11.54Z" fill="#222222"/>
<path id="Vector_2" d="M9.57021 15.8701C8.14021 15.8701 6.97021 17.0401 6.97021 18.4701C6.97021 19.9001 8.14021 21.0701 9.57021 21.0701C11.0002 21.0701 12.1702 19.9001 12.1702 18.4701C12.1702 17.0401 11.0002 15.8701 9.57021 15.8701ZM9.57021 19.7001C8.90021 19.7001 8.35022 19.1501 8.35022 18.4801C8.35022 17.8101 8.90021 17.2601 9.57021 17.2601C10.2402 17.2601 10.7902 17.8101 10.7902 18.4801C10.7902 19.1501 10.2402 19.7001 9.57021 19.7001Z" fill="#222222"/>
<path id="Vector_3" d="M26.4301 15.8701C24.9901 15.8701 23.8301 17.0401 23.8301 18.4701C23.8301 19.9001 25.0001 21.0701 26.4301 21.0701C27.8601 21.0701 29.0301 19.9001 29.0301 18.4701C29.0301 17.0401 27.8601 15.8701 26.4301 15.8701ZM26.4301 19.7001C25.7501 19.7001 25.2101 19.1501 25.2101 18.4801C25.2101 17.8101 25.7601 17.2601 26.4301 17.2601C27.1001 17.2601 27.6501 17.8101 27.6501 18.4801C27.6501 19.1501 27.1001 19.7001 26.4301 19.7001Z" fill="#222222"/>
<path id="Vector_4" d="M14.7003 14.77C14.3203 14.77 14.0103 15.08 14.0103 15.46V21.49C14.0103 21.87 14.3203 22.18 14.7003 22.18C15.0803 22.18 15.3903 21.87 15.3903 21.49V15.46C15.3903 15.08 15.0803 14.77 14.7003 14.77V14.77Z" fill="#222222"/>
<path id="Vector_5" d="M18.0001 14.77C17.6201 14.77 17.3101 15.08 17.3101 15.46V21.49C17.3101 21.87 17.6201 22.18 18.0001 22.18C18.3801 22.18 18.6901 21.87 18.6901 21.49V15.46C18.6901 15.08 18.3801 14.77 18.0001 14.77V14.77Z" fill="#222222"/>
<path id="Vector_6" d="M21.2999 14.77C20.9199 14.77 20.6099 15.08 20.6099 15.46V21.49C20.6099 21.87 20.9199 22.18 21.2999 22.18C21.6799 22.18 21.9899 21.87 21.9899 21.49V15.46C21.9899 15.08 21.6799 14.77 21.2999 14.77V14.77Z" fill="#222222"/>
</g>
</g>
</svg>
