<svg width="36" height="36" viewBox="0 0 36 36" fill="none" xmlns="http://www.w3.org/2000/svg">
<g id="electric water heater temp._M 1">
<g id="Group">
<path id="Vector" d="M14.08 11.03C11.88 11.03 10.09 12.82 10.09 15.02C10.09 17.22 11.88 19.01 14.08 19.01C16.28 19.01 18.07 17.22 18.07 15.02C18.07 12.82 16.28 11.03 14.08 11.03V11.03ZM14.08 17.64C12.63 17.64 11.46 16.46 11.46 15.02C11.46 13.58 12.64 12.4 14.08 12.4C15.52 12.4 16.7 13.58 16.7 15.02C16.7 16.46 15.52 17.64 14.08 17.64V17.64Z" fill="#222222"/>
<path id="Vector_2" d="M17.09 21.04H11.04C10.66 21.04 10.35 21.35 10.35 21.73C10.35 22.11 10.66 22.42 11.04 22.42H17.09C17.47 22.42 17.78 22.11 17.78 21.73C17.78 21.35 17.47 21.04 17.09 21.04Z" fill="#222222"/>
<path id="Vector_3" d="M30.37 23.92V8.32004C30.37 6.47004 28.86 4.96004 27.01 4.96004C25.7 4.96004 24.57 5.72004 24.02 6.82004C22.13 3.18004 18.33 0.790039 14.08 0.790039C7.88999 0.790039 2.85999 5.82004 2.85999 12V32.46C2.85999 32.84 3.16999 33.15 3.54999 33.15H9.70999V34.48C9.70999 34.86 10.02 35.17 10.4 35.17C10.78 35.17 11.09 34.86 11.09 34.48V33.15H13.4V34.48C13.4 34.86 13.71 35.17 14.09 35.17C14.47 35.17 14.78 34.86 14.78 34.48V33.15H17.09V34.48C17.09 34.86 17.4 35.17 17.78 35.17C18.16 35.17 18.47 34.86 18.47 34.48V33.15H22.41C23.54 34.41 25.18 35.21 27 35.21C30.4 35.21 33.17 32.44 33.17 29.04C33.17 26.98 32.11 25.05 30.4 23.91L30.37 23.92ZM4.22999 31.78V12C4.22999 6.58004 8.64999 2.16004 14.08 2.16004C18.59 2.16004 22.52 5.21004 23.62 9.58004C23.62 9.61004 23.64 9.63004 23.65 9.65004V23.86C21.89 24.99 20.8 26.93 20.8 29.05C20.8 30.03 21.04 30.96 21.45 31.79H4.22999V31.78ZM26.97 33.84C24.32 33.84 22.17 31.69 22.17 29.04C22.17 27.29 23.13 25.67 24.67 24.83C24.7 24.82 24.71 24.79 24.74 24.77C24.78 24.74 24.82 24.71 24.85 24.68C24.88 24.65 24.9 24.61 24.92 24.57C24.94 24.53 24.97 24.5 24.98 24.45C25 24.4 25 24.36 25.01 24.31C25.01 24.28 25.03 24.25 25.03 24.22V8.32004C25.03 7.22004 25.92 6.33004 27.02 6.33004C28.12 6.33004 29.01 7.22004 29.01 8.32004V24.28C29.01 24.28 29.02 24.33 29.03 24.36C29.03 24.41 29.04 24.45 29.06 24.5C29.07 24.54 29.09 24.58 29.12 24.61C29.14 24.65 29.16 24.68 29.19 24.72C29.22 24.76 29.26 24.78 29.29 24.81C29.31 24.83 29.33 24.85 29.36 24.87C30.85 25.72 31.78 27.32 31.78 29.03C31.78 31.68 29.63 33.83 26.98 33.83L26.97 33.84Z" fill="#222222"/>
<path id="Vector_4" d="M27.72 26.46C27.72 26.46 27.73 26.42 27.73 26.4V11.68C27.73 11.3 27.42 10.99 27.04 10.99C26.66 10.99 26.35 11.3 26.35 11.68V26.4C26.35 26.4 26.36 26.44 26.36 26.46C25.17 26.76 24.29 27.83 24.29 29.11C24.29 30.62 25.52 31.85 27.03 31.85C28.54 31.85 29.77 30.62 29.77 29.11C29.77 27.83 28.89 26.76 27.7 26.46H27.72ZM27.05 30.48C26.29 30.48 25.68 29.86 25.68 29.11C25.68 28.36 26.3 27.74 27.05 27.74C27.8 27.74 28.42 28.36 28.42 29.11C28.42 29.86 27.8 30.48 27.05 30.48Z" fill="#222222"/>
</g>
</g>
</svg>
