<svg width="36" height="36" viewBox="0 0 36 36" fill="none" xmlns="http://www.w3.org/2000/svg">
<g id="air contitioning alt_M 1">
<g id="Group">
<path id="Vector" d="M34.52 7.91992H1.48004C1.10004 7.91992 0.790039 8.22992 0.790039 8.60992V21.3999C0.790039 21.7799 1.10004 22.0899 1.48004 22.0899H34.52C34.9 22.0899 35.21 21.7799 35.21 21.3999V8.60992C35.21 8.22992 34.9 7.91992 34.52 7.91992ZM33.83 20.7099H2.16004V9.29992H33.83V20.7199V20.7099Z" fill="#222222"/>
<path id="Vector_2" d="M30.34 24.0498C29.96 24.0498 29.65 24.3598 29.65 24.7398C29.65 25.8198 28.77 26.7098 27.68 26.7098C27.3 26.7098 26.99 27.0198 26.99 27.3998C26.99 27.7798 27.3 28.0898 27.68 28.0898C29.52 28.0898 31.02 26.5898 31.02 24.7498C31.02 24.3698 30.71 24.0598 30.33 24.0598L30.34 24.0498Z" fill="#222222"/>
<path id="Vector_3" d="M24.96 24.7398C24.96 24.3598 24.65 24.0498 24.27 24.0498C23.89 24.0498 23.58 24.3598 23.58 24.7398C23.58 25.8198 22.7 26.7098 21.61 26.7098C21.23 26.7098 20.92 27.0198 20.92 27.3998C20.92 27.7798 21.23 28.0898 21.61 28.0898C23.45 28.0898 24.95 26.5898 24.95 24.7498L24.96 24.7398Z" fill="#222222"/>
<path id="Vector_4" d="M18.8801 24.7398C18.8801 24.3598 18.5701 24.0498 18.1901 24.0498C17.8101 24.0498 17.5001 24.3598 17.5001 24.7398C17.5001 25.8198 16.6201 26.7098 15.5301 26.7098C15.1501 26.7098 14.8401 27.0198 14.8401 27.3998C14.8401 27.7798 15.1501 28.0898 15.5301 28.0898C17.3701 28.0898 18.8701 26.5898 18.8701 24.7498L18.8801 24.7398Z" fill="#222222"/>
<path id="Vector_5" d="M12.82 24.7398C12.82 24.3598 12.51 24.0498 12.13 24.0498C11.75 24.0498 11.44 24.3598 11.44 24.7398C11.44 25.8198 10.56 26.7098 9.47003 26.7098C9.09003 26.7098 8.78003 27.0198 8.78003 27.3998C8.78003 27.7798 9.09003 28.0898 9.47003 28.0898C11.31 28.0898 12.81 26.5898 12.81 24.7498L12.82 24.7398Z" fill="#222222"/>
<path id="Vector_6" d="M6.07998 24.0498C5.69998 24.0498 5.38998 24.3598 5.38998 24.7398C5.38998 25.8198 4.50998 26.7098 3.41998 26.7098C3.03998 26.7098 2.72998 27.0198 2.72998 27.3998C2.72998 27.7798 3.03998 28.0898 3.41998 28.0898C5.25998 28.0898 6.75998 26.5898 6.75998 24.7498C6.75998 24.3698 6.44998 24.0598 6.06998 24.0598L6.07998 24.0498Z" fill="#222222"/>
<path id="Vector_7" d="M5.47003 19.33H22.28C22.66 19.33 22.97 19.0199 22.97 18.6399C22.97 18.2599 22.66 17.95 22.28 17.95H5.47003C5.09003 17.95 4.78003 18.2599 4.78003 18.6399C4.78003 19.0199 5.09003 19.33 5.47003 19.33V19.33Z" fill="#222222"/>
<path id="Vector_8" d="M5.52008 16.9598H22.3201C22.7001 16.9598 23.0101 16.6498 23.0101 16.2698C23.0101 15.8898 22.7001 15.5798 22.3201 15.5798H5.52008C5.14008 15.5798 4.83008 15.8898 4.83008 16.2698C4.83008 16.6498 5.14008 16.9598 5.52008 16.9598Z" fill="#222222"/>
<path id="Vector_9" d="M29.13 19.47C30.24 19.47 31.14 18.57 31.14 17.46C31.14 16.35 30.24 15.45 29.13 15.45C28.02 15.45 27.12 16.35 27.12 17.46C27.12 18.57 28.02 19.47 29.13 19.47V19.47ZM29.13 16.82C29.48 16.82 29.77 17.11 29.77 17.46C29.77 17.81 29.48 18.1 29.13 18.1C28.78 18.1 28.49 17.81 28.49 17.46C28.49 17.11 28.78 16.82 29.13 16.82Z" fill="#222222"/>
</g>
</g>
</svg>
