<svg width="36" height="36" viewBox="0 0 36 36" fill="none" xmlns="http://www.w3.org/2000/svg">
<g id="gas water heater_M 1">
<g id="Group">
<path id="Vector" d="M15.99 10.0802C15.74 9.98016 15.46 10.0402 15.26 10.2202C15.07 10.4002 15 10.6902 15.08 10.9402C15.11 11.0202 15.74 12.9502 14.4 15.1102C14.12 15.5602 13.83 15.9602 13.55 16.3402C12.55 17.7202 11.61 19.0102 11.61 21.9302C11.61 25.4302 14.52 28.2702 18.1 28.2702C21.43 28.2702 24.81 25.9602 24.81 21.5402C24.81 13.6702 16.34 10.2202 15.98 10.0702L15.99 10.0802ZM15.31 26.0802C15.23 25.3202 15.08 22.3502 17.28 20.9302C17.51 21.4502 17.85 22.2302 18.16 22.9502C18.23 23.1202 18.38 23.2602 18.55 23.3202C18.73 23.3902 18.92 23.3702 19.09 23.2902L20.71 22.4902L20.74 26.2502C19.93 26.6802 19.02 26.9002 18.11 26.9002C17.07 26.9002 16.11 26.6002 15.3 26.0802H15.31ZM22.11 25.2102L22.08 21.3902C22.08 21.1502 21.95 20.9402 21.75 20.8102C21.55 20.6902 21.3 20.6702 21.09 20.7802L19.14 21.7402C18.11 19.3702 18.08 19.3702 17.72 19.3002C17.59 19.2802 17.45 19.3002 17.33 19.3502C14.87 20.4302 14.06 22.8402 13.92 24.7602C13.35 23.9602 13.01 22.9802 13.01 21.9302C13.01 19.4602 13.75 18.4402 14.69 17.1502C14.98 16.7402 15.29 16.3302 15.59 15.8402C16.52 14.3402 16.68 12.9202 16.64 11.9202C18.84 13.1102 23.46 16.2502 23.46 21.5502C23.46 23.1102 22.93 24.3302 22.12 25.2202L22.11 25.2102Z" fill="#222222"/>
<path id="Vector_2" d="M7.45999 33.19H13.63V34.52C13.63 34.9 13.94 35.21 14.32 35.21C14.7 35.21 15.01 34.9 15.01 34.52V33.19H17.32V34.52C17.32 34.9 17.63 35.21 18.01 35.21C18.39 35.21 18.7 34.9 18.7 34.52V33.19H21.01V34.52C21.01 34.9 21.32 35.21 21.7 35.21C22.08 35.21 22.39 34.9 22.39 34.52V33.19H28.56C28.94 33.19 29.25 32.88 29.25 32.5V12.02C29.23 5.83004 24.19 0.790039 18 0.790039C11.81 0.790039 6.76999 5.83004 6.76999 12.02V32.51C6.76999 32.89 7.07999 33.2 7.45999 33.2V33.19ZM8.14999 12.02C8.14999 6.59004 12.57 2.16004 18.01 2.16004C23.45 2.16004 27.87 6.58004 27.87 12.02V31.82H8.13999V12.02H8.14999Z" fill="#222222"/>
</g>
</g>
</svg>
