<svg width="36" height="36" viewBox="0 0 36 36" fill="none" xmlns="http://www.w3.org/2000/svg">
<g id="router_M 1">
<g id="Group">
<path id="Vector" d="M1.75002 34.8801H34.15C34.52 34.8801 34.82 34.5801 34.82 34.2101V21.6701C34.82 21.3001 34.52 21.0001 34.15 21.0001H18.62V12.7201C19.94 12.4201 20.93 11.2501 20.93 9.84013C20.93 8.21013 19.6 6.88013 17.97 6.88013C16.34 6.88013 15.01 8.21013 15.01 9.84013C15.01 11.2301 15.98 12.3901 17.27 12.7101V20.9901H1.75002C1.38002 20.9901 1.08002 21.2901 1.08002 21.6601V34.2001C1.08002 34.5701 1.38002 34.8701 1.75002 34.8701V34.8801ZM16.36 9.84013C16.36 8.95013 17.08 8.23013 17.97 8.23013C18.86 8.23013 19.58 8.95013 19.58 9.84013C19.58 10.7301 18.86 11.4501 17.97 11.4501C17.08 11.4501 16.36 10.7301 16.36 9.84013ZM2.42002 22.3301H33.47V33.5201H2.42002V22.3301Z" fill="#222222"/>
<path id="Vector_2" d="M17.95 24.01C15.79 24.01 14.03 25.77 14.03 27.93C14.03 30.09 15.79 31.85 17.95 31.85C20.11 31.85 21.87 30.09 21.87 27.93C21.87 25.77 20.11 24.01 17.95 24.01V24.01ZM17.95 30.51C16.53 30.51 15.38 29.35 15.38 27.94C15.38 26.53 16.53 25.36 17.95 25.36C19.37 25.36 20.53 26.52 20.53 27.94C20.53 29.36 19.37 30.51 17.95 30.51V30.51Z" fill="#222222"/>
<path id="Vector_3" d="M11.52 14.39C11.65 14.52 11.82 14.59 12 14.59C12.18 14.59 12.34 14.52 12.48 14.39C12.74 14.13 12.74 13.7 12.48 13.44C11.52 12.48 10.99 11.2 10.99 9.83997C10.99 8.47997 11.52 7.19997 12.48 6.23997C12.74 5.97997 12.74 5.54997 12.48 5.28997C12.22 5.02997 11.79 5.02997 11.53 5.28997C10.31 6.49997 9.65002 8.11997 9.65002 9.83997C9.65002 11.56 10.32 13.17 11.53 14.39H11.52Z" fill="#222222"/>
<path id="Vector_4" d="M8.08004 18.5C8.25004 18.5 8.42004 18.43 8.56004 18.3C8.82004 18.04 8.82004 17.61 8.56004 17.35C6.55004 15.34 5.45004 12.67 5.45004 9.83005C5.45004 6.99005 6.56004 4.32005 8.56004 2.32005C8.82004 2.06005 8.82004 1.63005 8.56004 1.37005C8.30004 1.11005 7.87004 1.11005 7.61004 1.37005C5.35004 3.63005 4.10004 6.64005 4.10004 9.84005C4.10004 13.04 5.35004 16.05 7.61004 18.31C7.74004 18.44 7.91004 18.51 8.09004 18.51L8.08004 18.5Z" fill="#222222"/>
<path id="Vector_5" d="M9.54999 16.36C9.67999 16.49 9.84999 16.56 10.03 16.56C10.21 16.56 10.37 16.49 10.51 16.36C10.77 16.1 10.77 15.67 10.51 15.41C7.43999 12.34 7.43999 7.35001 10.51 4.28001C10.77 4.02001 10.77 3.59001 10.51 3.33001C10.25 3.07001 9.81999 3.07001 9.55999 3.33001C5.96999 6.92001 5.96999 12.77 9.55999 16.37L9.54999 16.36Z" fill="#222222"/>
<path id="Vector_6" d="M23.42 14.39C23.55 14.52 23.72 14.59 23.9 14.59C24.08 14.59 24.24 14.52 24.38 14.39C25.6 13.17 26.26 11.56 26.26 9.83997C26.26 8.11997 25.59 6.50997 24.38 5.28997C24.12 5.02997 23.69 5.02997 23.43 5.28997C23.17 5.54997 23.17 5.97997 23.43 6.23997C24.39 7.19997 24.92 8.47997 24.92 9.83997C24.92 11.2 24.39 12.48 23.43 13.44C23.17 13.7 23.17 14.13 23.43 14.39H23.42Z" fill="#222222"/>
<path id="Vector_7" d="M27.34 17.35C27.08 17.61 27.08 18.04 27.34 18.3C27.47 18.43 27.64 18.5 27.82 18.5C28 18.5 28.16 18.43 28.3 18.3C32.97 13.63 32.97 6.03004 28.3 1.36004C28.04 1.10004 27.61 1.10004 27.35 1.36004C27.09 1.62004 27.09 2.05004 27.35 2.31004C31.49 6.45004 31.49 13.2 27.35 17.34L27.34 17.35Z" fill="#222222"/>
<path id="Vector_8" d="M27.7 9.84C27.7 11.94 26.88 13.92 25.39 15.41C25.13 15.67 25.13 16.1 25.39 16.36C25.52 16.49 25.69 16.56 25.87 16.56C26.05 16.56 26.21 16.49 26.35 16.36C28.09 14.62 29.05 12.3 29.05 9.84C29.05 7.38 28.09 5.06 26.35 3.32C26.09 3.06 25.66 3.06 25.4 3.32C25.14 3.58 25.14 4.01 25.4 4.27C26.89 5.76 27.71 7.73 27.71 9.84H27.7Z" fill="#222222"/>
</g>
</g>
</svg>
