<svg width="36" height="36" viewBox="0 0 36 36" fill="none" xmlns="http://www.w3.org/2000/svg">
<g id="landscape beach_M 1">
<g id="Group">
<path id="Vector" d="M21.6 8.57004H24.48C24.57 9.06004 24.75 9.52004 25.02 9.92004C24.99 9.94004 24.95 9.96004 24.92 9.99004L22.98 11.93C22.85 12.06 22.78 12.24 22.78 12.42C22.78 12.6 22.85 12.77 22.98 12.91C23.11 13.05 23.29 13.11 23.47 13.11C23.65 13.11 23.82 13.04 23.96 12.91L25.9 10.97C25.9 10.97 25.94 10.91 25.96 10.87C26.36 11.14 26.82 11.33 27.31 11.43V14.3C27.31 14.68 27.62 14.99 28 14.99C28.38 14.99 28.69 14.68 28.69 14.3V11.42C29.17 11.32 29.6 11.12 29.99 10.85L32.04 12.9C32.17 13.03 32.35 13.1 32.53 13.1C32.71 13.1 32.88 13.03 33.02 12.9C33.16 12.77 33.22 12.59 33.22 12.41C33.22 12.23 33.15 12.06 33.02 11.92L30.95 9.85004C31.2 9.47004 31.37 9.03004 31.46 8.57004H34.42C34.8 8.57004 35.11 8.26004 35.11 7.88004C35.11 7.50004 34.8 7.19004 34.42 7.19004H31.45C31.35 6.74004 31.17 6.32004 30.92 5.95004L33.03 3.84004C33.16 3.71004 33.23 3.53004 33.23 3.35004C33.23 3.17004 33.16 3.00004 33.03 2.86004C32.76 2.59004 32.32 2.59004 32.06 2.86004L29.94 4.98004C29.57 4.73004 29.15 4.55004 28.7 4.46004V1.48004C28.7 1.10004 28.39 0.790039 28.01 0.790039C27.63 0.790039 27.32 1.10004 27.32 1.48004V4.45004C26.85 4.54004 26.42 4.71004 26.04 4.96004C26.02 4.93004 26.01 4.90004 25.99 4.88004L23.97 2.86004C23.7 2.59004 23.26 2.59004 23 2.86004C22.87 2.99004 22.8 3.17004 22.8 3.35004C22.8 3.53004 22.87 3.70004 23 3.84004L25.02 5.86004C25.02 5.86004 25.06 5.88004 25.08 5.90004C24.81 6.28004 24.61 6.72004 24.51 7.19004H21.61C21.23 7.19004 20.92 7.50004 20.92 7.88004C20.92 8.26004 21.23 8.57004 21.61 8.57004H21.6ZM27.97 5.76004C29.17 5.76004 30.14 6.74004 30.14 7.93004C30.14 9.12004 29.16 10.1 27.97 10.1C26.78 10.1 25.8 9.12004 25.8 7.93004C25.8 6.74004 26.78 5.76004 27.97 5.76004V5.76004Z" fill="#222222"/>
<path id="Vector_2" d="M35.08 34.1901L29.24 21.2501C29.13 21.0101 28.89 20.8501 28.62 20.8401C28.36 20.8401 28.11 20.9901 27.99 21.2301L26.48 24.4001L22.5 17.6301C22.38 17.4201 22.15 17.2901 21.91 17.2901C21.67 17.2901 21.44 17.4201 21.32 17.6301L11.68 33.8201H8.76999V22.9801H14.61C14.99 22.9801 15.3 22.6701 15.3 22.2901C15.3 18.3101 12.06 15.0701 8.07999 15.0701C4.09999 15.0701 0.859985 18.3201 0.859985 22.3001C0.859985 22.6801 1.16999 22.9901 1.54999 22.9901H7.38999V34.4201C7.38999 34.4201 7.38999 34.4601 7.39999 34.4801C7.39999 34.5001 7.38999 34.5201 7.38999 34.5401C7.38999 34.9201 7.69999 35.2301 8.07999 35.2301L34.45 35.1801C34.68 35.1801 34.9 35.0601 35.03 34.8601C35.16 34.6601 35.18 34.4201 35.08 34.2001V34.1901ZM8.07999 16.4501C11.07 16.4501 13.54 18.7001 13.88 21.6001H2.27999C2.61999 18.7001 5.08999 16.4501 8.07999 16.4501V16.4501ZM21.9 19.3401L30.41 33.7901L13.28 33.8201L21.9 19.3401ZM32.01 33.7901L27.33 25.8401L28.6 23.1701L33.39 33.7901H32.02H32.01Z" fill="#222222"/>
</g>
</g>
</svg>
