<svg width="36" height="36" viewBox="0 0 36 36" fill="none" xmlns="http://www.w3.org/2000/svg">
<g id="landscape_M 1">
<g id="Group">
<path id="Vector" d="M4.94002 19.98C6.24002 19.98 7.30002 18.92 7.30002 17.62C7.30002 16.32 6.24002 15.26 4.94002 15.26C3.64002 15.26 2.58002 16.32 2.58002 17.62C2.58002 18.92 3.64002 19.98 4.94002 19.98V19.98ZM4.94002 16.64C5.48002 16.64 5.92002 17.08 5.92002 17.62C5.92002 18.16 5.48002 18.6 4.94002 18.6C4.40002 18.6 3.96002 18.16 3.96002 17.62C3.96002 17.08 4.40002 16.64 4.94002 16.64V16.64Z" fill="#222222"/>
<path id="Vector_2" d="M21.69 8.63009H24.57C24.66 9.12009 24.84 9.58009 25.11 9.98009C25.08 10.0001 25.04 10.0201 25.01 10.0501L23.07 11.9901C22.94 12.1201 22.87 12.3001 22.87 12.4801C22.87 12.6601 22.94 12.8301 23.07 12.9701C23.2 13.1101 23.38 13.1701 23.56 13.1701C23.74 13.1701 23.91 13.1001 24.05 12.9701L25.99 11.0301C25.99 11.0301 26.03 10.9701 26.05 10.9301C26.45 11.2001 26.91 11.3901 27.4 11.4901V14.3601C27.4 14.7401 27.71 15.0501 28.09 15.0501C28.47 15.0501 28.78 14.7401 28.78 14.3601V11.4801C29.26 11.3801 29.69 11.1801 30.08 10.9101L32.13 12.9601C32.26 13.0901 32.44 13.1601 32.62 13.1601C32.8 13.1601 32.97 13.0901 33.11 12.9601C33.25 12.8301 33.31 12.6501 33.31 12.4701C33.31 12.2901 33.24 12.1201 33.11 11.9801L31.04 9.91009C31.29 9.53009 31.46 9.09009 31.55 8.63009H34.5C34.88 8.63009 35.19 8.32009 35.19 7.94009C35.19 7.56009 34.88 7.25009 34.5 7.25009H31.53C31.43 6.80009 31.25 6.38009 31 6.01009L33.11 3.90009C33.24 3.77009 33.31 3.59009 33.31 3.41009C33.31 3.23009 33.24 3.06009 33.11 2.92009C32.84 2.65009 32.4 2.65009 32.14 2.92009L30.03 5.03009C29.66 4.78009 29.24 4.60009 28.79 4.51009V1.53009C28.79 1.15009 28.48 0.840088 28.1 0.840088C27.72 0.840088 27.41 1.15009 27.41 1.53009V4.50009C26.94 4.59009 26.51 4.76009 26.13 5.01009C26.11 4.98009 26.1 4.95009 26.08 4.93009L24.06 2.91009C23.79 2.64009 23.35 2.64009 23.09 2.91009C22.96 3.04009 22.89 3.22009 22.89 3.40009C22.89 3.58009 22.96 3.75009 23.09 3.89009L25.11 5.91009C25.11 5.91009 25.15 5.93009 25.17 5.95009C24.9 6.33009 24.7 6.77009 24.6 7.24009H21.7C21.32 7.24009 21.01 7.55009 21.01 7.93009C21.01 8.31009 21.32 8.62009 21.7 8.62009L21.69 8.63009ZM28.06 5.82009C29.26 5.82009 30.23 6.79009 30.23 7.99009C30.23 9.19009 29.26 10.1601 28.06 10.1601C26.86 10.1601 25.89 9.19009 25.89 7.99009C25.89 6.79009 26.86 5.82009 28.06 5.82009Z" fill="#222222"/>
<path id="Vector_3" d="M35.16 34.2401L29.32 21.3001C29.21 21.0601 28.97 20.9001 28.7 20.8901C28.43 20.8901 28.19 21.0401 28.08 21.2801L26.57 24.4501L22.59 17.6901C22.47 17.4801 22.24 17.3501 22 17.3501C21.76 17.3501 21.53 17.4801 21.41 17.6901L11.78 33.8701H5.63002V32.0101C5.65002 31.5701 5.91002 31.0601 6.34002 30.6501C7.01002 30.0101 7.77002 29.8701 8.19002 30.0001C8.55002 30.1101 8.94002 29.9101 9.05002 29.5501C9.16002 29.1901 8.96002 28.8001 8.60002 28.6901C7.67002 28.4001 6.54002 28.7001 5.63002 29.4501V28.0701C5.65002 27.6301 5.91002 27.1201 6.34002 26.7101C7.01002 26.0801 7.77002 25.9301 8.19002 26.0601C8.55002 26.1701 8.94002 25.9701 9.05002 25.6101C9.16002 25.2501 8.96002 24.8601 8.60002 24.7501C7.68002 24.4601 6.54002 24.7601 5.63002 25.5101V23.9401C5.65002 23.5001 5.91002 22.9901 6.34002 22.5801C7.01002 21.9501 7.77002 21.8001 8.19002 21.9301C8.55002 22.0401 8.94002 21.8401 9.05002 21.4801C9.16002 21.1201 8.96002 20.7301 8.60002 20.6201C7.59002 20.3101 6.33002 20.6801 5.38002 21.5901C5.21002 21.7501 5.06002 21.9201 4.93002 22.1001C4.80002 21.9201 4.65002 21.7501 4.48002 21.5901C3.53002 20.6901 2.27002 20.3101 1.26002 20.6301C0.900017 20.7401 0.700017 21.1301 0.810017 21.4901C0.920017 21.8501 1.31002 22.0601 1.67002 21.9401C2.09002 21.8101 2.86002 21.9501 3.52002 22.5901C3.95002 23.0001 4.21002 23.5101 4.23002 23.9501V25.5201C3.32002 24.7701 2.18002 24.4701 1.26002 24.7601C0.900017 24.8701 0.700017 25.2601 0.810017 25.6201C0.920017 25.9801 1.31002 26.1801 1.67002 26.0701C2.09002 25.9401 2.86002 26.0801 3.52002 26.7201C3.95002 27.1301 4.21002 27.6301 4.23002 28.0801V29.4601C3.32002 28.7101 2.18002 28.4101 1.26002 28.7001C0.900017 28.8101 0.700017 29.2001 0.810017 29.5601C0.920017 29.9201 1.31002 30.1201 1.67002 30.0101C2.10002 29.8801 2.85002 30.0201 3.52002 30.6601C3.95002 31.0701 4.21002 31.5701 4.23002 32.0201V34.5701C4.23002 34.5701 4.25002 34.6501 4.26002 34.7001C4.26002 34.7501 4.27002 34.8001 4.29002 34.8401C4.30002 34.8601 4.32002 34.8801 4.33002 34.9001C4.36002 34.9501 4.39002 35.0101 4.43002 35.0501C4.44002 35.0601 4.46002 35.0701 4.48002 35.0801C4.53002 35.1201 4.59002 35.1701 4.65002 35.1901C4.73002 35.2201 4.82002 35.2401 4.92002 35.2401L34.51 35.1901C34.74 35.1901 34.96 35.0701 35.09 34.8701C35.22 34.6701 35.23 34.4301 35.14 34.2101L35.16 34.2401ZM21.99 19.3901L30.5 33.8401L13.37 33.8701L21.99 19.4001V19.3901ZM32.1 33.8401L27.42 25.8901L28.69 23.2201L33.48 33.8301H32.11L32.1 33.8401Z" fill="#222222"/>
</g>
</g>
</svg>
