<svg width="36" height="36" viewBox="0 0 36 36" fill="none" xmlns="http://www.w3.org/2000/svg">
<g id="sea_M 1">
<g id="Group">
<path id="Vector" d="M26.25 6.34989L27.79 8.02989C28.57 8.87989 29.64 9.31989 30.71 9.31989C31.59 9.31989 32.47 9.02989 33.2 8.42989L34.95 6.98989C35.24 6.74989 35.29 6.31989 35.05 6.01989C34.81 5.72989 34.38 5.67989 34.08 5.91989L32.33 7.35989C31.26 8.23989 29.74 8.12989 28.8 7.09989L26.75 4.85989C26.62 4.71989 26.44 4.63989 26.24 4.63989C26.05 4.63989 25.86 4.71989 25.73 4.85989L24.01 6.73989C23.51 7.28989 22.83 7.58989 22.11 7.58989C21.38 7.58989 20.71 7.28989 20.21 6.73989L18.49 4.85989C18.36 4.71989 18.18 4.63989 17.98 4.63989C17.78 4.63989 17.6 4.71989 17.47 4.85989L15.75 6.73989C15.25 7.28989 14.57 7.58989 13.85 7.58989C13.13 7.58989 12.45 7.28989 11.95 6.73989L10.23 4.85989C9.97001 4.56989 9.47001 4.56989 9.21001 4.85989L7.17001 7.08989C6.24001 8.09989 4.69001 8.21989 3.64001 7.34989L1.90001 5.91989C1.61001 5.67989 1.17001 5.71989 0.930006 6.01989C0.690006 6.30989 0.730006 6.74989 1.03001 6.98989L2.77001 8.41989C4.39001 9.74989 6.77001 9.57989 8.19001 8.01989L9.72001 6.34989L10.93 7.66989C11.68 8.48989 12.75 8.95989 13.85 8.95989C14.95 8.95989 16.02 8.48989 16.77 7.65989L17.98 6.33989L19.19 7.65989C19.94 8.47989 21.01 8.94989 22.11 8.95989C23.21 8.95989 24.28 8.48989 25.03 7.66989L26.24 6.34989H26.25Z" fill="#222222"/>
<path id="Vector_2" d="M11.96 12.6C11.05 13.7 9.52998 13.7 8.60998 12.6C8.36998 12.31 7.92998 12.27 7.63998 12.51C7.34998 12.75 7.30998 13.19 7.54998 13.48C8.26998 14.35 9.23998 14.83 10.28 14.83C11.32 14.83 12.29 14.35 13.01 13.48C13.25 13.19 13.21 12.75 12.92 12.51C12.63 12.27 12.19 12.31 11.95 12.6H11.96Z" fill="#222222"/>
<path id="Vector_3" d="M5.35 18.11C4.44 19.21 2.92 19.21 2 18.11C1.76 17.82 1.32 17.78 1.03 18.02C0.739997 18.26 0.699997 18.7 0.939997 18.99C1.66 19.86 2.63 20.34 3.67 20.34C4.71 20.34 5.68 19.86 6.4 18.99C6.64 18.7 6.6 18.26 6.31 18.02C6.02 17.78 5.58 17.82 5.34 18.11H5.35Z" fill="#222222"/>
<path id="Vector_4" d="M27.38 12.6C26.47 13.7 24.95 13.7 24.03 12.6C23.79 12.31 23.35 12.27 23.06 12.51C22.77 12.75 22.73 13.19 22.97 13.48C23.69 14.35 24.66 14.83 25.7 14.83C26.74 14.83 27.71 14.35 28.43 13.48C28.67 13.19 28.63 12.75 28.34 12.51C28.05 12.27 27.61 12.31 27.37 12.6H27.38Z" fill="#222222"/>
<path id="Vector_5" d="M11.96 23.6198C11.05 24.7198 9.52998 24.7198 8.60998 23.6198C8.36998 23.3298 7.92998 23.2898 7.63998 23.5298C7.34998 23.7698 7.30998 24.2098 7.54998 24.4998C8.26998 25.3698 9.23998 25.8498 10.28 25.8498C11.32 25.8498 12.29 25.3698 13.01 24.4998C13.25 24.2098 13.21 23.7698 12.92 23.5298C12.63 23.2898 12.19 23.3298 11.95 23.6198H11.96Z" fill="#222222"/>
<path id="Vector_6" d="M27.38 23.6198C26.47 24.7198 24.95 24.7198 24.03 23.6198C23.79 23.3298 23.35 23.2898 23.06 23.5298C22.77 23.7698 22.73 24.2098 22.97 24.4998C23.69 25.3698 24.66 25.8498 25.7 25.8498C26.74 25.8498 27.71 25.3698 28.43 24.4998C28.67 24.2098 28.63 23.7698 28.34 23.5298C28.05 23.2898 27.61 23.3298 27.37 23.6198H27.38Z" fill="#222222"/>
<path id="Vector_7" d="M33.99 18.11C33.08 19.21 31.56 19.21 30.64 18.11C30.4 17.82 29.96 17.78 29.67 18.02C29.38 18.26 29.34 18.7 29.58 18.99C30.3 19.86 31.27 20.34 32.31 20.34C33.35 20.34 34.32 19.86 35.04 18.99C35.28 18.7 35.24 18.26 34.95 18.02C34.66 17.78 34.22 17.82 33.98 18.11H33.99Z" fill="#222222"/>
<path id="Vector_8" d="M19.67 18.11C18.76 19.21 17.24 19.21 16.32 18.11C16.08 17.82 15.64 17.78 15.35 18.02C15.06 18.26 15.02 18.7 15.26 18.99C15.98 19.86 16.95 20.34 17.99 20.34C19.03 20.34 20 19.86 20.72 18.99C20.96 18.7 20.92 18.26 20.63 18.02C20.34 17.78 19.9 17.82 19.66 18.11H19.67Z" fill="#222222"/>
<path id="Vector_9" d="M5.35 29.1298C4.44 30.2298 2.92 30.2298 2 29.1298C1.76 28.8398 1.32 28.7998 1.03 29.0398C0.739997 29.2798 0.699997 29.7198 0.939997 30.0098C1.66 30.8798 2.63 31.3598 3.67 31.3598C4.71 31.3598 5.68 30.8798 6.4 30.0098C6.64 29.7198 6.6 29.2798 6.31 29.0398C6.02 28.7998 5.58 28.8398 5.34 29.1298H5.35Z" fill="#222222"/>
<path id="Vector_10" d="M33.99 29.1298C33.08 30.2298 31.56 30.2298 30.64 29.1298C30.4 28.8398 29.96 28.7998 29.67 29.0398C29.38 29.2798 29.34 29.7198 29.58 30.0098C30.3 30.8798 31.27 31.3598 32.31 31.3598C33.35 31.3598 34.32 30.8798 35.04 30.0098C35.28 29.7198 35.24 29.2798 34.95 29.0398C34.66 28.7998 34.22 28.8398 33.98 29.1298H33.99Z" fill="#222222"/>
<path id="Vector_11" d="M19.67 29.1298C18.76 30.2298 17.24 30.2298 16.32 29.1298C16.08 28.8398 15.64 28.7998 15.35 29.0398C15.06 29.2798 15.02 29.7198 15.26 30.0098C15.98 30.8798 16.95 31.3598 17.99 31.3598C19.03 31.3598 20 30.8798 20.72 30.0098C20.96 29.7198 20.92 29.2798 20.63 29.0398C20.34 28.7998 19.9 28.8398 19.66 29.1298H19.67Z" fill="#222222"/>
</g>
</g>
</svg>
