<svg width="36" height="36" viewBox="0 0 36 36" fill="none" xmlns="http://www.w3.org/2000/svg">
<g id="winter_M 1">
<path id="Vector" d="M34.43 17.3201H25.63L32.34 10.6201C32.61 10.3501 32.61 9.92008 32.34 9.66008C32.07 9.39008 31.64 9.39008 31.38 9.66008L23.7 17.3201H18.48V12.2401L26.6 4.54008C26.87 4.28008 26.88 3.85008 26.63 3.58008C26.37 3.31008 25.94 3.30008 25.67 3.55008L18.49 10.3601V1.49008C18.49 1.12008 18.19 0.830078 17.83 0.830078C17.47 0.830078 17.17 1.13008 17.17 1.49008V10.2801L10.46 3.57008C10.19 3.30008 9.76004 3.30008 9.50004 3.57008C9.23004 3.84008 9.23004 4.27008 9.50004 4.53008L17.16 12.2101V17.3101H12.19L4.60004 9.31008C4.34004 9.04008 3.91004 9.03008 3.64004 9.28008C3.37004 9.54008 3.36004 9.97008 3.61004 10.2401L10.32 17.3101H1.33004C0.960044 17.3101 0.670044 17.6101 0.670044 17.9701C0.670044 18.3301 0.970044 18.6301 1.33004 18.6301H10.45L3.63004 25.4401C3.36004 25.7101 3.36004 26.1401 3.63004 26.4001C3.90004 26.6701 4.33004 26.6701 4.59004 26.4001L12.38 18.6301H17.16V23.7101L9.15004 31.3101C8.88004 31.5701 8.87004 32.0001 9.12004 32.2701C9.38004 32.5401 9.81004 32.5501 10.08 32.3001L17.15 25.5901V34.5801C17.15 34.9501 17.45 35.2401 17.81 35.2401C18.17 35.2401 18.47 34.9401 18.47 34.5801V25.4501L25.28 32.2701C25.55 32.5401 25.98 32.5401 26.24 32.2701C26.51 32.0001 26.51 31.5701 26.24 31.3101L18.47 23.5201V18.6301H23.66L31.36 26.7501C31.62 27.0201 32.05 27.0301 32.32 26.7801C32.59 26.5201 32.6 26.0901 32.35 25.8201L25.54 18.6401H34.42C34.79 18.6401 35.08 18.3401 35.08 17.9801C35.08 17.6201 34.78 17.3201 34.42 17.3201H34.43Z" fill="#222222"/>
</g>
</svg>
