<svg width="36" height="36" viewBox="0 0 36 36" fill="none" xmlns="http://www.w3.org/2000/svg">
<g id="clouds_M 1">
<path id="Vector" d="M29.58 16.8301C29.6 16.6101 29.61 16.4001 29.61 16.1801C29.61 11.9601 25.84 8.5701 21.51 9.3001C20.08 6.8501 17.49 5.3501 14.62 5.3501C10.82 5.3501 7.57999 8.0301 6.80999 11.6801C3.52999 11.4501 0.789993 14.0801 0.789993 17.3201C0.789993 20.5601 3.31999 22.9701 6.42999 22.9701H6.70999C6.50999 23.5501 6.39999 24.1801 6.39999 24.8201C6.39999 27.9301 8.92999 30.4701 12.04 30.4701L28.24 30.6701C32.09 30.6701 35.22 27.5401 35.22 23.6901C35.22 20.3001 32.79 17.4501 29.58 16.8401V16.8301ZM6.43999 21.5801C4.07999 21.5801 2.16999 19.6601 2.16999 17.3101C2.16999 14.6901 4.54999 12.6001 7.25999 13.1201C7.44999 13.1601 7.63999 13.1201 7.79999 13.0001C7.95999 12.8801 8.05999 12.7201 8.07999 12.5301C8.47999 9.2201 11.3 6.7201 14.63 6.7201C17.14 6.7201 19.41 8.1201 20.54 10.3801C20.68 10.6701 21 10.8201 21.32 10.7401C21.77 10.6301 22.22 10.5801 22.64 10.5801C25.73 10.5801 28.24 13.0901 28.24 16.1801C28.24 16.3601 28.21 16.5301 28.2 16.7101C27.85 16.7101 27.49 16.7401 27.12 16.8001C25.69 14.3501 23.1 12.8501 20.23 12.8501C16.43 12.8501 13.19 15.5301 12.42 19.1801C10.34 19.0301 8.48999 20.0301 7.39999 21.6001H6.43999V21.5801ZM28.25 29.2701L12.05 29.0701C9.69999 29.0701 7.77999 27.1501 7.77999 24.8001C7.77999 22.4501 9.69999 20.5301 12.05 20.5301C12.32 20.5301 12.59 20.5601 12.87 20.6101C13.06 20.6501 13.25 20.6101 13.41 20.4901C13.56 20.3801 13.67 20.2101 13.69 20.0201C14.09 16.7101 16.91 14.2101 20.24 14.2101C22.75 14.2101 25.02 15.6101 26.15 17.8701C26.29 18.1601 26.62 18.3101 26.93 18.2301C27.38 18.1201 27.83 18.0701 28.26 18.0701C31.35 18.0701 33.86 20.5801 33.86 23.6701C33.86 26.7601 31.35 29.2701 28.27 29.2701H28.25Z" fill="#222222"/>
</g>
</svg>
