<svg width="36" height="36" viewBox="0 0 36 36" fill="none" xmlns="http://www.w3.org/2000/svg">
<g id="circle info interrogation_M 1">
<g id="Group">
<path id="Vector" d="M17.76 23.1799C17.09 23.1799 16.55 23.7299 16.55 24.3899C16.55 25.0499 17.09 25.5999 17.76 25.5999C18.43 25.5999 18.97 25.0499 18.97 24.3899C18.97 23.7299 18.43 23.1799 17.76 23.1799Z" fill="#222222"/>
<path id="Vector_2" d="M18 10.31C16.36 10.31 15.01 10.8 14.09 11.71C13.27 12.54 12.83 13.69 12.84 15.04V15.14H14.69V15.04C14.69 13.05 15.93 11.86 18 11.86C19.86 11.86 21.07 12.78 21.07 14.2C21.07 15.44 20.24 16.11 19.27 16.88C18.16 17.77 16.9 18.79 16.9 20.92V21.02H18.62V20.93C18.69 19.35 19.77 18.48 20.82 17.64C21.9 16.77 23.02 15.88 23.01 14.2C23.01 11.91 20.95 10.3 18 10.3V10.31Z" fill="#222222"/>
<path id="Vector_3" d="M18 1.05005C8.64999 1.05005 1.04999 8.65005 1.04999 18C1.04999 27.35 8.64999 34.9501 18 34.9501C27.35 34.9501 34.95 27.35 34.95 18C34.95 8.65005 27.35 1.05005 18 1.05005ZM33.4 18C33.4 26.49 26.49 33.4001 18 33.4001C9.50999 33.4001 2.59999 26.49 2.59999 18C2.59999 9.51005 9.50999 2.60005 18 2.60005C26.49 2.60005 33.4 9.51005 33.4 18Z" fill="#222222"/>
</g>
</g>
</svg>
