<svg width="36" height="36" viewBox="0 0 36 36" fill="none" xmlns="http://www.w3.org/2000/svg">
<g id="winter time_M 1">
<g id="a">
<g id="Group">
<path id="Vector" d="M13.0298 11.04C6.4198 11.04 1.0498 16.38 1.0498 22.95C1.0498 22.97 1.0598 22.99 1.0598 23.01C1.0598 23.03 1.0498 23.05 1.0498 23.07C1.0498 29.64 6.4198 34.98 13.0298 34.98C19.6398 34.98 25.0098 29.63 25.0098 23.07C25.0098 23.05 24.9998 23.03 24.9998 23.01C24.9998 22.99 25.0098 22.97 25.0098 22.95C25.0098 16.38 19.6398 11.04 13.0298 11.04V11.04ZM13.0298 33.64C7.1698 33.64 2.4098 28.9 2.4098 23.08C2.4098 23.06 2.3998 23.04 2.3998 23.02C2.3998 23 2.4098 22.98 2.4098 22.96C2.4098 17.14 7.1698 12.41 13.0298 12.41C18.8898 12.41 23.6498 17.14 23.6498 22.96C23.6498 22.98 23.6598 23 23.6598 23.02C23.6598 23.04 23.6498 23.06 23.6498 23.08C23.6498 28.9 18.8898 33.64 13.0298 33.64Z" fill="#222222"/>
<path id="Vector_2" d="M18.78 22.41H13.44L8.03 17.02C7.76 16.75 7.33 16.75 7.07 17.02C6.81 17.29 6.81 17.72 7.07 17.98L12.68 23.56C12.81 23.69 12.99 23.76 13.16 23.76C13.17 23.76 13.18 23.76 13.19 23.76C13.2 23.76 13.21 23.76 13.23 23.76H18.78C19.16 23.76 19.46 23.46 19.46 23.08C19.46 22.7 19.16 22.4 18.78 22.4V22.41Z" fill="#222222"/>
<path id="Vector_3" d="M34.3198 7.33998H31.7898L33.8398 5.28998C34.1098 5.01998 34.1098 4.58998 33.8398 4.32998C33.5698 4.06998 33.1398 4.05998 32.8798 4.32998L29.8698 7.33998H28.7098V6.05998L31.5398 3.22998C31.8098 2.95998 31.8098 2.52998 31.5398 2.26998C31.2698 2.00998 30.8398 1.99998 30.5798 2.26998L28.7098 4.13998V1.71998C28.7098 1.33998 28.4098 1.03998 28.0298 1.03998C27.6498 1.03998 27.3498 1.33998 27.3498 1.71998V3.96998L25.5198 2.13998C25.2498 1.86998 24.8198 1.86998 24.5598 2.13998C24.2998 2.40998 24.2898 2.83998 24.5598 3.09998L27.3498 5.88998V7.33998H26.1698L23.3998 4.56998C23.1298 4.29998 22.6998 4.29998 22.4398 4.56998C22.1798 4.83998 22.1698 5.26998 22.4398 5.52998L24.2498 7.33998H21.7298C21.3498 7.33998 21.0498 7.63998 21.0498 8.01998C21.0498 8.39998 21.3498 8.69998 21.7298 8.69998H24.3998L22.2998 10.8C22.0298 11.07 22.0298 11.5 22.2998 11.76C22.4298 11.89 22.6098 11.96 22.7798 11.96C22.9498 11.96 23.1298 11.89 23.2598 11.76L26.3198 8.69998H27.3498V9.84998L24.4098 12.79C24.1398 13.06 24.1398 13.49 24.4098 13.75C24.6798 14.01 25.1098 14.02 25.3698 13.75L27.3498 11.77V14.31C27.3498 14.69 27.6498 14.99 28.0298 14.99C28.4098 14.99 28.7098 14.69 28.7098 14.31V11.9L30.6898 13.88C30.8198 14.01 30.9998 14.08 31.1698 14.08C31.3398 14.08 31.5198 14.01 31.6498 13.88C31.9198 13.61 31.9198 13.18 31.6498 12.92L28.7098 9.97998V8.68998H30.1298L32.7598 11.32C32.8898 11.45 33.0698 11.52 33.2398 11.52C33.4098 11.52 33.5898 11.45 33.7198 11.32C33.9898 11.05 33.9898 10.62 33.7198 10.36L32.0498 8.68998H34.3298C34.7098 8.68998 35.0098 8.38998 35.0098 8.00998C35.0098 7.62998 34.7098 7.32998 34.3298 7.32998L34.3198 7.33998Z" fill="#222222"/>
</g>
</g>
</g>
</svg>
