<svg width="36" height="36" viewBox="0 0 36 36" fill="none" xmlns="http://www.w3.org/2000/svg">
<g id="calendar schedule_M 1">
<g id="a">
<g id="Group">
<path id="Vector" d="M34.32 4.99H26.96V1.68C26.96 1.3 26.66 1 26.28 1C25.9 1 25.6 1.3 25.6 1.68V4.99H10.36V1.68C10.36 1.3 10.06 1 9.68001 1C9.30001 1 9.00001 1.3 9.00001 1.68V4.99H1.69001C1.31001 4.99 1.01001 5.29 1.01001 5.67V34.32C1.01001 34.7 1.31001 35 1.69001 35H34.32C34.7 35 35 34.7 35 34.32V5.67C35 5.29 34.7 4.99 34.32 4.99ZM33.64 33.64H2.37001V6.35H9.00001V8.31C9.00001 8.69 9.30001 8.99 9.68001 8.99C10.06 8.99 10.36 8.69 10.36 8.31V6.35H25.6V8.31C25.6 8.69 25.9 8.99 26.28 8.99C26.66 8.99 26.96 8.69 26.96 8.31V6.35H33.64V33.64Z" fill="#222222"/>
<path id="Vector_2" d="M5.74006 17.02H11.0301C11.4101 17.02 11.7101 16.72 11.7101 16.34C11.7101 15.96 11.4101 15.66 11.0301 15.66H5.74006C5.36006 15.66 5.06006 15.96 5.06006 16.34C5.06006 16.72 5.36006 17.02 5.74006 17.02Z" fill="#222222"/>
<path id="Vector_3" d="M14.7601 15.66C14.3801 15.66 14.0801 15.96 14.0801 16.34C14.0801 16.72 14.3801 17.02 14.7601 17.02H30.3601C30.7401 17.02 31.0401 16.72 31.0401 16.34C31.0401 15.96 30.7401 15.66 30.3601 15.66H14.7601Z" fill="#222222"/>
<path id="Vector_4" d="M30.3501 23.66H25.0601C24.6801 23.66 24.3801 23.96 24.3801 24.34C24.3801 24.72 24.6801 25.02 25.0601 25.02H30.3501C30.7301 25.02 31.0301 24.72 31.0301 24.34C31.0301 23.96 30.7301 23.66 30.3501 23.66Z" fill="#222222"/>
<path id="Vector_5" d="M21.3401 23.66H5.74006C5.36006 23.66 5.06006 23.96 5.06006 24.34C5.06006 24.72 5.36006 25.02 5.74006 25.02H21.3401C21.7201 25.02 22.0201 24.72 22.0201 24.34C22.0201 23.96 21.7201 23.66 21.3401 23.66Z" fill="#222222"/>
</g>
</g>
</g>
</svg>
