<svg width="36" height="36" viewBox="0 0 36 36" fill="none" xmlns="http://www.w3.org/2000/svg">
<g id="calendar days_M 1">
<g id="a">
<path id="Vector" d="M34.32 4.99H26.96V1.68C26.96 1.3 26.66 1 26.28 1C25.9 1 25.6 1.3 25.6 1.68V4.99H10.36V1.68C10.36 1.3 10.06 1 9.68001 1C9.30001 1 9.00001 1.3 9.00001 1.68V4.99H1.69001C1.31001 4.99 1.01001 5.29 1.01001 5.67V34.32C1.01001 34.7 1.31001 35 1.69001 35H34.32C34.7 35 35 34.7 35 34.32V5.67C35 5.29 34.7 4.99 34.32 4.99ZM2.37001 12.34H17.32V18.42H2.37001V12.34V12.34ZM2.37001 19.78H17.32V26.4H2.37001V19.78ZM18.68 19.78H33.65V26.4H18.68V19.78ZM18.68 18.42V12.34H33.65V18.42H18.68ZM9.00001 6.35V8.31C9.00001 8.69 9.30001 8.99 9.68001 8.99C10.06 8.99 10.36 8.69 10.36 8.31V6.35H25.6V8.31C25.6 8.69 25.9 8.99 26.28 8.99C26.66 8.99 26.96 8.69 26.96 8.31V6.35H33.64V10.97H2.37001V6.35H9.00001ZM2.37001 27.76H17.32V33.65H2.37001V27.76V27.76ZM18.68 33.65V27.76H33.65V33.65H18.68Z" fill="#222222"/>
</g>
</g>
</svg>
