<svg width="36" height="36" viewBox="0 0 36 36" fill="none" xmlns="http://www.w3.org/2000/svg">
<g id="clock_M 1">
<g id="a">
<g id="Group">
<path id="Vector" d="M35 17.91C35 8.58 27.37 1 18 1C8.63 1 1 8.58 1 17.91C1 17.94 1.01 17.97 1.02 18C1.02 18.03 1 18.06 1 18.09C1 27.41 8.63 35 18 35C27.37 35 35 27.42 35 18.09C35 18.06 34.99 18.03 34.98 18C34.98 17.97 35 17.94 35 17.91ZM18 33.64C9.38 33.64 2.36 26.67 2.36 18.09C2.36 18.06 2.35 18.03 2.34 18C2.34 17.97 2.36 17.94 2.36 17.91C2.36 9.33 9.38 2.36 18 2.36C26.62 2.36 33.64 9.33 33.64 17.91C33.64 17.94 33.65 17.97 33.66 18C33.66 18.03 33.64 18.06 33.64 18.09C33.64 26.66 26.62 33.64 18 33.64Z" fill="#222222"/>
<path id="Vector_2" d="M26.3001 17.41H18.4601L10.5601 9.54002C10.2901 9.27002 9.86013 9.28002 9.60013 9.54002C9.33013 9.81002 9.34013 10.24 9.60013 10.5L17.7001 18.57C17.8301 18.7 18.0101 18.77 18.1801 18.77C18.2001 18.77 18.2101 18.77 18.2301 18.77C18.2501 18.77 18.2701 18.78 18.2801 18.78H26.3001C26.6801 18.78 26.9801 18.48 26.9801 18.1C26.9801 17.72 26.6801 17.42 26.3001 17.42V17.41Z" fill="#222222"/>
</g>
</g>
</g>
</svg>
