<svg width="36" height="36" viewBox="0 0 36 36" fill="none" xmlns="http://www.w3.org/2000/svg">
<g id="automation_M 1">
<g id="Group">
<path id="Vector" d="M20.6801 8.49001C19.5401 8.49001 18.6201 9.42001 18.6201 10.55C18.6201 11.68 19.5501 12.61 20.6801 12.61C21.8101 12.61 22.7401 11.68 22.7401 10.55C22.7401 9.42001 21.8101 8.49001 20.6801 8.49001ZM20.6801 11.44C20.1901 11.44 19.7901 11.04 19.7901 10.55C19.7901 10.06 20.1901 9.66001 20.6801 9.66001C21.1701 9.66001 21.5701 10.06 21.5701 10.55C21.5701 11.04 21.1701 11.44 20.6801 11.44Z" fill="#222222"/>
<path id="Vector_2" d="M15.32 8.49001C14.18 8.49001 13.26 9.42001 13.26 10.55C13.26 11.68 14.19 12.61 15.32 12.61C16.45 12.61 17.38 11.68 17.38 10.55C17.38 9.42001 16.45 8.49001 15.32 8.49001V8.49001ZM15.32 11.44C14.83 11.44 14.43 11.04 14.43 10.55C14.43 10.06 14.83 9.66001 15.32 9.66001C15.81 9.66001 16.21 10.06 16.21 10.55C16.21 11.04 15.81 11.44 15.32 11.44Z" fill="#222222"/>
<path id="Vector_3" d="M32.58 24.62L31.8 24.13C31.8 24.13 31.8 24.12 31.8 24.11L32.33 20.34C32.37 20.08 32.24 19.83 32.02 19.7L28.05 17.43L28.18 17.07C28.25 16.88 28.22 16.67 28.11 16.51C28 16.35 27.81 16.25 27.61 16.25H18.72V15.17H24.43C24.75 15.17 25.02 14.91 25.02 14.58V6.54C25.02 6.22 24.76 5.95 24.43 5.95H18.7V4.84C19.56 4.58 20.18 3.78 20.18 2.86C20.18 1.72 19.25 0.800003 18.12 0.800003C16.99 0.800003 16.06 1.73 16.06 2.86C16.06 3.77 16.68 4.58 17.54 4.84V5.95H11.81C11.49 5.95 11.22 6.21 11.22 6.54V14.58C11.22 14.9 11.48 15.17 11.81 15.17H17.52V16.25H8.36003C8.16003 16.25 7.97003 16.35 7.86003 16.52C7.75003 16.69 7.72003 16.9 7.79003 17.09L7.93003 17.46L3.99003 19.71C3.76003 19.84 3.64003 20.09 3.68003 20.35L4.21003 24.12C4.21003 24.12 4.21003 24.13 4.21003 24.14L3.43003 24.63C3.21003 24.77 3.09003 25.02 3.12003 25.28L3.42003 27.73C3.45003 27.95 3.58003 28.14 3.78003 28.24L5.39003 29.05C5.49003 29.1 5.59003 29.12 5.69003 29.12C5.93003 29.12 6.17003 28.99 6.28003 28.75C6.45003 28.42 6.31003 28.02 5.99003 27.86L4.70003 27.21L4.49003 25.53L6.04003 24.56L7.58003 25.47L7.66003 27C7.68003 27.37 7.99003 27.65 8.36003 27.63C8.73003 27.61 9.01003 27.3 8.99003 26.93L8.90003 25.04C8.89003 24.82 8.77003 24.61 8.57003 24.5L6.37003 23.2C6.16003 23.07 5.89003 23.08 5.68003 23.2L5.38003 23.38L4.99003 20.57L8.39003 18.63L8.51003 18.94L9.09003 20.44L12.49 29.26C12.58 29.49 12.81 29.65 13.06 29.65H13.58L12.95 31.08H10.95C10.61 31.08 10.34 31.35 10.34 31.69V35.17H16.57V31.69C16.57 31.35 16.3 31.08 15.96 31.08H14.24L14.87 29.65H21.27L21.93 31.08H20.22C19.88 31.08 19.61 31.35 19.61 31.69V35.12V35.17H25.84V31.69C25.84 31.35 25.57 31.08 25.23 31.08H23.22L22.56 29.65H23.14C23.4 29.65 23.63 29.49 23.71 29.25L26.94 20.42L27.5 18.88L27.6 18.61L31 20.56L30.61 23.37L30.31 23.19C30.1 23.06 29.83 23.06 29.62 23.19L27.42 24.49C27.23 24.6 27.11 24.81 27.09 25.03L27 26.92C26.98 27.29 27.26 27.6 27.63 27.62C28.01 27.64 28.31 27.36 28.33 26.99L28.41 25.46L29.95 24.55L31.5 25.52L31.29 27.2L30 27.85C29.67 28.02 29.54 28.42 29.71 28.74C29.83 28.97 30.06 29.11 30.3 29.11C30.4 29.11 30.5 29.09 30.6 29.04L32.21 28.23C32.41 28.13 32.54 27.94 32.57 27.72L32.87 25.27C32.9 25.01 32.78 24.76 32.56 24.62H32.58ZM17.2 2.86C17.2 2.37 17.6 1.97 18.09 1.97C18.58 1.97 18.98 2.37 18.98 2.86C18.98 3.35 18.58 3.75 18.09 3.75C17.6 3.75 17.2 3.35 17.2 2.86ZM12.36 13.98V7.13H23.82V13.99H12.37L12.36 13.98ZM15.33 32.32V34.03H11.55V32.32H15.33ZM24.6 32.32V34.03H20.82V32.32H24.6ZM26.19 18.9L25.63 20.43L22.7 28.44H13.48L10.4 20.45L9.82003 18.94L9.33003 17.67C9.33003 17.59 9.30003 17.52 9.27003 17.45H26.73L26.2 18.9H26.19Z" fill="#222222"/>
</g>
</g>
</svg>
