<svg width="36" height="36" viewBox="0 0 36 36" fill="none" xmlns="http://www.w3.org/2000/svg">
<g id="chatbot_M 1">
<path id="Vector" d="M34.4699 12.89H18.6799V9.8C19.8081 9.62612 20.8291 9.03271 21.5386 8.13845C22.2481 7.2442 22.5939 6.11504 22.5067 4.97684C22.4195 3.83864 21.9058 2.77533 21.0684 1.99958C20.2309 1.22383 19.1315 0.792854 17.9899 0.792854C16.8484 0.792854 15.7489 1.22383 14.9115 1.99958C14.074 2.77533 13.5604 3.83864 13.4732 4.97684C13.386 6.11504 13.7317 7.2442 14.4412 8.13845C15.1507 9.03271 16.1717 9.62612 17.2999 9.8V12.89H1.52993C1.43978 12.89 1.35053 12.9079 1.26737 12.9427C1.18421 12.9775 1.1088 13.0285 1.04552 13.0927C0.982248 13.1569 0.932369 13.233 0.89879 13.3167C0.865211 13.4004 0.848601 13.4899 0.849927 13.58V34.58C0.849927 34.7603 0.92157 34.9333 1.04909 35.0608C1.17662 35.1884 1.34958 35.26 1.52993 35.26H34.4699C34.6503 35.26 34.8232 35.1884 34.9508 35.0608C35.0783 34.9333 35.1499 34.7603 35.1499 34.58V13.58C35.1513 13.4899 35.1346 13.4004 35.1011 13.3167C35.0675 13.233 35.0176 13.1569 34.9543 13.0927C34.8911 13.0285 34.8156 12.9775 34.7325 12.9427C34.6493 12.9079 34.5601 12.89 34.4699 12.89V12.89ZM14.8299 5.32C14.8299 4.69543 15.015 4.08488 15.3618 3.56544C15.7086 3.046 16.2015 2.64097 16.7783 2.40151C17.3552 2.16204 17.99 2.09888 18.6027 2.22C19.2155 2.34112 19.7785 2.64109 20.2209 3.08203C20.6632 3.52296 20.9649 4.08508 21.088 4.6974C21.211 5.30972 21.1499 5.94478 20.9122 6.52236C20.6746 7.09995 20.2711 7.59416 19.7528 7.94259C19.2345 8.29101 18.6245 8.47802 17.9999 8.48C17.1609 8.48 16.3561 8.14739 15.7619 7.55506C15.1677 6.96273 14.8326 6.159 14.8299 5.32V5.32ZM33.8299 33.84H2.21993V14.27H33.7799L33.8299 33.84Z" fill="#222222"/>
<path id="Vector_2" d="M25 28.59C25.8983 28.592 26.7771 28.3274 27.525 27.8297C28.2729 27.3321 28.8564 26.6237 29.2015 25.7943C29.5467 24.9649 29.638 24.0518 29.464 23.1704C29.2899 22.2891 28.8583 21.4792 28.2238 20.8433C27.5892 20.2074 26.7803 19.774 25.8994 19.598C25.0184 19.422 24.1051 19.5113 23.2749 19.8546C22.4447 20.198 21.7351 20.7799 21.2358 21.5267C20.7365 22.2735 20.47 23.1516 20.47 24.05C20.4726 25.2515 20.9504 26.4033 21.7991 27.2538C22.6478 28.1044 23.7984 28.5847 25 28.59V28.59ZM25 20.89C25.625 20.89 26.2359 21.0753 26.7556 21.4226C27.2752 21.7698 27.6803 22.2633 27.9194 22.8407C28.1586 23.4181 28.2212 24.0535 28.0993 24.6665C27.9773 25.2795 27.6764 25.8425 27.2344 26.2845C26.7925 26.7264 26.2294 27.0274 25.6165 27.1493C25.0035 27.2712 24.3681 27.2086 23.7907 26.9695C23.2133 26.7303 22.7198 26.3253 22.3725 25.8056C22.0253 25.2859 21.84 24.675 21.84 24.05C21.8426 23.2127 22.1764 22.4105 22.7684 21.8185C23.3605 21.2264 24.1627 20.8926 25 20.89V20.89Z" fill="#222222"/>
<path id="Vector_3" d="M11 28.59C11.8979 28.59 12.7757 28.3237 13.5223 27.8249C14.2688 27.326 14.8508 26.617 15.1944 25.7874C15.538 24.9578 15.6279 24.045 15.4527 23.1643C15.2775 22.2836 14.8452 21.4747 14.2102 20.8397C13.5753 20.2048 12.7663 19.7724 11.8857 19.5972C11.005 19.4221 10.0922 19.512 9.26258 19.8556C8.433 20.1992 7.72395 20.7811 7.22509 21.5277C6.72623 22.2743 6.45996 23.1521 6.45996 24.05C6.45996 25.2541 6.93828 26.4088 7.7897 27.2603C8.64111 28.1117 9.79588 28.59 11 28.59V28.59ZM11 20.89C11.6249 20.89 12.2359 21.0753 12.7556 21.4226C13.2752 21.7698 13.6802 22.2633 13.9194 22.8407C14.1586 23.4181 14.2212 24.0535 14.0992 24.6665C13.9773 25.2795 13.6764 25.8425 13.2344 26.2845C12.7925 26.7264 12.2294 27.0273 11.6164 27.1493C11.0035 27.2712 10.3681 27.2086 9.79068 26.9695C9.21327 26.7303 8.71974 26.3253 8.37252 25.8056C8.02529 25.2859 7.83996 24.675 7.83996 24.05C7.8426 23.2127 8.17637 22.4105 8.76842 21.8185C9.36046 21.2264 10.1627 20.8926 11 20.89V20.89Z" fill="#222222"/>
</g>
</svg>
