<svg width="36" height="36" viewBox="0 0 36 36" fill="none" xmlns="http://www.w3.org/2000/svg">
<g id="click_M 1">
<path id="Vector" d="M34.72 17.88L24.38 14.6C24.48 13.96 24.55 13.31 24.55 12.66C24.55 6.11 19.22 0.779999 12.66 0.779999C6.10003 0.779999 0.780029 6.11 0.780029 12.67C0.780029 19.23 6.11003 24.56 12.67 24.56C13.33 24.56 13.98 24.5 14.62 24.39L17.89 34.72C17.98 34.99 18.22 35.19 18.51 35.2H18.55C18.82 35.2 19.07 35.04 19.18 34.79L23.92 23.92L34.79 19.18C35.05 19.07 35.22 18.8 35.2 18.51C35.18 18.22 34.99 17.98 34.72 17.89V17.88ZM12.66 23.17C6.87003 23.17 2.15003 18.46 2.15003 12.66C2.15003 6.86 6.87003 2.16 12.66 2.16C18.45 2.16 23.17 6.87 23.17 12.67C23.17 13.18 23.12 13.69 23.05 14.19L11.35 10.48C11.1 10.4 10.84 10.47 10.65 10.65C10.47 10.83 10.4 11.1 10.48 11.35L14.19 23.05C13.68 23.12 13.17 23.17 12.66 23.17V23.17ZM23.11 22.75C22.95 22.82 22.82 22.95 22.75 23.11L18.64 32.54L12.2 12.2L32.55 18.65L23.11 22.76V22.75Z" fill="#222222"/>
</g>
</svg>
