<svg width="36" height="36" viewBox="0 0 36 36" fill="none" xmlns="http://www.w3.org/2000/svg">
<g id="virtual reality_M 1">
<g id="Group">
<path id="Vector" d="M34.52 19.56H30.52C29.4 17.17 27.01 15.51 24.24 15.51H11.79C9.02004 15.51 6.62004 17.17 5.51004 19.56H5.49004H1.48004C1.10004 19.56 0.790039 19.87 0.790039 20.25V26.94C0.790039 27.32 1.10004 27.63 1.48004 27.63H5.12004C5.87004 29.99 8.05004 31.7 10.62 31.7H13.4C14.91 31.7 16.14 30.45 16.14 28.92C16.14 28.15 16.75 27.52 17.51 27.52H18.56C19.31 27.52 19.93 28.15 19.93 28.92C19.93 30.45 21.16 31.7 22.67 31.7H25.43C28 31.7 30.18 29.99 30.93 27.63H34.53C34.91 27.63 35.22 27.32 35.22 26.94V20.25C35.22 19.87 34.91 19.56 34.53 19.56H34.52ZM2.16004 26.24V20.93H5.03004C4.91004 21.46 4.83004 22.01 4.83004 22.58V25.82C4.83004 25.96 4.84004 26.1 4.85004 26.24H2.16004V26.24ZM25.42 30.31H22.66C21.91 30.31 21.29 29.68 21.29 28.91C21.29 27.38 20.06 26.13 18.55 26.13H17.5C15.99 26.13 14.76 27.38 14.76 28.91C14.76 29.68 14.15 30.31 13.39 30.31H10.61C8.18004 30.31 6.21004 28.3 6.21004 25.82V22.58C6.21004 19.44 8.71004 16.89 11.79 16.89H24.24C27.32 16.89 29.82 19.44 29.82 22.58V25.82C29.82 28.3 27.85 30.31 25.42 30.31V30.31ZM33.83 26.24H31.18C31.18 26.1 31.2 25.96 31.2 25.82V22.58C31.2 22.01 31.13 21.46 31 20.93H33.83V26.24Z" fill="#222222"/>
<path id="Vector_2" d="M13.4701 11.89C13.2001 12.16 13.2001 12.59 13.4701 12.86C13.7401 13.13 14.1701 13.13 14.4401 12.86C16.4601 10.84 19.7601 10.83 21.7901 12.86C21.9201 12.99 22.1001 13.06 22.2801 13.06C22.4601 13.06 22.6301 12.99 22.7701 12.86C23.0401 12.59 23.0401 12.16 22.7701 11.89C20.2101 9.33 16.0401 9.33 13.4801 11.89H13.4701Z" fill="#222222"/>
<path id="Vector_3" d="M10.4401 8.86C14.6701 4.63 21.5601 4.63 25.7901 8.86C25.9201 8.99 26.1001 9.06 26.2801 9.06C26.4601 9.06 26.6301 8.99 26.7701 8.86C27.0401 8.59 27.0401 8.16 26.7701 7.89C22.0001 3.12 14.2401 3.12 9.47008 7.89C9.20008 8.16 9.20008 8.59 9.47008 8.86C9.74008 9.13 10.1701 9.13 10.4401 8.86V8.86Z" fill="#222222"/>
<path id="Vector_4" d="M24.2901 11.05C24.4701 11.05 24.6401 10.98 24.7801 10.85C25.0501 10.58 25.0501 10.15 24.7801 9.88C21.1101 6.21 15.1401 6.21 11.4601 9.88C11.1901 10.15 11.1901 10.58 11.4601 10.85C11.7301 11.12 12.1601 11.12 12.4301 10.85C15.5701 7.71 20.6701 7.72 23.8001 10.85C23.9301 10.98 24.1101 11.05 24.2901 11.05V11.05Z" fill="#222222"/>
</g>
</g>
</svg>
