<svg width="36" height="36" viewBox="0 0 36 36" fill="none" xmlns="http://www.w3.org/2000/svg">
<g id="qr code_M 1">
<g id="Group">
<path id="Vector" d="M34.42 0.87999H21.68C21.3 0.87999 20.99 1.18999 20.99 1.56999C20.99 1.94999 21.3 2.25999 21.68 2.25999H33.74V14.31C33.74 14.69 34.05 15 34.43 15C34.81 15 35.12 14.69 35.12 14.31V1.56999C35.12 1.18999 34.81 0.87999 34.43 0.87999H34.42Z" fill="#222222"/>
<path id="Vector_2" d="M1.5899 14.96C1.9699 14.96 2.2799 14.65 2.2799 14.27V2.22H14.3299C14.7099 2.22 15.0199 1.91 15.0199 1.53C15.0199 1.15 14.7099 0.839996 14.3299 0.839996H1.5899C1.2099 0.839996 0.899902 1.15 0.899902 1.53V14.28C0.899902 14.66 1.2099 14.97 1.5899 14.97V14.96Z" fill="#222222"/>
<path id="Vector_3" d="M14.3199 33.87H2.26989V21.81C2.26989 21.43 1.95989 21.12 1.57989 21.12C1.19989 21.12 0.889893 21.43 0.889893 21.81V34.55C0.889893 34.93 1.19989 35.24 1.57989 35.24H14.3199C14.6999 35.24 15.0099 34.93 15.0099 34.55C15.0099 34.17 14.6999 33.86 14.3199 33.86V33.87Z" fill="#222222"/>
<path id="Vector_4" d="M34.41 21.16C34.03 21.16 33.72 21.47 33.72 21.85V33.91H21.66C21.28 33.91 20.97 34.22 20.97 34.6C20.97 34.98 21.28 35.29 21.66 35.29H34.4C34.78 35.29 35.09 34.98 35.09 34.6V21.86C35.09 21.48 34.78 21.17 34.4 21.17L34.41 21.16Z" fill="#222222"/>
<path id="Vector_5" d="M16.2899 19.02H5.56988C5.18988 19.02 4.87988 19.33 4.87988 19.71V30.43C4.87988 30.81 5.18988 31.12 5.56988 31.12H16.2999C16.6799 31.12 16.9899 30.81 16.9899 30.43V19.71C16.9899 19.33 16.6799 19.02 16.2999 19.02H16.2899ZM15.5999 29.74H6.24988V20.39H15.6099V29.74H15.5999Z" fill="#222222"/>
<path id="Vector_6" d="M31.09 30.43V19.71C31.09 19.33 30.78 19.02 30.4 19.02H19.68C19.3 19.02 18.99 19.33 18.99 19.71V30.43C18.99 30.81 19.3 31.12 19.68 31.12H30.4C30.78 31.12 31.09 30.81 31.09 30.43ZM29.72 29.74H20.37V20.39H29.72V29.74V29.74Z" fill="#222222"/>
<path id="Vector_7" d="M16.2899 4.89999H5.56988C5.18988 4.89999 4.87988 5.20999 4.87988 5.58999V16.31C4.87988 16.69 5.18988 17 5.56988 17H16.2999C16.6799 17 16.9899 16.69 16.9899 16.31V5.58999C16.9899 5.20999 16.6799 4.89999 16.2999 4.89999H16.2899ZM15.5999 15.62H6.24988V6.26999H15.6099V15.62H15.5999Z" fill="#222222"/>
<path id="Vector_8" d="M19.68 17H30.4C30.78 17 31.09 16.69 31.09 16.31V5.58999C31.09 5.20999 30.78 4.89999 30.4 4.89999H19.68C19.3 4.89999 18.99 5.20999 18.99 5.58999V16.31C18.99 16.69 19.3 17 19.68 17V17ZM20.37 6.27999H29.72V15.62H20.37V6.26999V6.27999Z" fill="#222222"/>
</g>
</g>
</svg>
