<svg width="36" height="36" viewBox="0 0 36 36" fill="none" xmlns="http://www.w3.org/2000/svg">
<g id="desktop click_M 1">
<path id="Vector" d="M34.73 18.2L25.06 15.14V1.51C25.06 1.13 24.75 0.82 24.37 0.82H1.47003C1.09003 0.82 0.780029 1.13 0.780029 1.51V20.32C0.780029 20.7 1.09003 21.01 1.47003 21.01H10.04L8.96003 26.24C8.92003 26.44 8.96003 26.65 9.10003 26.81C9.23003 26.97 9.43003 27.06 9.63003 27.06H15.82L18.24 34.69C18.33 34.96 18.57 35.15 18.86 35.17H18.9C19.17 35.17 19.42 35.01 19.53 34.76L24.17 24.12L34.81 19.48C35.07 19.37 35.24 19.1 35.22 18.81C35.2 18.52 35.01 18.28 34.74 18.19L34.73 18.2ZM23.68 2.2V14.7L11.84 10.95C11.6 10.87 11.33 10.94 11.15 11.12C10.97 11.3 10.9 11.57 10.98 11.81L12.18 15.59H2.16003V2.2H23.68ZM2.18003 16.97H12.44C12.5 16.97 12.55 16.95 12.61 16.94L13.46 19.64H2.18003V16.98V16.97ZM10.47 25.69L11.44 21.01H13.9L15.38 25.69H10.47ZM23.36 22.97C23.2 23.04 23.07 23.17 23 23.33L18.99 32.54L12.7 12.66L32.58 18.96L23.37 22.98L23.36 22.97Z" fill="#222222"/>
</g>
</svg>
