<svg width="36" height="36" viewBox="0 0 36 36" fill="none" xmlns="http://www.w3.org/2000/svg">
<g id="browser ok_M 1">
<g id="Group">
<path id="Vector" d="M23.33 14.6L14.92 23.01L11.82 19.91C11.55 19.64 11.11 19.64 10.85 19.91C10.58 20.18 10.58 20.62 10.85 20.88L14.44 24.47C14.57 24.6 14.74 24.67 14.93 24.67C15.12 24.67 15.29 24.6 15.42 24.47L24.32 15.57C24.59 15.3 24.59 14.86 24.32 14.6C24.05 14.33 23.61 14.33 23.35 14.6H23.33Z" fill="#222222"/>
<path id="Vector_2" d="M34.5401 4.81H1.50006C1.12006 4.81 0.810059 5.12 0.810059 5.5V30.48C0.810059 30.86 1.12006 31.17 1.50006 31.17H34.5401C34.9201 31.17 35.2301 30.86 35.2301 30.48V5.5C35.2301 5.12 34.9201 4.81 34.5401 4.81V4.81ZM33.8501 6.2V9.56H2.20006V6.2H33.8501ZM2.18006 29.79V10.95H33.8501V29.79H2.18006Z" fill="#222222"/>
<path id="Vector_3" d="M4.70001 8.58C5.08001 8.58 5.39001 8.27 5.39001 7.89C5.39001 7.51 5.08001 7.2 4.70001 7.2C4.32001 7.2 4.01001 7.51 4.01001 7.89C4.01001 8.27 4.32001 8.58 4.70001 8.58V8.58Z" fill="#222222"/>
<path id="Vector_4" d="M7.2901 8.58C7.6701 8.58 7.9801 8.27 7.9801 7.89C7.9801 7.51 7.6701 7.2 7.2901 7.2C6.9101 7.2 6.6001 7.51 6.6001 7.89C6.6001 8.27 6.9101 8.58 7.2901 8.58V8.58Z" fill="#222222"/>
<path id="Vector_5" d="M9.88995 8.58C10.27 8.58 10.58 8.27 10.58 7.89C10.58 7.51 10.27 7.2 9.88995 7.2C9.50995 7.2 9.19995 7.51 9.19995 7.89C9.19995 8.27 9.50995 8.58 9.88995 8.58Z" fill="#222222"/>
</g>
</g>
</svg>
