<svg width="36" height="36" viewBox="0 0 36 36" fill="none" xmlns="http://www.w3.org/2000/svg">
<g id="mobile message_M 1">
<g id="Group">
<path id="Vector" d="M35.13 11.06C35.02 10.18 34.63 9.35 34.01 8.65C32.98 7.51 31.41 6.83 29.81 6.83H29.77L21.05 6.85V1.47C21.05 1.09 20.74 0.779999 20.36 0.779999H1.48004C1.10004 0.779999 0.790039 1.09 0.790039 1.47V34.52C0.790039 34.9 1.10004 35.21 1.48004 35.21H20.35C20.73 35.21 21.04 34.9 21.04 34.52V21.92C24.77 21.92 29.13 21.92 29.69 21.92H29.71C32.71 21.92 35.17 19.51 35.19 16.54C35.19 16.38 35.3 12.48 35.13 11.05V11.06ZM19.66 33.83H2.17004V2.16H19.67V6.85H18.36V4.1C18.36 3.72 18.05 3.41 17.67 3.41H4.17004C3.79004 3.41 3.48004 3.72 3.48004 4.1V26.41C3.48004 26.79 3.79004 27.1 4.17004 27.1H17.67C18.05 27.1 18.36 26.79 18.36 26.41V21.92C18.77 21.92 19.21 21.92 19.67 21.92V33.83H19.66ZM6.89004 16.53C6.89004 17.98 7.48004 19.33 8.52004 20.36C8.96004 20.79 9.45004 21.14 10 21.4C10.52 21.65 11.06 21.81 11.62 21.88L11.34 24.31C11.31 24.59 11.45 24.87 11.71 25C11.81 25.05 11.92 25.08 12.03 25.08C12.19 25.08 12.36 25.02 12.49 24.91L15.87 21.91H16.99V25.71H4.86004V4.79H16.98V6.86H12.3C11.07 6.88 9.90004 7.29 8.90004 8.08L8.74004 8.22C8.17004 8.73 7.72004 9.34 7.40004 10.02C7.04004 10.78 6.86004 11.54 6.86004 12.33L6.89004 16.53V16.53ZM33.82 16.52C33.81 18.74 31.97 20.55 29.72 20.55H29.7C28.7 20.55 15.6 20.54 15.6 20.54C15.43 20.54 15.27 20.6 15.14 20.71L12.91 22.68L13.07 21.32C13.09 21.12 13.03 20.93 12.9 20.78C12.77 20.63 12.58 20.55 12.39 20.55C12.38 20.55 12.37 20.55 12.36 20.55C11.75 20.55 11.15 20.42 10.6 20.15C10.19 19.95 9.82004 19.69 9.49004 19.37C8.71004 18.61 8.28004 17.6 8.27004 16.52L8.24004 12.29C8.24004 11.74 8.38004 11.18 8.65004 10.6C8.90004 10.08 9.24004 9.62 9.67004 9.23L9.79004 9.12C10.52 8.55 11.39 8.24 12.31 8.23L29.78 8.18H29.81C31.03 8.18 32.22 8.69 32.99 9.55C33.43 10.04 33.7 10.61 33.77 11.21C33.94 12.53 33.83 16.45 33.82 16.5V16.52Z" fill="#222222"/>
<path id="Vector_2" d="M10.92 27.76C9.60003 27.76 8.53003 28.83 8.53003 30.15C8.53003 31.47 9.60003 32.54 10.92 32.54C12.24 32.54 13.31 31.47 13.31 30.15C13.31 28.83 12.24 27.76 10.92 27.76V27.76ZM10.92 31.16C10.36 31.16 9.91003 30.71 9.91003 30.15C9.91003 29.59 10.36 29.14 10.92 29.14C11.48 29.14 11.93 29.59 11.93 30.15C11.93 30.71 11.48 31.16 10.92 31.16Z" fill="#222222"/>
<path id="Vector_3" d="M15.3601 11.78C14.0401 11.78 12.9701 12.85 12.9701 14.17C12.9701 15.49 14.0401 16.56 15.3601 16.56C16.6801 16.56 17.7501 15.49 17.7501 14.17C17.7501 12.85 16.6801 11.78 15.3601 11.78V11.78ZM15.3601 15.18C14.8001 15.18 14.3501 14.73 14.3501 14.17C14.3501 13.61 14.8001 13.16 15.3601 13.16C15.9201 13.16 16.3701 13.61 16.3701 14.17C16.3701 14.73 15.9201 15.18 15.3601 15.18V15.18Z" fill="#222222"/>
<path id="Vector_4" d="M21.4701 11.78C20.1501 11.78 19.0801 12.85 19.0801 14.17C19.0801 15.49 20.1501 16.56 21.4701 16.56C22.7901 16.56 23.8601 15.49 23.8601 14.17C23.8601 12.85 22.7901 11.78 21.4701 11.78V11.78ZM21.4701 15.18C20.9101 15.18 20.4601 14.73 20.4601 14.17C20.4601 13.61 20.9101 13.16 21.4701 13.16C22.0301 13.16 22.4801 13.61 22.4801 14.17C22.4801 14.73 22.0301 15.18 21.4701 15.18Z" fill="#222222"/>
<path id="Vector_5" d="M27.5 11.78C26.18 11.78 25.11 12.85 25.11 14.17C25.11 15.49 26.18 16.56 27.5 16.56C28.82 16.56 29.89 15.49 29.89 14.17C29.89 12.85 28.82 11.78 27.5 11.78V11.78ZM27.5 15.18C26.94 15.18 26.49 14.73 26.49 14.17C26.49 13.61 26.94 13.16 27.5 13.16C28.06 13.16 28.51 13.61 28.51 14.17C28.51 14.73 28.06 15.18 27.5 15.18Z" fill="#222222"/>
</g>
</g>
</svg>
