<svg width="36" height="36" viewBox="0 0 36 36" fill="none" xmlns="http://www.w3.org/2000/svg">
<g id="mobile click_M_1 1">
<g id="Group">
<path id="Vector" d="M10.92 27.77C9.60003 27.77 8.53003 28.84 8.53003 30.16C8.53003 31.48 9.60003 32.55 10.92 32.55C12.24 32.55 13.31 31.48 13.31 30.16C13.31 28.84 12.24 27.77 10.92 27.77V27.77ZM10.92 31.17C10.36 31.17 9.91003 30.72 9.91003 30.16C9.91003 29.6 10.36 29.15 10.92 29.15C11.48 29.15 11.93 29.6 11.93 30.16C11.93 30.72 11.48 31.17 10.92 31.17Z" fill="#222222"/>
<path id="Vector_2" d="M34.73 18L21.05 13.66V1.47999C21.05 1.09999 20.74 0.789993 20.36 0.789993H1.48004C1.10004 0.789993 0.790039 1.09999 0.790039 1.47999V34.52C0.790039 34.9 1.10004 35.21 1.48004 35.21H18.61C18.69 35.21 18.76 35.19 18.83 35.17C18.84 35.17 18.86 35.17 18.87 35.17C19.05 35.11 19.21 34.97 19.29 34.79L23.99 24L34.78 19.3C35.04 19.18 35.21 18.92 35.19 18.63C35.17 18.34 34.98 18.1 34.71 18.01L34.73 18ZM2.17004 2.16999H19.67V13.23L18.36 12.81V4.09999C18.36 3.71999 18.05 3.40999 17.67 3.40999H4.17004C3.79004 3.40999 3.48004 3.71999 3.48004 4.09999V26.41C3.48004 26.79 3.79004 27.1 4.17004 27.1H15.6L17.73 33.84H2.17004V2.16999ZM10.66 11.51L15.16 25.72H4.86004V4.78999H16.98V12.37L11.53 10.64C11.29 10.56 11.02 10.63 10.84 10.81C10.66 10.99 10.59 11.26 10.67 11.5L10.66 11.51ZM23.2 22.83C23.04 22.9 22.91 23.03 22.84 23.19L18.76 32.54L12.38 12.36L32.56 18.76L23.2 22.84V22.83Z" fill="#222222"/>
</g>
</g>
</svg>
