<svg width="36" height="36" viewBox="0 0 36 36" fill="none" xmlns="http://www.w3.org/2000/svg">
<g id="browser_M 1">
<g id="Group">
<path id="Vector" d="M34.5401 5.51H1.50006C1.12006 5.51 0.810059 5.82 0.810059 6.2V30.5C0.810059 30.88 1.12006 31.19 1.50006 31.19H34.5401C34.9201 31.19 35.2301 30.88 35.2301 30.5V6.2C35.2301 5.82 34.9201 5.51 34.5401 5.51ZM33.8501 6.9V10.91H2.20006V6.91H33.8601L33.8501 6.9ZM2.19006 29.81V12.29H33.8601V29.81H2.19006Z" fill="#222222"/>
<path id="Vector_2" d="M4.69 9.6C5.07 9.6 5.38 9.29 5.38 8.91C5.38 8.53 5.07 8.22 4.69 8.22C4.31 8.22 4 8.53 4 8.91C4 9.29 4.31 9.6 4.69 9.6V9.6Z" fill="#222222"/>
<path id="Vector_3" d="M7.2901 9.6C7.6701 9.6 7.9801 9.29 7.9801 8.91C7.9801 8.53 7.6701 8.22 7.2901 8.22C6.9101 8.22 6.6001 8.53 6.6001 8.91C6.6001 9.29 6.9101 9.6 7.2901 9.6V9.6Z" fill="#222222"/>
<path id="Vector_4" d="M9.88995 9.6C10.27 9.6 10.58 9.29 10.58 8.91C10.58 8.53 10.27 8.22 9.88995 8.22C9.50995 8.22 9.19995 8.53 9.19995 8.91C9.19995 9.29 9.50995 9.6 9.88995 9.6Z" fill="#222222"/>
</g>
</g>
</svg>
