<svg width="36" height="36" viewBox="0 0 36 36" fill="none" xmlns="http://www.w3.org/2000/svg">
<g id="van_M 1">
<path id="Vector" d="M34.69 14.71L27.65 13.71L23.12 8.22C23 8.08 22.83 8 22.65 8H1.40004C1.06004 8 0.790039 8.27 0.790039 8.61V24.82C0.790039 25.16 1.06004 25.43 1.40004 25.43H5.12004C5.61004 26.95 7.06004 28.01 8.68004 28.01C10.3 28.01 11.75 26.95 12.24 25.43H25.86C26.35 26.95 27.8 28.01 29.42 28.01C31.04 28.01 32.49 26.95 32.98 25.43H34.62C34.96 25.43 35.23 25.16 35.23 24.82V15.31C35.23 15.01 35 14.75 34.7 14.71H34.69ZM20.92 13.67V9.23H22.39L26.09 13.67H20.92V13.67ZM29.34 21.7C30.74 21.7 31.88 22.84 31.88 24.24C31.88 25.64 30.74 26.78 29.34 26.78C27.94 26.78 26.8 25.64 26.8 24.24C26.8 22.84 27.94 21.7 29.34 21.7ZM8.77004 21.7C10.17 21.7 11.31 22.84 11.31 24.24C11.31 25.64 10.17 26.78 8.77004 26.78C7.37004 26.78 6.23004 25.64 6.23004 24.24C6.23004 22.84 7.37004 21.7 8.77004 21.7ZM27.27 14.91L33.98 15.87V24.25H33.13C33.08 22.24 31.43 20.63 29.4 20.63C27.37 20.63 25.72 22.25 25.67 24.25H12.41C12.36 22.24 10.71 20.63 8.68004 20.63C6.65004 20.63 5.00004 22.25 4.95004 24.25H2.03004V9.25H19.67V14.91H27.26H27.27Z" fill="#222222"/>
</g>
</svg>
