<svg width="36" height="36" viewBox="0 0 36 36" fill="none" xmlns="http://www.w3.org/2000/svg">
<g id="car eco_M 1">
<path id="Vector" d="M34.5198 16.7699H28.9198L24.0598 11.0999C23.9298 10.9499 23.7398 10.8599 23.5398 10.8599H16.1498C15.8998 10.8599 15.6798 10.9899 15.5498 11.2099L12.3698 16.7799H9.17979C8.79979 16.7799 8.48979 17.0899 8.48979 17.4699V21.3399C6.80979 21.2799 5.43979 20.0099 5.20979 18.3699C6.88979 18.0299 8.15979 16.5399 8.15979 14.7499V12.2499C8.15979 11.8699 7.84978 11.5599 7.46978 11.5599H6.89979V10.0899C6.89979 9.7099 6.58979 9.3999 6.20979 9.3999C5.82979 9.3999 5.51978 9.7099 5.51978 10.0899V11.5599H3.41979V10.0899C3.41979 9.7099 3.10979 9.3999 2.72979 9.3999C2.34979 9.3999 2.03979 9.7099 2.03979 10.0899V11.5599H1.46979C1.08979 11.5599 0.779785 11.8699 0.779785 12.2499V14.7499C0.779785 16.5599 2.08979 18.0599 3.80979 18.3799C4.04979 20.7799 6.03979 22.6599 8.48979 22.7199V23.3799C8.48979 23.7599 8.79979 24.0699 9.17979 24.0699H11.9498C12.2298 25.3499 13.2798 26.3699 14.5798 26.5699C14.7498 26.5999 14.9198 26.6099 15.0898 26.6099C15.9398 26.6099 16.7498 26.2799 17.3598 25.6699C17.8098 25.2199 18.0998 24.6699 18.2298 24.0799H25.4598C25.7398 25.3599 26.7898 26.3799 28.0898 26.5799C28.2598 26.6099 28.4298 26.6199 28.5998 26.6199C29.4498 26.6199 30.2598 26.2899 30.8698 25.6799C31.3198 25.2299 31.6098 24.6799 31.7398 24.0899H34.5098C34.8898 24.0899 35.1998 23.7799 35.1998 23.3999V17.4899C35.1998 17.1099 34.8898 16.7999 34.5098 16.7999L34.5198 16.7699ZM2.15979 14.7499V12.9399H6.79979V14.7499C6.79979 16.0299 5.75979 17.0699 4.47979 17.0699C3.19979 17.0699 2.15979 16.0299 2.15979 14.7499V14.7499ZM27.1098 16.7699H19.9998V12.2299H23.2198L27.1098 16.7699ZM16.5498 12.2299H18.6298V16.7699H13.9598L16.5498 12.2299ZM16.3998 24.6699C15.9798 25.0899 15.3998 25.2799 14.7998 25.1899C14.0298 25.0699 13.3898 24.4299 13.2698 23.6599C13.1798 23.0599 13.3698 22.4799 13.7898 22.0599C14.1398 21.7099 14.6098 21.5199 15.0998 21.5199C15.1998 21.5199 15.2998 21.5199 15.3898 21.5399C16.1598 21.6599 16.7998 22.2999 16.9198 23.0699C17.0098 23.6699 16.8198 24.2499 16.3998 24.6699ZM29.9098 24.6699C29.4898 25.0899 28.9098 25.2799 28.3098 25.1899C27.5398 25.0699 26.8998 24.4299 26.7798 23.6599C26.6898 23.0599 26.8798 22.4799 27.2998 22.0599C27.6498 21.7099 28.1198 21.5199 28.6098 21.5199C28.7098 21.5199 28.8098 21.5199 28.8998 21.5399C29.6698 21.6599 30.3098 22.2999 30.4298 23.0699C30.5198 23.6699 30.3298 24.2499 29.9098 24.6699V24.6699ZM33.8298 22.6799H31.7398C31.4598 21.3999 30.4098 20.3799 29.1098 20.1799C28.0798 20.0199 27.0598 20.3499 26.3298 21.0899C25.8798 21.5399 25.5898 22.0899 25.4598 22.6799H18.2298C17.9498 21.3999 16.8998 20.3899 15.5998 20.1799C14.5598 20.0199 13.5498 20.3499 12.8198 21.0799C12.3698 21.5299 12.0798 22.0799 11.9498 22.6699H9.86979V18.1299H33.8298V22.6699V22.6799Z" fill="#222222"/>
</g>
</svg>
