<svg width="36" height="36" viewBox="0 0 36 36" fill="none" xmlns="http://www.w3.org/2000/svg">
<g id="minitruck_M 1">
<path id="Vector" d="M35.13 15.57L32.03 9.91995C31.91 9.69995 31.67 9.55995 31.41 9.55995H23.86V6.14995C23.86 5.75995 23.55 5.44995 23.16 5.44995H1.49004C1.10004 5.44995 0.790039 5.75995 0.790039 6.14995V26.17C0.790039 26.56 1.10004 26.87 1.49004 26.87H5.12004C5.64004 28.39 7.10004 29.44 8.72004 29.44C10.34 29.44 11.8 28.39 12.32 26.87H25.76C26.28 28.39 27.74 29.44 29.36 29.44C30.98 29.44 32.44 28.39 32.96 26.87H34.52C34.91 26.87 35.22 26.56 35.22 26.17V15.9C35.22 15.78 35.19 15.67 35.13 15.57ZM23.86 18.8V10.96H31L33.81 16.09V18.81H23.86V18.8ZM29.35 23.28C30.67 23.28 31.74 24.35 31.74 25.66C31.74 26.97 30.67 28.04 29.35 28.04C28.03 28.04 26.96 26.97 26.96 25.66C26.96 24.35 28.03 23.28 29.35 23.28ZM8.71004 23.28C10.03 23.28 11.1 24.35 11.1 25.66C11.1 26.97 10.03 28.04 8.71004 28.04C7.39004 28.04 6.32004 26.97 6.32004 25.66C6.32004 24.35 7.39004 23.28 8.71004 23.28ZM33.81 20.2V25.47H33.14C33.04 23.47 31.38 21.88 29.35 21.88C27.32 21.88 25.65 23.48 25.56 25.47H12.51C12.41 23.47 10.75 21.88 8.72004 21.88C6.69004 21.88 5.02004 23.48 4.93004 25.47H2.19004V20.2H33.81ZM22.46 6.84995V18.8H2.19004V6.84995H22.46Z" fill="#222222"/>
</g>
</svg>
