<svg width="36" height="36" viewBox="0 0 36 36" fill="none" xmlns="http://www.w3.org/2000/svg">
<g id="barometer_M 1">
<g id="Group">
<path id="Vector" d="M34.5101 16.26C34.1301 16.26 33.8201 16.57 33.8201 16.95C33.8201 25.67 26.7301 32.76 18.0101 32.76C9.29006 32.76 2.19006 25.67 2.19006 16.95C2.19006 16.57 1.88006 16.26 1.50006 16.26C1.12006 16.26 0.810059 16.57 0.810059 16.95C0.810059 26.43 8.53006 34.15 18.0101 34.15C27.4901 34.15 35.2101 26.43 35.2101 16.95C35.2101 16.57 34.9001 16.26 34.5201 16.26H34.5101Z" fill="#222222"/>
<path id="Vector_2" d="M4.25006 16.98H6.21006C6.59006 16.98 6.90006 16.67 6.90006 16.29C6.90006 15.91 6.59006 15.6 6.21006 15.6H4.97006C5.13006 12.52 6.36006 9.72998 8.30006 7.57998L9.38006 8.65998C9.52006 8.79998 9.69006 8.85998 9.87006 8.85998C10.0501 8.85998 10.2201 8.78998 10.3601 8.65998C10.6301 8.38998 10.6301 7.94998 10.3601 7.67998L9.28006 6.59998C11.4301 4.65998 14.2201 3.43998 17.3001 3.26998V5.84998C17.3001 6.22998 17.6101 6.53998 17.9901 6.53998C18.3701 6.53998 18.6801 6.22998 18.6801 5.84998V3.26998C21.7601 3.42998 24.5501 4.65998 26.7001 6.59998L25.7301 7.56998C25.4601 7.83998 25.4601 8.27998 25.7301 8.54998C25.8701 8.68998 26.0401 8.74998 26.2201 8.74998C26.4001 8.74998 26.5701 8.67998 26.7101 8.54998L27.6801 7.57998C29.6201 9.72998 30.8401 12.52 31.0101 15.6H29.7701C29.3901 15.6 29.0801 15.91 29.0801 16.29C29.0801 16.67 29.3901 16.98 29.7701 16.98H31.7301C32.1101 16.98 32.4201 16.67 32.4201 16.29C32.4201 8.32998 25.9401 1.84998 17.9801 1.84998C10.0201 1.84998 3.56006 8.31998 3.56006 16.29C3.56006 16.67 3.87006 16.98 4.25006 16.98Z" fill="#222222"/>
<path id="Vector_3" d="M18.0001 26.08C17.6201 26.08 17.3101 26.39 17.3101 26.77V29.82C17.3101 30.2 17.6201 30.51 18.0001 30.51C18.3801 30.51 18.6901 30.2 18.6901 29.82V26.77C18.6901 26.39 18.3801 26.08 18.0001 26.08Z" fill="#222222"/>
<path id="Vector_4" d="M9.68016 22.86L8.80016 23.74C8.53016 24.01 8.53016 24.45 8.80016 24.72C8.94016 24.86 9.11016 24.92 9.29016 24.92C9.47016 24.92 9.64016 24.85 9.78016 24.72L10.6602 23.84C10.9302 23.57 10.9302 23.13 10.6602 22.86C10.3902 22.59 9.95016 22.59 9.68016 22.86Z" fill="#222222"/>
<path id="Vector_5" d="M25.34 22.86C25.07 23.13 25.07 23.57 25.34 23.84L26.22 24.72C26.36 24.86 26.53 24.92 26.71 24.92C26.89 24.92 27.06 24.85 27.2 24.72C27.47 24.45 27.47 24.01 27.2 23.74L26.32 22.86C26.05 22.59 25.61 22.59 25.34 22.86V22.86Z" fill="#222222"/>
<path id="Vector_6" d="M18.6101 15.91L12.9601 10.26C12.6901 9.99 12.2501 9.99 11.9801 10.26C11.7101 10.53 11.7101 10.97 11.9801 11.24L17.6301 16.89C17.7701 17.03 17.9401 17.09 18.1201 17.09C18.3001 17.09 18.4701 17.02 18.6101 16.89C18.8801 16.62 18.8801 16.18 18.6101 15.91V15.91Z" fill="#222222"/>
</g>
</g>
</svg>
