<svg width="36" height="36" viewBox="0 0 36 36" fill="none" xmlns="http://www.w3.org/2000/svg">
<g id="sound_M 1">
<g id="Group">
<path id="Vector" d="M1.46002 14.03C1.08002 14.03 0.77002 14.34 0.77002 14.72V21.28C0.77002 21.66 1.08002 21.97 1.46002 21.97C1.84002 21.97 2.15002 21.66 2.15002 21.28V14.72C2.15002 14.34 1.84002 14.03 1.46002 14.03Z" fill="#222222"/>
<path id="Vector_2" d="M6.96978 9.1499C6.58978 9.1499 6.27979 9.4599 6.27979 9.8399V26.1599C6.27979 26.5399 6.58978 26.8499 6.96978 26.8499C7.34978 26.8499 7.65978 26.5399 7.65978 26.1599V9.8399C7.65978 9.4599 7.34978 9.1499 6.96978 9.1499V9.1499Z" fill="#222222"/>
<path id="Vector_3" d="M12.48 0.909912C12.1 0.909912 11.79 1.21991 11.79 1.59991V34.3999C11.79 34.7799 12.1 35.0899 12.48 35.0899C12.86 35.0899 13.17 34.7799 13.17 34.3999V1.59991C13.17 1.21991 12.86 0.909912 12.48 0.909912V0.909912Z" fill="#222222"/>
<path id="Vector_4" d="M17.9898 14.03C17.6098 14.03 17.2998 14.34 17.2998 14.72V21.28C17.2998 21.66 17.6098 21.97 17.9898 21.97C18.3698 21.97 18.6798 21.66 18.6798 21.28V14.72C18.6798 14.34 18.3698 14.03 17.9898 14.03Z" fill="#222222"/>
<path id="Vector_5" d="M23.5001 9.3098C23.1201 9.3098 22.8101 9.6198 22.8101 9.9998V26.0098C22.8101 26.3898 23.1201 26.6998 23.5001 26.6998C23.8801 26.6998 24.1901 26.3898 24.1901 26.0098V9.9898C24.1901 9.6098 23.8801 9.2998 23.5001 9.2998V9.3098Z" fill="#222222"/>
<path id="Vector_6" d="M29.0001 0.909912C28.6201 0.909912 28.3101 1.21991 28.3101 1.59991V34.3999C28.3101 34.7799 28.6201 35.0899 29.0001 35.0899C29.3801 35.0899 29.6901 34.7799 29.6901 34.3999V1.59991C29.6901 1.21991 29.3801 0.909912 29.0001 0.909912V0.909912Z" fill="#222222"/>
<path id="Vector_7" d="M34.5098 9.60986C34.1298 9.60986 33.8198 9.91986 33.8198 10.2999V25.6999C33.8198 26.0799 34.1298 26.3899 34.5098 26.3899C34.8898 26.3899 35.1998 26.0799 35.1998 25.6999V10.2999C35.1998 9.91986 34.8898 9.60986 34.5098 9.60986V9.60986Z" fill="#222222"/>
</g>
</g>
</svg>
