<svg width="36" height="36" viewBox="0 0 36 36" fill="none" xmlns="http://www.w3.org/2000/svg">
<g id="video camera_M 1">
<g id="Group">
<path id="Vector" d="M34.91 11.13C34.72 11 34.48 10.98 34.26 11.07L25.09 14.86V6.14996C25.09 5.96996 25.02 5.78996 24.89 5.65996C24.76 5.52996 24.55 5.45996 24.4 5.45996L9.12004 5.52996C8.74004 5.52996 8.43004 5.83996 8.44004 6.21996C8.44004 6.59996 8.75004 6.89996 9.13004 6.89996L23.72 6.82996V11.08H1.48004C1.10004 11.08 0.790039 11.39 0.790039 11.77V29.85C0.790039 30.23 1.10004 30.54 1.48004 30.54H24.4C24.78 30.54 25.09 30.23 25.09 29.85V26.69L34.26 30.48C34.34 30.51 34.43 30.53 34.52 30.53C34.65 30.53 34.79 30.49 34.9 30.41C35.09 30.28 35.21 30.07 35.21 29.84V11.7C35.21 11.47 35.1 11.26 34.9 11.13H34.91ZM23.72 29.16H2.16004V12.47H23.71V29.16H23.72ZM33.84 28.81L25.09 25.2V16.34L33.84 12.73V28.81V28.81Z" fill="#222222"/>
<path id="Vector_2" d="M5.6402 24.7399H20.9202C21.3002 24.7399 21.6102 24.4299 21.6102 24.0499V17.0999C21.6102 16.7199 21.3002 16.4099 20.9202 16.4099H5.6402C5.2602 16.4099 4.9502 16.7199 4.9502 17.0999V24.0499C4.9502 24.4299 5.2602 24.7399 5.6402 24.7399V24.7399ZM6.3302 17.7899H20.2402V23.3599H6.3302V17.7899Z" fill="#222222"/>
</g>
</g>
</svg>
