<svg width="36" height="36" viewBox="0 0 36 36" fill="none" xmlns="http://www.w3.org/2000/svg">
<g id="celebration_M 1">
<g id="Group">
<path id="Vector" d="M12.8501 11.21C12.6901 11.05 12.4701 10.98 12.2501 11.02C12.0301 11.06 11.8401 11.2 11.7401 11.4L0.850111 34.18C0.720111 34.44 0.780111 34.75 0.980111 34.96C1.11011 35.09 1.29011 35.17 1.47011 35.17C1.57011 35.17 1.66011 35.15 1.76011 35.11L24.8501 24.52C25.0501 24.43 25.2001 24.24 25.2401 24.02C25.2801 23.8 25.2101 23.57 25.0501 23.41L12.8501 11.21ZM2.92011 33.06L12.5701 12.87L23.3801 23.68L2.92011 33.06Z" fill="#222222"/>
<path id="Vector_2" d="M16.0901 8.39999C16.0901 8.66999 15.9901 8.90999 15.8001 9.09999L15.1401 9.75999C14.8701 10.03 14.8701 10.47 15.1401 10.74C15.2701 10.87 15.4501 10.94 15.6301 10.94C15.8101 10.94 15.9801 10.87 16.1201 10.74L16.7801 10.08C17.7001 9.15999 17.7001 7.64999 16.7801 6.72999C16.3001 6.24999 16.0301 5.60999 16.0301 4.92999C16.0301 4.24999 16.2901 3.60999 16.7801 3.12999L17.8701 2.03999C18.1401 1.76999 18.1401 1.32999 17.8701 1.06999C17.6001 0.799993 17.1601 0.799993 16.9001 1.06999L15.8101 2.15999C14.2801 3.68999 14.2801 6.17999 15.8101 7.71999C16.0001 7.90999 16.1001 8.15999 16.1001 8.41999L16.0901 8.39999Z" fill="#222222"/>
<path id="Vector_3" d="M33.9103 18.8C32.3803 17.27 29.8904 17.27 28.3504 18.8C27.9604 19.19 27.3304 19.19 26.9504 18.8L26.2904 18.14C26.0204 17.87 25.5803 17.87 25.3203 18.14C25.0603 18.41 25.0503 18.85 25.3203 19.11L25.9803 19.77C26.9003 20.69 28.4103 20.69 29.3303 19.77C30.3203 18.78 31.9403 18.78 32.9403 19.77L34.0303 20.86C34.1603 20.99 34.3404 21.06 34.5204 21.06C34.7004 21.06 34.8703 20.99 35.0103 20.86C35.2803 20.59 35.2803 20.15 35.0103 19.89L33.9203 18.8H33.9103Z" fill="#222222"/>
<path id="Vector_4" d="M28.0602 11.83H27.1202C26.7402 11.83 26.4302 12.14 26.4302 12.52C26.4302 12.9 26.7402 13.21 27.1202 13.21H28.0602C29.3702 13.21 30.4302 12.15 30.4302 10.84C30.4302 9.43003 31.5702 8.29003 32.9802 8.29003H34.5202C34.9002 8.29003 35.2102 7.98003 35.2102 7.60003C35.2102 7.22003 34.9002 6.91003 34.5202 6.91003H32.9802C30.8102 6.91003 29.0502 8.67003 29.0502 10.84C29.0502 11.39 28.6102 11.83 28.0602 11.83Z" fill="#222222"/>
<path id="Vector_5" d="M23.0601 6.22001C23.0601 6.40001 23.1301 6.57001 23.2601 6.71001C23.3901 6.85001 23.5701 6.91001 23.7501 6.91001C23.9301 6.91001 24.1001 6.84001 24.2401 6.71001L26.1001 4.85001L27.9601 6.71001C28.0901 6.84001 28.2701 6.91001 28.4501 6.91001C28.6301 6.91001 28.8001 6.84001 28.9401 6.71001C29.0701 6.58001 29.1401 6.40001 29.1401 6.22001C29.1401 6.04001 29.0701 5.87001 28.9401 5.73001L27.0801 3.87001L28.9401 2.01001C29.0701 1.88001 29.1401 1.70001 29.1401 1.52001C29.1401 1.34001 29.0701 1.17001 28.9401 1.03001C28.6701 0.760015 28.2301 0.760015 27.9701 1.03001L26.1101 2.89001L24.2501 1.03001C23.9801 0.760015 23.5401 0.760015 23.2801 1.03001C23.1501 1.16001 23.0801 1.34001 23.0801 1.52001C23.0801 1.70001 23.1501 1.87001 23.2801 2.01001L25.1401 3.87001L23.2801 5.73001C23.1501 5.86001 23.0801 6.04001 23.0801 6.22001H23.0601Z" fill="#222222"/>
<path id="Vector_6" d="M21.6702 15.05C23.1502 15.05 24.3502 13.85 24.3502 12.37C24.3502 10.89 23.1502 9.69 21.6702 9.69C20.1902 9.69 18.9902 10.89 18.9902 12.37C18.9902 13.85 20.1902 15.05 21.6702 15.05ZM21.6702 11.08C22.3902 11.08 22.9702 11.66 22.9702 12.38C22.9702 13.1 22.3902 13.68 21.6702 13.68C20.9502 13.68 20.3702 13.1 20.3702 12.38C20.3702 11.66 20.9502 11.08 21.6702 11.08Z" fill="#222222"/>
</g>
</g>
</svg>
