<svg width="36" height="36" viewBox="0 0 36 36" fill="none" xmlns="http://www.w3.org/2000/svg">
<g id="mobile info_M 1">
<g id="Group">
<path id="Vector" d="M27.51 35.39H8.63995C8.25995 35.39 7.94995 35.08 7.94995 34.7V1.66C7.94995 1.28 8.25995 0.970001 8.63995 0.970001H27.51C27.89 0.970001 28.2 1.28 28.2 1.66V34.7C28.2 35.08 27.89 35.39 27.51 35.39ZM9.32995 34.01H26.82V2.34H9.32995V34.01V34.01Z" fill="#222222"/>
<path id="Vector_2" d="M24.8199 27.28H11.3199C10.9399 27.28 10.6299 26.97 10.6299 26.59V4.28C10.6299 3.9 10.9399 3.59 11.3199 3.59H24.8199C25.1999 3.59 25.5099 3.9 25.5099 4.28V26.59C25.5099 26.97 25.1999 27.28 24.8199 27.28ZM12.0099 25.9H24.1299V4.97H12.0099V25.9V25.9Z" fill="#222222"/>
<path id="Vector_3" d="M18.0699 32.72C16.7499 32.72 15.6799 31.65 15.6799 30.33C15.6799 29.01 16.7499 27.94 18.0699 27.94C19.3899 27.94 20.4599 29.01 20.4599 30.33C20.4599 31.65 19.3899 32.72 18.0699 32.72ZM18.0699 29.32C17.5099 29.32 17.0599 29.77 17.0599 30.33C17.0599 30.89 17.5099 31.34 18.0699 31.34C18.6299 31.34 19.0799 30.89 19.0799 30.33C19.0799 29.77 18.6299 29.32 18.0699 29.32Z" fill="#222222"/>
<path id="Vector_4" d="M18.1301 9.06C20.5001 9.06 22.1201 10.37 22.1201 12.16C22.1301 14.75 18.7601 14.92 18.6201 17.46H17.2401C17.2401 14.42 20.5501 14.35 20.5501 12.16C20.5501 10.99 19.5201 10.29 18.1301 10.29C16.5801 10.29 15.5201 11.16 15.5101 12.81H14.0201C14.0101 10.61 15.4801 9.06 18.1301 9.06V9.06ZM17.9401 19.2C18.4801 19.2 18.9201 19.64 18.9201 20.18C18.9201 20.72 18.4801 21.16 17.9401 21.16C17.4001 21.16 16.9601 20.72 16.9601 20.18C16.9601 19.64 17.4001 19.2 17.9401 19.2Z" fill="#222222"/>
</g>
</g>
</svg>
