<svg width="36" height="36" viewBox="0 0 36 36" fill="none" xmlns="http://www.w3.org/2000/svg">
<g id="desktop info_M 1">
<g id="Group">
<path id="Vector" d="M18.3901 6.46999C20.2501 6.46999 21.6301 7.39999 21.6301 8.96999C21.6301 11.9 17.2001 11.99 17.2001 16.06H19.0401C19.2301 12.66 23.7401 12.43 23.7301 8.96999C23.7301 6.56999 21.5601 4.81999 18.3901 4.81999C14.8501 4.81999 12.8801 6.88999 12.9001 9.83999H14.8901C14.8901 7.62999 16.3201 6.46999 18.4001 6.46999H18.3901Z" fill="#222222"/>
<path id="Vector_2" d="M18.1401 18.38C17.4201 18.38 16.8301 18.97 16.8301 19.69C16.8301 20.41 17.4201 21 18.1401 21C18.8601 21 19.4501 20.41 19.4501 19.69C19.4501 18.97 18.8601 18.38 18.1401 18.38Z" fill="#222222"/>
<path id="Vector_3" d="M34.52 0.789993H1.48004C1.10004 0.789993 0.790039 1.09999 0.790039 1.47999V27.8C0.790039 28.18 1.10004 28.49 1.48004 28.49H13.04L10.98 34.3C10.91 34.51 10.94 34.74 11.07 34.93C11.2 35.11 11.41 35.22 11.63 35.22H24.38C24.6 35.22 24.81 35.11 24.94 34.93C25.07 34.75 25.1 34.51 25.03 34.3L22.97 28.49H34.52C34.9 28.49 35.21 28.18 35.21 27.8V1.47999C35.21 1.09999 34.9 0.789993 34.52 0.789993V0.789993ZM33.83 2.16999V23.06H2.17004V2.15999H33.83V2.16999ZM23.4 33.84H12.6L14.5 28.49H21.51L23.41 33.84H23.4ZM2.17004 27.11V24.44H33.83V27.11H2.17004Z" fill="#222222"/>
</g>
</g>
</svg>
