<svg width="36" height="36" viewBox="0 0 36 36" fill="none" xmlns="http://www.w3.org/2000/svg">
<g id="sound min_M 1">
<g id="Group">
<path id="Vector" d="M26.6799 4.81C26.4599 4.69 26.1999 4.69 25.9799 4.81L12.6999 12.71V11.58C12.6999 11.2 12.3899 10.88 11.9999 10.88H5.13994C4.75994 10.88 4.43994 11.19 4.43994 11.58V24.51C4.43994 24.89 4.74994 25.21 5.13994 25.21H11.9999C12.3799 25.21 12.6999 24.9 12.6999 24.51V23.37L25.9799 31.18C26.0899 31.24 26.2099 31.28 26.3299 31.28C26.4499 31.28 26.5699 31.25 26.6799 31.19C26.8999 31.07 27.0299 30.84 27.0299 30.59V5.41C27.0299 5.16 26.8999 4.93 26.6799 4.81V4.81ZM5.83994 12.28H11.3099V23.82H5.83994V12.28ZM25.6399 29.37L12.6999 21.76V14.34L25.6399 6.64V29.37Z" fill="#222222"/>
<path id="Vector_2" d="M30.2799 13.08C30.0099 12.81 29.5699 12.81 29.2999 13.08C29.0299 13.35 29.0299 13.79 29.2999 14.06C30.4899 15.25 31.1499 16.84 31.1499 18.52C31.1499 20.2 30.4899 21.79 29.2999 22.98C29.0299 23.25 29.0299 23.69 29.2999 23.96C29.4399 24.1 29.6099 24.16 29.7899 24.16C29.9699 24.16 30.1499 24.09 30.2799 23.96C31.7399 22.51 32.5399 20.57 32.5399 18.51C32.5399 16.45 31.7399 14.52 30.2799 13.06V13.08Z" fill="#222222"/>
</g>
</g>
</svg>
