<svg width="36" height="36" viewBox="0 0 36 36" fill="none" xmlns="http://www.w3.org/2000/svg">
<g id="desktop ok_M 1">
<g id="Group">
<path id="Vector" d="M13.3901 20.71C13.5201 20.84 13.7001 20.91 13.8801 20.91C14.0601 20.91 14.2301 20.84 14.3701 20.71L28.9701 6.11C29.2401 5.84 29.2401 5.41 28.9701 5.14C28.7001 4.87 28.2701 4.87 28.0001 5.14L13.8901 19.25L8.07008 13.43C7.80008 13.16 7.37008 13.16 7.10008 13.43C6.83008 13.7 6.83008 14.13 7.10008 14.4L13.4101 20.71H13.3901Z" fill="#222222"/>
<path id="Vector_2" d="M34.52 0.789993H1.48004C1.10004 0.789993 0.790039 1.09999 0.790039 1.47999V27.8C0.790039 28.18 1.10004 28.49 1.48004 28.49H13.03L10.97 34.3C10.9 34.51 10.93 34.74 11.06 34.93C11.19 35.11 11.4 35.22 11.62 35.22H24.37C24.59 35.22 24.8 35.11 24.93 34.93C25.06 34.75 25.09 34.51 25.02 34.3L22.96 28.49H34.51C34.89 28.49 35.2 28.18 35.2 27.8V1.47999C35.2 1.09999 34.89 0.789993 34.51 0.789993H34.52ZM23.41 33.84H12.6L14.5 28.49H21.51L23.41 33.84V33.84ZM33.84 27.12H2.17004V24.45H33.83V27.12H33.84ZM33.84 23.07H2.17004V2.15999H33.83V23.06L33.84 23.07Z" fill="#222222"/>
</g>
</g>
</svg>
