<svg width="36" height="36" viewBox="0 0 36 36" fill="none" xmlns="http://www.w3.org/2000/svg">
<g id="desktop click alt_M 1">
<path id="Vector" d="M34.42 22.56L32.3 18.59C31.26 16.65 29.04 15.64 26.9 16.15L25.08 16.58V4.63C25.08 4.25 24.77 3.94 24.39 3.94H1.48004C1.10004 3.94 0.790039 4.25 0.790039 4.63V23.49C0.790039 23.87 1.10004 24.18 1.48004 24.18H9.99004L8.91004 29.43C8.87004 29.63 8.92004 29.84 9.05004 30C9.18004 30.16 9.38004 30.25 9.58004 30.25H18.54C18.75 30.25 18.95 30.16 19.08 29.99C19.21 29.83 19.26 29.62 19.22 29.41L19.18 29.21L24.06 31.96C24.17 32.02 24.28 32.05 24.4 32.05C24.64 32.05 24.88 31.92 25 31.7C25.19 31.37 25.07 30.95 24.74 30.76L14.96 25.26C14.64 25.08 14.51 24.69 14.66 24.35C14.8 24.04 15.13 23.86 15.47 23.94L20.76 25.1C21.03 25.16 21.3 25.05 21.46 24.83C21.62 24.61 21.64 24.31 21.5 24.08L14.75 12.55C14.62 12.33 14.7 12.05 14.91 11.92C15.1 11.8 15.35 11.85 15.5 12.02L21.04 18.57C21.21 18.77 21.47 18.85 21.73 18.8L27.23 17.5C28.76 17.14 30.35 17.85 31.1 19.25L33.22 23.22C33.93 24.55 34.04 26.08 33.54 27.43C33.52 27.49 33.49 27.56 33.46 27.62C33.31 27.97 33.48 28.37 33.83 28.52C34.18 28.67 34.58 28.5 34.73 28.15C34.76 28.07 34.79 27.99 34.82 27.91C35.47 26.19 35.33 24.25 34.43 22.57L34.42 22.56ZM17.57 28.32L17.69 28.88H10.43L11.39 24.18H13.26C13.06 25.07 13.45 26.01 14.28 26.47L17.57 28.32ZM15.75 22.6C15.24 22.49 14.72 22.58 14.29 22.82C14.26 22.82 14.22 22.8 14.19 22.8H2.19004V20.13H17.59L19.52 23.42L15.76 22.6H15.75ZM16.54 11.13C15.96 10.44 14.97 10.28 14.19 10.74C13.33 11.26 13.04 12.38 13.55 13.24L16.77 18.74H2.17004V5.32H23.7V16.92L21.82 17.37L16.55 11.14L16.54 11.13Z" fill="#222222"/>
</g>
</svg>
