<svg width="36" height="36" viewBox="0 0 36 36" fill="none" xmlns="http://www.w3.org/2000/svg">
<g id="incognito window_M 1">
<g id="Group">
<path id="Vector" d="M26.4999 24.42C25.5199 23.64 24.2599 23.36 23.0199 23.64C21.5299 23.98 20.3499 25.16 20.0099 26.65C19.9899 26.74 19.9799 26.82 19.9699 26.91H16.1299C15.9599 25.93 15.4499 25.05 14.6599 24.42C13.6799 23.64 12.4099 23.36 11.1799 23.64C9.68992 23.98 8.50992 25.16 8.16992 26.65C7.88992 27.89 8.16992 29.16 8.94992 30.13C9.72992 31.11 10.8899 31.67 12.1299 31.67C14.1399 31.67 15.8099 30.21 16.1399 28.29H19.9799C20.0899 28.96 20.3699 29.59 20.7999 30.13C21.5799 31.11 22.7399 31.67 23.9799 31.67C26.2199 31.67 28.0499 29.84 28.0499 27.6C28.0499 26.36 27.4899 25.2 26.5099 24.42H26.4999ZM12.1199 30.29C11.2999 30.29 10.5299 29.92 10.0199 29.27C9.50992 28.62 9.31992 27.78 9.50992 26.95C9.72992 25.99 10.5199 25.2 11.4799 24.98C11.6899 24.93 11.8999 24.91 12.1199 24.91C12.7299 24.91 13.3199 25.11 13.7999 25.49C14.4499 26 14.8199 26.77 14.8199 27.59C14.8199 29.07 13.6099 30.28 12.1299 30.28L12.1199 30.29ZM23.9599 30.29C23.1399 30.29 22.3699 29.92 21.8599 29.27C21.3499 28.62 21.1599 27.78 21.3499 26.95C21.5699 25.99 22.3599 25.2 23.3199 24.98C23.5299 24.93 23.7399 24.91 23.9499 24.91C24.5599 24.91 25.1499 25.11 25.6299 25.49C26.2799 26 26.6499 26.77 26.6499 27.59C26.6499 29.07 25.4399 30.28 23.9599 30.28V30.29Z" fill="#222222"/>
<path id="Vector_2" d="M34.52 19.18H29.95L25.57 4.82C25.51 4.63 25.37 4.47 25.19 4.39C25.01 4.31 24.8 4.31 24.62 4.39L18.17 7.44L12.04 4.39C11.86 4.3 11.66 4.3 11.47 4.37C11.29 4.44 11.14 4.59 11.08 4.78L6.03004 19.17H1.48004C1.10004 19.17 0.790039 19.48 0.790039 19.86C0.790039 20.24 1.10004 20.55 1.48004 20.55H34.52C34.9 20.55 35.21 20.24 35.21 19.86C35.21 19.48 34.9 19.17 34.52 19.17V19.18ZM12.12 5.98L16.63 8.22L15.18 8.96C14.94 9.08 14.8 9.32 14.8 9.58C14.8 9.68 14.82 9.79 14.87 9.89C14.99 10.13 15.23 10.27 15.49 10.27C15.59 10.27 15.7 10.25 15.8 10.2L18.46 8.85L24.49 6L26.83 13.7H9.42004L12.12 6V5.98ZM7.48004 19.18L8.93004 15.06H27.26L28.52 19.18H7.49004H7.48004Z" fill="#222222"/>
</g>
</g>
</svg>
