<svg width="36" height="36" viewBox="0 0 36 36" fill="none" xmlns="http://www.w3.org/2000/svg">
<g id="netpoint alt_M 1">
<g id="Group">
<path id="Vector" d="M23.4601 19.61C23.5901 19.74 23.7701 19.81 23.9501 19.81C24.1301 19.81 24.3001 19.74 24.4401 19.61C27.9901 16.06 27.9901 10.28 24.4401 6.72C24.1701 6.45 23.7301 6.45 23.4601 6.72C23.1901 6.99 23.1901 7.43 23.4601 7.7C26.4801 10.72 26.4801 15.62 23.4601 18.64C23.1901 18.91 23.1901 19.35 23.4601 19.62V19.61Z" fill="#222222"/>
<path id="Vector_2" d="M11.5502 19.61C11.6802 19.74 11.8602 19.81 12.0402 19.81C12.2202 19.81 12.3902 19.74 12.5302 19.61C12.8002 19.34 12.8002 18.9 12.5302 18.63C9.51019 15.61 9.51019 10.71 12.5302 7.68999C12.8002 7.41999 12.8002 6.97999 12.5302 6.70999C12.2602 6.43999 11.8202 6.43999 11.5502 6.70999C8.0002 10.26 8.0002 16.04 11.5502 19.6V19.61Z" fill="#222222"/>
<path id="Vector_3" d="M30.17 0.989991C29.9 0.719991 29.46 0.719991 29.19 0.989991C28.92 1.25999 28.92 1.69999 29.19 1.96999C32.18 4.95999 33.83 8.93999 33.83 13.17C33.83 17.4 32.18 21.38 29.19 24.37C28.92 24.64 28.92 25.08 29.19 25.35C29.32 25.48 29.5 25.55 29.68 25.55C29.86 25.55 30.03 25.48 30.17 25.35C33.42 22.1 35.21 17.77 35.21 13.18C35.21 8.58999 33.42 4.25999 30.17 1.00999V0.989991Z" fill="#222222"/>
<path id="Vector_4" d="M6.8001 24.36C0.620098 18.19 0.620098 8.14 6.8001 1.96C7.0701 1.69 7.0701 1.25 6.8001 0.979996C6.5301 0.709996 6.0901 0.709996 5.8201 0.979996C-0.889902 7.7 -0.889902 18.62 5.8201 25.34C5.9501 25.47 6.1301 25.54 6.3101 25.54C6.4901 25.54 6.6601 25.47 6.8001 25.34C7.0701 25.07 7.0701 24.63 6.8001 24.36V24.36Z" fill="#222222"/>
<path id="Vector_5" d="M29.8002 13.16C29.8002 16.31 28.5702 19.28 26.3402 21.51C26.0702 21.78 26.0702 22.22 26.3402 22.49C26.4702 22.62 26.6502 22.69 26.8302 22.69C27.0102 22.69 27.1802 22.62 27.3202 22.49C29.8102 20 31.1802 16.69 31.1802 13.17C31.1802 9.64999 29.8102 6.33999 27.3202 3.84999C27.0502 3.57999 26.6102 3.57999 26.3402 3.84999C26.0702 4.11999 26.0702 4.55999 26.3402 4.82999C28.5702 7.05999 29.8002 10.02 29.8002 13.18V13.16Z" fill="#222222"/>
<path id="Vector_6" d="M8.67006 22.49C8.80006 22.62 8.98006 22.69 9.16006 22.69C9.34006 22.69 9.51006 22.62 9.65006 22.49C9.92006 22.22 9.92006 21.78 9.65006 21.51C7.42006 19.28 6.19006 16.31 6.19006 13.16C6.19006 10.01 7.42006 7.04 9.65006 4.81C9.92006 4.54 9.92006 4.1 9.65006 3.83C9.38006 3.56 8.94006 3.56 8.67006 3.83C6.18006 6.32 4.81006 9.63 4.81006 13.15C4.81006 16.67 6.18006 19.98 8.67006 22.47V22.49Z" fill="#222222"/>
<path id="Vector_7" d="M19.1501 18.1C21.3901 17.58 23.0701 15.56 23.0701 13.16C23.0701 10.36 20.7901 8.08 17.9901 8.08C15.1901 8.08 12.9101 10.36 12.9101 13.16C12.9101 15.57 14.6001 17.59 16.8501 18.1L6.96011 34.16C6.76011 34.48 6.86011 34.91 7.18011 35.11C7.50011 35.31 7.93011 35.21 8.13011 34.89L18.0001 18.88L27.8701 34.89C28.0001 35.1 28.2301 35.22 28.4601 35.22C28.5801 35.22 28.7101 35.19 28.8201 35.12C29.1401 34.92 29.2401 34.5 29.0401 34.17L19.1401 18.11L19.1501 18.1ZM14.3001 13.16C14.3001 11.12 15.9601 9.46 18.0001 9.46C20.0401 9.46 21.7001 11.12 21.7001 13.16C21.7001 15.2 20.0401 16.86 18.0001 16.86C15.9601 16.86 14.3001 15.2 14.3001 13.16V13.16Z" fill="#222222"/>
</g>
</g>
</svg>
