<svg width="36" height="36" viewBox="0 0 36 36" fill="none" xmlns="http://www.w3.org/2000/svg">
<g id="desktop settings_M 1">
<g id="Group">
<path id="Vector" d="M34.52 0.789993H1.48004C1.10004 0.789993 0.790039 1.09999 0.790039 1.47999V27.8C0.790039 28.18 1.10004 28.49 1.48004 28.49H13.03L10.97 34.3C10.9 34.51 10.93 34.74 11.06 34.93C11.19 35.11 11.4 35.22 11.62 35.22H24.37C24.59 35.22 24.8 35.11 24.93 34.93C25.06 34.75 25.09 34.51 25.02 34.3L22.96 28.49H34.51C34.89 28.49 35.2 28.18 35.2 27.8V1.47999C35.2 1.09999 34.89 0.789993 34.51 0.789993H34.52ZM23.41 33.84H12.6L14.5 28.49H21.51L23.41 33.84V33.84ZM33.84 27.12H2.17004V24.45H33.83V27.12H33.84ZM33.84 23.07H2.17004V2.15999H33.83V23.06L33.84 23.07Z" fill="#222222"/>
<path id="Vector_2" d="M18.1801 16.96C20.4101 16.96 22.2301 15.14 22.2301 12.91C22.2301 10.68 20.4101 8.85999 18.1801 8.85999C15.9501 8.85999 14.1301 10.68 14.1301 12.91C14.1301 15.14 15.9501 16.96 18.1801 16.96ZM18.1801 10.38C19.5801 10.38 20.7201 11.52 20.7201 12.92C20.7201 14.32 19.5801 15.46 18.1801 15.46C16.7801 15.46 15.6401 14.32 15.6401 12.92C15.6401 11.52 16.7801 10.38 18.1801 10.38V10.38Z" fill="#222222"/>
<path id="Vector_3" d="M11.7899 12.47V13.5L10.6999 14.59C10.3799 14.91 10.3099 15.42 10.5399 15.81L11.8499 18.09C12.0299 18.4 12.3699 18.6 12.7299 18.6C12.8199 18.6 12.9099 18.59 12.9899 18.57L14.5299 18.16L15.5299 18.65L15.9699 20.3C16.0899 20.74 16.4899 21.05 16.9499 21.06H19.5799C20.0399 21.07 20.4399 20.76 20.5599 20.31L21.0599 18.42L21.5299 18.13L23.2899 18.62C23.7299 18.74 24.2099 18.54 24.4399 18.15L25.7599 15.88C25.9999 15.48 25.9299 14.97 25.5999 14.65L24.3099 13.36V12.72L25.6099 11.45L25.8399 11.23C26.1699 10.9 26.2399 10.4 26.0099 9.99999L24.7099 7.72999C24.5299 7.40999 24.1899 7.21999 23.8299 7.21999C23.7399 7.21999 23.6499 7.22999 23.5699 7.24999L21.6399 7.75999L21.0999 7.41999L20.5999 5.51999C20.4799 5.06999 20.0799 4.75999 19.6199 4.75999H16.8099C16.3199 4.76999 15.8999 5.11999 15.8099 5.59999L15.5299 7.12999L14.5899 7.68999L12.8299 7.19999C12.3899 7.07999 11.9099 7.27999 11.6799 7.66999L10.3599 9.92999C10.1199 10.33 10.1899 10.84 10.5199 11.16L11.8099 12.46L11.7899 12.47ZM12.7499 8.69999L14.7799 9.25999L16.8299 8.03999L17.1599 6.21999H19.2599L19.8199 8.33999L21.3899 9.32999L23.6099 8.73999L24.5699 10.42L22.8699 12.09L22.8299 13.94L24.3199 15.44L23.3399 17.12L21.3099 16.56L19.7899 17.49L19.2199 19.61H17.2799L16.7599 17.64L14.6699 16.61L12.9299 17.07L11.9699 15.39L13.2499 14.11V11.87L11.7699 10.38L12.7399 8.70999L12.7499 8.69999Z" fill="#222222"/>
</g>
</g>
</svg>
