<svg width="36" height="36" viewBox="0 0 36 36" fill="none" xmlns="http://www.w3.org/2000/svg">
<g id="drone_M 1">
<g id="Group">
<path id="Vector" d="M34.9501 26.32C34.4601 24.5 33.2901 22.98 31.6601 22.04C30.2401 21.22 28.6201 20.93 27.0201 21.18V14.8C27.3901 14.86 27.7601 14.9 28.1301 14.9C31.2701 14.9 34.1401 12.78 34.9601 9.61C35.4301 7.79 35.1601 5.89 34.2101 4.26C33.2501 2.64 31.7201 1.48 29.8901 1.01C26.1201 0.030001 22.2701 2.31 21.2901 6.08C21.0601 6.99 21.0101 7.94 21.1501 8.86H14.8701C14.9101 8.54 14.9201 8.23 14.9201 7.86C14.9201 3.97 11.7601 0.810001 7.87006 0.810001C3.98006 0.810001 0.810059 3.97 0.810059 7.86C0.810059 11.75 3.98006 14.92 7.87006 14.92C8.19006 14.92 8.50006 14.89 8.82006 14.85V21.1C7.25006 20.89 5.67006 21.2 4.28006 22.02C2.66006 22.98 1.51006 24.52 1.05006 26.35C0.590059 28.18 0.860059 30.08 1.82006 31.7C2.78006 33.32 4.32006 34.47 6.15006 34.93C6.73006 35.08 7.32006 35.15 7.90006 35.15C9.15006 35.15 10.3901 34.81 11.4901 34.16C13.1101 33.2 14.2601 31.66 14.7201 29.83C14.9501 28.93 14.9901 27.98 14.8501 27.06H21.1601C21.0101 28.03 21.0501 29.02 21.3101 29.97C21.8001 31.79 22.9701 33.31 24.6001 34.25C25.6901 34.88 26.8901 35.2 28.1201 35.2C28.7301 35.2 29.3501 35.12 29.9601 34.96C31.7801 34.47 33.3001 33.3 34.2401 31.67C35.1801 30.04 35.4301 28.14 34.9401 26.31L34.9501 26.32ZM12.5801 25.69C11.9501 25.69 11.3601 25.94 10.9201 26.38C10.4801 26.83 10.2401 27.42 10.2501 28.05C10.2501 28.18 10.2501 28.32 10.2201 28.46C10.0701 29.45 9.25006 30.28 8.26006 30.43C7.50006 30.55 6.75006 30.31 6.21006 29.78C5.67006 29.25 5.42006 28.51 5.52006 27.75C5.66006 26.76 6.45006 25.94 7.44006 25.75C7.58006 25.72 7.72006 25.71 7.86006 25.71C9.14006 25.71 10.1701 24.66 10.1701 23.38V12.56C10.1701 11.28 9.13006 10.23 7.85006 10.23C7.71006 10.23 7.57006 10.22 7.43006 10.19C6.45006 10.02 5.64006 9.18 5.50006 8.2C5.39006 7.44 5.64006 6.7 6.18006 6.16C6.72006 5.63 7.47006 5.39 8.22006 5.5C9.20006 5.65 10.0301 6.47 10.1901 7.46C10.2101 7.6 10.2201 7.74 10.2201 7.87C10.2201 8.5 10.4501 9.09 10.8901 9.53C11.3301 9.97 11.9201 10.22 12.5401 10.22H23.4101C24.0401 10.22 24.6301 9.97 25.0701 9.53C25.5101 9.08 25.7501 8.49 25.7401 7.86C25.7401 7.73 25.7401 7.59 25.7701 7.45C25.9201 6.46 26.7401 5.63 27.7301 5.48C28.5001 5.36 29.2401 5.6 29.7801 6.14C30.3201 6.68 30.5701 7.43 30.4501 8.19C30.3101 9.13 29.5601 9.93 28.6301 10.14C28.4301 10.18 28.2301 10.2 28.0301 10.2C27.3801 10.17 26.7801 10.41 26.3201 10.86C25.8701 11.3 25.6101 11.89 25.6101 12.53V23.44C25.6101 24.07 25.8601 24.67 26.3201 25.11C26.7801 25.55 27.3901 25.79 28.0301 25.77C28.2301 25.76 28.4301 25.78 28.6301 25.83C29.5601 26.03 30.3101 26.83 30.4501 27.77C30.5601 28.53 30.3201 29.28 29.7901 29.82C29.2501 30.36 28.5101 30.6 27.7401 30.49C26.7401 30.34 25.9101 29.5 25.7601 28.5C25.7401 28.36 25.7301 28.22 25.7301 28.08C25.7501 27.44 25.5101 26.84 25.0701 26.38C24.6301 25.93 24.0401 25.68 23.4101 25.68H12.5801V25.69ZM22.6301 6.43C23.4101 3.4 26.5201 1.57 29.5501 2.35C31.0201 2.73 32.2501 3.66 33.0201 4.97C33.7901 6.28 34.0101 7.81 33.6301 9.28C32.8701 12.21 29.9501 14.01 27.0201 13.42V12.55C27.0201 12.29 27.1201 12.05 27.3101 11.87C27.5001 11.69 27.7401 11.6 28.0201 11.6C28.3301 11.61 28.6501 11.58 28.9601 11.51C30.4601 11.18 31.6201 9.94 31.8501 8.42C32.0301 7.22 31.6401 6.04 30.7901 5.19C29.9401 4.34 28.7601 3.96 27.5601 4.14C25.9701 4.38 24.6901 5.67 24.4501 7.26C24.4201 7.47 24.4001 7.68 24.4101 7.89C24.4101 8.15 24.3201 8.39 24.1401 8.57C23.9601 8.75 23.7201 8.85 23.4601 8.85H22.5801C22.4301 8.05 22.4501 7.21 22.6601 6.41L22.6301 6.43ZM7.87006 13.55C4.74006 13.55 2.19006 11 2.19006 7.87C2.19006 4.74 4.73006 2.18 7.87006 2.18C11.0101 2.18 13.5501 4.73 13.5501 7.86C13.5501 8.29 13.5401 8.56 13.4801 8.86H12.5601C12.3001 8.86 12.0601 8.76 11.8801 8.58C11.7001 8.4 11.6001 8.16 11.6101 7.9C11.6101 7.69 11.6001 7.47 11.5601 7.26C11.3101 5.67 10.0301 4.4 8.44006 4.16C7.25006 3.98 6.07006 4.36 5.22006 5.2C4.37006 6.04 3.98006 7.21 4.15006 8.41C4.37006 9.99 5.63006 11.29 7.21006 11.56C7.43006 11.6 7.65006 11.62 7.86006 11.62C8.38006 11.62 8.81006 12.05 8.81006 12.57V13.47C8.50006 13.52 8.18006 13.56 7.86006 13.56L7.87006 13.55ZM13.3901 29.5C13.0201 30.97 12.0901 32.21 10.7901 32.98C9.49006 33.75 7.96006 33.98 6.49006 33.6C5.02006 33.23 3.78006 32.3 3.01006 31C2.23006 29.7 2.01006 28.17 2.39006 26.7C2.76006 25.23 3.69006 23.99 4.99006 23.22C6.16006 22.53 7.50006 22.28 8.82006 22.5V23.4C8.82006 23.92 8.40006 24.35 7.88006 24.35C7.66006 24.35 7.44006 24.37 7.22006 24.41C5.64006 24.7 4.39006 26 4.18006 27.57C4.02006 28.77 4.41006 29.93 5.27006 30.77C6.12006 31.61 7.30006 31.98 8.49006 31.8C10.0801 31.55 11.3601 30.27 11.5901 28.67C11.6201 28.46 11.6401 28.25 11.6301 28.04C11.6301 27.78 11.7201 27.54 11.9001 27.36C12.0801 27.18 12.3201 27.08 12.5801 27.08H13.4601C13.6101 27.88 13.5901 28.71 13.3901 29.51V29.5ZM33.0501 31C32.2901 32.31 31.0701 33.25 29.6001 33.65C28.1301 34.04 26.6001 33.84 25.2901 33.08C23.9801 32.32 23.0401 31.1 22.6401 29.63C22.4201 28.79 22.4001 27.92 22.5601 27.08H23.4301C23.6901 27.08 23.9301 27.18 24.1101 27.37C24.2901 27.56 24.3901 27.81 24.3801 28.07C24.3801 28.29 24.3801 28.51 24.4201 28.72C24.6601 30.34 25.9501 31.63 27.5601 31.87C27.7501 31.9 27.9401 31.91 28.1301 31.91C29.1201 31.91 30.0701 31.52 30.7801 30.81C31.6301 29.96 32.0101 28.78 31.8301 27.59C31.6001 26.07 30.4401 24.84 28.9401 24.51C28.6301 24.44 28.3201 24.41 28.0101 24.42C27.7501 24.42 27.4901 24.33 27.3001 24.15C27.1201 23.97 27.0101 23.73 27.0101 23.47V22.6C28.3601 22.33 29.7501 22.55 30.9601 23.24C32.2701 24 33.2101 25.22 33.6101 26.69C34.0001 28.16 33.8001 29.69 33.0401 31H33.0501Z" fill="#222222"/>
<path id="Vector_2" d="M18.0002 19.96C16.8002 19.96 15.6702 20.43 14.8202 21.28C14.5502 21.55 14.5502 21.98 14.8202 22.25C15.0902 22.52 15.5202 22.52 15.7902 22.25C17.0102 21.03 18.9902 21.03 20.2102 22.25C20.3402 22.38 20.5202 22.45 20.7002 22.45C20.8802 22.45 21.0502 22.38 21.1902 22.25C21.4602 21.98 21.4602 21.55 21.1902 21.28C20.3402 20.43 19.2102 19.96 18.0102 19.96H18.0002Z" fill="#222222"/>
<path id="Vector_3" d="M23.7801 15.94C22.2401 14.4 20.1801 13.55 18.0001 13.55C15.8201 13.55 13.7601 14.4 12.2201 15.94C11.9501 16.21 11.9501 16.64 12.2201 16.91C12.4901 17.18 12.9201 17.18 13.1901 16.91C15.8401 14.26 20.1601 14.26 22.8101 16.91C22.9401 17.04 23.1201 17.11 23.3001 17.11C23.4801 17.11 23.6501 17.04 23.7901 16.91C24.0601 16.64 24.0601 16.21 23.7901 15.94H23.7801Z" fill="#222222"/>
<path id="Vector_4" d="M18.0001 16.74C16.3001 16.74 14.7101 17.4 13.5101 18.6C13.2401 18.87 13.2401 19.3 13.5101 19.57C13.7801 19.84 14.2101 19.84 14.4801 19.57C15.4201 18.63 16.6701 18.11 18.0001 18.11C19.3301 18.11 20.5801 18.63 21.5201 19.57C21.6501 19.7 21.8301 19.77 22.0101 19.77C22.1901 19.77 22.3601 19.7 22.5001 19.57C22.7701 19.3 22.7701 18.87 22.5001 18.6C21.3001 17.4 19.7101 16.74 18.0101 16.74H18.0001Z" fill="#222222"/>
</g>
</g>
</svg>
