<svg width="36" height="36" viewBox="0 0 36 36" fill="none" xmlns="http://www.w3.org/2000/svg">
<g id="website_field_M 1">
<path id="Vector" fill-rule="evenodd" clip-rule="evenodd" d="M34.8198 20.7L28.4198 18.65C28.7198 17.5 28.9198 16.25 28.9198 15C28.9198 7.24995 22.6198 0.949951 14.8698 0.949951C7.11982 0.949951 0.819824 7.24995 0.819824 15C0.819824 22.75 7.11982 29.0499 14.8698 29.0499C16.2698 29.0499 17.6198 28.85 18.9198 28.45L20.8698 34.65C20.9198 34.9 21.1698 35.0499 21.3698 35.0499H21.4198C21.6698 35.0499 21.8698 34.9 21.9198 34.7L25.8198 25.7L34.8198 21.75C35.0198 21.65 35.1698 21.45 35.1698 21.2C35.2198 20.95 35.0698 20.75 34.8198 20.7V20.7ZM27.6198 15C27.6198 16.15 27.4698 17.25 27.2198 18.25L15.4698 14.55C15.2698 14.5 15.0198 14.55 14.8698 14.7C14.7198 14.85 14.6698 15.05 14.7198 15.3L15.6698 18.35H9.66982C9.51982 17.3 9.46982 16.2 9.46982 15.05C9.46982 13.9 9.51982 12.8 9.66982 11.75H20.0698C20.1698 12.8 20.2698 13.9 20.2698 15.05C20.2698 15.4 20.2698 15.75 20.2198 16.1L21.4698 16.5C21.5198 16 21.5198 15.5 21.5198 15C21.5198 13.85 21.4698 12.75 21.3198 11.7H27.1698C27.4698 12.8 27.6198 13.9 27.6198 15ZM17.9198 2.59995C22.0198 3.59995 25.3198 6.54995 26.8198 10.45H21.2198C20.9198 8.54995 20.4198 6.79995 19.7698 5.39995C19.2198 4.24995 18.6198 3.34995 17.9198 2.59995V2.59995ZM14.8698 2.39995C15.5198 2.39995 16.1698 2.69995 16.7698 3.24995C17.4198 3.84995 18.0198 4.74995 18.5198 5.89995C19.0698 7.14995 19.5698 8.69995 19.8698 10.45H9.81982C10.1198 8.69995 10.5698 7.14995 11.1698 5.89995C11.6698 4.74995 12.3198 3.84995 12.9198 3.24995C13.5698 2.69995 14.2198 2.39995 14.8698 2.39995V2.39995ZM11.8198 2.59995C11.1198 3.34995 10.5198 4.24995 10.0198 5.39995C9.36983 6.84995 8.86982 8.54995 8.56982 10.45H2.96982C4.41982 6.54995 7.71982 3.59995 11.8198 2.59995V2.59995ZM2.11982 15C2.11982 13.85 2.26982 12.75 2.56982 11.7H8.41982C8.31982 12.75 8.21982 13.85 8.21982 15C8.21982 16.15 8.26982 17.2499 8.41982 18.2999H2.51982C2.26982 17.2499 2.11982 16.15 2.11982 15ZM2.91982 19.6H8.51982C8.81982 21.5 9.31982 23.1999 9.96982 24.65C10.4698 25.75 11.0698 26.7 11.7698 27.4C7.71982 26.4 4.41982 23.45 2.91982 19.6ZM14.8698 27.6C14.2198 27.6 13.5698 27.3 12.9698 26.75C12.3198 26.15 11.7198 25.25 11.2198 24.1C10.6698 22.85 10.1698 21.2999 9.86982 19.5499H16.1198L17.9198 25.25C17.5698 25.85 17.1698 26.35 16.7698 26.7C16.1198 27.35 15.5198 27.6 14.8698 27.6V27.6ZM17.9198 27.4C18.0698 27.2 18.2698 27.05 18.4198 26.85L18.5698 27.25C18.3198 27.3 18.1198 27.35 17.9198 27.4V27.4Z" fill="#222222"/>
</g>
</svg>
