<svg width="36" height="36" viewBox="0 0 36 36" fill="none" xmlns="http://www.w3.org/2000/svg">
<g id="portal_M 1">
<path id="Vector" d="M17.9998 5.25C10.9798 5.25 5.27979 10.96 5.27979 18C5.27979 25.04 10.9698 30.75 17.9998 30.75C25.0298 30.75 30.7198 25.04 30.7198 18C30.7198 10.96 25.0298 5.25 17.9998 5.25ZM17.9998 29C17.0698 29 16.0198 27.97 15.1798 26.25C14.7298 25.32 14.3598 24.22 14.0898 23.02H21.9098C21.6398 24.22 21.2698 25.32 20.8198 26.25C19.9798 27.97 18.9298 29 17.9998 29ZM13.7698 21.27C13.6198 20.22 13.5398 19.11 13.5398 18C13.5398 16.8 13.6298 15.61 13.7998 14.48H22.1898C22.3598 15.61 22.4498 16.8 22.4498 18C22.4498 19.11 22.3698 20.22 22.2198 21.27H13.7698ZM7.02979 18C7.02979 16.77 7.23979 15.59 7.60979 14.48H12.0298C11.8698 15.6 11.7898 16.78 11.7898 18C11.7898 19.13 11.8598 20.23 11.9998 21.27H7.52979C7.20979 20.24 7.03978 19.14 7.03978 18H7.02979ZM17.9998 7C18.9298 7 19.9798 8.03 20.8198 9.75C21.2398 10.62 21.5898 11.63 21.8498 12.73H14.1498C14.4198 11.63 14.7598 10.62 15.1798 9.75C16.0198 8.03 17.0698 7 17.9998 7ZM23.9698 14.48H28.3898C28.7598 15.59 28.9698 16.77 28.9698 18C28.9698 19.14 28.7998 20.24 28.4798 21.27H24.0098C24.1398 20.23 24.2198 19.13 24.2198 18C24.2198 16.78 24.1298 15.6 23.9798 14.48H23.9698ZM27.6298 12.73H23.6598C23.1998 10.67 22.4898 8.91 21.5998 7.61C24.1798 8.51 26.3298 10.35 27.6298 12.73V12.73ZM14.3998 7.61C13.5098 8.91 12.7998 10.67 12.3398 12.73H8.36978C9.66978 10.36 11.8098 8.51 14.3998 7.61V7.61ZM8.23978 23.02H12.2898C12.7398 25.18 13.4798 27.04 14.3998 28.39C11.7298 27.46 9.51978 25.52 8.23978 23.02V23.02ZM21.5898 28.39C22.5098 27.04 23.2498 25.19 23.6998 23.02H27.7498C26.4698 25.51 24.2698 27.46 21.5898 28.39Z" fill="#222222"/>
</g>
</svg>
