<svg width="36" height="36" viewBox="0 0 36 36" fill="none" xmlns="http://www.w3.org/2000/svg">
<g id="youtube_field_M 1">
<path id="Vector" d="M35.22 11.4199C35.22 8.31989 34.32 5.96989 32.47 4.31989C29.57 1.66989 25.32 1.96989 24.87 2.01989H11.18C7.38002 2.01989 4.58002 3.06989 2.78002 5.06989C0.48002 7.66989 0.78002 11.0699 0.82002 11.4199L0.77002 24.6199C0.77002 27.7199 1.67002 30.0699 3.52002 31.7199C5.77002 33.7199 8.72002 34.0199 10.27 34.0199C10.72 34.0199 11.02 33.9699 11.12 33.9699H24.82C28.62 33.9699 31.42 32.9199 33.22 30.9199C35.52 28.3199 35.22 24.9199 35.17 24.5699L35.22 11.4199ZM24.87 18.8199L13.82 24.3699C13.72 24.4199 13.62 24.4699 13.47 24.4699C13.32 24.4699 13.17 24.4199 13.07 24.3699C12.87 24.2199 12.72 23.9699 12.72 23.7199V12.6199C12.72 12.3699 12.87 12.1199 13.07 11.9699C13.27 11.8199 13.57 11.8199 13.82 11.9199L24.87 17.4699C25.12 17.6199 25.27 17.8699 25.27 18.1199C25.27 18.4699 25.12 18.7199 24.87 18.8199V18.8199Z" fill="#222222"/>
</g>
</svg>
