<svg width="36" height="36" viewBox="0 0 36 36" fill="none" xmlns="http://www.w3.org/2000/svg">
<g id="edit_M 1">
<g id="a">
<path id="Vector" d="M32.9199 3.08C31.8999 2.06 30.5399 1.5 29.0999 1.5C27.6599 1.5 26.2999 2.06 25.2799 3.08L5.18989 23.18C5.18989 23.18 5.15989 23.23 5.13989 23.26C5.02989 23.34 4.92989 23.44 4.88989 23.58L1.53989 33.63C1.45989 33.87 1.51989 34.13 1.69989 34.31C1.82989 34.44 1.98989 34.5 2.16989 34.5C2.23989 34.5 2.30989 34.49 2.37989 34.47L12.4299 31.12C12.5699 31.07 12.6699 30.98 12.7499 30.87C12.7799 30.85 12.8099 30.84 12.8399 30.81L32.9199 10.71C33.9399 9.69 34.4999 8.33 34.4999 6.89C34.4999 5.45 33.9399 4.09 32.9199 3.08V3.08ZM29.0999 2.82C30.1899 2.82 31.2099 3.24 31.9799 4.01C32.7499 4.78 33.1699 5.8 33.1699 6.89C33.1699 7.76 32.8999 8.58 32.4099 9.27L26.7199 3.58C27.4099 3.08 28.2299 2.82 29.0999 2.82V2.82ZM12.5399 29.23L10.7799 25.71L28.8799 7.61L31.5199 10.25L12.5399 29.23ZM25.7499 4.48L27.9399 6.67L9.73989 24.88C9.73989 24.88 9.71989 24.91 9.70989 24.93L6.76989 23.46L25.7499 4.48ZM5.95989 24.54L9.62989 26.37L11.4599 30.04L7.60989 31.32C7.37989 29.8 6.18989 28.6 4.67989 28.37L5.95989 24.53V24.54ZM4.25989 29.65C5.38989 29.71 6.28989 30.62 6.33989 31.75L3.20989 32.79L4.25989 29.65Z" fill="#222222"/>
</g>
</g>
</svg>
