<svg width="36" height="36" viewBox="0 0 36 36" fill="none" xmlns="http://www.w3.org/2000/svg">
<g id="file download_M 1">
<g id="a">
<g id="Group">
<path id="Vector" d="M33.84 25.8601C33.48 25.8601 33.18 26.1501 33.18 26.5201V33.1301H2.82V26.5201C2.82 26.1601 2.53 25.8601 2.16 25.8601C1.79 25.8601 1.5 26.1501 1.5 26.5201V33.7901C1.5 34.1501 1.79 34.4501 2.16 34.4501H33.84C34.2 34.4501 34.5 34.1601 34.5 33.7901V26.5201C34.5 26.1601 34.21 25.8601 33.84 25.8601V25.8601Z" fill="#222222"/>
<path id="Vector_2" d="M17.53 30.3601C17.66 30.4901 17.83 30.5501 18 30.5501C18.17 30.5501 18.34 30.4901 18.47 30.3601L26.91 21.9201C27.17 21.6601 27.17 21.2501 26.91 20.9901C26.65 20.7301 26.24 20.7301 25.98 20.9901L18.66 28.3101V2.22006C18.66 1.86006 18.37 1.56006 18 1.56006C17.63 1.56006 17.34 1.85006 17.34 2.22006V28.3001L10.02 20.9801C9.76002 20.7201 9.35002 20.7201 9.09002 20.9801C8.83002 21.2401 8.83002 21.6501 9.09002 21.9101L17.53 30.3501V30.3601Z" fill="#222222"/>
</g>
</g>
</g>
</svg>
