<svg width="36" height="36" viewBox="0 0 36 36" fill="none" xmlns="http://www.w3.org/2000/svg">
<g id="confused_M 1" clip-path="url(#clip0_143_21134)">
<g id="Group">
<path id="Vector" d="M18 0.77002C8.49 0.77002 0.75 8.50002 0.75 18.02C0.75 27.54 8.49 35.27 18 35.27C27.51 35.27 35.25 27.53 35.25 18.02C35.25 8.51002 27.51 0.77002 18 0.77002ZM18 33.89C9.25 33.89 2.13 26.77 2.13 18.02C2.13 9.27002 9.25 2.15002 18 2.15002C26.75 2.15002 33.87 9.27002 33.87 18.02C33.87 26.77 26.75 33.89 18 33.89Z" fill="#222222"/>
<path id="Vector_2" d="M14.91 13.96C14.91 12.27 13.54 10.9 11.85 10.9C10.16 10.9 8.78998 12.27 8.78998 13.96C8.78998 15.65 10.16 17.02 11.85 17.02C13.54 17.02 14.91 15.65 14.91 13.96V13.96ZM10.18 13.96C10.18 13.04 10.93 12.29 11.85 12.29C12.77 12.29 13.52 13.04 13.52 13.96C13.52 14.88 12.77 15.63 11.85 15.63C10.93 15.63 10.18 14.88 10.18 13.96Z" fill="#222222"/>
<path id="Vector_3" d="M24.03 10.88C22.34 10.88 20.97 12.25 20.97 13.94C20.97 15.63 22.34 17 24.03 17C25.72 17 27.09 15.63 27.09 13.94C27.09 12.25 25.72 10.88 24.03 10.88V10.88ZM24.03 15.61C23.11 15.61 22.36 14.86 22.36 13.94C22.36 13.02 23.11 12.27 24.03 12.27C24.95 12.27 25.7 13.02 25.7 13.94C25.7 14.86 24.95 15.61 24.03 15.61Z" fill="#222222"/>
<path id="Vector_4" d="M25.06 23.73C24.94 23.86 22.2 26.8 19.06 24.98C13.5 21.75 10.01 25.82 9.97002 25.86C9.74002 26.13 9.78002 26.53 10.05 26.76C10.17 26.86 10.31 26.91 10.46 26.91C10.64 26.91 10.82 26.83 10.95 26.68C11.06 26.54 13.78 23.39 18.42 26.08C21.65 27.96 24.8 25.92 26 24.58C26.24 24.32 26.22 23.92 25.96 23.68C25.7 23.44 25.3 23.46 25.06 23.72V23.73Z" fill="#222222"/>
</g>
</g>
<defs>
<clipPath id="clip0_143_21134">
<rect width="36" height="36" fill="white"/>
</clipPath>
</defs>
</svg>
