<svg width="36" height="36" viewBox="0 0 36 36" fill="none" xmlns="http://www.w3.org/2000/svg">
<g id="angry_M 1">
<g id="Group">
<path id="Vector" d="M17.95 0.76001C8.44001 0.76001 0.700012 8.50001 0.700012 18.01C0.700012 27.52 8.44001 35.26 17.95 35.26C27.46 35.26 35.2 27.52 35.2 18.01C35.2 8.50001 27.46 0.76001 17.95 0.76001ZM17.95 33.88C9.20001 33.88 2.08001 26.76 2.08001 18.01C2.08001 9.26001 9.20001 2.14001 17.95 2.14001C26.7 2.14001 33.82 9.26001 33.82 18.01C33.82 26.76 26.7 33.88 17.95 33.88V33.88Z" fill="#222222"/>
<path id="Vector_2" d="M18.01 19.02C14.09 19.02 10.91 22.34 10.91 26.41C10.91 26.79 11.22 27.1 11.6 27.1H24.43C24.81 27.1 25.12 26.79 25.12 26.41C25.12 22.33 21.93 19.02 18.02 19.02H18.01ZM12.33 25.72C12.66 22.73 15.08 20.4 18.01 20.4C20.94 20.4 23.37 22.73 23.69 25.72H12.33V25.72Z" fill="#222222"/>
<path id="Vector_3" d="M14.86 14.6C14.98 14.39 14.99 14.13 14.86 13.91L12.2 9.18999C12.01 8.85999 11.59 8.73999 11.26 8.92999C10.93 9.11999 10.81 9.53999 11 9.86999L13.08 13.55H9.53003C9.15003 13.55 8.84003 13.86 8.84003 14.24C8.84003 14.62 9.15003 14.93 9.53003 14.93H14.26C14.51 14.93 14.73 14.8 14.86 14.59V14.6Z" fill="#222222"/>
<path id="Vector_4" d="M26.48 13.56H22.93L25.01 9.88C25.2 9.55 25.08 9.13 24.75 8.94C24.42 8.75 24 8.87 23.81 9.2L21.15 13.92C21.03 14.13 21.03 14.4 21.15 14.61C21.27 14.82 21.5 14.95 21.75 14.95H26.48C26.86 14.95 27.17 14.64 27.17 14.26C27.17 13.88 26.86 13.57 26.48 13.57V13.56Z" fill="#222222"/>
</g>
</g>
</svg>
