<svg width="36" height="36" viewBox="0 0 36 36" fill="none" xmlns="http://www.w3.org/2000/svg">
<g id="listen_M 1">
<path id="Vector" d="M18 0.790039C14.8455 0.795327 11.8218 2.05077 9.59125 4.28131C7.36071 6.51185 6.10526 9.53559 6.09998 12.69C6.09998 12.873 6.17267 13.0485 6.30207 13.1779C6.43147 13.3073 6.60698 13.38 6.78998 13.38C6.97298 13.38 7.14848 13.3073 7.27788 13.1779C7.40728 13.0485 7.47998 12.873 7.47998 12.69C7.48262 9.90077 8.59183 7.22651 10.5641 5.2542C12.5364 3.28189 15.2107 2.17269 18 2.17004C20.7685 2.23849 23.4047 3.36882 25.363 5.32706C27.3212 7.2853 28.4515 9.92151 28.52 12.69C28.52 17.75 26.34 19.14 24.03 20.62C23.3336 21.0317 22.6654 21.4894 22.03 21.99C20.29 23.44 20.09 25.77 19.96 27.31C19.96 27.6 19.91 27.86 19.88 28.08C19.6447 29.2699 19.1229 30.3845 18.3596 31.3272C17.5964 32.2699 16.6149 33.0123 15.5 33.49C14.8589 33.7419 14.1726 33.8586 13.4843 33.8328C12.796 33.807 12.1204 33.6392 11.5 33.34C10.8553 33.0412 10.3043 32.5724 9.90615 31.9839C9.50796 31.3954 9.27766 30.7096 9.23998 30C9.21041 29.8192 9.11112 29.6572 8.96341 29.5487C8.81571 29.4403 8.63137 29.3941 8.44998 29.42C8.35985 29.4335 8.27327 29.4646 8.19524 29.5116C8.11721 29.5587 8.04928 29.6207 7.99535 29.6942C7.94143 29.7676 7.90258 29.851 7.88107 29.9396C7.85955 30.0281 7.85578 30.12 7.86998 30.21C7.9526 31.152 8.28666 32.0544 8.83725 32.8232C9.38784 33.5919 10.1348 34.1986 11 34.58C11.8677 34.9957 12.8178 35.211 13.78 35.21C14.5786 35.2135 15.3701 35.0606 16.11 34.76C17.4488 34.1942 18.6265 33.3052 19.5374 32.1725C20.4484 31.0399 21.0643 29.6991 21.33 28.27C21.33 28.03 21.38 27.75 21.41 27.43C21.53 26.04 21.69 24.13 22.99 23.05C23.5696 22.5892 24.1774 22.165 24.81 21.78C27.22 20.25 29.94 18.51 29.94 12.69C29.8983 9.54001 28.6258 6.53131 26.3944 4.30745C24.1631 2.08358 21.1501 0.82111 18 0.790039V0.790039Z" fill="#222222"/>
<path id="Vector_2" d="M18.1099 18.29C18.6978 17.916 19.3587 17.6718 20.0485 17.5735C20.7382 17.4752 21.441 17.5251 22.1099 17.72C22.2212 17.7528 22.3392 17.7553 22.4517 17.7272C22.5643 17.6991 22.6672 17.6413 22.7499 17.56H22.7999C23.6533 16.8037 24.3037 15.8458 24.6919 14.7737C25.0801 13.7015 25.1937 12.5493 25.0224 11.422C24.851 10.2947 24.4001 9.22819 23.7109 8.31984C23.0216 7.41149 22.1159 6.69016 21.0764 6.22163C20.0368 5.7531 18.8965 5.55229 17.7595 5.63751C16.6224 5.72274 15.5248 6.09128 14.5667 6.70953C13.6086 7.32778 12.8205 8.17606 12.2744 9.17701C11.7282 10.178 11.4414 11.2997 11.4399 12.44C11.4399 12.623 11.5126 12.7985 11.642 12.9279C11.7714 13.0573 11.9469 13.13 12.1299 13.13C12.3129 13.13 12.4884 13.0573 12.6178 12.9279C12.7472 12.7985 12.8199 12.623 12.8199 12.44C12.8188 11.5414 13.0398 10.6565 13.4633 9.86398C13.8868 9.07148 14.4998 8.39601 15.2475 7.89768C15.9952 7.39935 16.8546 7.09363 17.749 7.00775C18.6435 6.92186 19.5453 7.05846 20.3742 7.4054C21.2031 7.75234 21.9333 8.29884 22.4999 8.99626C23.0665 9.69368 23.4519 10.5204 23.6217 11.4027C23.7915 12.2851 23.7406 13.1958 23.4733 14.0537C23.2061 14.9116 22.7308 15.6901 22.0899 16.32C20.4644 15.959 18.762 16.2574 17.3561 17.1497C15.9501 18.042 14.9554 19.4554 14.5899 21.08C14.4054 21.8866 14.3828 22.7218 14.5236 23.5372C14.6644 24.3526 14.9656 25.1319 15.4099 25.83C15.4706 25.929 15.5559 26.0106 15.6576 26.0667C15.7593 26.1228 15.8738 26.1515 15.9899 26.15C16.1217 26.1522 16.2509 26.1138 16.3599 26.04C16.4369 25.9921 16.5036 25.9294 16.556 25.8554C16.6084 25.7814 16.6454 25.6977 16.665 25.6092C16.6845 25.5207 16.6862 25.4291 16.6699 25.34C16.6536 25.2508 16.6196 25.1658 16.5699 25.09C16.2232 24.5427 15.988 23.9324 15.8778 23.2941C15.7675 22.6557 15.7844 22.0019 15.9275 21.3701C16.0706 20.7383 16.3371 20.141 16.7116 19.6124C17.0861 19.0838 17.5613 18.6344 18.1099 18.29V18.29Z" fill="#222222"/>
</g>
</svg>
