<svg width="36" height="36" viewBox="0 0 36 36" fill="none" xmlns="http://www.w3.org/2000/svg">
<g id="eco oriented_M 1">
<g id="Group">
<path id="Vector" d="M32.4001 20.66C32.4001 14.24 28.1701 8.79004 22.3601 6.94004V5.15004C22.3601 2.75004 20.4101 0.790039 18.0001 0.790039C15.5901 0.790039 13.6401 2.74004 13.6401 5.15004V6.94004C7.8201 8.79004 3.6001 14.24 3.6001 20.66C3.6001 20.69 3.6101 20.71 3.6201 20.74C3.6201 20.77 3.6001 20.79 3.6001 20.82C3.6001 28.76 10.0601 35.22 18.0001 35.22C25.9401 35.22 32.4001 28.76 32.4001 20.82C32.4001 20.79 32.3901 20.77 32.3801 20.74C32.3801 20.71 32.4001 20.69 32.4001 20.66V20.66ZM15.0201 5.14004C15.0201 3.50004 16.3601 2.16004 18.0001 2.16004C19.6401 2.16004 20.9801 3.50004 20.9801 5.14004V6.57004C20.0201 6.37004 19.0201 6.26004 18.0001 6.26004C16.9801 6.26004 15.9801 6.37004 15.0201 6.57004V5.14004ZM18.6901 33.8V32.57C18.6901 32.19 18.3801 31.88 18.0001 31.88C17.6201 31.88 17.3101 32.19 17.3101 32.57V33.8C10.6801 33.45 5.3601 28.13 5.0101 21.5H6.2401C6.6201 21.5 6.9301 21.19 6.9301 20.81C6.9301 20.43 6.6201 20.12 6.2401 20.12H5.0001C5.2701 13.42 10.6201 8.02004 17.3101 7.66004V10.67C17.3101 11.05 17.6201 11.36 18.0001 11.36C18.3801 11.36 18.6901 11.05 18.6901 10.67V7.66004C25.3701 8.01004 30.7201 13.41 31.0001 20.12H29.8801C29.5001 20.12 29.1901 20.43 29.1901 20.81C29.1901 21.19 29.5001 21.5 29.8801 21.5H30.9901C30.6401 28.13 25.3201 33.45 18.6901 33.8Z" fill="#222222"/>
<path id="Vector_2" d="M25.2602 14.09C24.1902 14.17 23.1302 14.12 22.0002 14.07C20.6802 14.01 19.3202 13.94 17.9502 14.12C15.1602 14.48 13.0902 15.83 11.9702 18.04C10.7902 20.36 10.3902 23.13 10.8502 25.83C10.8502 25.83 10.8502 25.84 10.8502 25.85C10.8702 25.94 10.9002 26.02 10.9502 26.09C10.9502 26.09 10.9502 26.11 10.9602 26.11C11.0102 26.18 11.0802 26.25 11.1602 26.3H11.1802C12.7202 27.18 14.5402 27.63 16.2802 27.63C17.0902 27.63 17.8802 27.53 18.6202 27.33C23.7202 25.95 26.9602 20.39 25.9902 14.66C25.9302 14.31 25.6102 14.06 25.2602 14.09V14.09ZM18.2702 26C16.4902 26.48 14.3602 26.26 12.5402 25.44C14.0502 23.24 16.1402 21.55 18.6302 20.54L20.1702 19.91C20.5202 19.77 20.6902 19.36 20.5502 19.01C20.4102 18.66 20.0002 18.49 19.6502 18.63L18.1102 19.26C15.7102 20.24 13.6502 21.79 12.0602 23.79C12.0402 21.98 12.4202 20.21 13.2102 18.66C14.3502 16.41 16.5202 15.69 18.1402 15.49C19.3902 15.33 20.6402 15.39 21.9502 15.45C22.8602 15.49 23.7902 15.54 24.7302 15.5C25.1902 19.78 22.9902 24.72 18.2802 26H18.2702Z" fill="#222222"/>
</g>
</g>
</svg>
