<svg width="36" height="36" viewBox="0 0 36 36" fill="none" xmlns="http://www.w3.org/2000/svg">
<g id="table lighting__M 1">
<path id="Vector" d="M22.52 0.790039C19.5012 0.794676 16.6003 1.96198 14.4196 4.04951C12.239 6.13704 10.9463 8.98435 10.81 12C8.35157 12.1768 6.05106 13.2772 4.37049 15.0802C2.68992 16.8832 1.75375 19.2553 1.75 21.72C1.75 21.8106 1.76785 21.9004 1.80252 21.9841C1.8372 22.0678 1.88802 22.1439 1.9521 22.2079C2.01617 22.272 2.09223 22.3228 2.17595 22.3575C2.25966 22.3922 2.34939 22.41 2.44 22.41H6.77C6.91089 23.5667 7.47028 24.6318 8.34259 25.4043C9.2149 26.1768 10.3398 26.6033 11.505 26.6033C12.6702 26.6033 13.7951 26.1768 14.6674 25.4043C15.5397 24.6318 16.0991 23.5667 16.24 22.41H20.56C20.6514 22.4114 20.7423 22.3945 20.8271 22.3604C20.912 22.3263 20.9892 22.2757 21.0544 22.2115C21.1195 22.1473 21.1712 22.0708 21.2065 21.9864C21.2418 21.902 21.26 21.8115 21.26 21.72C21.2539 19.256 20.3169 16.8852 18.6368 15.0827C16.9567 13.2802 14.6576 12.1791 12.2 12C12.3657 9.32416 13.5643 6.81725 15.5429 5.00813C17.5215 3.19901 20.1254 2.22912 22.8054 2.30306C25.4854 2.377 28.0319 3.48899 29.9077 5.40445C31.7836 7.31991 32.8421 9.88909 32.86 12.57V33.83H16.33C16.147 33.83 15.9715 33.9027 15.8421 34.0321C15.7127 34.1615 15.64 34.337 15.64 34.52C15.64 34.703 15.7127 34.8785 15.8421 35.0079C15.9715 35.1373 16.147 35.21 16.33 35.21H33.56C33.743 35.21 33.9185 35.1373 34.0479 35.0079C34.1773 34.8785 34.25 34.703 34.25 34.52V12.52C34.2474 9.40986 33.0107 6.42783 30.8114 4.2286C28.6122 2.02937 25.6302 0.792687 22.52 0.790039V0.790039ZM11.52 25.18C10.7432 25.1803 9.98997 24.913 9.38712 24.4231C8.78427 23.9331 8.36858 23.2505 8.21 22.49H14.84C14.6786 23.2547 14.2581 23.9401 13.6494 24.4303C13.0408 24.9205 12.2815 25.1854 11.5 25.18H11.52ZM19.84 21H3.16C3.33741 18.9103 4.29291 16.9632 5.83737 15.5443C7.38183 14.1254 9.4027 13.3381 11.5 13.3381C13.5973 13.3381 15.6182 14.1254 17.1626 15.5443C18.7071 16.9632 19.6626 18.9103 19.84 21V21Z" fill="#222222"/>
<path id="Vector_2" d="M11.5001 27.8599C11.3171 27.8599 11.1416 27.9326 11.0122 28.062C10.8828 28.1914 10.8101 28.3669 10.8101 28.5499V31.2899C10.8305 31.4599 10.9125 31.6165 11.0405 31.7301C11.1686 31.8437 11.3339 31.9064 11.5051 31.9064C11.6762 31.9064 11.8415 31.8437 11.9696 31.7301C12.0976 31.6165 12.1796 31.4599 12.2001 31.2899V28.5499C12.2001 28.4585 12.1819 28.3679 12.1466 28.2836C12.1113 28.1992 12.0596 28.1227 11.9944 28.0585C11.9293 27.9943 11.8521 27.9436 11.7672 27.9096C11.6823 27.8755 11.5915 27.8586 11.5001 27.8599Z" fill="#222222"/>
<path id="Vector_3" d="M18.41 30.8899C18.5941 30.8849 18.7692 30.8095 18.8994 30.6793C19.0296 30.5491 19.105 30.374 19.11 30.1899C19.1074 30.0053 19.0319 29.8292 18.9 29.6999L16 26.7799C15.9356 26.7122 15.858 26.6582 15.772 26.6213C15.6861 26.5844 15.5935 26.5654 15.5 26.5654C15.4065 26.5654 15.3139 26.5844 15.228 26.6213C15.142 26.6582 15.0645 26.7122 15 26.7799C14.9351 26.8437 14.884 26.9201 14.8496 27.0043C14.8152 27.0886 14.7983 27.179 14.8 27.2699C14.7977 27.361 14.8143 27.4515 14.8487 27.5359C14.8832 27.6202 14.9347 27.6965 15 27.7599L17.92 30.6799C18.0493 30.8118 18.2254 30.8873 18.41 30.8899V30.8899Z" fill="#222222"/>
<path id="Vector_4" d="M6.84998 26.78L3.92998 29.7C3.80437 29.8326 3.73301 30.0074 3.72998 30.19C3.72995 30.3733 3.80176 30.5492 3.92998 30.68C3.9933 30.7462 4.06934 30.799 4.15354 30.8351C4.23775 30.8711 4.32837 30.8898 4.41998 30.89C4.51168 30.8904 4.60248 30.872 4.68677 30.8359C4.77105 30.7998 4.84702 30.7467 4.90998 30.68L7.82998 27.76C7.88946 27.6938 7.93513 27.6163 7.96432 27.5322C7.99351 27.448 8.00563 27.3589 7.99998 27.27C7.99979 27.1784 7.98109 27.0878 7.945 27.0036C7.90891 26.9194 7.85619 26.8434 7.78998 26.78C7.6623 26.6613 7.49437 26.5952 7.31998 26.5952C7.14559 26.5952 6.97766 26.6613 6.84998 26.78V26.78Z" fill="#222222"/>
</g>
</svg>
