<svg width="36" height="36" viewBox="0 0 36 36" fill="none" xmlns="http://www.w3.org/2000/svg">
<g id="boxes 2__M 1">
<path id="Vector" d="M13.1199 20.94H6.35992C6.26979 20.9387 6.18028 20.9553 6.09662 20.9889C6.01297 21.0225 5.93682 21.0723 5.87261 21.1356C5.8084 21.1989 5.75742 21.2743 5.72262 21.3575C5.68783 21.4406 5.66991 21.5299 5.66992 21.62C5.66992 21.7106 5.68777 21.8004 5.72245 21.8841C5.75712 21.9678 5.80795 22.0438 5.87202 22.1079C5.93609 22.172 6.01216 22.2228 6.09587 22.2575C6.17958 22.2922 6.26931 22.31 6.35992 22.31H13.1199C13.2101 22.31 13.2993 22.2921 13.3825 22.2573C13.4656 22.2225 13.541 22.1715 13.6043 22.1073C13.6676 22.0431 13.7175 21.967 13.7511 21.8833C13.7846 21.7997 13.8012 21.7102 13.7999 21.62C13.8013 21.5303 13.7846 21.4413 13.7509 21.3582C13.7172 21.2751 13.6672 21.1996 13.6038 21.1362C13.5403 21.0728 13.4648 21.0227 13.3817 20.989C13.2986 20.9553 13.2096 20.9387 13.1199 20.94V20.94Z" fill="#222222"/>
<path id="Vector_2" d="M18.5601 6.00012H25.1701C25.3531 6.00012 25.5286 5.92742 25.658 5.79802C25.7874 5.66862 25.8601 5.49312 25.8601 5.31012C25.8601 5.12712 25.7874 4.95161 25.658 4.82221C25.5286 4.69281 25.3531 4.62012 25.1701 4.62012H18.5601C18.3771 4.62012 18.2016 4.69281 18.0722 4.82221C17.9428 4.95161 17.8701 5.12712 17.8701 5.31012C17.8701 5.49312 17.9428 5.66862 18.0722 5.79802C18.2016 5.92742 18.3771 6.00012 18.5601 6.00012V6.00012Z" fill="#222222"/>
<path id="Vector_3" d="M34.51 16.9401H30.6201V1.50006C30.6201 1.31706 30.5474 1.14155 30.418 1.01215C30.2886 0.882755 30.113 0.810059 29.93 0.810059H13.79C13.6999 0.810049 13.6107 0.827963 13.5275 0.86276C13.4443 0.897557 13.3689 0.948542 13.3056 1.01275C13.2424 1.07696 13.1925 1.1531 13.1589 1.23676C13.1253 1.32042 13.1087 1.40992 13.11 1.50006V16.9401H1.49005C1.39944 16.9401 1.30971 16.9579 1.226 16.9926C1.14228 17.0273 1.06622 17.0781 1.00215 17.1422C0.938073 17.2062 0.887248 17.2823 0.852572 17.366C0.817896 17.4497 0.800049 17.5394 0.800049 17.6301V34.5001C0.800049 34.6831 0.872745 34.8586 1.00215 34.988C1.13155 35.1174 1.30705 35.1901 1.49005 35.1901H34.4901C34.6731 35.1901 34.8486 35.1174 34.978 34.988C35.1074 34.8586 35.18 34.6831 35.18 34.5001V17.6301C35.1801 17.4505 35.1102 17.2779 34.9851 17.1491C34.86 17.0203 34.6896 16.9453 34.51 16.9401ZM14.51 2.18006H29.24V16.9401H14.48L14.51 2.18006ZM2.17005 33.8201V18.3101H17.3V33.8101L2.17005 33.8201ZM33.8301 33.8201H18.7001V18.3201H33.8301V33.8201Z" fill="#222222"/>
<path id="Vector_4" d="M29.64 20.94H22.88C22.7904 20.9387 22.7013 20.9553 22.6182 20.989C22.5351 21.0227 22.4596 21.0728 22.3962 21.1362C22.3328 21.1996 22.2827 21.2751 22.249 21.3582C22.2153 21.4413 22.1987 21.5303 22.2 21.62C22.1987 21.7102 22.2153 21.7997 22.2489 21.8833C22.2825 21.967 22.3323 22.0431 22.3956 22.1073C22.4589 22.1715 22.5343 22.2225 22.6175 22.2573C22.7006 22.2921 22.7899 22.31 22.88 22.31H29.64C29.7306 22.31 29.8204 22.2922 29.9041 22.2575C29.9878 22.2228 30.0639 22.172 30.1279 22.1079C30.192 22.0438 30.2428 21.9678 30.2775 21.8841C30.3122 21.8004 30.33 21.7106 30.33 21.62C30.33 21.5299 30.3121 21.4406 30.2773 21.3575C30.2425 21.2743 30.1915 21.1989 30.1273 21.1356C30.0631 21.0723 29.987 21.0225 29.9033 20.9889C29.8197 20.9553 29.7302 20.9387 29.64 20.94Z" fill="#222222"/>
</g>
</svg>
