<svg width="36" height="36" viewBox="0 0 36 36" fill="none" xmlns="http://www.w3.org/2000/svg">
<g id="globe_M 1">
<path id="Vector" d="M28.0601 25.2901C30.9042 22.438 32.5391 18.5992 32.6248 14.5723C32.7105 10.5454 31.2403 6.64054 28.5201 3.67008L30.2301 2.00008C30.2957 1.93441 30.3478 1.85646 30.3834 1.77067C30.4189 1.68488 30.4372 1.59293 30.4372 1.50008C30.4372 1.40722 30.4189 1.31527 30.3834 1.22948C30.3478 1.14369 30.2957 1.06574 30.2301 1.00008C30.1644 0.934415 30.0865 0.88233 30.0007 0.846794C29.9149 0.811259 29.8229 0.792969 29.7301 0.792969C29.6372 0.792969 29.5453 0.811259 29.4595 0.846794C29.3737 0.88233 29.2957 0.934415 29.2301 1.00008L24.5101 5.73008C22.3443 3.84089 19.542 2.84451 16.6697 2.94236C13.7974 3.04021 11.0694 4.225 9.03719 6.2572C7.005 8.28939 5.82021 11.0174 5.72236 13.8897C5.62451 16.762 6.62089 19.5643 8.51007 21.7301L3.57007 26.5801C3.47612 26.6771 3.41271 26.7995 3.38768 26.9322C3.36266 27.0649 3.37713 27.2021 3.42929 27.3266C3.48146 27.4512 3.56903 27.5577 3.68116 27.633C3.79328 27.7083 3.92503 27.749 4.06007 27.7501C4.15113 27.7524 4.24167 27.7358 4.326 27.7013C4.41033 27.6669 4.48662 27.6154 4.55007 27.5501L6.39007 25.7101C9.14931 28.2585 12.7358 29.725 16.4901 29.8401V33.8401H11.6101C11.4271 33.8401 11.2516 33.9128 11.1222 34.0422C10.9928 34.1716 10.9201 34.3471 10.9201 34.5301C10.9201 34.7131 10.9928 34.8886 11.1222 35.018C11.2516 35.1474 11.4271 35.2201 11.6101 35.2201H22.7501C22.9331 35.2201 23.1086 35.1474 23.238 35.018C23.3674 34.8886 23.4401 34.7131 23.4401 34.5301C23.4401 34.3471 23.3674 34.1716 23.238 34.0422C23.1086 33.9128 22.9331 33.8401 22.7501 33.8401H17.8701V29.8401C21.7132 29.6384 25.3445 28.0169 28.0601 25.2901V25.2901ZM9.94007 7.17008C11.5791 5.53622 13.734 4.52142 16.0375 4.29867C18.3411 4.07593 20.6505 4.65903 22.5722 5.94858C24.4939 7.23813 25.9088 9.15427 26.5758 11.3703C27.2427 13.5864 27.1204 15.9652 26.2296 18.1012C25.3389 20.2372 23.7349 21.9981 21.691 23.0837C19.6472 24.1693 17.2901 24.5124 15.0216 24.0546C12.7531 23.5967 10.7136 22.3662 9.25085 20.5729C7.78809 18.7795 6.99263 16.5343 7.00007 14.2201C7.00859 11.5736 8.0658 9.03846 9.94007 7.17008V7.17008ZM9.43007 22.6701C11.5787 24.6638 14.4158 25.748 17.3465 25.6955C20.2771 25.643 23.0736 24.4578 25.1494 22.3885C27.2252 20.3191 28.4192 17.5263 28.4808 14.5959C28.5425 11.6654 27.467 8.82491 25.4801 6.67008L27.5501 4.60008C30.2195 7.27611 31.7165 10.903 31.7118 14.6828C31.7071 18.4625 30.2011 22.0857 27.5251 24.7551C24.849 27.4245 21.2222 28.9215 17.4424 28.9168C13.6626 28.9121 10.0395 27.4061 7.37007 24.7301L9.43007 22.6701Z" fill="#222222"/>
</g>
</svg>
