<svg width="36" height="36" viewBox="0 0 36 36" fill="none" xmlns="http://www.w3.org/2000/svg">
<g id="sofa_M 1">
<path id="Vector" d="M34.5301 12H33.1701V6.56997C33.1701 6.47982 33.1522 6.39057 33.1174 6.30741C33.0826 6.22425 33.0316 6.14884 32.9674 6.08556C32.9032 6.02229 32.8271 5.97241 32.7434 5.93883C32.6598 5.90525 32.5703 5.88864 32.4801 5.88997H3.59011C3.49998 5.88864 3.41048 5.90525 3.32682 5.93883C3.24316 5.97241 3.16701 6.02229 3.1028 6.08556C3.0386 6.14884 2.98761 6.22425 2.95282 6.30741C2.91802 6.39057 2.90011 6.47982 2.90012 6.56997V12H1.47011C1.38044 11.9986 1.29141 12.0153 1.2083 12.049C1.12519 12.0827 1.04969 12.1327 0.986277 12.1961C0.922863 12.2595 0.872825 12.335 0.839129 12.4182C0.805434 12.5013 0.788766 12.5903 0.790115 12.68V25.45C0.788789 25.5401 0.805399 25.6296 0.838978 25.7133C0.872557 25.7969 0.922436 25.8731 0.985712 25.9373C1.04899 26.0015 1.1244 26.0525 1.20756 26.0873C1.29072 26.1221 1.37997 26.14 1.47011 26.14H5.56011V29.43C5.58038 29.5974 5.66126 29.7516 5.78746 29.8634C5.91367 29.9753 6.07647 30.0371 6.24511 30.0371C6.41376 30.0371 6.57656 29.9753 6.70277 29.8634C6.82897 29.7516 6.90985 29.5974 6.93011 29.43V26.14H29.1601V29.43C29.1601 29.613 29.2328 29.7885 29.3622 29.9179C29.4916 30.0473 29.6671 30.12 29.8501 30.12C30.0331 30.12 30.2086 30.0473 30.338 29.9179C30.4674 29.7885 30.5401 29.613 30.5401 29.43V26.14H34.5401C34.6303 26.14 34.7195 26.1221 34.8027 26.0873C34.8858 26.0525 34.9612 26.0015 35.0245 25.9373C35.0878 25.8731 35.1377 25.7969 35.1712 25.7133C35.2048 25.6296 35.2214 25.5401 35.2201 25.45V12.63C35.2098 12.4558 35.1319 12.2925 35.0031 12.1748C34.8742 12.0572 34.7045 11.9945 34.5301 12V12ZM4.28012 7.25997H31.7901V12H29.7001C29.61 11.9986 29.5205 12.0153 29.4368 12.0488C29.3532 12.0824 29.277 12.1323 29.2128 12.1956C29.1486 12.2588 29.0976 12.3343 29.0628 12.4174C29.028 12.5006 29.0101 12.5898 29.0101 12.68V18H7.00011V12.63C6.9873 12.4549 6.90729 12.2916 6.77683 12.1742C6.64636 12.0568 6.47555 11.9943 6.30012 12H4.30012L4.28012 7.25997ZM33.8401 24.76H2.16011V13.32H5.62011V18.7C5.61877 18.7896 5.63543 18.8787 5.66913 18.9618C5.70283 19.0449 5.75286 19.1204 5.81628 19.1838C5.87969 19.2472 5.95519 19.2973 6.0383 19.331C6.12141 19.3646 6.21044 19.3813 6.30012 19.38H29.7001C29.7898 19.3813 29.8788 19.3646 29.9619 19.331C30.045 19.2973 30.1205 19.2472 30.184 19.1838C30.2474 19.1204 30.2974 19.0449 30.3311 18.9618C30.3648 18.8787 30.3815 18.7896 30.3801 18.7V13.32H33.8401V24.76Z" fill="#222222"/>
</g>
</svg>
