<svg width="36" height="36" viewBox="0 0 36 36" fill="none" xmlns="http://www.w3.org/2000/svg">
<g id="fire extinguisher_M 1">
<path id="Vector" d="M35.0001 4.00004C34.9265 3.93618 34.8406 3.88814 34.7477 3.85889C34.6548 3.82964 34.5569 3.81982 34.4601 3.83004L18.4601 5.83004V1.48004C18.4601 1.38943 18.4422 1.2997 18.4075 1.21599C18.3729 1.13227 18.322 1.05621 18.258 0.992135C18.1939 0.928063 18.1178 0.877238 18.0341 0.842562C17.9504 0.807886 17.8607 0.790039 17.7701 0.790039H11.0701C10.8871 0.790039 10.7116 0.862735 10.5822 0.992135C10.4528 1.12154 10.3801 1.29704 10.3801 1.48004V5.85004L1.18006 10.28C1.06266 10.3354 0.963553 10.4232 0.894446 10.533C0.825338 10.6429 0.789116 10.7703 0.790057 10.9C0.789399 11.0042 0.813386 11.107 0.860057 11.2C0.915406 11.3174 1.0032 11.4165 1.11306 11.4857C1.22292 11.5548 1.35027 11.591 1.48006 11.59C1.58418 11.5907 1.68698 11.5667 1.78006 11.52L7.48006 8.80004C6.78124 9.99564 6.41202 11.3552 6.41006 12.74V34.51C6.41006 34.693 6.48275 34.8685 6.61215 34.9979C6.74155 35.1273 6.91706 35.2 7.10006 35.2H21.5201C21.7031 35.2 21.8786 35.1273 22.008 34.9979C22.1374 34.8685 22.2101 34.693 22.2101 34.51V12.85L34.4801 14.36H34.5701C34.7354 14.3583 34.8948 14.2981 35.0201 14.19C35.0937 14.1251 35.1523 14.045 35.192 13.9552C35.2317 13.8655 35.2515 13.7682 35.2501 13.67V4.50004C35.2462 4.40374 35.2219 4.30936 35.1788 4.22316C35.1357 4.13696 35.0748 4.06091 35.0001 4.00004V4.00004ZM11.7901 2.17004H17.1301V6.72004H11.7901V2.17004ZM20.8401 33.82H7.84006V12.74C7.83461 11.7243 8.0669 10.7214 8.51837 9.81157C8.96983 8.90169 9.62794 8.11008 10.4401 7.50004C10.4574 7.66534 10.5356 7.81828 10.6594 7.92917C10.7832 8.04005 10.9439 8.10095 11.1101 8.10004H17.8101C17.9432 8.09869 18.0732 8.05939 18.1848 7.98677C18.2963 7.91415 18.3849 7.81122 18.4401 7.69004C19.1917 8.29922 19.7975 9.069 20.2128 9.94287C20.6281 10.8167 20.8424 11.7725 20.8401 12.74V33.82ZM33.8401 12.9L22.0901 11.45C21.8031 9.75128 20.9754 8.19056 19.7301 7.00004L33.8801 5.27004L33.8401 12.9Z" fill="#222222"/>
</g>
</svg>
