<svg width="36" height="36" viewBox="0 0 36 36" fill="none" xmlns="http://www.w3.org/2000/svg">
<g id="lighting_M 1">
<path id="Vector" d="M24.79 1.39004C24.7682 1.22476 24.6874 1.07293 24.5624 0.962639C24.4374 0.852343 24.2767 0.791031 24.11 0.790039H11.89C11.7233 0.791031 11.5626 0.852343 11.4376 0.962639C11.3126 1.07293 11.2317 1.22476 11.21 1.39004L8.44998 23.39C8.43956 23.4884 8.44926 23.588 8.47848 23.6825C8.5077 23.7771 8.55585 23.8647 8.61998 23.94C8.68651 24.0117 8.76692 24.069 8.85632 24.1085C8.94572 24.1481 9.04223 24.169 9.13998 24.17H17.31V33.81H11C10.817 33.81 10.6415 33.8827 10.5121 34.0121C10.3827 34.1415 10.31 34.317 10.31 34.5C10.31 34.683 10.3827 34.8585 10.5121 34.9879C10.6415 35.1173 10.817 35.19 11 35.19H25.21C25.393 35.19 25.5685 35.1173 25.6979 34.9879C25.8273 34.8585 25.9 34.683 25.9 34.5C25.9 34.317 25.8273 34.1415 25.6979 34.0121C25.5685 33.8827 25.393 33.81 25.21 33.81H18.69V24.19H26.86C26.9577 24.189 27.0542 24.1681 27.1437 24.1285C27.2331 24.089 27.3135 24.0317 27.38 23.96C27.4441 23.8847 27.4923 23.7971 27.5215 23.7025C27.5507 23.608 27.5604 23.5085 27.55 23.41L24.79 1.39004ZM18.69 22.81V20L23.27 15.42C23.3356 15.3544 23.3877 15.2764 23.4233 15.1906C23.4588 15.1048 23.4771 15.0129 23.4771 14.92C23.4771 14.8272 23.4588 14.7352 23.4233 14.6494C23.3877 14.5637 23.3356 14.4857 23.27 14.42C23.2043 14.3544 23.1264 14.3023 23.0406 14.2668C22.9548 14.2312 22.8628 14.2129 22.77 14.2129C22.6771 14.2129 22.5852 14.2312 22.4994 14.2668C22.4136 14.3023 22.3356 14.3544 22.27 14.42L18 18.74L13.73 14.47C13.6655 14.4023 13.588 14.3483 13.502 14.3114C13.4161 14.2746 13.3235 14.2555 13.23 14.2555C13.1365 14.2555 13.0439 14.2746 12.9579 14.3114C12.872 14.3483 12.7944 14.4023 12.73 14.47C12.6609 14.5337 12.6058 14.611 12.568 14.6971C12.5303 14.7831 12.5109 14.8761 12.5109 14.97C12.5109 15.064 12.5303 15.1569 12.568 15.243C12.6058 15.3291 12.6609 15.4064 12.73 15.47L17.31 20V22.79H9.91998L12.5 2.17004H23.5L26.08 22.81H18.69Z" fill="#222222"/>
</g>
</svg>
