<svg width="36" height="36" viewBox="0 0 36 36" fill="none" xmlns="http://www.w3.org/2000/svg">
<g id="baby_M 1">
<path id="Vector" d="M18 0.790039C14.8174 0.790039 11.7652 2.05432 9.51472 4.30476C7.26428 6.55519 6 9.60744 6 12.79V23.24C6.21453 26.2683 7.56883 29.1026 9.79002 31.172C12.0112 33.2414 14.9342 34.392 17.97 34.392C21.0058 34.392 23.9288 33.2414 26.15 31.172C28.3712 29.1026 29.7255 26.2683 29.94 23.24V12.76C29.9321 9.59301 28.6726 6.5575 26.436 4.31526C24.1993 2.07302 21.167 0.805864 18 0.790039V0.790039ZM28.59 23.24C28.5908 24.7952 28.2494 26.3316 27.59 27.74L18.12 21.61C20.1382 21.613 22.0912 20.8961 23.6282 19.5882C25.1652 18.2803 26.1853 16.4671 26.5052 14.4744C26.8252 12.4818 26.424 10.4404 25.3737 8.71703C24.3235 6.99368 22.693 5.7014 20.7754 5.07241C18.8577 4.44343 16.7786 4.51898 14.9117 5.28549C13.0448 6.052 11.5124 7.45921 10.59 9.25424C9.66762 11.0493 9.41565 13.1144 9.87938 15.0786C10.3431 17.0427 11.4921 18.7771 13.12 19.97C13.1484 20.0051 13.1822 20.0355 13.22 20.06L13.32 20.13L13.52 20.26L26.91 29C25.6781 30.9314 23.8527 32.4108 21.708 33.2158C19.5633 34.0208 17.2153 34.108 15.0168 33.4643C12.8183 32.8205 10.8882 31.4806 9.51645 29.6459C8.14473 27.8112 7.40555 25.5808 7.41 23.29V12.76C7.41 9.9514 8.52573 7.25779 10.5117 5.27178C12.4977 3.28577 15.1914 2.17004 18 2.17004C20.8086 2.17004 23.5023 3.28577 25.4883 5.27178C27.4743 7.25779 28.59 9.9514 28.59 12.76V23.24ZM18 10.93C18.4513 10.9303 18.8972 10.8319 19.3066 10.6419C19.7159 10.4519 20.0788 10.1749 20.37 9.83004C20.4324 9.75966 20.4797 9.67729 20.509 9.58797C20.5384 9.49865 20.5492 9.40427 20.5408 9.31062C20.5323 9.21698 20.5049 9.12604 20.46 9.0434C20.4152 8.96076 20.3539 8.88815 20.28 8.83004C20.2109 8.76574 20.1293 8.71652 20.0401 8.6855C19.951 8.65448 19.8564 8.64235 19.7624 8.64987C19.6683 8.6574 19.5769 8.68441 19.4938 8.7292C19.4108 8.77399 19.338 8.83558 19.28 8.91004C19.126 9.10335 18.9317 9.26076 18.7106 9.37129C18.4896 9.48182 18.2471 9.54282 18 9.55004C17.7638 9.56809 17.5264 9.53715 17.3027 9.45914C17.0789 9.38114 16.8738 9.25776 16.7 9.09675C16.5262 8.93573 16.3875 8.74055 16.2927 8.52343C16.1979 8.30632 16.1489 8.07196 16.1489 7.83504C16.1489 7.59812 16.1979 7.36376 16.2927 7.14665C16.3875 6.92953 16.5262 6.73435 16.7 6.57333C16.8738 6.41231 17.0789 6.28894 17.3027 6.21094C17.5264 6.13293 17.7638 6.10199 18 6.12004H18.13C19.9608 6.20165 21.6887 6.99002 22.9503 8.31936C24.2118 9.64871 24.9088 11.4154 24.8945 13.2481C24.8803 15.0807 24.1559 16.8364 22.8739 18.1459C21.5918 19.4555 19.8519 20.2169 18.02 20.27C16.6797 20.2695 15.3678 19.8843 14.24 19.16L14 19C12.9613 18.288 12.1321 17.311 11.5981 16.1705C11.0642 15.03 10.845 13.7674 10.9633 12.5137C11.0817 11.2599 11.5332 10.0607 12.2711 9.0402C13.009 8.01973 14.0065 7.21521 15.16 6.71004C15.021 7.06741 14.9465 7.44663 14.94 7.83004C14.9399 8.64533 15.261 9.42782 15.8338 10.008C16.4065 10.5883 17.1848 10.9195 18 10.93V10.93Z" fill="#222222"/>
<path id="Vector_2" d="M14.6201 15.6301C14.6201 16.5265 14.9762 17.3862 15.6101 18.0201C16.244 18.654 17.1037 19.0101 18.0001 19.0101C18.8965 19.0101 19.7563 18.654 20.3901 18.0201C21.024 17.3862 21.3801 16.5265 21.3801 15.6301C21.3918 15.5332 21.3829 15.4349 21.3538 15.3417C21.3248 15.2485 21.2762 15.1626 21.2115 15.0895C21.1468 15.0165 21.0673 14.958 20.9782 14.9179C20.8892 14.8779 20.7927 14.8572 20.6951 14.8572C20.5975 14.8572 20.501 14.8779 20.412 14.9179C20.323 14.958 20.2435 15.0165 20.1787 15.0895C20.114 15.1626 20.0655 15.2485 20.0364 15.3417C20.0074 15.4349 19.9984 15.5332 20.0101 15.6301C20.0101 16.1605 19.7994 16.6692 19.4243 17.0443C19.0493 17.4194 18.5406 17.6301 18.0101 17.6301C17.4797 17.6301 16.971 17.4194 16.5959 17.0443C16.2208 16.6692 16.0101 16.1605 16.0101 15.6301C16.0218 15.5332 16.0129 15.4349 15.9838 15.3417C15.9548 15.2485 15.9062 15.1626 15.8415 15.0895C15.7768 15.0165 15.6973 14.958 15.6082 14.9179C15.5192 14.8779 15.4227 14.8572 15.3251 14.8572C15.2275 14.8572 15.131 14.8779 15.042 14.9179C14.953 14.958 14.8735 15.0165 14.8087 15.0895C14.744 15.1626 14.6955 15.2485 14.6664 15.3417C14.6374 15.4349 14.6284 15.5332 14.6401 15.6301H14.6201Z" fill="#222222"/>
</g>
</svg>
