<svg width="36" height="36" viewBox="0 0 36 36" fill="none" xmlns="http://www.w3.org/2000/svg">
<g id="xmas tree_M 1">
<path id="Vector" d="M34.9999 34.05L23.7999 21.62H29.9399C30.0728 21.6192 30.2025 21.58 30.3137 21.5073C30.4248 21.4345 30.5126 21.3312 30.5664 21.2098C30.6203 21.0883 30.6379 20.9539 30.6173 20.8227C30.5966 20.6915 30.5385 20.569 30.4499 20.47L20.3199 9.21001C21.1702 8.7051 21.8324 7.93635 22.2059 7.02063C22.5793 6.10492 22.6435 5.09232 22.3887 4.13677C22.1339 3.18123 21.5741 2.335 20.7944 1.72673C20.0147 1.11846 19.0577 0.781423 18.0688 0.766851C17.08 0.752279 16.1135 1.06097 15.3162 1.646C14.5189 2.23103 13.9344 3.06039 13.6516 4.00802C13.3687 4.95564 13.4031 5.96969 13.7493 6.89601C14.0956 7.82233 14.7349 8.61026 15.5699 9.14001L5.37994 20.47C5.28844 20.5673 5.22813 20.6898 5.20675 20.8217C5.18537 20.9535 5.20389 21.0888 5.25994 21.21C5.31407 21.3319 5.40239 21.4356 5.51421 21.5083C5.62602 21.5811 5.75653 21.6199 5.88994 21.62H12.1999L0.999935 34.05C0.911375 34.149 0.853277 34.2715 0.832616 34.4027C0.811955 34.5339 0.829611 34.6683 0.883463 34.7898C0.937315 34.9112 1.02507 35.0145 1.1362 35.0873C1.24733 35.16 1.3771 35.1992 1.50994 35.2H34.5099C34.6411 35.1955 34.7682 35.1536 34.8764 35.0794C34.9846 35.0052 35.0694 34.9016 35.1208 34.7809C35.1722 34.6602 35.1882 34.5273 35.1668 34.3979C35.1454 34.2684 35.0875 34.1477 34.9999 34.05V34.05ZM17.9999 2.15001C18.6277 2.14804 19.242 2.33252 19.7648 2.68009C20.2877 3.02765 20.6955 3.52263 20.9367 4.10228C21.1779 4.68193 21.2415 5.32014 21.1195 5.93599C20.9975 6.55184 20.6954 7.11759 20.2514 7.56153C19.8075 8.00546 19.2418 8.30758 18.6259 8.42957C18.0101 8.55157 17.3719 8.48795 16.7922 8.24678C16.2126 8.00561 15.7176 7.59776 15.37 7.07492C15.0224 6.55209 14.838 5.93783 14.8399 5.31001C14.8426 4.47274 15.1763 3.67051 15.7684 3.07847C16.3604 2.48643 17.1627 2.15265 17.9999 2.15001V2.15001ZM3.05994 33.83L14.2499 21.39C14.3414 21.2927 14.4017 21.1702 14.4231 21.0384C14.4445 20.9065 14.426 20.7713 14.3699 20.65C14.3158 20.5281 14.2275 20.4245 14.1157 20.3517C14.0039 20.2789 13.8733 20.2401 13.7399 20.24H7.42993L16.8999 9.71001C17.2594 9.80205 17.6289 9.84908 17.9999 9.85001C18.3191 9.84802 18.6373 9.81453 18.9499 9.75001L28.3899 20.24H22.2599C22.1265 20.2401 21.996 20.2789 21.8842 20.3517C21.7724 20.4245 21.6841 20.5281 21.6299 20.65C21.5739 20.7713 21.5554 20.9065 21.5768 21.0384C21.5981 21.1702 21.6584 21.2927 21.7499 21.39L32.9399 33.83H3.05994Z" fill="#222222"/>
</g>
</svg>
