<svg width="36" height="36" viewBox="0 0 36 36" fill="none" xmlns="http://www.w3.org/2000/svg">
<g id="suitcase_M 1">
<path id="Vector" d="M34.52 9.5401H24.52V9.4101C24.52 7.67028 23.8288 6.00172 22.5986 4.77148C21.3683 3.54124 19.6998 2.8501 17.96 2.8501C16.2201 2.8501 14.5516 3.54124 13.3213 4.77148C12.0911 6.00172 11.4 7.67028 11.4 9.4101V9.5401H1.39996C1.21696 9.5401 1.04146 9.61279 0.912057 9.74219C0.782657 9.87159 0.709961 10.0471 0.709961 10.2301V32.4601C0.709951 32.5502 0.727866 32.6395 0.762663 32.7227C0.797459 32.8058 0.848444 32.8812 0.912651 32.9445C0.976858 33.0078 1.05301 33.0577 1.13666 33.0912C1.22032 33.1248 1.30982 33.1414 1.39996 33.1401H34.4C34.4901 33.1414 34.5796 33.1248 34.6633 33.0912C34.7469 33.0577 34.8231 33.0078 34.8873 32.9445C34.9515 32.8812 35.0025 32.8058 35.0373 32.7227C35.0721 32.6395 35.09 32.5502 35.09 32.4601V10.2301C35.0925 10.0661 35.0365 9.90659 34.932 9.78015C34.8276 9.6537 34.6815 9.5686 34.52 9.5401ZM12.82 9.4101C12.82 8.03628 13.3657 6.71872 14.3371 5.74728C15.3086 4.77585 16.6261 4.2301 18 4.2301C19.3738 4.2301 20.6913 4.77585 21.6628 5.74728C22.6342 6.71872 23.18 8.03628 23.18 9.4101V9.5201H12.82V9.4101ZM33.82 10.9201V17.6301H2.15996V10.9201H33.82ZM2.15996 31.7701V19.0001H33.84V31.7701H2.15996Z" fill="#222222"/>
<path id="Vector_2" d="M21.11 21.26H14.92C14.737 21.26 14.5615 21.3327 14.4321 21.4621C14.3027 21.5915 14.23 21.767 14.23 21.95C14.23 22.133 14.3027 22.3085 14.4321 22.4379C14.5615 22.5673 14.737 22.64 14.92 22.64H21.11C21.293 22.64 21.4685 22.5673 21.5979 22.4379C21.7273 22.3085 21.8 22.133 21.8 21.95C21.8 21.767 21.7273 21.5915 21.5979 21.4621C21.4685 21.3327 21.293 21.26 21.11 21.26V21.26Z" fill="#222222"/>
</g>
</svg>
