<svg width="36" height="36" viewBox="0 0 36 36" fill="none" xmlns="http://www.w3.org/2000/svg">
<g id="battery_M 1">
<path id="Vector" d="M34.52 13.7401H31.9C31.9 13.7401 31.86 13.7501 31.84 13.7501V9.5401C31.84 9.1601 31.53 8.8501 31.15 8.8501H1.47998C1.09998 8.8501 0.789978 9.1601 0.789978 9.5401V26.4601C0.789978 26.8401 1.09998 27.1501 1.47998 27.1501H31.16C31.54 27.1501 31.85 26.8401 31.85 26.4601V22.2601H34.53C34.91 22.2601 35.22 21.9501 35.22 21.5701V14.4301C35.22 14.0501 34.91 13.7401 34.53 13.7401H34.52ZM2.16998 10.2301H19.92L14.88 25.7101C14.88 25.7101 14.88 25.7501 14.88 25.7801H2.16998V10.2301ZM30.47 25.7701H16.31L21.35 10.2901C21.35 10.2901 21.35 10.2501 21.35 10.2201H30.46V25.7601L30.47 25.7701ZM33.84 20.8801H31.85V15.1101C31.85 15.1101 31.89 15.1201 31.91 15.1201H33.84V20.8801Z" fill="#222222"/>
</g>
</svg>
