<svg width="36" height="36" viewBox="0 0 36 36" fill="none" xmlns="http://www.w3.org/2000/svg">
<g id="energy care_M 1">
<g id="Group">
<path id="Vector" d="M21.67 30.3901H14.79C14.41 30.3901 14.1 30.7001 14.1 31.0801C14.1 31.4601 14.41 31.7701 14.79 31.7701H21.67C22.05 31.7701 22.36 31.4601 22.36 31.0801C22.36 30.7001 22.05 30.3901 21.67 30.3901Z" fill="#222222"/>
<path id="Vector_2" d="M19.38 33.8301H17.09C16.71 33.8301 16.4 34.1401 16.4 34.5201C16.4 34.9001 16.71 35.2101 17.09 35.2101H19.38C19.76 35.2101 20.07 34.9001 20.07 34.5201C20.07 34.1401 19.76 33.8301 19.38 33.8301Z" fill="#222222"/>
<path id="Vector_3" d="M29.09 11.8801C29.09 8.82008 27.87 5.97008 25.66 3.86008C23.45 1.75008 20.54 0.660076 17.48 0.800076C11.67 1.07008 6.93001 6.02008 6.91001 11.8401C6.90001 15.7201 8.86001 19.2601 12.17 21.3101H12.19C13 22.0101 13.56 23.0701 13.6 23.9501V27.6301C13.6 28.0101 13.91 28.3201 14.29 28.3201H22.17C22.55 28.3201 22.86 28.0101 22.86 27.6301V24.3601C22.86 24.1001 22.86 23.8401 22.86 23.5801C22.85 22.5701 22.86 21.9801 23.44 21.5701C23.47 21.5501 23.49 21.5201 23.51 21.4901C26.95 19.5101 29.09 15.8501 29.09 11.8701V11.8801ZM22.69 20.3901C22.59 20.4501 22.51 20.5301 22.46 20.6201C21.48 21.4601 21.48 22.6001 21.49 23.6201C21.49 23.8501 21.49 24.0901 21.49 24.3501V26.9601H14.99V23.9401C14.94 22.5801 14.17 21.1401 12.99 20.1801C12.94 20.1401 12.89 20.1201 12.84 20.1001C9.99001 18.3001 8.30001 15.2301 8.31001 11.8601C8.33001 6.76008 12.48 2.43008 17.56 2.19008C20.24 2.06008 22.79 3.02008 24.72 4.87008C26.66 6.72008 27.72 9.21008 27.72 11.8901C27.72 15.4301 25.8 18.6901 22.7 20.4001L22.69 20.3901Z" fill="#222222"/>
<path id="Vector_4" d="M24.93 8.12996C24.02 6.84996 22.36 6.16996 20.8 6.44996C19.74 6.63996 18.72 7.33996 18 8.31996C17.28 7.33996 16.26 6.63996 15.2 6.44996C13.64 6.16996 11.98 6.83996 11.07 8.12996C10.58 8.82996 10.31 9.67996 10.33 10.54C10.35 11.75 10.95 12.68 11.55 13.45L13.89 16.28C14.31 16.78 14.72 17.28 15.13 17.78L17.47 20.63C17.6 20.79 17.8 20.88 18 20.88C18.2 20.88 18.4 20.79 18.53 20.63L20.87 17.78C21.28 17.29 21.69 16.79 22.14 16.25L24.43 13.48C25.03 12.71 25.64 11.77 25.66 10.55C25.67 9.68996 25.41 8.82996 24.92 8.13996L24.93 8.12996ZM23.37 12.6L21.05 15.41C20.64 15.91 20.22 16.41 19.81 16.9L18 19.1L16.19 16.9C15.78 16.4 15.36 15.9 14.95 15.4L12.63 12.59C12.09 11.9 11.72 11.28 11.71 10.53C11.71 9.95996 11.87 9.39996 12.2 8.93996C12.71 8.20996 13.59 7.77996 14.48 7.77996C14.64 7.77996 14.8 7.78996 14.96 7.81996C15.93 7.98996 16.89 8.85996 17.37 9.97996C17.48 10.23 17.73 10.4 18 10.4C18.27 10.4 18.53 10.24 18.63 9.97996C19.11 8.85996 20.08 7.98996 21.04 7.81996C22.09 7.62996 23.19 8.07996 23.8 8.93996C24.13 9.39996 24.3 9.95996 24.29 10.53C24.28 11.29 23.91 11.91 23.36 12.61L23.37 12.6Z" fill="#222222"/>
</g>
</g>
</svg>
