<svg width="36" height="36" viewBox="0 0 36 36" fill="none" xmlns="http://www.w3.org/2000/svg">
<g id="storage_M 1">
<g id="Group">
<path id="Vector" d="M34.52 29.97H33.94V24.76C33.94 23.85 33.2 23.11 32.29 23.11H22.93C22.55 23.11 22.24 23.42 22.24 23.8C22.24 24.18 22.55 24.49 22.93 24.49H24.26C24.1 27.67 21.6 30.03 18.32 30.03H8.14C4.75 30.03 2.19 27.51 2.19 24.16C2.19 20.81 4.75 18.29 8.14 18.29H21.52V18.7C21.52 19.08 21.83 19.39 22.21 19.39C22.59 19.39 22.9 19.08 22.9 18.7V18.29H26.16C26.54 18.29 26.85 17.98 26.85 17.6V10.06L29.46 9.38001C29.83 9.28001 30.05 8.91001 29.95 8.54001C29.85 8.17001 29.48 7.95001 29.11 8.05001L23.02 9.63001C22.65 9.73001 22.43 10.1 22.53 10.47C22.61 10.78 22.89 10.99 23.2 10.99C23.26 10.99 23.32 10.99 23.37 10.97L25.48 10.42V16.91H22.9V16.37C22.9 15.99 22.59 15.68 22.21 15.68C21.83 15.68 21.52 15.99 21.52 16.37V16.91H8.14C3.96 16.91 0.809998 20.03 0.809998 24.16C0.809998 28.04 3.59 31.02 7.38 31.37V33.85H5.81C5.43 33.85 5.12 34.16 5.12 34.54C5.12 34.92 5.43 35.23 5.81 35.23H8.07C8.45 35.23 8.76 34.92 8.76 34.54V31.4H17.64V34.54C17.64 34.92 17.95 35.23 18.33 35.23H20.59C20.97 35.23 21.28 34.92 21.28 34.54C21.28 34.16 20.97 33.85 20.59 33.85H19.02V31.37C22.74 31.06 25.49 28.22 25.64 24.49H32.3C32.45 24.49 32.57 24.61 32.57 24.76V29.97H31.74C31.36 29.97 31.05 30.28 31.05 30.66C31.05 31.04 31.36 31.35 31.74 31.35H34.52C34.9 31.35 35.21 31.04 35.21 30.66C35.21 30.28 34.9 29.97 34.52 29.97V29.97Z" fill="#222222"/>
<path id="Vector_2" d="M29.07 5.15988L22.98 6.73988C22.61 6.83988 22.39 7.20988 22.49 7.57988C22.57 7.88988 22.85 8.09988 23.16 8.09988C23.22 8.09988 23.28 8.09988 23.33 8.07988L29.42 6.49988C29.79 6.39988 30.01 6.02988 29.91 5.65988C29.81 5.28988 29.44 5.06988 29.07 5.16988V5.15988Z" fill="#222222"/>
<path id="Vector_3" d="M22.45 5.03008C22.53 5.34008 22.81 5.55008 23.12 5.55008C23.18 5.55008 23.24 5.55008 23.29 5.53008L29.38 3.95008C29.75 3.85008 29.97 3.48008 29.87 3.11008C29.77 2.74008 29.4 2.52008 29.03 2.62008L22.94 4.20008C22.57 4.30008 22.35 4.67008 22.45 5.04008V5.03008Z" fill="#222222"/>
<path id="Vector_4" d="M23.06 2.89997C23.12 2.89997 23.18 2.89997 23.24 2.87997L25.91 2.15997C26.28 2.05997 26.49 1.67997 26.4 1.31997C26.31 0.959965 25.92 0.739965 25.56 0.829965L22.89 1.54996C22.52 1.64996 22.31 2.02997 22.4 2.38997C22.48 2.69997 22.76 2.89997 23.06 2.89997V2.89997Z" fill="#222222"/>
<path id="Vector_5" d="M17.06 22.28C16.47 21.87 15.68 21.76 15 21.99C14.77 22.07 14.55 22.17 14.34 22.27C14.07 22.4 13.83 22.51 13.58 22.54C12.99 22.62 12.4 22.41 11.79 21.93C11.49 21.69 11.06 21.74 10.82 22.04C10.58 22.34 10.63 22.77 10.93 23.01C11.7 23.63 12.51 23.94 13.34 23.94C13.48 23.94 13.62 23.94 13.76 23.91C14.23 23.85 14.61 23.67 14.94 23.52C15.1 23.44 15.27 23.36 15.45 23.3C15.73 23.21 16.06 23.25 16.3 23.42C16.61 23.64 17.04 23.56 17.26 23.25C17.48 22.94 17.4 22.51 17.09 22.29L17.06 22.28Z" fill="#222222"/>
<path id="Vector_6" d="M14.92 25.1499C14.69 25.2299 14.47 25.3299 14.26 25.4299C13.99 25.5599 13.75 25.6699 13.5 25.6999C12.9 25.7799 12.32 25.5699 11.71 25.0899C11.41 24.8499 10.98 24.8999 10.74 25.1999C10.5 25.4999 10.55 25.9299 10.85 26.1699C11.62 26.7899 12.43 27.0999 13.25 27.0999C13.39 27.0999 13.53 27.0999 13.67 27.0699C14.14 27.0099 14.52 26.8299 14.85 26.6799C15.01 26.5999 15.18 26.5199 15.36 26.4599C15.64 26.3699 15.97 26.4099 16.21 26.5799C16.52 26.7999 16.95 26.7199 17.17 26.3999C17.39 26.0899 17.31 25.6599 16.99 25.4399C16.4 25.0299 15.61 24.9199 14.93 25.1499H14.92Z" fill="#222222"/>
</g>
</g>
</svg>
