<svg width="36" height="36" viewBox="0 0 36 36" fill="none" xmlns="http://www.w3.org/2000/svg">
<g id="electricity_M_1 1">
<path id="Vector" d="M13.87 35.2099C13.79 35.2099 13.71 35.1999 13.63 35.1699C13.32 35.0599 13.14 34.7399 13.19 34.4199L15.13 21.9899H9.74C9.49 21.9899 9.26 21.8499 9.14 21.6399C9.02 21.4199 9.03 21.1499 9.16 20.9399L21.55 1.10991C21.72 0.829908 22.07 0.719908 22.37 0.829908C22.68 0.939908 22.86 1.25991 22.81 1.57991L20.87 14.0099H26.26C26.51 14.0099 26.74 14.1499 26.86 14.3599C26.98 14.5799 26.97 14.8499 26.84 15.0599L14.45 34.8899C14.32 35.0999 14.1 35.2099 13.87 35.2099V35.2099ZM10.98 20.6199H15.94C16.14 20.6199 16.33 20.7099 16.46 20.8599C16.59 21.0099 16.65 21.2099 16.62 21.4099L15.07 31.3099L25.03 15.3799H20.07C19.87 15.3799 19.68 15.2899 19.55 15.1399C19.42 14.9899 19.36 14.7899 19.39 14.5899L20.94 4.68991L10.98 20.6199V20.6199Z" fill="#222222"/>
</g>
</svg>
