<svg width="36" height="36" viewBox="0 0 36 36" fill="none" xmlns="http://www.w3.org/2000/svg">
<g id="distribution_M 1">
<g id="Group">
<path id="Vector" d="M34.52 24.08H31.22V23.6399C31.22 23.2599 30.91 22.95 30.53 22.95C30.15 22.95 29.84 23.2599 29.84 23.6399V24.08H25.8C25.42 24.08 25.11 24.39 25.11 24.77C25.11 25.15 25.42 25.4599 25.8 25.4599H29.84V25.9C29.84 26.28 30.15 26.59 30.53 26.59C30.91 26.59 31.22 26.28 31.22 25.9V25.4599H34.52C34.9 25.4599 35.21 25.15 35.21 24.77C35.21 24.39 34.9 24.08 34.52 24.08Z" fill="#222222"/>
<path id="Vector_2" d="M22.4 9.46007H20.99V4.20007H27.52V17.7901C27.52 18.1701 27.83 18.4801 28.21 18.4801H34.47C34.85 18.4801 35.16 18.1701 35.16 17.7901C35.16 17.4101 34.85 17.1001 34.47 17.1001H28.9V3.51007C28.9 3.13007 28.59 2.82007 28.21 2.82007H20.31C19.93 2.82007 19.62 3.13007 19.62 3.51007V9.46007H1.48004C1.10004 9.46007 0.790039 9.77007 0.790039 10.1501C0.790039 10.5301 1.10004 10.8401 1.48004 10.8401H2.79004V32.4901C2.79004 32.8701 3.10004 33.1801 3.48004 33.1801H20.3C20.68 33.1801 20.99 32.8701 20.99 32.4901V10.8401H22.4C22.78 10.8401 23.09 10.5301 23.09 10.1501C23.09 9.77007 22.78 9.46007 22.4 9.46007V9.46007ZM4.17004 31.8001V10.8401H19.61V16.2901H12.22C11.84 16.2901 11.53 16.6001 11.53 16.9801C11.53 17.3601 11.84 17.6701 12.22 17.6701H19.61V24.0101H12.26C11.88 24.0101 11.57 24.3201 11.57 24.7001C11.57 25.0801 11.88 25.3901 12.26 25.3901H19.61V31.8101H4.17004V31.8001Z" fill="#222222"/>
</g>
</g>
</svg>
