<svg width="36" height="36" viewBox="0 0 36 36" fill="none" xmlns="http://www.w3.org/2000/svg">
<g id="green energy_M 1">
<g id="Group">
<path id="Vector" d="M19.07 30.3899H12.18C11.8 30.3899 11.49 30.6999 11.49 31.0799C11.49 31.4599 11.8 31.7699 12.18 31.7699H19.07C19.45 31.7699 19.76 31.4599 19.76 31.0799C19.76 30.6999 19.45 30.3899 19.07 30.3899Z" fill="#222222"/>
<path id="Vector_2" d="M16.7799 33.8301H14.4899C14.1099 33.8301 13.7999 34.1401 13.7999 34.5201C13.7999 34.9001 14.1099 35.2101 14.4899 35.2101H16.7799C17.1599 35.2101 17.4699 34.9001 17.4699 34.5201C17.4699 34.1401 17.1599 33.8301 16.7799 33.8301Z" fill="#222222"/>
<path id="Vector_3" d="M31.51 7.49C31.45 7.14 31.12 6.89 30.78 6.92C29.63 7.01 28.45 6.95 27.3 6.9C26.63 6.87 25.95 6.84 25.27 6.83C23.29 2.96 19.21 0.590003 14.87 0.800003C9.05996 1.07 4.31996 6.02 4.29996 11.84C4.28996 15.72 6.24997 19.26 9.55997 21.31C9.55997 21.31 9.57996 21.31 9.58996 21.32C10.4 22.02 10.96 23.07 10.99 23.96V27.64C10.99 28.02 11.3 28.33 11.68 28.33H19.56C19.94 28.33 20.25 28.02 20.25 27.64V24.37C20.25 24.11 20.25 23.85 20.25 23.59C20.24 22.58 20.25 21.99 20.8 21.6L21.33 21.26C22.14 21.26 22.94 21.15 23.68 20.95C29.1 19.49 32.53 13.58 31.5 7.5L31.51 7.49ZM18.88 24.34V26.95H12.38V23.93C12.33 22.57 11.56 21.13 10.38 20.17C10.33 20.13 10.28 20.11 10.23 20.09C7.37996 18.29 5.68996 15.22 5.69996 11.85C5.71996 6.75 9.86996 2.42 14.95 2.18C18.55 2.02 21.91 3.84 23.74 6.88C23.49 6.9 23.25 6.91 23 6.94C20.04 7.32 17.84 8.76 16.65 11.09C15.39 13.56 14.97 16.5 15.46 19.36C15.46 19.36 15.46 19.37 15.46 19.38C15.48 19.46 15.51 19.54 15.56 19.61C15.56 19.62 15.56 19.63 15.57 19.64C15.62 19.71 15.69 19.78 15.77 19.83H15.79C16.89 20.46 18.13 20.88 19.39 21.09C18.86 21.86 18.86 22.77 18.88 23.6C18.88 23.83 18.88 24.07 18.88 24.33V24.34ZM23.33 19.61C21.41 20.13 19.1 19.88 17.14 18.98C18.76 16.61 21 14.78 23.68 13.69L25.32 13.02C25.67 12.88 25.84 12.47 25.7 12.12C25.56 11.77 25.15 11.6 24.8 11.74L23.16 12.41C20.57 13.47 18.35 15.15 16.65 17.32C16.6 15.34 17.02 13.4 17.88 11.71C19.11 9.3 21.44 8.53 23.17 8.3C24.51 8.13 25.84 8.19 27.24 8.26C28.22 8.31 29.23 8.35 30.24 8.32C30.75 12.91 28.4 18.23 23.33 19.6V19.61Z" fill="#222222"/>
</g>
</g>
</svg>
