<svg width="36" height="36" viewBox="0 0 36 36" fill="none" xmlns="http://www.w3.org/2000/svg">
<g id="light pole_ M 1">
<path id="Vector" d="M32.49 0.820039L3.51001 0.790039C3.13001 0.790039 2.82001 1.10004 2.82001 1.48004C2.82001 1.86004 3.13001 2.17004 3.51001 2.17004H3.58001C3.58001 2.17004 3.57001 2.21004 3.57001 2.23004V3.26004C3.57001 4.77004 4.78001 6.00004 6.27001 6.00004H8.24001C9.73001 6.00004 10.94 4.77004 10.94 3.26004V2.23004C10.94 2.23004 10.94 2.19004 10.93 2.18004H17.25V8.45004H15.4C15.02 8.45004 14.71 8.76004 14.71 9.14004V34.52C14.71 34.9 15.03 35.22 15.41 35.22H20.25C20.7 35.22 21.06 34.86 21.06 34.41V9.13004C21.06 8.75004 20.75 8.44004 20.37 8.44004H18.63V2.18004H24.91C24.91 2.18004 24.9 2.23004 24.9 2.26004V3.29004C24.9 4.80004 26.11 6.03004 27.6 6.03004H29.57C31.06 6.03004 32.27 4.80004 32.27 3.29004V2.26004C32.27 2.26004 32.26 2.22004 32.26 2.20004H32.49C32.87 2.20004 33.18 1.89004 33.18 1.51004C33.18 1.13004 32.87 0.820039 32.49 0.820039V0.820039ZM19.68 33.84H16.09V9.82004H19.68V33.84ZM9.57001 2.23004V3.26004C9.57001 4.01004 8.98001 4.62004 8.24001 4.62004H6.27001C5.54001 4.62004 4.95001 4.01004 4.95001 3.26004V2.23004C4.95001 2.23004 4.94001 2.19004 4.94001 2.17004H9.59001C9.59001 2.17004 9.58001 2.21004 9.58001 2.23004H9.57001ZM30.9 2.26004V3.29004C30.9 4.04004 30.31 4.65004 29.57 4.65004H27.6C26.87 4.65004 26.28 4.04004 26.28 3.29004V2.26004C26.28 2.26004 26.27 2.22004 26.27 2.19004H30.92C30.92 2.19004 30.91 2.24004 30.91 2.26004H30.9Z" fill="#222222"/>
</g>
</svg>
