<svg width="36" height="36" viewBox="0 0 36 36" fill="none" xmlns="http://www.w3.org/2000/svg">
<g id="light off_M 1">
<g id="Group">
<path id="Vector" d="M21.65 30.3901H14.76C14.38 30.3901 14.07 30.7001 14.07 31.0801C14.07 31.4601 14.38 31.7701 14.76 31.7701H21.65C22.03 31.7701 22.34 31.4601 22.34 31.0801C22.34 30.7001 22.03 30.3901 21.65 30.3901Z" fill="#222222"/>
<path id="Vector_2" d="M19.36 33.8301H17.07C16.69 33.8301 16.38 34.1401 16.38 34.5201C16.38 34.9001 16.69 35.2101 17.07 35.2101H19.36C19.74 35.2101 20.05 34.9001 20.05 34.5201C20.05 34.1401 19.74 33.8301 19.36 33.8301Z" fill="#222222"/>
<path id="Vector_3" d="M29.86 2.17007C29.86 1.99007 29.79 1.82007 29.66 1.68007C29.39 1.41007 28.95 1.41007 28.69 1.68007L26.07 4.30007C25.93 4.15007 25.8 4.00007 25.65 3.85007C23.44 1.74007 20.54 0.650066 17.47 0.790066C11.66 1.06007 6.92001 6.01007 6.90001 11.8301C6.90001 14.9701 8.17001 17.8801 10.4 19.9601L6.34001 24.0201C6.21001 24.1501 6.14001 24.3301 6.14001 24.5101C6.14001 24.6901 6.21001 24.8601 6.34001 25.0001C6.47001 25.1401 6.65001 25.2001 6.83001 25.2001C7.01001 25.2001 7.18001 25.1301 7.32001 25.0001L11.47 20.8501C11.69 21.0101 11.92 21.1701 12.15 21.3101H12.17C12.98 22.0101 13.54 23.0701 13.58 23.9501V27.6301C13.58 28.0101 13.89 28.3201 14.27 28.3201H22.15C22.53 28.3201 22.84 28.0101 22.84 27.6301V24.3601C22.84 24.1001 22.84 23.8401 22.84 23.5801C22.83 22.5701 22.84 21.9801 23.42 21.5601C23.45 21.5401 23.47 21.5101 23.49 21.4801C26.93 19.5001 29.07 15.8401 29.07 11.8601C29.07 9.48007 28.32 7.23007 26.95 5.35007L29.66 2.64007C29.79 2.51007 29.86 2.33007 29.86 2.15007V2.17007ZM8.27002 11.8501C8.29002 6.75007 12.44 2.42007 17.52 2.18007C20.21 2.06007 22.75 3.01007 24.68 4.86007C24.82 5.00007 24.95 5.14007 25.08 5.28007L11.36 19.0001C9.38001 17.1701 8.25002 14.6101 8.26002 11.8501H8.27002ZM27.69 11.8801C27.69 15.4201 25.77 18.6801 22.67 20.3901C22.57 20.4501 22.49 20.5301 22.44 20.6201C21.45 21.4601 21.46 22.6001 21.47 23.6201C21.47 23.8501 21.47 24.0901 21.47 24.3501V26.9601H14.97V23.9401C14.92 22.5801 14.15 21.1401 12.97 20.1801C12.92 20.1401 12.87 20.1201 12.82 20.1001C12.7 20.0201 12.58 19.9501 12.47 19.8701L25.97 6.35007C27.09 7.96007 27.69 9.87007 27.69 11.8801V11.8801Z" fill="#222222"/>
</g>
</g>
</svg>
