<svg width="36" height="36" viewBox="0 0 36 36" fill="none" xmlns="http://www.w3.org/2000/svg">
<g id="change fund_M 1">
<g id="Group">
<path id="Vector" d="M34.4198 15.78H1.46979C1.08979 15.78 0.779785 16.09 0.779785 16.47V34.45C0.779785 34.83 1.08979 35.14 1.46979 35.14H34.4198C34.7998 35.14 35.1098 34.83 35.1098 34.45V16.46C35.1098 16.08 34.7998 15.77 34.4198 15.77V15.78ZM33.7298 33.76H2.15979V17.15H33.7298V33.75V33.76Z" fill="#222222"/>
<path id="Vector_2" d="M25.7598 32.2801H30.3698C30.7498 32.2801 31.0598 31.9701 31.0598 31.5901C31.0598 31.2101 30.7498 30.9001 30.3698 30.9001H25.7598C25.3798 30.9001 25.0698 31.2101 25.0698 31.5901C25.0698 31.9701 25.3798 32.2801 25.7598 32.2801Z" fill="#222222"/>
<path id="Vector_3" d="M5.52984 20.0201H10.1398C10.5198 20.0201 10.8298 19.7101 10.8298 19.3301C10.8298 18.9501 10.5198 18.6401 10.1398 18.6401H5.52984C5.14984 18.6401 4.83984 18.9501 4.83984 19.3301C4.83984 19.7101 5.14984 20.0201 5.52984 20.0201V20.0201Z" fill="#222222"/>
<path id="Vector_4" d="M10.1697 23.99C10.1697 24.37 10.4797 24.68 10.8597 24.68H11.9497C11.9097 25.11 11.9097 25.55 11.9497 25.98H10.8597C10.4797 25.98 10.1697 26.29 10.1697 26.67C10.1697 27.05 10.4797 27.36 10.8597 27.36H12.2297C12.5397 28.34 13.0797 29.26 13.8497 30.03C15.1397 31.32 16.8397 31.97 18.5397 31.97C20.2397 31.97 21.9397 31.32 23.2297 30.03C23.4997 29.76 23.4997 29.33 23.2297 29.06C22.9597 28.79 22.5297 28.79 22.2597 29.06C20.2097 31.11 16.8697 31.11 14.8197 29.06C14.3197 28.56 13.9397 27.98 13.6797 27.36H18.6197C18.9997 27.36 19.3097 27.05 19.3097 26.67C19.3097 26.29 18.9997 25.98 18.6197 25.98H13.3197C13.2697 25.55 13.2697 25.11 13.3197 24.68H18.6097C18.9897 24.68 19.2997 24.37 19.2997 23.99C19.2997 23.61 18.9897 23.3 18.6097 23.3H13.6797C13.9397 22.69 14.3097 22.12 14.8097 21.62C16.8597 19.57 20.1997 19.57 22.2497 21.62C22.5197 21.89 22.9497 21.89 23.2197 21.62C23.4897 21.35 23.4897 20.92 23.2197 20.65C20.6297 18.06 16.4297 18.06 13.8397 20.65C13.0697 21.42 12.5397 22.33 12.2297 23.3H10.8497C10.4697 23.3 10.1597 23.61 10.1597 23.99H10.1697Z" fill="#222222"/>
<path id="Vector_5" d="M20.7397 7.73012C20.8697 7.92012 21.0797 8.02012 21.2997 8.02012C21.4397 8.02012 21.5797 7.98012 21.6997 7.89012L24.0297 6.22012C24.3397 6.00012 24.4097 5.57012 24.1897 5.26012C23.9697 4.95012 23.5397 4.88012 23.2297 5.10012L22.2797 5.78012C22.8797 3.74012 24.7697 2.24012 27.0097 2.24012C29.0897 2.24012 30.9597 3.56012 31.6597 5.52012C31.7897 5.88012 32.1797 6.06012 32.5397 5.94012C32.8997 5.81012 33.0797 5.42012 32.9597 5.06012C32.0697 2.55012 29.6797 0.870117 27.0197 0.870117C24.0897 0.870117 21.6197 2.89012 20.9197 5.60012L20.1997 4.60012C19.9797 4.29012 19.5497 4.22012 19.2397 4.44012C18.9297 4.66012 18.8597 5.09012 19.0797 5.40012L20.7497 7.73012H20.7397Z" fill="#222222"/>
<path id="Vector_6" d="M32.6299 6.90001L30.2099 8.43001C29.8899 8.63001 29.7899 9.06001 29.9999 9.38001C30.1999 9.70001 30.6299 9.80001 30.9499 9.59001L31.9099 8.98001C31.3199 11.05 29.4199 12.57 27.1699 12.57C25.0399 12.57 23.1599 11.21 22.4899 9.19001C22.3699 8.83001 21.9799 8.63001 21.6199 8.75001C21.2599 8.87001 21.0599 9.26001 21.1799 9.62001C22.0399 12.21 24.4399 13.94 27.1699 13.94C30.1099 13.94 32.5799 11.91 33.2799 9.18001L33.9599 10.25C34.0899 10.46 34.3099 10.57 34.5399 10.57C34.6699 10.57 34.7899 10.54 34.9099 10.46C35.2299 10.26 35.3299 9.83001 35.1199 9.51001L33.5899 7.09001C33.3899 6.77001 32.9599 6.67001 32.6399 6.88001L32.6299 6.90001Z" fill="#222222"/>
</g>
</g>
</svg>
