<svg width="36" height="36" viewBox="0 0 36 36" fill="none" xmlns="http://www.w3.org/2000/svg">
<g id="exchange_M 1">
<g id="Group">
<path id="Vector" d="M25.1299 17.7898H21.3599C20.9799 17.7898 20.6699 18.0998 20.6699 18.4798C20.6699 18.8598 20.9799 19.1698 21.3599 19.1698H25.1299C25.5099 19.1698 25.8199 18.8598 25.8199 18.4798C25.8199 18.0998 25.5099 17.7898 25.1299 17.7898Z" fill="#222222"/>
<path id="Vector_2" d="M9.2501 8.44C9.2501 8.06 8.9401 7.75 8.5601 7.75H4.7901C4.4101 7.75 4.1001 8.06 4.1001 8.44C4.1001 8.82 4.4101 9.13 4.7901 9.13H8.5601C8.9401 9.13 9.2501 8.82 9.2501 8.44Z" fill="#222222"/>
<path id="Vector_3" d="M15.45 9.1798C16.57 9.1798 17.62 9.6098 18.4 10.3998C18.67 10.6698 19.11 10.6698 19.37 10.3998C19.63 10.1298 19.64 9.6898 19.37 9.4298C18.32 8.3798 16.93 7.7998 15.44 7.7998C13.95 7.7998 12.56 8.3798 11.51 9.4298C10.89 10.0498 10.45 10.7798 10.19 11.5598H9.14996C8.76996 11.5598 8.45996 11.8698 8.45996 12.2498C8.45996 12.6298 8.76996 12.9398 9.14996 12.9398H9.90996C9.88996 13.2098 9.88996 13.4798 9.90996 13.7498H9.14996C8.76996 13.7498 8.45996 14.0598 8.45996 14.4398C8.45996 14.8198 8.76996 15.1298 9.14996 15.1298H10.18C10.44 15.9198 10.88 16.6598 11.51 17.2798C12.56 18.3298 13.95 18.9098 15.44 18.9098C16.93 18.9098 18.32 18.3298 19.37 17.2798C19.64 17.0098 19.64 16.5698 19.37 16.3098C19.1 16.0498 18.66 16.0398 18.4 16.3098C17.61 17.0998 16.56 17.5298 15.45 17.5298C14.34 17.5298 13.29 17.0998 12.5 16.3098C12.15 15.9598 11.89 15.5598 11.69 15.1298H15.52C15.9 15.1298 16.21 14.8198 16.21 14.4398C16.21 14.0598 15.9 13.7498 15.52 13.7498H11.31C11.28 13.4798 11.28 13.2098 11.31 12.9398H15.52C15.9 12.9398 16.21 12.6298 16.21 12.2498C16.21 11.8698 15.9 11.5598 15.52 11.5598H11.7C11.9 11.1398 12.15 10.7498 12.5 10.3998C13.29 9.6098 14.34 9.1798 15.45 9.1798V9.1798Z" fill="#222222"/>
<path id="Vector_4" d="M34.52 14.4999H29.13V6.09991C29.13 5.71991 28.82 5.40991 28.44 5.40991H1.48004C1.10004 5.40991 0.790039 5.71991 0.790039 6.09991V20.8199C0.790039 21.1999 1.10004 21.5099 1.48004 21.5099H6.86004V29.9099C6.86004 30.2899 7.17004 30.5999 7.55004 30.5999H34.52C34.9 30.5999 35.21 30.2899 35.21 29.9099V15.1899C35.21 14.8099 34.9 14.4999 34.52 14.4999V14.4999ZM2.17004 6.78991H27.76V20.1299H2.17004V6.78991ZM33.84 29.2199H8.24004V21.5099H16.06C15.98 21.9599 15.96 22.4099 15.99 22.8599H15.23C14.85 22.8599 14.54 23.1699 14.54 23.5499C14.54 23.9299 14.85 24.2399 15.23 24.2399H16.27C16.54 25.0399 16.98 25.7799 17.59 26.3899C18.67 27.4699 20.1 28.0099 21.52 28.0099C22.94 28.0099 24.37 27.4699 25.45 26.3899C25.72 26.1199 25.72 25.6799 25.45 25.4199C25.18 25.1599 24.74 25.1499 24.48 25.4199C22.85 27.0499 20.2 27.0499 18.57 25.4199C18.23 25.0699 17.96 24.6699 17.76 24.2399H21.6C21.98 24.2399 22.29 23.9299 22.29 23.5499C22.29 23.1699 21.98 22.8599 21.6 22.8599H17.38C17.34 22.4099 17.37 21.9599 17.47 21.5099H28.45C28.83 21.5099 29.14 21.1999 29.14 20.8199V15.8799H33.84V29.2199V29.2199Z" fill="#222222"/>
<path id="Vector_5" d="M27.4302 26.8799C27.0502 26.8799 26.7402 27.1899 26.7402 27.5699C26.7402 27.9499 27.0502 28.2599 27.4302 28.2599H31.2002C31.5802 28.2599 31.8902 27.9499 31.8902 27.5699C31.8902 27.1899 31.5802 26.8799 31.2002 26.8799H27.4302Z" fill="#222222"/>
</g>
</g>
</svg>
