<svg width="36" height="36" viewBox="0 0 36 36" fill="none" xmlns="http://www.w3.org/2000/svg">
<g id="edit file_M 1">
<g id="Group">
<path id="Vector" d="M30.11 0.790009H15.21C15.03 0.790009 14.85 0.860009 14.72 0.990009L5.40001 10.25C5.27001 10.38 5.20001 10.56 5.20001 10.74V34.53C5.20001 34.91 5.51001 35.22 5.89001 35.22H30.11C30.49 35.22 30.8 34.91 30.8 34.53V1.48001C30.8 1.10001 30.49 0.790009 30.11 0.790009ZM15.11 2.55001V10.69H6.91001L15.11 2.54001V2.55001ZM29.42 33.84H6.57001V12.07H15.8C16.18 12.07 16.49 11.76 16.49 11.38V2.17001H29.42V33.84V33.84Z" fill="#222222"/>
<path id="Vector_2" d="M21.95 11.89L11.24 22.6C11.24 22.6 11.23 22.62 11.22 22.63C11.12 22.71 11.04 22.82 11 22.94L9.22001 28.29C9.14001 28.54 9.20001 28.81 9.39001 29C9.52001 29.13 9.70001 29.2 9.88001 29.2C9.95001 29.2 10.03 29.19 10.1 29.16L15.45 27.38C15.58 27.34 15.68 27.26 15.76 27.16C15.77 27.16 15.78 27.15 15.79 27.14L26.5 16.43C27.11 15.82 27.44 15.01 27.44 14.15C27.44 13.29 27.11 12.49 26.5 11.88C25.89 11.27 25.09 10.94 24.23 10.94C23.37 10.94 22.56 11.27 21.96 11.88L21.95 11.89ZM10.96 27.43L11.96 24.44L13.95 26.43L10.96 27.43V27.43ZM25.53 12.87C25.88 13.22 26.07 13.68 26.07 14.17C26.07 14.66 25.88 15.12 25.53 15.47L15.23 25.77L12.63 23.17L22.93 12.87C23.62 12.18 24.83 12.18 25.53 12.87V12.87Z" fill="#222222"/>
</g>
</g>
</svg>
