<svg width="36" height="36" viewBox="0 0 36 36" fill="none" xmlns="http://www.w3.org/2000/svg">
<g id="xls_M 1">
<g id="Group">
<path id="Vector" d="M30.11 0.789993H15.21C15.03 0.789993 14.85 0.859993 14.72 0.989993L5.40001 10.25C5.27001 10.38 5.20001 10.56 5.20001 10.74V34.53C5.20001 34.91 5.51001 35.22 5.89001 35.22H30.11C30.49 35.22 30.8 34.91 30.8 34.53V1.47999C30.8 1.09999 30.49 0.789993 30.11 0.789993ZM15.11 2.54999V10.69H6.91001L15.12 2.53999L15.11 2.54999ZM29.42 33.84H6.57001V12.07H15.8C16.18 12.07 16.49 11.76 16.49 11.38V2.16999H29.42V33.84V33.84Z" fill="#222222"/>
<path id="Vector_2" d="M15.47 25.09H14.17L12.68 27.13L11.19 25.09H9.89L12.03 27.98L9.72 31.11H11.02L12.68 28.81L14.35 31.11H15.64L13.33 27.98L15.47 25.09Z" fill="#222222"/>
<path id="Vector_3" d="M17.59 25.08H16.46V31.11H20.65V30.18H17.59V25.08Z" fill="#222222"/>
<path id="Vector_4" d="M23.65 30.26C22.93 30.26 22.5 29.87 22.47 29.23H21.26C21.26 30.31 21.92 31.19 23.65 31.19C25.14 31.19 26.07 30.38 26.07 29.4C26.07 27.26 22.56 27.84 22.56 26.65C22.56 26.2 22.95 25.96 23.56 25.96C24.27 25.96 24.67 26.38 24.69 27.01H25.89C25.89 25.94 25.2 25 23.56 25C22.2 25 21.35 25.74 21.35 26.65C21.34 28.8 24.8 28.22 24.81 29.42C24.81 29.91 24.39 30.26 23.65 30.26V30.26Z" fill="#222222"/>
</g>
</g>
</svg>
