<svg width="36" height="36" viewBox="0 0 36 36" fill="none" xmlns="http://www.w3.org/2000/svg">
<g id="duplicate_M 1">
<path id="Vector" d="M34.51 0.799988H13.62C13.24 0.799988 12.93 1.10999 12.93 1.48999V6.83999H1.46002C1.08002 6.83999 0.77002 7.14999 0.77002 7.52999V34.48C0.77002 34.73 0.90002 34.95 1.11002 35.08C1.32002 35.2 1.58002 35.2 1.80002 35.08L6.55002 32.36L11.45 35.08C11.66 35.2 11.91 35.2 12.12 35.08L17.01 32.35C18.65 33.2 20.36 34.15 22.01 35.08C22.11 35.14 22.23 35.17 22.35 35.17C22.47 35.17 22.59 35.14 22.7 35.08C22.91 34.96 23.04 34.73 23.04 34.49V28.73L23.62 29.05C23.72 29.11 23.84 29.14 23.95 29.14C24.06 29.14 24.18 29.11 24.29 29.05L29.18 26.32C30.84 27.17 32.54 28.13 34.18 29.05C34.39 29.17 34.65 29.17 34.86 29.05C35.07 28.93 35.2 28.7 35.2 28.46V1.48999C35.2 1.10999 34.89 0.799988 34.51 0.799988ZM21.66 33.31C20.21 32.5 18.74 31.69 17.31 30.96C17.11 30.86 16.86 30.86 16.66 30.97L11.79 33.69L6.88002 30.96C6.78002 30.9 6.66002 30.87 6.55002 30.87C6.44002 30.87 6.31002 30.9 6.21002 30.96L2.16002 33.28V8.21999H21.66V33.31V33.31ZM33.82 27.27C32.38 26.46 30.91 25.65 29.47 24.92C29.26 24.82 29.02 24.82 28.82 24.93L23.95 27.65L23.04 27.14V7.52999C23.04 7.14999 22.73 6.83999 22.35 6.83999H14.31V2.17999H33.82V27.27V27.27Z" fill="#222222"/>
</g>
</svg>
