<svg width="36" height="36" viewBox="0 0 36 36" fill="none" xmlns="http://www.w3.org/2000/svg">
<g id="zip file_M 1">
<g id="Group">
<path id="Vector" d="M14.24 25.61L14.26 25.58V24.68H9.80002V25.76H12.69L9.82002 29.72L9.80002 29.75V30.66H14.36V29.58H11.35L14.24 25.61Z" fill="#222222"/>
<path id="Vector_2" d="M16.33 24.68H15.06V30.67H16.33V24.68Z" fill="#222222"/>
<path id="Vector_3" d="M18.65 28.34H20.05C20.48 28.34 20.86 28.27 21.16 28.12C21.47 27.97 21.71 27.76 21.86 27.48C22.02 27.21 22.1 26.88 22.1 26.5C22.1 25.94 21.92 25.49 21.57 25.16C21.22 24.84 20.71 24.67 20.05 24.67H17.38V30.66H18.65V28.33V28.34ZM18.65 25.72H19.93C20.25 25.72 20.5 25.79 20.65 25.93C20.8 26.07 20.88 26.26 20.88 26.51C20.88 26.76 20.8 26.96 20.65 27.09C20.5 27.23 20.26 27.3 19.93 27.3H18.65V25.72Z" fill="#222222"/>
<path id="Vector_4" d="M30.11 0.789993H15.21C15.03 0.789993 14.85 0.859993 14.72 0.989993L5.40001 10.25C5.27001 10.38 5.20001 10.56 5.20001 10.74V34.53C5.20001 34.91 5.51001 35.22 5.89001 35.22H30.11C30.49 35.22 30.8 34.91 30.8 34.53V1.47999C30.8 1.09999 30.49 0.789993 30.11 0.789993ZM15.11 2.54999V10.69H6.91001L15.12 2.53999L15.11 2.54999ZM29.42 33.84H6.57001V12.07H15.8C16.18 12.07 16.49 11.76 16.49 11.38V2.16999H29.42V33.84V33.84Z" fill="#222222"/>
</g>
</g>
</svg>
