<svg width="36" height="36" viewBox="0 0 36 36" fill="none" xmlns="http://www.w3.org/2000/svg">
<g id="iron_M 1">
<g id="Group">
<path id="Vector" d="M34.52 3.86011H13.59C13.21 3.86011 12.9 4.17011 12.9 4.55011C12.9 4.93011 13.21 5.24011 13.59 5.24011H33.83V9.93011H14.23C6.82001 9.93011 0.790009 15.9701 0.790009 23.3801C0.790009 23.7601 1.10001 24.0701 1.48001 24.0701H34.52C34.9 24.0701 35.21 23.7601 35.21 23.3801V4.55011C35.21 4.17011 34.9 3.86011 34.52 3.86011ZM27.74 11.3401V14.5801H14.32V11.3401H27.75H27.74ZM33.83 22.6901H2.18001C2.51001 16.7801 7.11001 12.0101 12.94 11.3801V15.2701C12.94 15.6501 13.25 15.9601 13.63 15.9601H28.43C28.81 15.9601 29.12 15.6501 29.12 15.2701V11.3101H33.84V22.6901H33.83Z" fill="#222222"/>
<path id="Vector_2" d="M18.78 31.4501V26.7601C18.78 26.3801 18.47 26.0701 18.09 26.0701C17.71 26.0701 17.4 26.3801 17.4 26.7601V31.4501C17.4 31.8301 17.71 32.1401 18.09 32.1401C18.47 32.1401 18.78 31.8301 18.78 31.4501Z" fill="#222222"/>
<path id="Vector_3" d="M31.14 30.7801C31.32 30.7801 31.49 30.7101 31.63 30.5801C31.77 30.4501 31.83 30.2701 31.83 30.0901C31.83 29.9101 31.76 29.7401 31.63 29.6001L28.31 26.2801C28.04 26.0101 27.61 26.0101 27.34 26.2801C27.21 26.4101 27.14 26.5901 27.14 26.7701C27.14 26.9501 27.21 27.1201 27.34 27.2601L30.66 30.5801C30.79 30.7101 30.97 30.7801 31.15 30.7801H31.14Z" fill="#222222"/>
<path id="Vector_4" d="M5.34001 30.6202L8.66001 27.3002C8.79001 27.1702 8.86001 26.9902 8.86001 26.8102C8.86001 26.6302 8.79001 26.4602 8.66001 26.3202C8.39001 26.0502 7.96001 26.0502 7.69001 26.3202L4.37001 29.6402C4.24001 29.7702 4.17001 29.9502 4.17001 30.1302C4.17001 30.3102 4.24001 30.4802 4.37001 30.6202C4.50001 30.7602 4.68001 30.8202 4.86001 30.8202C5.04001 30.8202 5.21001 30.7502 5.35001 30.6202H5.34001Z" fill="#222222"/>
</g>
</g>
</svg>
