<svg width="36" height="36" viewBox="0 0 36 36" fill="none" xmlns="http://www.w3.org/2000/svg">
<g id="winecooler_M 1">
<g id="Group">
<path id="Vector" d="M34.2 34.8701H1.8C1.43 34.8701 1.12 34.5701 1.12 34.1901V1.80012C1.12 1.43012 1.42 1.12012 1.8 1.12012H34.2C34.57 1.12012 34.88 1.42012 34.88 1.80012V34.2001C34.88 34.5701 34.58 34.8801 34.2 34.8801V34.8701ZM2.48 33.5201H33.53V2.48012H2.48V33.5301V33.5201Z" fill="#222222"/>
<path id="Vector_2" d="M31.53 26.2501H4.41999C4.04999 26.2501 3.73999 25.9501 3.73999 25.5701V4.5301C3.73999 4.1601 4.03999 3.8501 4.41999 3.8501H31.53C31.9 3.8501 32.21 4.1501 32.21 4.5301V25.5801C32.21 25.9501 31.91 26.2601 31.53 26.2601V26.2501ZM5.09999 24.9001H30.85V5.2101H5.09999V24.9001V24.9001Z" fill="#222222"/>
<g id="Group_2">
<path id="Vector_3" d="M15.78 23.7003H8.57999C8.20999 23.7003 7.89999 23.4003 7.89999 23.0203V14.5003C7.89999 12.8903 8.77999 11.4603 10.18 10.7203V6.95026C10.18 6.58026 10.48 6.27026 10.86 6.27026H13.51C13.88 6.27026 14.19 6.57026 14.19 6.95026V10.7203C15.59 11.4603 16.47 12.8903 16.47 14.5003V23.0303C16.47 23.4003 16.17 23.7103 15.79 23.7103L15.78 23.7003ZM9.24999 22.3503H15.1V14.4903C15.1 13.2803 14.37 12.2203 13.25 11.7703C12.99 11.6703 12.82 11.4203 12.82 11.1403V7.62026H11.52V11.1403C11.52 11.4203 11.35 11.6703 11.09 11.7703C9.96999 12.2203 9.23999 13.2803 9.23999 14.4903V22.3503H9.24999Z" fill="#222222"/>
<path id="Vector_4" d="M27.38 23.6102H20.18C19.81 23.6102 19.5 23.3102 19.5 22.9302V14.4002C19.5 12.7902 20.38 11.3602 21.78 10.6202V6.85017C21.78 6.48017 22.08 6.17017 22.46 6.17017H25.11C25.48 6.17017 25.79 6.47017 25.79 6.85017V10.6202C27.19 11.3602 28.07 12.7902 28.07 14.4002V22.9302C28.07 23.3002 27.77 23.6102 27.39 23.6102H27.38ZM20.85 22.2602H26.7V14.4002C26.7 13.1902 25.97 12.1302 24.85 11.6802C24.59 11.5802 24.42 11.3302 24.42 11.0502V7.53017H23.12V11.0502C23.12 11.3302 22.95 11.5802 22.69 11.6802C21.57 12.1302 20.84 13.1902 20.84 14.4002V22.2602H20.85Z" fill="#222222"/>
</g>
<path id="Vector_5" d="M31.48 32.2301H18.38C18.01 32.2301 17.7 31.9301 17.7 31.5501V28.2501C17.7 27.8801 18 27.5701 18.38 27.5701H31.48C31.85 27.5701 32.16 27.8701 32.16 28.2501V31.5501C32.16 31.9201 31.86 32.2301 31.48 32.2301V32.2301ZM19.06 30.8801H30.81V28.9301H19.06V30.8801Z" fill="#222222"/>
</g>
</g>
</svg>
