<svg width="36" height="36" viewBox="0 0 36 36" fill="none" xmlns="http://www.w3.org/2000/svg">
<g id="freezer_M 1">
<g id="Group">
<path id="Vector" d="M34.2 5.08008H1.8C1.43 5.08008 1.12 5.38008 1.12 5.76008V30.2401C1.12 30.6101 1.42 30.9201 1.8 30.9201H34.2C34.57 30.9201 34.88 30.6201 34.88 30.2401V5.76008C34.88 5.39008 34.58 5.08008 34.2 5.08008ZM2.48 6.43008H33.53V8.46008H2.48V6.43008ZM2.48 29.5601V9.82008H33.53V29.5701H2.48V29.5601Z" fill="#222222"/>
<path id="Vector_2" d="M31.8 18.5501C31.54 18.2901 31.11 18.2901 30.85 18.5501L28.06 21.3401H26.72V20.0101L29.46 17.2701C29.72 17.0101 29.72 16.5801 29.46 16.3201C29.2 16.0601 28.77 16.0601 28.51 16.3201L26.07 18.7601L23.5 16.1901C23.24 15.9301 22.81 15.9301 22.55 16.1901C22.29 16.4501 22.29 16.8801 22.55 17.1401L25.38 19.9701V21.3401H24.35L21.46 18.4501C21.2 18.1901 20.77 18.1901 20.51 18.4501C20.25 18.7101 20.25 19.1401 20.51 19.4001L23.05 21.9401L20.38 24.6101C20.12 24.8701 20.12 25.3001 20.38 25.5601C20.51 25.6901 20.68 25.7601 20.86 25.7601C21.04 25.7601 21.21 25.6901 21.34 25.5601L24.23 22.6701H25.39V23.8601L22.52 26.7301C22.26 26.9901 22.26 27.4201 22.52 27.6801C22.78 27.9401 23.21 27.9401 23.47 27.6801L26.04 25.1101L28.74 27.8101C28.87 27.9401 29.04 28.0101 29.22 28.0101C29.4 28.0101 29.57 27.9401 29.7 27.8101C29.96 27.5501 29.96 27.1201 29.7 26.8601L26.75 23.9101V22.6801H27.97L30.76 25.4701C30.89 25.6001 31.06 25.6701 31.24 25.6701C31.42 25.6701 31.59 25.6001 31.72 25.4701C31.98 25.2101 31.98 24.7801 31.72 24.5201L29.27 22.0701L31.85 19.4901C32.11 19.2301 32.11 18.8001 31.85 18.5401L31.8 18.5501Z" fill="#222222"/>
</g>
</g>
</svg>
