<svg width="36" height="36" viewBox="0 0 36 36" fill="none" xmlns="http://www.w3.org/2000/svg">
<g id="spotlight_M 1">
<g id="Group">
<path id="Vector" d="M34.2 17.01H31.6V13.43C31.6 13.06 31.3 12.75 30.92 12.75H26.47C26.47 12.75 26.45 12.75 26.44 12.75V3.12995C26.44 2.75995 26.14 2.44995 25.76 2.44995H21.55C21.18 2.44995 20.87 2.74995 20.87 3.12995V12.75H16.51L9.24002 10.09C9.03002 10.01 8.80002 10.04 8.62002 10.17C8.44002 10.3 8.33002 10.5 8.33002 10.72V27.93C8.33002 28.15 8.44002 28.3599 8.62002 28.4799C8.74002 28.5599 8.87002 28.6 9.01002 28.6C9.09002 28.6 9.17002 28.5899 9.24002 28.5599L16.51 25.9H30.91C31.28 25.9 31.59 25.5999 31.59 25.2199V21.6399H34.19C34.56 21.6399 34.87 21.3399 34.87 20.9599V17.68C34.87 17.31 34.57 17 34.19 17L34.2 17.01ZM22.23 3.79995H25.09V18.86C25.09 19.65 24.45 20.29 23.66 20.29C22.87 20.29 22.23 19.65 22.23 18.86V3.79995ZM9.69002 11.69L15.72 13.9V24.75L9.69002 26.9599V11.69ZM30.24 24.5499H17.07V14.1H20.88V18.86C20.88 20.39 22.13 21.6399 23.66 21.6399C25.19 21.6399 26.44 20.39 26.44 18.86V14.1C26.44 14.1 26.46 14.1 26.47 14.1H30.25V24.5499H30.24ZM33.52 20.29H31.59V18.36H33.52V20.29Z" fill="#222222"/>
<path id="Vector_2" d="M2.28 5.33001C2.02 5.07001 1.59 5.07001 1.32 5.33001C1.19 5.46001 1.12 5.64001 1.12 5.81001C1.12 5.98001 1.19 6.16001 1.32 6.29001L6.65 11.62C6.78 11.75 6.96 11.82 7.13 11.82C7.3 11.82 7.48 11.75 7.61 11.62C7.74 11.49 7.81 11.31 7.81 11.14C7.81 10.97 7.74 10.79 7.61 10.66L2.28 5.33001Z" fill="#222222"/>
<path id="Vector_3" d="M6.65 27.07L1.32 32.4C1.19 32.53 1.12 32.71 1.12 32.88C1.12 33.05 1.19 33.23 1.32 33.36C1.45 33.49 1.63 33.56 1.8 33.56C1.97 33.56 2.15 33.49 2.28 33.36L7.61 28.03C7.74 27.9 7.81 27.72 7.81 27.55C7.81 27.38 7.74 27.2 7.61 27.07C7.35 26.81 6.92 26.81 6.65 27.07V27.07Z" fill="#222222"/>
</g>
</g>
</svg>
