<svg width="36" height="36" viewBox="0 0 36 36" fill="none" xmlns="http://www.w3.org/2000/svg">
<g id="fryer_M 1">
<g id="Group">
<path id="Vector" d="M21.52 25.17C22.93 25.17 24.08 24.0201 24.08 22.6101C24.08 21.2001 22.93 20.05 21.52 20.05C20.11 20.05 18.96 21.2001 18.96 22.6101C18.96 24.0201 20.11 25.17 21.52 25.17ZM21.52 21.43C22.17 21.43 22.7 21.9601 22.7 22.6101C22.7 23.2601 22.17 23.7901 21.52 23.7901C20.87 23.7901 20.34 23.2601 20.34 22.6101C20.34 21.9601 20.87 21.43 21.52 21.43Z" fill="#222222"/>
<path id="Vector_2" d="M34.52 5.81006H4.01998C3.63998 5.81006 3.32998 6.12006 3.32998 6.50006V11.8901H1.47998C1.09998 11.8901 0.789978 12.2001 0.789978 12.5801V27.4601C0.789978 27.8401 1.09998 28.1501 1.47998 28.1501H3.42998V29.5001C3.42998 29.8801 3.73998 30.1901 4.11998 30.1901C4.49998 30.1901 4.80998 29.8801 4.80998 29.5001V28.1501H25.02V29.5001C25.02 29.8801 25.33 30.1901 25.71 30.1901C26.09 30.1901 26.4 29.8801 26.4 29.5001V28.1501H28.37C28.75 28.1501 29.06 27.8401 29.06 27.4601V12.5801C29.06 12.2001 28.75 11.8901 28.37 11.8901H25.04V7.19006H33.83V7.87006C33.83 8.98006 32.93 9.88006 31.82 9.88006C31.44 9.88006 31.13 10.1901 31.13 10.5701C31.13 10.9501 31.44 11.2601 31.82 11.2601C33.69 11.2601 35.21 9.74006 35.21 7.87006V6.50006C35.21 6.12006 34.9 5.81006 34.52 5.81006V5.81006ZM4.70998 10.2701H7.37998V11.8501H4.70998V10.2701ZM8.75998 10.2701H11.46V11.8501H8.75998V10.2701V10.2701ZM15.56 8.89006H12.84V7.19006H15.56V8.89006ZM16.94 7.19006H19.58V8.89006H16.94V7.19006ZM12.84 11.8601V10.2801H15.56V11.8601H12.84ZM11.46 8.89006H8.75998V7.19006H11.46V8.89006ZM16.94 11.8601V10.2801H19.58V11.8601H16.94ZM20.96 10.2801H23.66V11.8601H20.96V10.2801ZM23.66 8.90006H20.96V7.20006H23.66V8.90006ZM7.37998 7.19006V8.89006H4.70998V7.19006H7.37998ZM27.68 26.7701H2.16998V13.2701H27.68V26.7701Z" fill="#222222"/>
</g>
</g>
</svg>
