<svg width="36" height="36" viewBox="0 0 36 36" fill="none" xmlns="http://www.w3.org/2000/svg">
<g id="electric stove_M 1">
<g id="Group">
<path id="Vector" d="M22.08 27.0601C21.5 27.0601 21.03 27.5301 21.03 28.1101C21.03 28.6901 21.5 29.1601 22.08 29.1601C22.66 29.1601 23.13 28.6901 23.13 28.1101C23.13 27.5301 22.66 27.0601 22.08 27.0601Z" fill="#222222"/>
<path id="Vector_2" d="M26.19 27.0601C25.61 27.0601 25.14 27.5301 25.14 28.1101C25.14 28.6901 25.61 29.1601 26.19 29.1601C26.77 29.1601 27.24 28.6901 27.24 28.1101C27.24 27.5301 26.77 27.0601 26.19 27.0601Z" fill="#222222"/>
<path id="Vector_3" d="M10.97 17C7.61002 17 4.89001 19.72 4.89001 23.08C4.89001 26.44 7.61002 29.16 10.97 29.16C14.33 29.16 17.05 26.44 17.05 23.08C17.05 19.72 14.33 17 10.97 17ZM10.97 27.77C8.38002 27.77 6.27001 25.66 6.27001 23.07C6.27001 20.48 8.38002 18.37 10.97 18.37C13.56 18.37 15.67 20.48 15.67 23.07C15.67 25.66 13.56 27.77 10.97 27.77V27.77Z" fill="#222222"/>
<path id="Vector_4" d="M24.19 8.90015C20.29 8.90015 17.12 12.0601 17.12 15.9701C17.12 19.8801 20.28 23.0401 24.19 23.0401C28.1 23.0401 31.26 19.8801 31.26 15.9701C31.26 12.0601 28.1 8.90015 24.19 8.90015V8.90015ZM24.19 21.6601C21.05 21.6601 18.5 19.1101 18.5 15.9701C18.5 12.8301 21.05 10.2801 24.19 10.2801C27.33 10.2801 29.88 12.8301 29.88 15.9701C29.88 19.1101 27.33 21.6601 24.19 21.6601Z" fill="#222222"/>
<path id="Vector_5" d="M10.97 14.92C13.76 14.92 16.03 12.66 16.03 9.86005C16.03 7.06005 13.77 4.80005 10.97 4.80005C8.16997 4.80005 5.90997 7.06005 5.90997 9.86005C5.90997 12.66 8.16997 14.92 10.97 14.92V14.92ZM10.97 6.19005C13 6.19005 14.65 7.84005 14.65 9.87005C14.65 11.9 13 13.55 10.97 13.55C8.93997 13.55 7.28997 11.9 7.28997 9.87005C7.28997 7.84005 8.93997 6.19005 10.97 6.19005Z" fill="#222222"/>
<path id="Vector_6" d="M0.809998 1.48004V34.52C0.809998 34.9 1.12 35.21 1.5 35.21H34.5C34.88 35.21 35.19 34.9 35.19 34.52V1.48004C35.19 1.10004 34.88 0.790039 34.5 0.790039H1.5C1.12 0.790039 0.809998 1.10004 0.809998 1.48004ZM2.19 2.17004H33.82V33.84H2.19V2.17004Z" fill="#222222"/>
</g>
</g>
</svg>
