<svg width="36" height="36" viewBox="0 0 36 36" fill="none" xmlns="http://www.w3.org/2000/svg">
<g id="settings_M 1">
<g id="Group">
<path id="Vector" d="M12.1101 12.47C9.0701 12.47 6.6001 14.94 6.6001 17.98C6.6001 21.02 9.0701 23.49 12.1101 23.49C15.1501 23.49 17.6201 21.02 17.6201 17.98C17.6201 14.94 15.1501 12.47 12.1101 12.47V12.47ZM12.1101 22.21C9.7801 22.21 7.8801 20.31 7.8801 17.98C7.8801 15.65 9.7801 13.75 12.1101 13.75C14.4401 13.75 16.3401 15.65 16.3401 17.98C16.3401 20.31 14.4401 22.21 12.1101 22.21Z" fill="#222222"/>
<path id="Vector_2" d="M34.9801 19.32C35.2301 19.07 35.2901 18.68 35.1101 18.37L33.7401 15.97C33.5701 15.67 33.1901 15.51 32.8601 15.6L30.7101 16.17L29.9401 15.68L29.3801 13.57C29.2901 13.23 28.9801 12.99 28.6201 12.99H25.6601C25.2801 13 24.9601 13.27 24.8901 13.64L24.5701 15.38L23.3601 16.1L22.4301 15.84L23.1201 15.16C23.4501 14.83 23.5201 14.32 23.2901 13.92L21.3601 10.55C21.1301 10.15 20.6401 9.95001 20.2101 10.07L17.1501 10.88L16.0101 10.16L15.2201 7.16001C15.1001 6.71001 14.6901 6.39001 14.2201 6.39001H10.0501C9.56007 6.41001 9.13007 6.76001 9.04007 7.25001L8.59007 9.72002L6.84007 10.76L4.04007 9.98001C3.60007 9.86001 3.11007 10.06 2.88007 10.45L0.920066 13.81C0.690066 14.21 0.750066 14.72 1.08007 15.05L3.14007 17.12V19.05L1.38007 20.81C1.05007 21.14 0.990066 21.64 1.22007 22.05L3.15007 25.42C3.38007 25.82 3.86007 26.02 4.30007 25.9L6.75007 25.25L8.59007 26.15L9.29007 28.8C9.41007 29.25 9.81007 29.56 10.2801 29.57H14.1701C14.6301 29.58 15.0401 29.27 15.1601 28.82L15.9601 25.83L17.0001 25.19L19.7901 25.96C19.9701 26.01 20.1501 25.99 20.3301 25.95L20.6901 26.59C20.8601 26.89 21.2401 27.05 21.5701 26.96L23.2901 26.5L24.5601 27.12L25.0501 28.98C25.1401 29.32 25.4501 29.56 25.8001 29.56H28.5601C28.9101 29.57 29.2201 29.33 29.3201 28.99L29.8801 26.89L30.5801 26.46L32.5401 27C32.8701 27.09 33.2501 26.94 33.4301 26.64L34.8201 24.25C35.0001 23.94 34.9501 23.55 34.7001 23.3L33.2601 21.85L33.2801 20.94L34.9601 19.29L34.9801 19.32ZM16.8201 23.91L14.9201 25.07L14.0401 28.39H10.4401L9.64007 25.33L6.90007 23.98L4.15007 24.71L2.36007 21.58L4.37007 19.56V16.63L2.06007 14.3L3.87007 11.19L7.03007 12.07L9.70007 10.49L10.2201 7.62001H14.1001L14.9701 10.93L16.9601 12.18L20.3901 11.27L22.1801 14.4L19.5401 16.99L19.4901 19.34L21.8001 21.67L19.9901 24.78L16.8301 23.9L16.8201 23.91ZM33.9301 23.91L32.6801 26.06L30.4501 25.44L29.0601 26.29L28.4401 28.63H25.9601L25.3901 26.47L23.4001 25.49L21.4601 26L21.0701 25.31L22.9101 22.15C23.1401 21.75 23.0801 21.24 22.7501 20.91L20.7001 18.85L20.7301 17.51L21.6301 16.62L23.4901 17.14L25.4301 15.99L25.8001 13.97H28.4701L29.0901 16.3L30.5401 17.21L32.9601 16.57L34.1901 18.72L32.3301 20.55L32.2901 22.26L33.9201 23.9L33.9301 23.91Z" fill="#222222"/>
<path id="Vector_3" d="M27.1101 17.3101C24.9201 17.3101 23.1401 19.0901 23.1401 21.2801C23.1401 23.4701 24.9201 25.2501 27.1101 25.2501C29.3001 25.2501 31.0801 23.4701 31.0801 21.2801C31.0801 19.0901 29.3001 17.3101 27.1101 17.3101ZM27.1101 24.2401C25.4801 24.2401 24.1501 22.9101 24.1501 21.2801C24.1501 19.6501 25.4801 18.3201 27.1101 18.3201C28.7401 18.3201 30.0701 19.6501 30.0701 21.2801C30.0701 22.9101 28.7401 24.2401 27.1101 24.2401Z" fill="#222222"/>
</g>
</g>
</svg>
