<svg width="36" height="36" viewBox="0 0 36 36" fill="none" xmlns="http://www.w3.org/2000/svg">
<g id="gear_M 1">
<g id="Group">
<path id="Vector" d="M18 9.96008C13.56 9.96008 9.96997 13.5601 9.96997 17.9901C9.96997 22.4201 13.57 26.0201 18 26.0201C22.43 26.0201 26.03 22.4201 26.03 17.9901C26.03 13.5601 22.43 9.96008 18 9.96008V9.96008ZM18 24.6501C14.33 24.6501 11.34 21.6601 11.34 17.9901C11.34 14.3201 14.33 11.3301 18 11.3301C21.67 11.3301 24.66 14.3201 24.66 17.9901C24.66 21.6601 21.67 24.6501 18 24.6501Z" fill="#222222"/>
<path id="Vector_2" d="M34.41 13.55C34.82 13.14 34.91 12.51 34.62 12.01L31.71 6.93005C31.48 6.53005 31.05 6.29005 30.6 6.29005C30.49 6.29005 30.38 6.30005 30.27 6.33005L25.54 7.58005L23.63 6.37005L22.41 1.75005C22.26 1.19005 21.76 0.800049 21.18 0.800049L14.9 0.820049C14.29 0.820049 13.76 1.26005 13.65 1.87005L12.95 5.72005L10.1 7.41005L5.76999 6.21005C5.65999 6.18005 5.53999 6.16005 5.42999 6.16005C4.97999 6.16005 4.55999 6.39005 4.32999 6.79005L1.37999 11.86C1.08999 12.36 1.16999 12.99 1.57999 13.4L4.75999 16.6V19.73L2.02999 22.46C1.61999 22.87 1.53999 23.49 1.82999 23.99L4.73999 29.07C4.96999 29.47 5.39999 29.71 5.84999 29.71C5.95999 29.71 6.06999 29.7 6.17999 29.67L9.97999 28.67L12.96 30.13L14.04 34.2401C14.19 34.8001 14.69 35.19 15.27 35.19L21.13 35.21C21.71 35.21 22.21 34.82 22.36 34.26L23.59 29.65L25.36 28.57L29.69 29.7701C29.8 29.8001 29.92 29.82 30.03 29.82C30.48 29.82 30.9 29.5901 31.13 29.1901L34.08 24.13C34.37 23.63 34.29 23 33.88 22.59L30.71 19.4L30.76 17.15L34.44 13.53L34.41 13.55ZM32.95 23.5L30 28.56L25.14 27.21L22.47 28.84L21.11 33.94L15.25 33.92L14.02 29.25L10.09 27.32L5.82999 28.4501L2.91999 23.3701L6.01999 20.26V16.07L2.46999 12.49L5.41999 7.43005L10.28 8.78005L14.1 6.52005L14.91 2.09005L21.19 2.07005L22.54 7.18005L25.34 8.95005L30.6 7.56005L33.51 12.64L29.46 16.62L29.39 19.93L32.94 23.5H32.95Z" fill="#222222"/>
</g>
</g>
</svg>
