<svg width="36" height="36" viewBox="0 0 36 36" fill="none" xmlns="http://www.w3.org/2000/svg">
<g id="group_M 1">
<g id="Group">
<path id="Vector" d="M8.36003 20.13C8.36003 18.11 6.77003 16.47 4.78003 16.36C5.42003 9.18 10.9 4.35 18.89 4.01C19.27 3.99 19.57 3.67 19.55 3.29C19.53 2.91 19.22 2.6 18.83 2.63C9.98003 3 3.94003 8.45 3.37003 16.55C1.87003 17.05 0.780029 18.46 0.780029 20.12C0.780029 22.21 2.48003 23.91 4.57003 23.91C6.66003 23.91 8.36003 22.21 8.36003 20.12V20.13ZM4.57003 22.54C3.24003 22.54 2.16003 21.46 2.16003 20.13C2.16003 18.8 3.24003 17.72 4.57003 17.72C5.90003 17.72 6.98003 18.8 6.98003 20.13C6.98003 21.46 5.90003 22.54 4.57003 22.54Z" fill="#222222"/>
<path id="Vector_2" d="M28.7 5.76C28.72 5.62 28.74 5.48 28.74 5.34C28.74 3.25 27.04 1.55 24.95 1.55C22.86 1.55 21.16 3.25 21.16 5.34C21.16 7.43 22.86 9.13 24.95 9.13C26.38 9.13 27.62 8.32 28.26 7.15C34.05 11.31 35.45 18.41 31.78 25.44C31.6 25.78 31.73 26.19 32.07 26.37C32.17 26.42 32.28 26.45 32.39 26.45C32.64 26.45 32.88 26.32 33 26.08C37.09 18.24 35.39 10.3 28.7 5.77V5.76ZM24.96 7.75C23.63 7.75 22.55 6.67 22.55 5.34C22.55 4.01 23.63 2.93 24.96 2.93C26.29 2.93 27.37 4.01 27.37 5.34C27.37 6.67 26.29 7.75 24.96 7.75Z" fill="#222222"/>
<path id="Vector_3" d="M27.5601 25.94C25.4701 25.94 23.7701 27.64 23.7701 29.73C23.7701 30.42 23.9701 31.05 24.2901 31.61C17.9301 34.74 11.0301 32.67 6.53008 26.16C6.31008 25.85 5.89008 25.77 5.57008 25.99C5.26008 26.21 5.18008 26.63 5.40008 26.95C8.79008 31.86 13.4601 34.46 18.3301 34.46C20.6201 34.46 22.9501 33.88 25.2201 32.69C25.8701 33.2 26.6701 33.52 27.5501 33.52C29.6401 33.52 31.3401 31.82 31.3401 29.73C31.3401 27.64 29.6401 25.94 27.5501 25.94H27.5601ZM27.5601 32.14C26.2301 32.14 25.1501 31.06 25.1501 29.73C25.1501 28.4 26.2301 27.32 27.5601 27.32C28.8901 27.32 29.9701 28.4 29.9701 29.73C29.9701 31.06 28.8901 32.14 27.5601 32.14Z" fill="#222222"/>
</g>
</g>
</svg>
