<svg width="36" height="36" viewBox="0 0 36 36" fill="none" xmlns="http://www.w3.org/2000/svg">
<g id="edp file_M 1">
<g id="Group">
<path id="Vector" d="M30.11 0.790009H15.21C15.03 0.790009 14.85 0.860009 14.72 0.990009L5.40001 10.25C5.27001 10.38 5.20001 10.56 5.20001 10.74V34.53C5.20001 34.91 5.51001 35.22 5.89001 35.22H30.11C30.49 35.22 30.8 34.91 30.8 34.53V1.48001C30.8 1.10001 30.49 0.790009 30.11 0.790009ZM15.11 2.55001V10.69H6.91001L15.12 2.54001L15.11 2.55001ZM29.42 33.84H6.58001V12.07H15.8C16.18 12.07 16.49 11.76 16.49 11.38V2.17001H29.42V33.84V33.84Z" fill="#222222"/>
<path id="Vector_2" d="M10.29 31.14H14.61V30.2H11.41V28.59H14.37V27.66H11.41V26.04H14.61V25.11H10.29V31.14Z" fill="#222222"/>
<path id="Vector_3" d="M15.63 31.14H17.62C19.65 31.14 20.85 29.81 20.85 28.12C20.85 26.43 19.64 25.11 17.62 25.11H15.63V31.14ZM16.76 26.04H17.63C18.91 26.04 19.62 26.88 19.62 28.12C19.62 29.36 18.91 30.2 17.63 30.2H16.76V26.04V26.04Z" fill="#222222"/>
<path id="Vector_4" d="M23.02 29.17H24.13C25.7 29.17 26.58 28.25 26.58 27.14C26.58 26.03 25.69 25.11 24.13 25.11H21.89V31.14H23.02V29.17ZM23.02 26.04H24.13C25.03 26.04 25.45 26.5 25.45 27.14C25.45 27.78 25.02 28.24 24.13 28.24H23.02V26.05V26.04Z" fill="#222222"/>
</g>
</g>
</svg>
