<svg width="36" height="36" viewBox="0 0 36 36" fill="none" xmlns="http://www.w3.org/2000/svg">
<g id="drag and drop_M 1">
<g id="Group">
<path id="Vector" d="M14.25 23.66H2.19V2.14999H23.7V14.25C23.7 14.63 24.01 14.94 24.39 14.94C24.77 14.94 25.08 14.63 25.08 14.25V12.31H25.78C26.16 12.31 26.47 12 26.47 11.62C26.47 11.39 26.35 11.2 26.18 11.07C26.07 10.99 25.93 10.93 25.78 10.93H25.08V1.45999C25.08 1.07999 24.77 0.769989 24.39 0.769989H1.5C1.12 0.769989 0.809998 1.07999 0.809998 1.45999V24.35C0.809998 24.73 1.12 25.04 1.5 25.04H10.79V26.02C10.79 26.4 11.1 26.71 11.48 26.71C11.86 26.71 12.17 26.4 12.17 26.02V25.04H14.25C14.63 25.04 14.94 24.73 14.94 24.35C14.94 23.97 14.63 23.66 14.25 23.66V23.66Z" fill="#222222"/>
<path id="Vector_2" d="M25.69 17.7V24.74L5.78999 4.83998C5.51999 4.56998 5.08999 4.56998 4.81999 4.83998C4.54999 5.10998 4.54999 5.53998 4.81999 5.80998L24.72 25.71H17.68C17.3 25.71 16.99 26.02 16.99 26.4C16.99 26.78 17.3 27.09 17.68 27.09H26.38C26.76 27.09 27.07 26.78 27.07 26.4V17.7C27.07 17.32 26.76 17.01 26.38 17.01C26 17.01 25.69 17.32 25.69 17.7V17.7Z" fill="#222222"/>
<path id="Vector_3" d="M11.48 31.15C11.86 31.15 12.17 30.85 12.17 30.46V28.68C12.17 28.3 11.86 27.99 11.48 27.99C11.1 27.99 10.79 28.3 10.79 28.68V30.46C10.79 30.85 11.1 31.15 11.48 31.15Z" fill="#222222"/>
<path id="Vector_4" d="M12.86 33.82H12.17V33.13C12.17 32.75 11.86 32.44 11.48 32.44C11.1 32.44 10.79 32.75 10.79 33.13V34.51C10.79 34.89 11.1 35.2 11.48 35.2H12.86C13.24 35.2 13.55 34.89 13.55 34.51C13.55 34.13 13.24 33.82 12.86 33.82V33.82Z" fill="#222222"/>
<path id="Vector_5" d="M20.6 33.82H17.5C17.12 33.82 16.81 34.13 16.81 34.51C16.81 34.89 17.12 35.2 17.5 35.2H20.6C20.98 35.2 21.29 34.89 21.29 34.51C21.29 34.13 20.98 33.82 20.6 33.82Z" fill="#222222"/>
<path id="Vector_6" d="M28.34 33.82H25.24C24.86 33.82 24.55 34.13 24.55 34.51C24.55 34.89 24.86 35.2 25.24 35.2H28.34C28.72 35.2 29.03 34.89 29.03 34.51C29.03 34.13 28.72 33.82 28.34 33.82Z" fill="#222222"/>
<path id="Vector_7" d="M34.37 32.44C33.99 32.44 33.68 32.75 33.68 33.13V33.82H32.99C32.61 33.82 32.3 34.13 32.3 34.51C32.3 34.89 32.61 35.2 32.99 35.2H34.37C34.75 35.2 35.06 34.89 35.06 34.51V33.13C35.06 32.75 34.75 32.44 34.37 32.44V32.44Z" fill="#222222"/>
<path id="Vector_8" d="M35.06 17.64C35.06 17.26 34.75 16.95 34.37 16.95C33.99 16.95 33.68 17.26 33.68 17.64V20.74C33.68 21.12 33.99 21.43 34.37 21.43C34.75 21.43 35.07 21.12 35.07 20.74C35.07 20.74 35.07 20.74 35.07 20.73V17.65L35.06 17.64Z" fill="#222222"/>
<path id="Vector_9" d="M35.06 25.39C35.06 25.01 34.75 24.7 34.37 24.7C33.99 24.7 33.68 25.01 33.68 25.39V28.49C33.68 28.87 33.99 29.18 34.37 29.18C34.75 29.18 35.07 28.87 35.07 28.49C35.07 28.49 35.07 28.49 35.07 28.48V25.4L35.06 25.39Z" fill="#222222"/>
<path id="Vector_10" d="M32.99 12.31H33.68V12.98V13.02C33.68 13.2 33.76 13.36 33.88 13.49C33.88 13.49 33.89 13.49 33.9 13.5C33.92 13.52 33.94 13.54 33.96 13.56C33.96 13.56 33.96 13.56 33.97 13.57L33.99 13.58H34.02C34.02 13.58 34.04 13.6 34.05 13.61C34.08 13.62 34.1 13.63 34.13 13.64C34.16 13.64 34.18 13.67 34.21 13.67H34.23C34.23 13.67 34.23 13.67 34.25 13.67H34.48C34.48 13.67 34.53 13.64 34.56 13.63C34.59 13.62 34.62 13.61 34.65 13.59C34.7 13.57 34.74 13.54 34.78 13.5C34.8 13.48 34.83 13.46 34.85 13.44C34.89 13.39 34.93 13.34 34.96 13.28C34.96 13.26 34.98 13.25 34.99 13.24C35.02 13.16 35.05 13.07 35.05 12.98V11.6C35.05 11.22 34.74 10.91 34.36 10.91H32.98C32.6 10.91 32.29 11.22 32.29 11.6C32.29 11.98 32.6 12.29 32.98 12.29L32.99 12.31Z" fill="#222222"/>
<path id="Vector_11" d="M30.29 10.93H28.49C28.1 10.93 27.8 11.23 27.8 11.62C27.8 12.01 28.1 12.31 28.49 12.31H30.29C30.67 12.31 30.98 12 30.98 11.62C30.98 11.24 30.67 10.93 30.29 10.93Z" fill="#222222"/>
</g>
</g>
</svg>
