<svg width="36" height="36" viewBox="0 0 36 36" fill="none" xmlns="http://www.w3.org/2000/svg">
<g id="second file info_M 1">
<g id="Group">
<path id="Vector" d="M30.11 0.789993H15.21C15.03 0.789993 14.85 0.859993 14.72 0.989993L5.40001 10.25C5.27001 10.38 5.20001 10.56 5.20001 10.74V34.53C5.20001 34.91 5.51001 35.22 5.89001 35.22H30.11C30.49 35.22 30.8 34.91 30.8 34.53V1.47999C30.8 1.09999 30.49 0.789993 30.11 0.789993ZM15.11 2.54999V10.69H6.91001L15.11 2.53999V2.54999ZM29.42 33.84H6.57001V12.07H15.8C16.18 12.07 16.49 11.76 16.49 11.38V2.16999H29.42V33.84V33.84Z" fill="#222222"/>
<path id="Vector_2" d="M26.6 23.25C27.213 23.25 27.71 22.753 27.71 22.14C27.71 21.527 27.213 21.03 26.6 21.03C25.987 21.03 25.49 21.527 25.49 22.14C25.49 22.753 25.987 23.25 26.6 23.25Z" fill="#222222"/>
<path id="Vector_3" d="M27.5 24.25H25.7V31.15H27.5V24.25Z" fill="#222222"/>
<path id="Vector_4" d="M20.28 11.99V12.95H25.75V11.83H22.31C24.09 10.3 25.63 9.06 25.62 7.8C25.61 6.7 24.86 5.61 23.07 5.61C21.38 5.61 20.46 6.67 20.46 8.03H21.84C21.86 7.25 22.3 6.77 23.07 6.77C23.84 6.77 24.2 7.19 24.2 7.8C24.2 8.85 22.38 10.1 20.29 12L20.28 11.99Z" fill="#222222"/>
</g>
</g>
</svg>
