<svg width="36" height="36" viewBox="0 0 36 36" fill="none" xmlns="http://www.w3.org/2000/svg">
<g id="docs legal statements_M 1">
<g id="Group">
<path id="Vector" d="M34.49 2.85999H30.64V1.51999C30.64 1.13999 30.33 0.829987 29.95 0.829987C29.57 0.829987 29.26 1.13999 29.26 1.51999V2.85999H21.69V1.51999C21.69 1.13999 21.38 0.829987 21 0.829987C20.62 0.829987 20.31 1.13999 20.31 1.51999V2.85999H16.29C15.91 2.85999 15.6 3.16999 15.6 3.54999V8.91999H7.16C6.98 8.91999 6.8 8.98999 6.68 9.11999L0.95 14.81C0.82 14.94 0.75 15.11 0.75 15.3V34.5C0.75 34.88 1.06 35.19 1.44 35.19H20.33C20.71 35.19 21.02 34.88 21.02 34.5V21.03H34.48C34.86 21.03 35.17 20.72 35.17 20.34V3.54999C35.17 3.16999 34.86 2.85999 34.48 2.85999H34.49ZM6.84 10.89V15H2.7L6.84 10.89ZM19.65 33.8H2.12V16.38H7.53C7.91 16.38 8.22 16.07 8.22 15.69V10.29H19.65V33.8ZM33.8 19.64H21.02V9.59999C21.02 9.21999 20.71 8.90999 20.33 8.90999H16.99V4.23999H20.32V6.21999C20.32 6.59999 20.63 6.90999 21.01 6.90999C21.39 6.90999 21.7 6.59999 21.7 6.21999V4.23999H29.27V6.21999C29.27 6.59999 29.58 6.90999 29.96 6.90999C30.34 6.90999 30.65 6.59999 30.65 6.21999V4.23999H33.81V19.65L33.8 19.64Z" fill="#222222"/>
<path id="Vector_2" d="M6.74 23.03C6.47 22.76 6.04 22.76 5.77 23.03C5.5 23.3 5.5 23.73 5.77 24L8.63001 26.86C8.76001 26.99 8.94 27.06 9.12 27.06C9.3 27.06 9.47 26.99 9.61 26.86L16.23 20.24C16.5 19.97 16.5 19.54 16.23 19.27C15.96 19 15.53 19 15.26 19.27L9.12 25.41L6.75 23.04L6.74 23.03Z" fill="#222222"/>
</g>
</g>
</svg>
