<svg width="36" height="36" viewBox="0 0 36 36" fill="none" xmlns="http://www.w3.org/2000/svg">
<g id="other discounts_M 1">
<g id="Group">
<path id="Vector" d="M30.11 0.789993H15.21C15.03 0.789993 14.85 0.859993 14.72 0.989993L5.39995 10.25C5.26995 10.38 5.19995 10.56 5.19995 10.74V34.53C5.19995 34.91 5.50995 35.22 5.88995 35.22H30.11C30.49 35.22 30.7999 34.91 30.7999 34.53V1.47999C30.7999 1.09999 30.49 0.789993 30.11 0.789993ZM15.11 2.54999V10.69H6.90995L15.12 2.53999L15.11 2.54999ZM29.42 33.84H6.56995V12.07H15.8C16.18 12.07 16.49 11.76 16.49 11.38V2.16999H29.42V33.84V33.84Z" fill="#222222"/>
<path id="Vector_2" d="M22.36 20.68C21.27 20.68 20.38 21.57 20.38 22.66C20.38 23.75 21.27 24.64 22.36 24.64C23.45 24.64 24.34 23.75 24.34 22.66C24.34 21.57 23.45 20.68 22.36 20.68ZM22.36 23.25C22.03 23.25 21.76 22.98 21.76 22.65C21.76 22.32 22.03 22.05 22.36 22.05C22.69 22.05 22.96 22.32 22.96 22.65C22.96 22.98 22.69 23.25 22.36 23.25Z" fill="#222222"/>
<path id="Vector_3" d="M13.73 23.94C13.73 24.12 13.8 24.29 13.93 24.43C14.06 24.56 14.24 24.63 14.42 24.63C14.6 24.63 14.77 24.56 14.91 24.43L24.14 15.2C24.27 15.07 24.34 14.89 24.34 14.71C24.34 14.53 24.27 14.36 24.14 14.22C23.87 13.95 23.43 13.95 23.17 14.22L13.94 23.45C13.81 23.58 13.74 23.76 13.74 23.94H13.73Z" fill="#222222"/>
<path id="Vector_4" d="M15.7 14.02C14.61 14.02 13.72 14.91 13.72 16C13.72 17.09 14.61 17.98 15.7 17.98C16.79 17.98 17.68 17.09 17.68 16C17.68 14.91 16.79 14.02 15.7 14.02ZM15.7 16.59C15.37 16.59 15.1 16.32 15.1 15.99C15.1 15.66 15.37 15.39 15.7 15.39C16.03 15.39 16.3 15.66 16.3 15.99C16.3 16.32 16.03 16.59 15.7 16.59V16.59Z" fill="#222222"/>
</g>
</g>
</svg>
