<svg width="36" height="36" viewBox="0 0 36 36" fill="none" xmlns="http://www.w3.org/2000/svg">
<g id="multiple docs_M 1">
<g id="Group">
<path id="Vector" d="M5.54999 23.07C5.16999 23.07 4.85999 23.38 4.85999 23.76C4.85999 24.14 5.16999 24.45 5.54999 24.45H16.28C16.66 24.45 16.97 24.14 16.97 23.76C16.97 23.38 16.66 23.07 16.28 23.07H5.54999Z" fill="#222222"/>
<path id="Vector_2" d="M16.25 26.06H5.53C5.15 26.06 4.84 26.37 4.84 26.75C4.84 27.13 5.15 27.44 5.53 27.44H16.26C16.64 27.44 16.95 27.13 16.95 26.75C16.95 26.37 16.64 26.06 16.26 26.06H16.25Z" fill="#222222"/>
<path id="Vector_3" d="M34.56 0.800003H23.22C23.04 0.800003 22.86 0.870003 22.74 1L17.41 6.29H15.74C15.56 6.29 15.38 6.36 15.26 6.49L9.23999 12.47H7.54999C7.36999 12.47 7.18999 12.54 7.06999 12.67L1.02999 18.65C0.899987 18.78 0.829987 18.96 0.829987 19.14V34.5C0.829987 34.88 1.13999 35.19 1.51999 35.19H20.34C20.72 35.19 21.03 34.88 21.03 34.5V28.96C21.11 28.99 21.19 29.01 21.28 29.01H28.54C28.92 29.01 29.23 28.7 29.23 28.32V21.08H34.57C34.95 21.08 35.26 20.77 35.26 20.39V1.49C35.26 1.11 34.95 0.800003 34.57 0.800003H34.56ZM7.22999 14.43V18.87H2.75999L7.22999 14.43V14.43ZM19.65 33.81H2.19999V20.24H7.91999C8.29999 20.24 8.60999 19.93 8.60999 19.55V13.84H19.66V33.81H19.65ZM27.85 27.63H21.28C21.19 27.63 21.11 27.65 21.03 27.68V13.15C21.03 12.77 20.72 12.46 20.34 12.46H11.18L16.01 7.66H27.85V27.63V27.63ZM33.87 19.7H29.22V6.98C29.22 6.6 28.91 6.29 28.53 6.29H19.35L23.49 2.17H33.86V19.7H33.87Z" fill="#222222"/>
</g>
</g>
</svg>
