<svg width="36" height="36" viewBox="0 0 36 36" fill="none" xmlns="http://www.w3.org/2000/svg">
<g id="move down_M 1">
<path id="Vector" d="M21.36 21.79C21.09 21.52 20.65 21.52 20.39 21.79C20.12 22.06 20.12 22.5 20.39 22.76L26.55 28.92C26.68 29.05 26.85 29.12 27.04 29.12C27.23 29.12 27.4 29.05 27.53 28.92L33.69 22.76C33.96 22.49 33.96 22.05 33.69 21.79C33.42 21.52 32.98 21.52 32.72 21.79L27.75 26.76V1.47999C27.75 1.09999 27.44 0.789993 27.06 0.789993H12.14C11.96 0.789993 11.78 0.859993 11.65 0.989993L2.32 10.25C2.19 10.38 2.12 10.56 2.12 10.74V34.53C2.12 34.91 2.43 35.22 2.81 35.22H27.04C27.42 35.22 27.73 34.91 27.73 34.53C27.73 34.15 27.42 33.84 27.04 33.84H3.5V12.07H12.73C13.11 12.07 13.42 11.76 13.42 11.38V2.16999H26.35V26.78L21.36 21.79ZM3.83 10.69L12.04 2.53999V10.69H3.83Z" fill="#222222"/>
</g>
</svg>
