<svg width="36" height="36" viewBox="0 0 36 36" fill="none" xmlns="http://www.w3.org/2000/svg">
<g id="space_M 1">
<g id="Group">
<path id="Vector" d="M12.91 18C12.91 20.81 15.19 23.09 18 23.09C20.81 23.09 23.09 20.81 23.09 18C23.09 15.19 20.81 12.91 18 12.91C15.19 12.91 12.91 15.19 12.91 18ZM21.72 18C21.72 20.05 20.05 21.71 18.01 21.71C15.97 21.71 14.3 20.04 14.3 18C14.3 15.96 15.97 14.29 18.01 14.29C20.05 14.29 21.72 15.96 21.72 18Z" fill="#222222"/>
<path id="Vector_2" d="M35.2001 18C35.2001 8.52005 27.48 0.800049 18 0.800049C8.52005 0.800049 0.800049 8.52005 0.800049 18C0.800049 27.48 8.52005 35.2001 18 35.2001C19.55 35.2001 21.1 34.9901 22.59 34.5801C22.96 34.4801 23.17 34.1 23.07 33.73C22.97 33.36 22.59 33.15 22.22 33.25C20.85 33.63 19.43 33.82 18 33.82C9.28005 33.82 2.18005 26.72 2.18005 18C2.18005 9.28005 9.28005 2.18005 18 2.18005C26.72 2.18005 33.82 9.28005 33.82 18C33.82 21.45 32.67 24.81 30.59 27.55C30.09 27.33 29.55 27.21 29.01 27.21C26.81 27.21 25.0201 29.0001 25.0201 31.2001C25.0201 31.7201 25.12 32.2301 25.32 32.7201C25.94 34.2201 27.39 35.19 29.01 35.19C31.21 35.19 33 33.4001 33 31.2001C33 30.0901 32.54 29.05 31.74 28.31C33.97 25.34 35.2001 21.71 35.2001 17.99V18ZM29.01 33.82C27.95 33.82 27 33.1801 26.6 32.2001C26.47 31.8801 26.4 31.55 26.4 31.21C26.4 29.77 27.57 28.6 29.01 28.6C29.51 28.6 29.99 28.7401 30.42 29.0201C31.17 29.5101 31.6201 30.32 31.6201 31.21C31.6201 32.65 30.45 33.82 29.01 33.82V33.82Z" fill="#222222"/>
<path id="Vector_3" d="M18 4.1001C16.52 4.1001 15.3 5.2301 15.14 6.6701C9.99005 7.9701 6.30005 12.6401 6.30005 18.0001C6.30005 24.4501 11.55 29.7001 18 29.7001C24.45 29.7001 29.7001 24.4501 29.7001 18.0001C29.7001 14.2901 27.9901 10.8701 25.0201 8.6401C24.7101 8.4101 24.28 8.4701 24.05 8.7801C23.82 9.0901 23.88 9.5201 24.19 9.7501C26.81 11.7201 28.32 14.7301 28.32 18.0001C28.32 23.6901 23.69 28.3201 18 28.3201C12.31 28.3201 7.68005 23.6901 7.68005 18.0001C7.68005 13.3201 10.86 9.2401 15.33 8.0401C15.75 9.1301 16.79 9.8801 18 9.8801C19.49 9.8801 20.72 8.7601 20.87 7.2301C20.88 7.1501 20.89 7.0701 20.89 6.9901C20.89 5.4001 19.59 4.1001 18 4.1001V4.1001ZM19.49 7.1401C19.41 7.9201 18.77 8.5001 18 8.5001C17.23 8.5001 16.58 7.9101 16.51 7.1401L16.49 6.9901C16.49 6.1601 17.17 5.4801 18 5.4801C18.83 5.4801 19.51 6.1601 19.5 7.0401V7.1401H19.49Z" fill="#222222"/>
</g>
</g>
</svg>
