<svg width="36" height="36" viewBox="0 0 36 36" fill="none" xmlns="http://www.w3.org/2000/svg">
<g id="microscope_M 1">
<path id="Vector" d="M30.17 22.14C30.17 17.92 28.98 15.13 26.58 13.6C26.87 13.11 27.04 12.56 27.04 11.98C27.04 11.27 26.81 10.62 26.42 10.08L28.04 8.49C28.58 7.96 28.88 7.25 28.88 6.5C28.88 5.74 28.59 5.03 28.06 4.5L25.2 1.64C24.1 0.540004 22.3 0.530004 21.19 1.62L8.88002 13.72C8.57002 14.03 8.39002 14.45 8.39002 14.89C8.39002 15.33 8.56002 15.75 8.87002 16.06L9.39002 16.58L7.65002 18.33C7.04002 18.94 7.04002 19.94 7.65002 20.55L9.13002 22.06C9.43002 22.37 9.83002 22.53 10.26 22.54C10.68 22.54 11.08 22.37 11.38 22.07L13.13 20.31L13.42 20.6C13.74 20.92 14.16 21.08 14.58 21.08C15 21.08 15.39 20.93 15.71 20.63L21.06 15.48V33.82H7.15002V30.51H12.92C13.3 30.51 13.61 30.2 13.61 29.82C13.61 29.44 13.3 29.13 12.92 29.13H6.46002C6.08002 29.13 5.77002 29.44 5.77002 29.82V34.51C5.77002 34.89 6.08002 35.2 6.46002 35.2H28.64C29.07 35.2 29.47 35.03 29.77 34.73C30.07 34.43 30.24 34.03 30.23 33.6L30.17 22.14V22.14ZM10.41 21.1C10.36 21.15 10.3 21.16 10.26 21.16C10.25 21.16 10.16 21.16 10.11 21.1L8.63002 19.59C8.55002 19.51 8.55002 19.38 8.63002 19.3L10.37 17.55L12.16 19.34L10.4 21.11L10.41 21.1ZM20.57 11.95C20.57 12.55 20.74 13.11 21.03 13.61L14.78 19.63C14.67 19.73 14.51 19.73 14.4 19.63L9.85002 15.08C9.78002 15.01 9.77002 14.93 9.77002 14.89C9.77002 14.85 9.78002 14.77 9.85002 14.7L22.14 2.59C22.71 2.02 23.64 2.03 24.21 2.59L27.07 5.45C27.34 5.72 27.49 6.09 27.49 6.47C27.49 6.86 27.34 7.22 27.06 7.49L25.38 9.15C24.91 8.89 24.38 8.72 23.81 8.72H23.8C22.94 8.72 22.13 9.05 21.52 9.66C20.91 10.27 20.57 11.08 20.56 11.94L20.57 11.95ZM22.49 10.64C22.84 10.29 23.31 10.1 23.8 10.1C24.82 10.1 25.65 10.94 25.65 11.96C25.65 12.46 25.45 12.92 25.1 13.27C24.75 13.62 24.29 13.81 23.79 13.81C23.29 13.81 22.83 13.61 22.48 13.26C22.13 12.91 21.94 12.44 21.94 11.94C21.94 11.44 22.14 10.98 22.49 10.63V10.64ZM28.79 33.76C28.79 33.76 28.71 33.82 28.64 33.82H22.45V14.89C22.87 15.08 23.32 15.19 23.79 15.2H23.8C24.46 15.2 25.09 15 25.63 14.63C27.75 15.86 28.79 18.32 28.79 22.16L28.85 33.62C28.85 33.7 28.81 33.75 28.79 33.77V33.76Z" fill="#222222"/>
</g>
</svg>
