<svg width="36" height="36" viewBox="0 0 36 36" fill="none" xmlns="http://www.w3.org/2000/svg">
<g id="video_M 1">
<g id="Group">
<path id="Vector" d="M34.52 4.09009H1.48004C1.10004 4.09009 0.790039 4.40009 0.790039 4.78009V31.2201C0.790039 31.6001 1.10004 31.9101 1.48004 31.9101H34.52C34.9 31.9101 35.21 31.6001 35.21 31.2201V4.78009C35.21 4.40009 34.9 4.09009 34.52 4.09009ZM33.83 30.5301H2.17004V5.47009H33.84V30.5301H33.83Z" fill="#222222"/>
<path id="Vector_2" d="M14.33 22.9901C14.44 23.0601 14.57 23.0901 14.69 23.0901C14.8 23.0901 14.9 23.0701 15 23.0201L23.81 18.6101C24.04 18.4901 24.19 18.2501 24.19 17.9901C24.19 17.7301 24.04 17.4901 23.81 17.3701L15 12.9601C14.79 12.8501 14.53 12.8601 14.33 12.9901C14.13 13.1201 14 13.3401 14 13.5801V22.3901C14 22.6301 14.12 22.8501 14.33 22.9801V22.9901ZM15.38 14.7101L21.96 18.0001L15.38 21.2901V14.7101Z" fill="#222222"/>
</g>
</g>
</svg>
