<svg width="36" height="36" viewBox="0 0 36 36" fill="none" xmlns="http://www.w3.org/2000/svg">
<g id="microphone_M 1">
<g id="Group">
<path id="Vector" d="M30.8399 18.4C30.8399 18.02 30.5299 17.72 30.1599 17.72C29.7899 17.72 29.4799 18.03 29.4799 18.4C29.4799 24.47 24.6999 29.44 18.6899 29.79V26.64C23.0599 26.29 26.5099 22.63 26.5099 18.17V9.29003C26.5099 4.60003 22.6899 0.780029 17.9999 0.780029C13.3099 0.780029 9.48991 4.60003 9.48991 9.29003V18.16C9.48991 22.62 12.9399 26.28 17.3099 26.63V29.78C11.2999 29.42 6.51991 24.42 6.51991 18.3C6.51991 17.92 6.20991 17.62 5.83991 17.62C5.46991 17.62 5.15991 17.93 5.15991 18.3C5.15991 25.17 10.5499 30.79 17.3099 31.15V33.85H12.5299C12.1499 33.85 11.8499 34.16 11.8499 34.53C11.8499 34.9 12.1599 35.21 12.5299 35.21H23.4599C23.8399 35.21 24.1399 34.9 24.1399 34.53C24.1399 34.16 23.8299 33.85 23.4599 33.85H18.6799V31.15C25.4399 30.79 30.8299 25.22 30.8299 18.39L30.8399 18.4ZM11.2499 20.46H12.9999C13.3799 20.46 13.6799 20.15 13.6799 19.78C13.6799 19.41 13.3699 19.1 12.9999 19.1H10.9299C10.8899 18.8 10.8599 18.49 10.8599 18.17V14.82H12.9999C13.3799 14.82 13.6799 14.51 13.6799 14.14C13.6799 13.77 13.3699 13.46 12.9999 13.46H10.8599V9.30003C10.8599 9.30003 10.8599 9.22003 10.8599 9.18003H12.9899C13.3699 9.18003 13.6699 8.87003 13.6699 8.50003C13.6699 8.13003 13.3599 7.82003 12.9899 7.82003H11.0099C11.6899 4.59003 14.5599 2.16003 17.9999 2.16003C21.4399 2.16003 24.2999 4.59003 24.9899 7.82003H23.0099C22.6299 7.82003 22.3299 8.13003 22.3299 8.50003C22.3299 8.87003 22.6399 9.18003 23.0099 9.18003H25.1399C25.1399 9.18003 25.1399 9.26003 25.1399 9.30003V13.46H22.9999C22.6199 13.46 22.3199 13.77 22.3199 14.14C22.3199 14.51 22.6299 14.82 22.9999 14.82H25.1399V18.17C25.1399 18.49 25.1099 18.79 25.0699 19.1H22.9999C22.6199 19.1 22.3199 19.41 22.3199 19.78C22.3199 20.15 22.6299 20.46 22.9999 20.46H24.7499C23.7899 23.28 21.1299 25.31 17.9899 25.31C14.8499 25.31 12.1899 23.28 11.2299 20.46H11.2499Z" fill="#222222"/>
<path id="Vector_2" d="M18.6798 23.1599V5.10993C18.6798 4.72993 18.3698 4.42993 17.9998 4.42993C17.6298 4.42993 17.3198 4.73993 17.3198 5.10993V23.1599C17.3198 23.5399 17.6298 23.8399 17.9998 23.8399C18.3698 23.8399 18.6798 23.5299 18.6798 23.1599Z" fill="#222222"/>
</g>
</g>
</svg>
