<svg width="36" height="36" viewBox="0 0 36 36" fill="none" xmlns="http://www.w3.org/2000/svg">
<g id="fluxogram_M 1">
<path id="Vector" d="M30.71 26.21C28.46 26.21 26.6 27.87 26.27 30.02H19.27C17.55 30.02 16.14 28.62 16.14 26.89V18.68H26.26C26.59 20.84 28.46 22.49 30.7 22.49C33.18 22.49 35.2 20.47 35.2 17.99C35.2 15.51 33.18 13.49 30.7 13.49C28.45 13.49 26.59 15.15 26.26 17.3H16.14V9.10004C16.14 6.62004 14.12 4.60004 11.64 4.60004H9.73004C9.40004 2.44004 7.53004 0.790039 5.29004 0.790039C2.81004 0.790039 0.790039 2.81004 0.790039 5.29004C0.790039 7.77004 2.81004 9.79004 5.29004 9.79004C7.54004 9.79004 9.40004 8.13004 9.73004 5.98004H11.64C13.36 5.98004 14.76 7.38004 14.76 9.11004V26.9C14.76 29.38 16.78 31.4 19.26 31.4H26.26C26.59 33.56 28.46 35.21 30.7 35.21C33.18 35.21 35.2 33.19 35.2 30.71C35.2 28.23 33.18 26.21 30.7 26.21H30.71ZM30.71 14.88C32.43 14.88 33.83 16.28 33.83 18.01C33.83 19.74 32.43 21.14 30.71 21.14C28.99 21.14 27.59 19.74 27.59 18.01C27.59 16.28 28.99 14.88 30.71 14.88V14.88ZM5.29004 8.41004C3.57004 8.41004 2.16004 7.01004 2.16004 5.28004C2.16004 3.55004 3.56004 2.15004 5.29004 2.15004C7.02004 2.15004 8.42004 3.55004 8.42004 5.28004C8.42004 7.01004 7.02004 8.41004 5.29004 8.41004ZM30.71 33.83C28.99 33.83 27.59 32.43 27.59 30.7C27.59 28.97 28.99 27.57 30.71 27.57C32.43 27.57 33.83 28.97 33.83 30.7C33.83 32.43 32.43 33.83 30.71 33.83V33.83Z" fill="#222222"/>
</g>
</svg>
