<svg width="36" height="36" viewBox="0 0 36 36" fill="none" xmlns="http://www.w3.org/2000/svg">
<g id="stock_M 1">
<path id="Vector" d="M34.52 0.860059H24.23C23.85 0.860059 23.54 1.17006 23.54 1.55006C23.54 1.93006 23.85 2.24006 24.23 2.24006H32.84L15.84 21.9201L10.8 13.8501C10.66 13.6301 10.42 13.5101 10.16 13.5301C9.90004 13.5501 9.68004 13.7101 9.58004 13.9401L2.17004 31.1701L2.21004 1.50006C2.21004 1.12006 1.90004 0.810059 1.52004 0.810059C1.14004 0.810059 0.830039 1.12006 0.830039 1.50006L0.790039 34.5001C0.790039 34.5001 0.790039 34.5401 0.800039 34.5501C0.800039 34.5501 0.800039 34.5701 0.800039 34.5801C0.810039 34.6801 0.840039 34.7701 0.900039 34.8601C0.900039 34.8601 0.900039 34.8801 0.900039 34.8901C0.910039 34.9101 0.930039 34.9201 0.940039 34.9401C0.960039 34.9701 0.980039 35.0001 1.01004 35.0201C1.06004 35.0701 1.11004 35.1001 1.17004 35.1301C1.19004 35.1401 1.22004 35.1501 1.24004 35.1601C1.31004 35.1801 1.38004 35.2001 1.45004 35.2001H34.26C34.64 35.2001 34.95 34.8901 34.95 34.5101C34.95 34.1301 34.64 33.8201 34.26 33.8201H2.53004L10.33 15.7001L15.16 23.4501C15.28 23.6401 15.47 23.7601 15.69 23.7701C15.91 23.7901 16.12 23.7001 16.26 23.5301L33.83 3.21006V11.8301C33.83 12.2101 34.14 12.5201 34.52 12.5201C34.9 12.5201 35.21 12.2101 35.21 11.8301V1.55006C35.21 1.17006 34.9 0.860059 34.52 0.860059V0.860059Z" fill="#222222"/>
</g>
</svg>
